<svg width="400" height="113" viewBox="0 0 400 113" fill="none" xmlns="http://www.w3.org/2000/svg">
<rect width="399.244" height="113" fill="#EBE1D3"/>
<g clip-path="url(#clip0_2001_47)">
<mask id="mask0_2001_47" style="mask-type:luminance" maskUnits="userSpaceOnUse" x="18" y="19" width="369" height="69">
<path d="M386.31 19.0599H18.7199V87.1322H386.31V19.0599Z" fill="white"/>
</mask>
<g mask="url(#mask0_2001_47)">
<path fill-rule="evenodd" clip-rule="evenodd" d="M61.9022 80.2807C65.8035 76.644 67.7541 72.1359 67.7541 66.6802C67.7541 63.1949 66.9127 60.1266 65.2681 57.4367C63.585 54.7846 61.2903 52.6632 58.3451 51.1479C62.8968 47.8519 65.1534 43.3059 65.1534 37.5475C65.1534 32.2815 63.2409 27.887 59.3778 24.4016C55.5913 20.8405 50.9632 19.0599 45.4554 19.0599H18.7199V85.7361H47.5591C53.22 85.7361 58.001 83.9179 61.9022 80.2807ZM29.7737 29.3644H45.4554C47.9033 29.3644 49.9305 30.2358 51.6134 31.9406C53.2962 33.6075 54.0995 35.6532 54.0995 38.1157C54.0995 40.5782 53.2581 42.6997 51.6134 44.4045C49.9305 46.0714 47.9033 46.867 45.4554 46.867H29.7737V29.3644ZM29.7737 56.7546H47.5591C50.1217 56.7546 52.2636 57.6641 53.9848 59.5204C55.7825 61.3008 56.662 63.4982 56.662 66.0744C56.662 68.6503 55.7825 70.8854 53.9848 72.7417C52.2636 74.5225 50.1217 75.3938 47.5591 75.3938H29.7737V56.7546ZM95.8536 37.0494C88.4334 37.0494 82.3137 39.474 77.5708 44.2853C72.8282 49.0587 70.4565 54.9684 70.4565 62.0908C70.4565 69.3266 72.8663 75.3125 77.6855 80.0857C82.505 84.7834 88.816 87.1322 96.6184 87.1322C105.913 87.1322 112.913 83.6847 117.694 76.7519L109.126 71.7891C106.372 75.7291 102.241 77.6991 96.7331 77.6991C92.7553 77.6991 89.3895 76.7519 86.6356 74.8578C83.8818 72.8878 82.1224 70.0842 81.3573 66.4852H119.606C119.874 64.7048 119.988 63.2651 119.988 62.2045C119.988 55.2339 117.694 49.286 113.18 44.3989C108.667 39.5118 102.891 37.0494 95.8536 37.0494ZM81.2426 58.113C81.9312 54.4759 83.5758 51.6348 86.1384 49.5512C88.7013 47.4676 91.9139 46.4068 95.7389 46.4068C99.1429 46.4068 102.088 47.3918 104.574 49.3618C107.137 51.3317 108.782 54.2489 109.47 58.113H81.2426ZM210.385 77.6807C206.407 77.6807 203.041 76.7338 200.287 74.8394C197.534 72.8697 195.774 70.0662 195.009 66.4672H233.258C233.525 64.6868 233.64 63.247 233.64 62.1861C233.64 55.2155 231.383 49.2677 226.832 44.3806C222.356 39.4936 216.581 37.0311 209.544 37.0311C202.123 37.0311 196.004 39.4557 191.261 44.267C186.518 49.0404 184.147 54.9504 184.147 62.0724C184.147 69.3085 186.556 75.2941 191.375 80.0677C196.195 84.7654 202.506 87.1142 210.308 87.1142C219.603 87.1142 226.641 83.6667 231.383 76.7338L222.816 71.771C220.024 75.7111 215.893 77.6807 210.385 77.6807ZM199.828 49.495C202.391 47.4114 205.604 46.3506 209.429 46.3506C212.833 46.3506 215.778 47.3356 218.264 49.3056C220.827 51.2756 222.471 54.1927 223.16 58.0568H194.894C195.621 54.4579 197.266 51.6165 199.828 49.495ZM384.949 62.1861C384.949 55.2155 382.692 49.2677 378.142 44.3806C373.628 39.4936 367.89 37.0311 360.814 37.0311C353.394 37.0311 347.275 39.4557 342.532 44.267C337.789 49.0404 335.418 54.9504 335.418 62.0724C335.418 69.3085 337.827 75.2941 342.646 80.0677C347.466 84.7654 353.776 87.1142 361.58 87.1142C370.875 87.1142 377.91 83.6667 382.655 76.7338L374.088 71.771C371.331 75.7111 367.202 77.6807 361.695 77.6807C357.716 77.6807 354.35 76.7338 351.596 74.8397C348.843 72.8697 347.083 70.0662 346.318 66.4672H384.568C384.833 64.6868 384.949 63.247 384.949 62.1861ZM346.203 58.0946C346.892 54.4579 348.537 51.6165 351.099 49.5329C353.662 47.4492 356.874 46.3885 360.698 46.3885C364.105 46.3885 367.049 47.3735 369.534 49.3435C372.097 51.3135 373.741 54.2305 374.432 58.0946H346.203ZM252.513 51.5145C255.458 49.355 258.939 48.4079 262.878 48.6732V37.4973C255.649 37.4973 250.715 40.4523 248.076 46.3622V38.3686H237.711V85.989H248.076V62.0084C248.076 57.0834 249.568 53.5981 252.513 51.5145ZM151.35 76.7315C148.722 76.8448 146.514 76.8829 144.762 76.8448C143.048 76.7315 141.716 76.2396 140.84 75.4071C139.964 74.5368 139.507 73.0991 139.507 71.1315V48.2772H159.156V71.0937C159.156 77.2988 160.869 81.5748 164.335 83.9206C167.762 86.1908 173.474 86.8718 181.356 85.926V76.6937C178.729 76.807 176.52 76.8448 174.768 76.807C173.055 76.6937 171.722 76.2015 170.846 75.3693C169.932 74.499 169.514 73.061 169.514 71.0937V48.2772H181.394V38.4015H169.514V25.0826L159.194 28.1096V38.3637H139.545V25.0826L129.226 28.1096V38.3637H119.988V48.2394H129.15V71.0556C129.15 77.2611 130.863 81.5367 134.328 83.8828C137.794 86.153 143.467 86.8341 151.35 85.8882V76.7315ZM319.52 19.2296L299.134 52.5677L278.862 19.2296H266.929V85.9059H277.983V38.2854L298.484 71.8888H299.822L320.285 38.3612V85.9059H331.339V19.2296H319.52Z" fill="#171717"/>
</g>
</g>
<defs>
<clipPath id="clip0_2001_47">
<rect width="367.59" height="68.0723" fill="white" transform="translate(18.7199 19.0599)"/>
</clipPath>
</defs>
</svg>
