<svg width="470" height="61" viewBox="0 0 470 61" fill="none" xmlns="http://www.w3.org/2000/svg">
<path fill-rule="evenodd" clip-rule="evenodd" d="M235.266 50.5172C226.454 50.5172 220.832 44.5919 220.832 35.2481C220.832 25.9043 226.53 19.979 235.266 19.979C238.988 19.979 242.407 21.4983 244.078 23.5494V8.35626H252.89V50.0614H244.078V46.9468C242.331 48.9979 238.912 50.5172 235.266 50.5172ZM236.861 43.1485C241.115 43.1485 244.002 39.958 244.002 35.1721C244.002 30.4623 241.039 27.2717 236.861 27.2717C232.683 27.2717 229.72 30.4623 229.72 35.1721C229.644 39.958 232.607 43.1485 236.861 43.1485Z" fill="white"/>
<path d="M387.805 50.0614V8.888H397.301V50.0614H387.805Z" fill="white"/>
<path d="M404.594 20.3588V50.0614H413.406V37.0713C413.406 30.918 415.761 27.4996 419.939 27.4996C422.977 27.4996 425.104 29.6266 425.104 32.9691V50.0614H433.916V31.1459C433.916 24.1571 429.358 19.903 422.749 19.903C418.267 19.903 414.849 21.8022 413.406 23.6253V20.3588H404.594Z" fill="white"/>
<path d="M439.386 35.1721C439.386 44.1361 445.919 50.5172 455.035 50.5172C463.239 50.5172 468.936 45.7313 470 38.8185H460.884C460.428 41.2494 458.225 43.1485 455.035 43.1485C451.16 43.1485 448.274 39.882 448.274 35.1721C448.274 30.3863 451.236 27.2717 455.035 27.2717C458.073 27.2717 460.428 29.0189 460.808 31.8296H469.772C468.785 24.309 463.391 19.903 454.959 19.903C445.843 19.903 439.386 26.2082 439.386 35.1721Z" fill="white"/>
<path d="M350.582 49.1498L345.492 60.7726H354.76L371.32 20.3588H362.053L355.216 38.0588L348.379 20.3588H338.807L350.582 49.1498Z" fill="white"/>
<path fill-rule="evenodd" clip-rule="evenodd" d="M319.208 50.5171C312.979 50.5171 308.877 46.6429 308.877 41.7051C308.877 35.9317 312.827 32.7412 321.791 31.8296L327.336 31.2978V30.842C327.336 28.1073 325.437 26.436 322.475 26.436C319.816 26.436 317.841 27.8794 317.461 30.4622H308.953C309.788 24.309 315.334 19.9789 322.475 19.9789C330.451 19.9789 336.072 24.0811 336.072 32.1335V50.1373H327.336V46.9468C325.969 48.9978 322.778 50.5171 319.208 50.5171ZM327.336 37.3751L322.095 38.0588C318.904 38.4386 317.461 39.4262 317.461 41.3253C317.461 43.0725 318.98 44.136 321.259 44.136C325.057 44.136 327.336 41.0974 327.336 37.3751Z" fill="white"/>
<path d="M256.992 20.3588L268.007 50.0614H276.212L281.909 33.197L287.606 50.0614H295.735L306.75 20.3588H297.558L291.86 38.2108L286.087 20.3588H277.959L272.261 38.2108L266.564 20.3588H256.992Z" fill="white"/>
<path fill-rule="evenodd" clip-rule="evenodd" d="M188.091 41.7052C188.091 46.6429 192.193 50.5172 198.422 50.5172C201.993 50.5172 205.183 48.9979 206.551 46.8708V50.0614H215.363V32.0575C215.363 24.0811 209.665 19.903 201.765 19.903C194.624 19.903 189.079 24.2331 188.243 30.3863H196.675C197.055 27.8794 199.03 26.3601 201.689 26.3601C204.652 26.3601 206.551 28.0313 206.551 30.7661V31.2219L201.005 31.7537C192.041 32.7412 188.091 35.9318 188.091 41.7052ZM201.309 38.0588L206.551 37.3751C206.551 41.0974 204.272 44.1361 200.474 44.1361C198.195 44.1361 196.675 43.0725 196.675 41.3253C196.675 39.4262 198.119 38.4386 201.309 38.0588Z" fill="white"/>
<path fill-rule="evenodd" clip-rule="evenodd" d="M168.872 50.5172C159.148 50.5172 153.147 44.1361 153.147 35.1721C153.147 26.2841 159.604 19.903 168.416 19.903C178.595 19.903 184.749 27.5756 183.305 37.2232H161.883C162.567 41.4013 165.377 43.3764 168.872 43.3764C171.986 43.3764 173.962 41.9331 174.417 40.1099H183.229C182.014 46.415 177.228 50.5172 168.872 50.5172ZM162.187 31.07H174.189C174.038 28.3352 171.834 26.4361 168.492 26.4361C165.225 26.3601 163.098 27.9554 162.187 31.07Z" fill="white"/>
<path d="M138.03 32.8172V50.0614H147.45V8.888H138.03V24.9168H121.165V8.888H111.67V50.0614H121.165V32.8172H138.03Z" fill="white"/>
<path d="M17.7 16.4086V55.6069L26.4361 58.3416L39.5781 39.6541V55.5309L48.3142 58.3416L61.9121 39.4262V55.5309L70.4202 58.6455L88.1962 37.2991L79.0803 33.273L71.5597 42.3129V24.5369L62.8237 21.7262L49.1498 40.6416V24.5369L40.4138 21.8021L27.2717 40.4137V3.11459L18.7635 0L0 22.6378L9.11589 26.7399L17.7 16.4086Z" fill="white"/>
<path d="M66.6979 14.8893C70.5721 14.8893 73.6867 11.7747 73.6867 7.90046C73.6867 4.02621 70.5721 0.911621 66.6979 0.911621C62.8236 0.911621 59.709 4.02621 59.709 7.90046C59.709 11.7747 62.8236 14.8893 66.6979 14.8893Z" fill="white"/>
</svg>
