<svg width="435" height="172" viewBox="0 0 435 172" fill="none" xmlns="http://www.w3.org/2000/svg">
<g clip-path="url(#clip0_2001_39)">
<path d="M195.221 68.9361C194.209 68.8965 193.2 69.075 192.263 69.4595C191.327 69.844 190.484 70.4255 189.793 71.1644C188.327 72.8028 187.567 74.9518 187.677 77.1455C187.571 79.3317 188.33 81.472 189.793 83.1033C190.489 83.8431 191.33 84.4327 192.264 84.8357C193.198 85.2388 194.204 85.4467 195.221 85.4467C196.238 85.4467 197.245 85.2388 198.179 84.8357C199.112 84.4327 199.953 83.8431 200.65 83.1033C202.112 81.472 202.872 79.3317 202.765 77.1455C202.876 74.9518 202.116 72.8028 200.65 71.1644C199.95 70.4363 199.106 69.8621 198.171 69.4784C197.236 69.0947 196.232 68.91 195.221 68.9361Z" fill="white"/>
<path d="M318.036 68.3966C316.261 68.3285 314.521 68.9127 313.148 70.0385C311.831 71.1954 310.993 72.8012 310.798 74.542H325.392C325.175 72.8148 324.341 71.2239 323.042 70.0619C321.633 68.9159 319.853 68.3236 318.036 68.3966Z" fill="white"/>
<path d="M254.067 68.3966C252.291 68.3285 250.552 68.9126 249.179 70.0385C247.85 71.1867 247.01 72.7971 246.829 74.5419H261.399C261.199 72.8095 260.362 71.213 259.049 70.0619C257.651 68.9136 255.877 68.3206 254.067 68.3966Z" fill="white"/>
<path d="M0.141005 0V38.7487H0V53.4553H121.288C124.335 53.3884 127.362 53.9639 130.171 55.1441C132.572 56.152 134.609 57.8654 136.011 60.0566C137.414 62.2479 138.114 64.8131 138.02 67.4114C138.123 70.0089 137.414 72.5741 135.991 74.7511C134.567 76.9282 132.501 78.6093 130.077 79.5614L138.655 91.9225H129.254L121.805 81.2033H113.509V91.9225H0V128.771H0.141005V172H137.973C159.766 172 177.157 169.107 190.145 163.321C196.41 160.648 201.988 156.594 206.46 151.463C210.933 146.333 214.185 140.259 215.972 133.697H217.03C227.229 158.966 251.514 171.593 289.882 171.578H350.162C378.974 171.578 400.321 164.737 414.202 151.054C428.083 137.372 435.023 115.636 435.023 85.8475V0H0.141005ZM173.295 79.5614H150.899C151.264 81.3201 152.29 82.8725 153.766 83.9007C155.421 85.014 157.388 85.5726 159.382 85.4957C160.778 85.52 162.165 85.2812 163.472 84.792C164.738 84.3161 165.891 83.581 166.856 82.6341L171.415 87.5833C169.85 89.215 167.943 90.4816 165.83 91.2926C163.718 92.1035 161.452 92.4388 159.194 92.2744C156.158 92.3482 153.146 91.7053 150.405 90.3979C147.949 89.2011 145.887 87.3295 144.459 85.0031C143.095 82.6123 142.378 79.9085 142.378 77.1572C142.378 74.406 143.095 71.7021 144.459 69.3113C145.803 67.0069 147.765 65.1223 150.123 63.8696C152.592 62.6208 155.322 61.97 158.09 61.97C160.858 61.97 163.587 62.6208 166.057 63.8696C168.359 65.0662 170.268 66.8981 171.556 69.1471C172.93 71.6198 173.619 74.4128 173.553 77.2393C173.553 77.2393 173.412 78.1306 173.295 79.5614ZM209.533 85.1204C208.299 87.364 206.459 89.2169 204.222 90.4683C201.923 91.7399 199.33 92.3869 196.702 92.3447C195.046 92.4357 193.391 92.1637 191.852 91.5478C190.314 90.9318 188.929 89.9869 187.795 88.7795V102.571H179.194V62.345H187.395V65.6757C188.559 64.3541 190.013 63.319 191.643 62.6517C193.274 61.9843 195.038 61.7028 196.796 61.829C199.422 61.7987 202.013 62.445 204.316 63.7054C206.553 64.9569 208.393 66.8097 209.627 69.0533C210.959 71.5376 211.608 74.3297 211.507 77.1455C211.555 79.9299 210.875 82.6785 209.533 85.1204ZM235.572 69.8274L233.645 69.7101C231.551 69.6222 229.506 70.3641 227.958 71.7742C227.213 72.6151 226.645 73.5962 226.286 74.6595C225.927 75.7229 225.784 76.8473 225.866 77.9665V91.9225H217.171V62.345H225.396V66.2621C226.435 64.8039 227.87 63.6727 229.532 63.0018C231.454 62.2473 233.507 61.8806 235.572 61.9228V69.8274ZM269.272 79.5614H246.758C247.124 81.3201 248.15 82.8725 249.626 83.9007C251.285 85.0052 253.249 85.563 255.242 85.4957C256.645 85.5218 258.041 85.283 259.355 84.792C260.596 84.3063 261.723 83.5718 262.669 82.6341L267.369 87.5833C265.803 89.215 263.897 90.4816 261.784 91.2926C259.672 92.1035 257.406 92.4388 255.148 92.2744C252.074 92.3376 249.03 91.6703 246.265 90.3276C243.813 89.1242 241.752 87.2542 240.319 84.9328C238.905 82.5578 238.181 79.8373 238.228 77.0751C238.199 74.3257 238.913 71.6193 240.296 69.241C241.649 66.9356 243.618 65.0515 245.983 63.7993C248.452 62.5504 251.182 61.8997 253.95 61.8997C256.718 61.8997 259.447 62.5504 261.917 63.7993C264.235 65.024 266.153 66.8885 267.439 69.1706C268.82 71.6413 269.518 74.4342 269.46 77.2628C269.46 77.2628 269.366 78.1306 269.272 79.5614ZM299.283 91.9225H272.844V86.7858L287.932 68.9595H273.22V62.345H298.766V67.5287L283.702 85.3315H299.283V91.9225ZM333.241 79.5614H310.845C311.205 81.3164 312.222 82.8683 313.689 83.9007C315.348 85.0052 317.312 85.563 319.305 85.4957C320.709 85.5218 322.104 85.283 323.418 84.792C324.663 84.301 325.797 83.5674 326.755 82.6341L331.455 87.5833C329.89 89.215 327.983 90.4816 325.871 91.2926C323.758 92.1035 321.492 92.4388 319.235 92.2744C316.168 92.3402 313.131 91.6727 310.375 90.3276C307.911 89.1429 305.845 87.2685 304.429 84.9328C303.016 82.5578 302.292 79.8373 302.338 77.0751C302.297 74.3242 303.013 71.6148 304.406 69.241C305.75 66.9365 307.711 65.052 310.07 63.7993C312.539 62.5504 315.268 61.8997 318.036 61.8997C320.805 61.8997 323.534 62.5504 326.003 63.7993C328.251 65.0517 330.107 66.9033 331.361 69.1471C332.714 71.6282 333.402 74.4154 333.359 77.2393C333.359 77.2393 333.359 78.1306 333.241 79.5614ZM369.409 91.9225H360.831V76.3011C360.979 74.4263 360.426 72.5634 359.28 71.0705C358.711 70.4691 358.016 70.0014 357.243 69.7012C356.471 69.401 355.642 69.2759 354.815 69.3348C353.862 69.2886 352.909 69.4421 352.019 69.7854C351.128 70.1288 350.32 70.6544 349.645 71.3285C348.259 73.0351 347.601 75.2169 347.812 77.4035V92.0164H339.234V62.345H347.436V65.8164C348.609 64.5474 350.055 63.5609 351.666 62.9314C353.434 62.2455 355.316 61.9031 357.212 61.9228C358.838 61.8499 360.461 62.1029 361.987 62.6669C363.513 63.2309 364.91 64.0945 366.096 65.2066C367.291 66.5366 368.202 68.0966 368.772 69.7906C369.342 71.4847 369.559 73.2772 369.409 75.058V91.9225ZM393.169 91.9225C391.898 92.2242 390.597 92.3738 389.291 92.3682C386.324 92.5412 383.402 91.5857 381.113 89.6943C380.1 88.6497 379.319 87.4038 378.821 86.0378C378.323 84.6717 378.119 83.2163 378.222 81.7663V69.6162H373.663V63.0018H378.363V55.8244H386.941V63.0018H394.32V69.6162H386.823V81.649C386.773 82.6644 387.109 83.6612 387.763 84.4402C388.122 84.7897 388.549 85.0601 389.019 85.2338C389.489 85.4076 389.99 85.4808 390.489 85.4488C391.739 85.4762 392.963 85.0884 393.968 84.3464L396.318 90.3979C395.371 91.0901 394.303 91.5993 393.169 91.8991V91.9225Z" fill="white"/>
<path d="M158.113 68.3966C156.33 68.327 154.583 68.911 153.202 70.0384C151.884 71.1954 151.046 72.8012 150.852 74.5419H165.446C165.224 72.7971 164.355 71.1985 163.011 70.0611C161.667 68.9236 159.945 68.3298 158.184 68.3966H158.113Z" fill="white"/>
</g>
<defs>
<clipPath id="clip0_2001_39">
<rect width="435" height="172" fill="white"/>
</clipPath>
</defs>
</svg>
