<svg width="450" height="172" viewBox="0 0 450 172" fill="none" xmlns="http://www.w3.org/2000/svg">
<path d="M22.6045 52.5838C13.1837 52.5838 5.65113 49.8905 0 44.4971L6.94675 34.6471C11.2058 39.0418 17.0912 41.4733 23.211 41.3699C25.051 41.4595 26.8911 41.0531 28.5175 40.1852C29.82 39.393 30.4747 38.3874 30.4678 37.1682C30.4678 36.1005 29.7787 35.2257 28.3314 34.5369C26.6361 33.7724 24.8305 33.2557 22.9836 33.0078C20.6335 32.6289 18.311 32.0985 16.0368 31.4097C13.6592 30.714 11.3367 29.8461 9.09005 28.8129C6.88473 27.7659 5.03088 26.1128 3.74215 24.0395C2.26734 21.6906 1.52994 18.9561 1.60575 16.1801C1.60575 11.7029 3.42513 7.88688 7.06391 4.73212C10.7027 1.57737 15.6509 0 21.9153 0C30.2129 0 37.1045 2.36262 42.5902 7.09474L35.4298 16.4832C31.2535 13.0116 25.9745 11.1449 20.5439 11.2207C16.8707 11.2207 15.0306 12.4399 15.0306 14.8852C15.0306 15.8495 15.7405 16.6761 17.167 17.3649C18.8693 18.1364 20.668 18.6599 22.5149 18.9285C24.8443 19.3349 27.1461 19.8791 29.4065 20.5679C31.7704 21.2705 34.0722 22.1452 36.2982 23.1991C38.4828 24.2599 40.3298 25.8924 41.6461 27.9312C43.1071 30.2043 43.8514 32.8631 43.7825 35.5633C43.7825 40.7569 41.9217 44.8897 38.2071 47.9618C34.4926 51.0339 29.2894 52.5769 22.6045 52.5838Z" fill="white"/>
<path d="M87.434 51.6603H50.0952V0.76416H87.434V12.2122H63.2237V20.1473H86.8965V31.5953H63.2237V40.2192H87.434V51.6603Z" fill="white"/>
<path d="M119.735 51.6603H106.6V12.2122H92.3477V0.76416H133.966V12.2122H119.735V51.6603Z" fill="white"/>
<path d="M28.1109 119.66C20.1717 119.66 14.1622 117.704 10.0893 113.784C6.01632 109.865 3.9764 104.651 3.98329 98.1344V67.8268H17.3461V97.6729C17.3461 100.773 18.2627 103.28 20.1028 105.188C21.9429 107.096 24.603 108.053 28.0833 108.053C31.5636 108.053 34.1341 107.096 35.988 105.188C37.8832 103.156 38.8756 100.449 38.7446 97.6729V67.8337H52.0868V98.0587C52.0868 104.623 50.0607 109.865 46.0153 113.784C41.9699 117.704 36.0018 119.667 28.1109 119.66Z" fill="white"/>
<path d="M108.75 118.743H96.076L74.5397 89.2825V118.743H61.4043V67.8329H74.9188L95.5385 95.8468V67.8329H108.75V118.743Z" fill="white"/>
<path d="M131.196 118.743H118.06V67.8329H131.196V118.743Z" fill="white"/>
<path d="M170.754 118.743H154.255L135.076 67.8329H149.968L162.491 104.547L175.088 67.8329H189.981L170.754 118.743Z" fill="white"/>
<path d="M231.228 118.743H193.889V67.8329H231.228V79.281H207.024V87.2229H230.697V98.671H207.024V107.295H231.228V118.743Z" fill="white"/>
<path d="M282.467 118.743H267.395L258.842 101.647H252.123V118.743H239.015V67.8329H264.514C270.027 67.8329 274.355 69.4379 277.498 72.6546C280.641 75.8714 282.219 79.9147 282.233 84.7914C282.233 88.8623 281.226 92.1824 279.214 94.7516C277.402 97.1763 274.921 99.0223 272.074 100.055L282.467 118.743ZM262.571 90.233C264.197 90.2882 265.789 89.7715 267.078 88.7797C268.305 87.8015 268.987 86.2999 268.911 84.7363C268.966 83.2003 268.291 81.7194 267.078 80.7688C265.796 79.7631 264.197 79.2396 262.571 79.281H252.151V90.233H262.571Z" fill="white"/>
<path d="M308.579 119.66C299.165 119.66 291.633 116.959 285.982 111.566L292.928 101.723C297.187 106.111 303.073 108.542 309.193 108.439C311.039 108.535 312.873 108.122 314.499 107.254C315.664 106.696 316.415 105.532 316.449 104.244C316.449 103.176 315.733 102.295 314.306 101.606C312.611 100.841 310.812 100.332 308.965 100.084C306.615 99.7116 304.299 99.1812 302.018 98.4993C299.641 97.8036 297.318 96.9357 295.065 95.9025C292.866 94.8555 291.012 93.2023 289.724 91.1359C288.249 88.7871 287.505 86.0525 287.58 83.2766C287.58 78.7993 289.4 74.9833 293.045 71.8286C296.691 68.6738 301.639 67.0964 307.897 67.0964C316.194 67.0964 323.086 69.4591 328.572 74.1912L321.398 83.5797C317.221 80.1012 311.942 78.2345 306.505 78.3103C302.832 78.3103 300.992 79.5295 300.992 81.9747C300.992 82.946 301.708 83.7725 303.135 84.4544C304.83 85.2259 306.629 85.7563 308.476 86.018C310.805 86.4244 313.107 86.9755 315.367 87.6643C317.731 88.36 320.033 89.2417 322.259 90.2956C324.444 91.3494 326.291 92.9888 327.6 95.0277C329.089 97.2801 329.854 99.932 329.812 102.632C329.812 107.819 327.952 111.952 324.237 115.031C320.522 118.11 315.299 119.653 308.579 119.66Z" fill="white"/>
<path d="M349.205 118.743H336.07V67.8329H349.205V118.743Z" fill="white"/>
<path d="M383.029 118.743H369.935V79.281H355.608V67.8329H397.233V79.281H383.029V118.743Z" fill="white"/>
<path d="M430.678 118.743H417.584V98.2095L398.287 67.8329H413.104L424.179 86.6099L435.096 67.8329H449.988L430.74 98.2095L430.678 118.743Z" fill="white"/>
<path d="M3.76971 160.279L6.04395 160.079C6.11287 160.878 6.37475 161.65 6.80203 162.325C7.26377 162.965 7.89779 163.454 8.6352 163.737C9.50354 164.109 10.4477 164.295 11.3918 164.281C12.2257 164.295 13.0527 164.157 13.8315 163.868C14.4517 163.654 15.0031 163.268 15.4028 162.745C15.7405 162.297 15.9196 161.746 15.9196 161.188C15.9265 160.644 15.7542 160.114 15.4234 159.687C14.9824 159.191 14.4173 158.819 13.7832 158.612C13.3215 158.426 12.2533 158.137 10.5717 157.737C9.35882 157.496 8.18035 157.11 7.05702 156.601C6.26448 156.222 5.59599 155.636 5.10669 154.906C4.67941 154.231 4.45198 153.439 4.46577 152.64C4.46577 151.724 4.74143 150.828 5.25141 150.064C5.80963 149.237 6.60906 148.604 7.53943 148.245C8.60074 147.811 9.73786 147.605 10.8819 147.619C12.1086 147.605 13.3215 147.839 14.4586 148.307C15.4166 148.672 16.2435 149.32 16.8362 150.16C17.3944 151.014 17.7046 152.006 17.7321 153.026L15.4166 153.205C15.3683 152.199 14.9135 151.255 14.1554 150.594C13.2319 149.94 12.1086 149.63 10.9783 149.713C9.85502 149.623 8.73857 149.905 7.79442 150.512C7.17418 150.959 6.80203 151.683 6.79514 152.447C6.77446 153.06 7.02945 153.653 7.4843 154.059C7.94604 154.479 9.15896 154.913 11.1231 155.361C12.5014 155.636 13.8522 156.029 15.1616 156.539C16.0988 156.931 16.912 157.572 17.5116 158.398C18.0216 159.163 18.2835 160.065 18.2697 160.988C18.2697 161.966 17.9802 162.931 17.4358 163.744C16.85 164.625 16.0161 165.321 15.0444 165.741C13.9417 166.223 12.7426 166.458 11.5366 166.43C10.1238 166.485 8.7179 166.251 7.4016 165.741C6.3334 165.293 5.41681 164.543 4.78278 163.571C4.13497 162.593 3.7835 161.45 3.76971 160.279Z" fill="white"/>
<path d="M29.951 161.299L32.1494 161.581C31.9909 162.952 31.3431 164.219 30.3232 165.142C29.3101 166.01 28.0076 166.472 26.6775 166.43C25.0373 166.499 23.4522 165.852 22.322 164.66C21.2193 163.475 20.6749 161.788 20.6749 159.584C20.6404 158.302 20.8747 157.028 21.364 155.843C21.7913 154.824 22.5494 153.977 23.5211 153.439C24.486 152.909 25.5679 152.633 26.6706 152.64C27.9318 152.585 29.1791 152.971 30.1853 153.729C31.1295 154.507 31.7566 155.609 31.9427 156.815L29.7649 157.152C29.6271 156.381 29.2412 155.678 28.6623 155.148C28.1316 154.693 27.4562 154.445 26.7533 154.459C25.6989 154.417 24.6789 154.865 23.9966 155.671C23.2937 156.477 22.9422 157.751 22.9422 159.501C22.9422 161.25 23.2799 162.539 23.9553 163.365C24.6031 164.178 25.5886 164.646 26.6292 164.626C27.4425 164.653 28.2281 164.364 28.8346 163.82C29.4893 163.138 29.889 162.242 29.951 161.299Z" fill="white"/>
<path d="M34.1273 150.491V147.922H36.367V150.491H34.1273ZM34.1273 166.134V152.916H36.367V166.114L34.1273 166.134Z" fill="white"/>
<path d="M48.8616 161.869L51.1703 162.152C50.8739 163.405 50.1572 164.521 49.1441 165.313C48.0415 166.092 46.7183 166.484 45.3675 166.429C43.6446 166.512 41.9768 165.851 40.7708 164.625C39.5717 163.247 38.9652 161.449 39.0755 159.624C39.0755 157.406 39.6475 155.684 40.7915 154.458C41.9355 153.232 43.5619 152.557 45.2435 152.619C46.8768 152.564 48.455 153.218 49.5645 154.416C50.6878 155.622 51.2461 157.316 51.2461 159.486V160.085H41.391C41.391 161.305 41.8183 162.489 42.6178 163.412C43.3276 164.17 44.3338 164.59 45.3744 164.569C46.1187 164.583 46.8423 164.356 47.4419 163.922C48.1104 163.392 48.6066 162.682 48.8616 161.869ZM41.5151 158.253H48.8822C48.8616 157.358 48.5652 156.483 48.0415 155.753C47.373 154.919 46.353 154.444 45.2848 154.465C44.32 154.444 43.3827 154.816 42.6936 155.491C41.9631 156.235 41.5427 157.227 41.5151 158.267V158.253Z" fill="white"/>
<path d="M54.0303 166.134V152.916H56.0427V154.789C56.9593 153.37 58.5581 152.544 60.2466 152.619C60.9978 152.619 61.7421 152.757 62.4381 153.047C63.0308 153.274 63.5477 153.666 63.9336 154.169C64.2782 154.665 64.5125 155.23 64.6228 155.822C64.7192 156.546 64.7606 157.269 64.7468 157.999V166.113H62.5208V158.102C62.5553 157.407 62.4657 156.704 62.2589 156.036C62.0797 155.588 61.7558 155.216 61.3355 154.982C60.8599 154.707 60.3224 154.562 59.7711 154.576C58.8614 154.562 57.9861 154.886 57.3039 155.485C56.6147 156.091 56.2701 157.241 56.2701 158.929V166.141H54.0303V166.134Z" fill="white"/>
<path d="M76.8553 161.299L79.0537 161.581C78.8952 162.952 78.2336 164.219 77.2068 165.142C76.1937 166.01 74.8912 166.472 73.5611 166.43C71.9209 166.499 70.3358 165.852 69.2056 164.66C68.1029 163.475 67.5585 161.788 67.5585 159.584C67.524 158.302 67.7583 157.028 68.2477 155.843C68.6818 154.824 69.4399 153.977 70.4047 153.439C71.3696 152.909 72.4515 152.633 73.5542 152.64C74.8223 152.585 76.0627 152.971 77.0758 153.729C78.02 154.507 78.6402 155.602 78.8263 156.815L76.6554 157.152C76.5107 156.381 76.1248 155.678 75.5528 155.148C75.0221 154.693 74.3398 154.445 73.6438 154.459C72.5894 154.417 71.5694 154.865 70.8871 155.671C70.1773 156.477 69.8189 157.751 69.8258 159.501C69.8258 161.25 70.1704 162.539 70.8458 163.365C71.4936 164.185 72.486 164.653 73.5335 164.626C74.3398 164.653 75.1324 164.364 75.732 163.82C76.3935 163.138 76.7933 162.242 76.8553 161.299Z" fill="white"/>
<path d="M90.0528 161.87L92.3684 162.152C92.0652 163.399 91.3554 164.508 90.3423 165.3C89.2396 166.078 87.9096 166.471 86.5588 166.416C84.8428 166.505 83.175 165.851 81.969 164.632C80.7698 163.254 80.1634 161.456 80.2736 159.631C80.2736 157.413 80.8456 155.691 81.9897 154.465C83.1337 153.239 84.7532 152.564 86.4347 152.626C88.0681 152.571 89.6462 153.225 90.7627 154.424C91.8791 155.629 92.4442 157.317 92.4442 159.493V160.092H82.5823C82.5823 161.312 83.0165 162.496 83.8159 163.419C84.5258 164.184 85.5319 164.604 86.5726 164.577C87.3169 164.59 88.0405 164.363 88.6401 163.929C89.3086 163.399 89.7979 162.682 90.0528 161.87ZM82.6995 158.267H90.0735C90.046 157.365 89.7496 156.497 89.2259 155.767C88.5574 154.933 87.5374 154.458 86.4692 154.479C85.5044 154.458 84.5671 154.83 83.878 155.505C83.1474 156.242 82.7271 157.227 82.6995 158.267Z" fill="white"/>
<path d="M95.8624 166.134V163.585H98.4054V166.134H95.8624Z" fill="white"/>
<path d="M109.811 166.134V147.922H122.988V150.071H112.223V155.671H122.299V157.813H112.223V164.013H123.408V166.162L109.811 166.134Z" fill="white"/>
<path d="M126.503 166.134V152.916H128.515V154.789C129.432 153.37 131.03 152.544 132.719 152.619C133.47 152.619 134.214 152.757 134.91 153.047C135.503 153.281 136.02 153.666 136.413 154.169C136.75 154.665 136.985 155.23 137.102 155.822C137.205 156.546 137.247 157.269 137.226 157.999V166.113H134.986V158.102C135.021 157.407 134.931 156.704 134.724 156.036C134.552 155.581 134.221 155.196 133.801 154.955C133.325 154.679 132.788 154.534 132.236 154.548C131.327 154.534 130.452 154.858 129.769 155.457C129.08 156.064 128.736 157.214 128.736 158.901V166.113L126.503 166.134Z" fill="white"/>
<path d="M145.599 164.129L145.923 166.106C145.365 166.23 144.8 166.299 144.228 166.306C143.573 166.34 142.925 166.209 142.34 165.92C141.919 165.7 141.588 165.342 141.395 164.908C141.161 164.047 141.065 163.158 141.12 162.269V154.693H139.479V152.915H141.12V149.65L143.346 148.307V152.915H145.599V154.658H143.346V162.373C143.318 162.786 143.359 163.199 143.463 163.599C143.539 163.785 143.676 163.936 143.849 164.033C144.083 164.157 144.352 164.212 144.614 164.198C144.945 164.198 145.275 164.177 145.599 164.129Z" fill="white"/>
<path d="M147.811 166.133V152.915H149.824V154.92C150.162 154.203 150.644 153.57 151.25 153.067C151.671 152.771 152.174 152.612 152.684 152.619C153.497 152.633 154.296 152.874 154.986 153.308L154.214 155.374C153.724 155.064 153.152 154.899 152.574 154.885C152.098 154.885 151.629 155.037 151.25 155.326C150.851 155.636 150.561 156.07 150.423 156.552C150.168 157.399 150.044 158.281 150.051 159.163V166.051L147.811 166.133Z" fill="white"/>
<path d="M165.399 161.87L167.715 162.152C167.411 163.399 166.701 164.508 165.688 165.3C164.586 166.078 163.256 166.471 161.905 166.416C160.189 166.505 158.521 165.851 157.315 164.632C156.116 163.254 155.509 161.456 155.62 159.631C155.62 157.413 156.192 155.691 157.336 154.465C158.48 153.239 160.099 152.564 161.781 152.626C163.414 152.571 164.992 153.225 166.109 154.424C167.225 155.629 167.783 157.323 167.783 159.493V160.092H157.928C157.928 161.312 158.363 162.496 159.162 163.419C159.872 164.184 160.878 164.604 161.919 164.577C162.67 164.604 163.407 164.377 164.021 163.936C164.675 163.399 165.158 162.682 165.399 161.87ZM158.052 158.253H165.399C165.371 157.351 165.075 156.483 164.551 155.753C163.883 154.919 162.863 154.444 161.795 154.465C160.83 154.444 159.893 154.809 159.203 155.491C158.48 156.235 158.073 157.227 158.052 158.267V158.253Z" fill="white"/>
<path d="M170.574 171.19V152.916H172.642V154.631C173.069 154.011 173.627 153.501 174.275 153.122C174.951 152.771 175.709 152.592 176.474 152.619C177.535 152.599 178.576 152.902 179.458 153.487C180.34 154.094 181.015 154.948 181.408 155.94C182.304 158.233 182.276 160.789 181.339 163.062C180.478 165.08 178.5 166.396 176.308 166.409C175.612 166.423 174.923 166.258 174.303 165.934C173.738 165.645 173.242 165.238 172.842 164.743V171.169L170.574 171.19ZM172.601 159.611C172.601 161.305 172.938 162.559 173.627 163.372C174.227 164.143 175.151 164.591 176.129 164.591C177.128 164.591 178.073 164.123 178.679 163.33C179.389 162.49 179.747 161.188 179.747 159.425C179.844 158.082 179.478 156.745 178.707 155.643C178.121 154.858 177.204 154.397 176.226 154.39C175.219 154.417 174.289 154.913 173.696 155.726C172.89 156.856 172.504 158.226 172.601 159.611Z" fill="white"/>
<path d="M184.757 166.133V152.915H186.763V154.92C187.094 154.203 187.583 153.576 188.182 153.067C188.603 152.771 189.106 152.612 189.623 152.619C190.436 152.633 191.229 152.867 191.918 153.308L191.153 155.374C190.65 155.099 190.091 154.968 189.519 154.982C189.044 154.982 188.582 155.133 188.203 155.422C187.803 155.732 187.514 156.159 187.369 156.649C187.114 157.496 186.99 158.377 186.997 159.259V166.147L184.757 166.133Z" fill="white"/>
<path d="M202.345 161.87L204.654 162.153C204.357 163.413 203.641 164.529 202.614 165.314C201.511 166.093 200.188 166.485 198.837 166.43C197.121 166.52 195.453 165.865 194.247 164.646C193.048 163.268 192.442 161.471 192.552 159.645C192.552 157.427 193.117 155.705 194.261 154.479C195.412 153.253 197.031 152.578 198.713 152.64C200.346 152.585 201.925 153.239 203.041 154.438C204.157 155.643 204.716 157.338 204.716 159.508V160.107H194.874C194.874 161.326 195.309 162.511 196.108 163.434C196.818 164.198 197.824 164.618 198.865 164.591C199.616 164.612 200.36 164.384 200.967 163.943C201.621 163.406 202.104 162.683 202.345 161.87ZM195.033 158.268H202.407C202.379 157.365 202.083 156.497 201.559 155.767C200.891 154.934 199.871 154.459 198.803 154.479C197.838 154.459 196.901 154.824 196.211 155.506C195.481 156.243 195.06 157.228 195.033 158.268Z" fill="white"/>
<path d="M207.514 166.134V152.916H209.505V154.789C210.415 153.37 212.014 152.544 213.702 152.619C214.453 152.613 215.205 152.757 215.901 153.047C216.493 153.281 217.01 153.666 217.396 154.169C217.741 154.665 217.975 155.23 218.085 155.822C218.189 156.546 218.23 157.269 218.209 157.999V166.113H215.97V158.102C216.004 157.407 215.914 156.704 215.708 156.036C215.535 155.581 215.205 155.196 214.784 154.955C214.316 154.679 213.771 154.534 213.227 154.548C212.317 154.527 211.435 154.851 210.76 155.457C210.063 156.064 209.719 157.214 209.719 158.901V166.113L207.514 166.134Z" fill="white"/>
<path d="M230.759 161.87L233.075 162.152C232.771 163.399 232.061 164.508 231.048 165.3C229.946 166.078 228.616 166.471 227.265 166.416C225.549 166.505 223.881 165.851 222.675 164.632C221.476 163.254 220.869 161.456 220.98 159.631C220.98 157.413 221.552 155.691 222.696 154.465C223.84 153.239 225.459 152.564 227.141 152.626C228.774 152.571 230.352 153.225 231.469 154.424C232.585 155.629 233.15 157.317 233.15 159.493V160.092H223.288C223.288 161.312 223.723 162.496 224.522 163.419C225.232 164.184 226.238 164.604 227.279 164.577C228.023 164.59 228.747 164.363 229.346 163.929C230.015 163.399 230.504 162.682 230.759 161.87ZM223.413 158.253H230.787C230.759 157.351 230.463 156.483 229.939 155.753C229.27 154.919 228.25 154.444 227.182 154.465C226.217 154.444 225.28 154.816 224.591 155.491C223.86 156.235 223.44 157.227 223.413 158.267V158.253Z" fill="white"/>
<path d="M244.584 166.133V164.191C243.674 165.623 242.089 166.471 240.393 166.429C239.642 166.429 238.905 166.285 238.216 165.982C237.623 165.747 237.106 165.362 236.713 164.859C236.369 164.363 236.134 163.798 236.024 163.199C235.921 162.517 235.873 161.821 235.893 161.132V152.915H238.126V160.23C238.099 161.022 238.147 161.807 238.264 162.593C238.381 163.144 238.698 163.64 239.16 163.97C239.649 164.315 240.249 164.494 240.848 164.473C241.51 164.473 242.165 164.294 242.737 163.956C243.295 163.653 243.743 163.164 243.991 162.579C244.273 161.745 244.398 160.871 244.356 159.996V152.915H246.589V166.112L244.584 166.133Z" fill="white"/>
<path d="M250.118 166.133V152.915H252.13V154.92C252.468 154.21 252.957 153.576 253.556 153.067C253.977 152.771 254.48 152.612 254.99 152.619C255.803 152.633 256.603 152.867 257.292 153.308L256.52 155.374C256.031 155.064 255.459 154.899 254.88 154.885C254.404 154.885 253.936 155.037 253.556 155.326C253.157 155.636 252.867 156.07 252.729 156.552C252.474 157.399 252.35 158.281 252.357 159.163V166.051L250.118 166.133Z" fill="white"/>
<path d="M257.747 162.193L259.959 161.842C260.021 162.641 260.393 163.385 260.999 163.909C261.682 164.411 262.529 164.659 263.377 164.597C264.19 164.659 264.997 164.439 265.665 163.971C266.127 163.619 266.402 163.075 266.409 162.497C266.409 162.014 266.168 161.56 265.755 161.305C265.024 160.96 264.259 160.706 263.467 160.547C262.302 160.285 261.158 159.927 260.055 159.473C258.367 158.681 257.65 156.662 258.443 154.982C258.47 154.927 258.498 154.871 258.525 154.816C258.787 154.32 259.166 153.893 259.621 153.563C260.055 153.266 260.538 153.053 261.048 152.915C261.675 152.729 262.323 152.64 262.977 152.647C263.915 152.619 264.852 152.771 265.734 153.094C266.416 153.322 267.023 153.742 267.471 154.307C267.884 154.927 268.153 155.636 268.243 156.373L266.051 156.676C265.989 156.049 265.679 155.478 265.19 155.085C264.604 154.665 263.887 154.465 263.17 154.513C262.398 154.444 261.633 154.623 260.972 155.023C260.558 155.285 260.303 155.726 260.283 156.215C260.283 156.504 260.379 156.779 260.558 157C260.786 157.268 261.082 157.475 261.413 157.592C261.64 157.675 262.295 157.868 263.391 158.164C264.514 158.439 265.624 158.784 266.706 159.204C267.298 159.445 267.808 159.852 268.174 160.375C268.546 160.94 268.732 161.608 268.711 162.29C268.711 163.041 268.477 163.778 268.056 164.398C267.595 165.08 266.94 165.61 266.175 165.92C265.307 166.292 264.363 166.478 263.418 166.464C262.026 166.561 260.648 166.182 259.497 165.396C258.525 164.591 257.905 163.447 257.747 162.193Z" fill="white"/>
<path d="M271.447 166.134V147.922H273.687V154.452C274.659 153.281 276.113 152.613 277.636 152.641C278.518 152.62 279.4 152.82 280.186 153.219C280.868 153.564 281.412 154.121 281.736 154.81C282.088 155.754 282.246 156.767 282.198 157.772V166.134H279.965V157.772C280.041 156.89 279.779 156.016 279.235 155.327C278.683 154.79 277.932 154.514 277.167 154.562C276.505 154.562 275.858 154.741 275.293 155.079C274.734 155.389 274.3 155.871 274.045 156.457C273.763 157.235 273.639 158.068 273.673 158.895V166.114L271.447 166.134Z" fill="white"/>
<path d="M285.671 150.491V147.922H287.904V150.491H285.671ZM285.671 166.134V152.916H287.904V166.114L285.671 166.134Z" fill="white"/>
<path d="M291.364 171.19V152.916H293.431V154.631C293.852 154.011 294.41 153.494 295.058 153.122C295.733 152.771 296.491 152.599 297.256 152.619C298.318 152.599 299.358 152.902 300.24 153.487C301.122 154.087 301.805 154.948 302.191 155.939C302.645 157.028 302.88 158.199 302.88 159.384C302.9 160.637 302.652 161.884 302.149 163.034C301.288 165.046 299.317 166.361 297.125 166.382C296.429 166.396 295.74 166.23 295.12 165.907C294.534 165.638 294.003 165.252 293.583 164.763V171.19H291.364ZM293.39 159.611C293.39 161.305 293.735 162.559 294.424 163.372C295.023 164.143 295.94 164.591 296.919 164.591C297.918 164.591 298.862 164.123 299.475 163.33C300.185 162.49 300.537 161.188 300.537 159.425C300.64 158.082 300.268 156.745 299.496 155.643C298.91 154.865 298.001 154.397 297.022 154.39C296.016 154.417 295.078 154.913 294.493 155.726C293.686 156.856 293.294 158.226 293.39 159.611Z" fill="white"/>
<path d="M306.208 166.134V163.585H308.744V166.134H306.208Z" fill="white"/>
<path d="M321.225 166.134V150.071H315.223V147.922H329.695V150.071H323.665V166.134H321.225Z" fill="white"/>
<path d="M338.124 161.869L340.432 162.152C340.129 163.405 339.405 164.521 338.379 165.313C335.753 167.008 332.321 166.725 330.005 164.625C328.806 163.247 328.2 161.449 328.31 159.624C328.31 157.406 328.882 155.684 330.026 154.458C331.17 153.232 332.796 152.557 334.478 152.619C336.111 152.564 337.689 153.218 338.799 154.416C339.922 155.622 340.48 157.316 340.48 159.486V160.085H330.653C330.653 161.305 331.08 162.489 331.88 163.412C332.59 164.17 333.596 164.59 334.636 164.569C335.381 164.583 336.104 164.356 336.704 163.922C337.372 163.392 337.869 162.682 338.124 161.869ZM330.798 158.267H338.165C338.144 157.371 337.848 156.497 337.324 155.766C336.656 154.933 335.636 154.458 334.567 154.478C333.603 154.458 332.665 154.83 331.976 155.505C331.253 156.242 330.832 157.234 330.798 158.267Z" fill="white"/>
<path d="M351.907 161.299L354.105 161.581C353.947 162.952 353.285 164.219 352.258 165.142C351.245 166.01 349.943 166.472 348.613 166.43C346.972 166.499 345.387 165.852 344.257 164.66C343.161 163.475 342.61 161.788 342.61 159.584C342.576 158.302 342.81 157.028 343.299 155.843C343.726 154.824 344.491 153.977 345.456 153.439C346.421 152.909 347.503 152.633 348.606 152.64C349.867 152.585 351.114 152.971 352.12 153.729C353.065 154.507 353.692 155.609 353.878 156.815L351.7 157.152C351.562 156.381 351.176 155.678 350.597 155.148C350.067 154.693 349.391 154.445 348.695 154.459C347.641 154.417 346.621 154.865 345.939 155.671C345.236 156.477 344.884 157.751 344.884 159.501C344.884 161.25 345.243 162.545 345.959 163.386C346.607 164.178 347.586 164.626 348.613 164.591C349.426 164.619 350.211 164.329 350.818 163.785C351.459 163.11 351.845 162.229 351.907 161.299Z" fill="white"/>
<path d="M356.069 166.134V147.922H358.309V154.452C359.281 153.281 360.742 152.613 362.265 152.641C363.147 152.62 364.022 152.82 364.808 153.219C365.49 153.564 366.035 154.121 366.359 154.81C366.717 155.754 366.875 156.767 366.827 157.772V166.134H364.567V157.772C364.656 156.897 364.408 156.023 363.878 155.327C363.326 154.79 362.575 154.507 361.81 154.562C361.148 154.562 360.501 154.741 359.936 155.079C359.384 155.389 358.943 155.878 358.688 156.457C358.406 157.235 358.282 158.068 358.316 158.895V166.114L356.069 166.134Z" fill="white"/>
<path d="M370.28 166.134V152.916H372.292V154.789C373.209 153.37 374.808 152.544 376.496 152.619C377.247 152.619 377.992 152.757 378.688 153.047C379.28 153.281 379.797 153.666 380.19 154.169C380.528 154.665 380.762 155.23 380.879 155.822C380.982 156.546 381.024 157.269 381.003 157.999V166.113H378.763V158.102C378.798 157.407 378.708 156.704 378.501 156.036C378.329 155.581 377.998 155.196 377.578 154.955C377.103 154.679 376.565 154.534 376.014 154.548C375.104 154.534 374.229 154.858 373.546 155.457C372.857 156.064 372.513 157.214 372.513 158.901V166.113L370.28 166.134Z" fill="white"/>
<path d="M383.656 159.535C383.656 157.09 384.346 155.278 385.724 154.107C386.875 153.122 388.35 152.606 389.859 152.64C391.527 152.578 393.146 153.226 394.311 154.424C395.524 155.767 396.144 157.545 396.041 159.349C396.103 160.727 395.841 162.098 395.276 163.351C394.78 164.316 394.001 165.108 393.05 165.624C392.071 166.162 390.975 166.437 389.859 166.43C388.184 166.499 386.551 165.852 385.379 164.653C384.228 163.468 383.656 161.76 383.656 159.535ZM385.958 159.535C385.958 161.223 386.324 162.483 387.061 163.331C388.391 164.867 390.72 165.025 392.25 163.696C392.381 163.585 392.498 163.461 392.616 163.331C393.353 162.483 393.718 161.195 393.725 159.466C393.822 158.137 393.422 156.821 392.616 155.761C391.272 154.225 388.935 154.073 387.406 155.416C387.281 155.519 387.171 155.637 387.061 155.761C386.324 156.58 385.931 157.848 385.931 159.535H385.958Z" fill="white"/>
<path d="M398.646 166.134V147.922H400.886V166.134H398.646Z" fill="white"/>
<path d="M403.573 159.535C403.573 157.09 404.249 155.278 405.606 154.107C406.757 153.129 408.232 152.606 409.741 152.64C411.409 152.578 413.029 153.226 414.193 154.424C415.399 155.767 416.02 157.545 415.916 159.349C415.978 160.727 415.716 162.098 415.151 163.351C414.655 164.316 413.883 165.108 412.932 165.624C411.953 166.162 410.858 166.437 409.741 166.43C408.067 166.499 406.433 165.852 405.262 164.653C404.138 163.468 403.573 161.76 403.573 159.535ZM405.868 159.535C405.765 160.892 406.158 162.242 406.978 163.331C408.308 164.867 410.637 165.025 412.167 163.696C412.298 163.585 412.415 163.461 412.532 163.331C413.27 162.483 413.635 161.195 413.642 159.466C413.738 158.137 413.339 156.814 412.525 155.761C411.182 154.231 408.852 154.073 407.322 155.416C407.198 155.526 407.088 155.637 406.978 155.761C406.24 156.58 405.868 157.848 405.868 159.535Z" fill="white"/>
<path d="M418.204 167.222L420.375 167.546C420.409 168.118 420.685 168.648 421.133 169.013C421.802 169.461 422.601 169.674 423.407 169.633C424.255 169.688 425.096 169.468 425.812 169.013C426.384 168.586 426.791 167.966 426.95 167.27C427.101 166.327 427.156 165.362 427.115 164.405C426.226 165.514 424.882 166.148 423.462 166.134C421.815 166.216 420.244 165.479 419.245 164.171C418.239 162.814 417.715 161.154 417.756 159.459C417.749 158.261 417.984 157.076 418.445 155.974C418.852 154.975 419.541 154.114 420.43 153.508C421.333 152.915 422.394 152.612 423.476 152.64C424.992 152.619 426.426 153.315 427.336 154.527V152.915H429.403V164.322C429.403 166.375 429.196 167.828 428.776 168.689C428.342 169.557 427.646 170.274 426.784 170.721C425.75 171.265 424.593 171.541 423.421 171.513C422.07 171.575 420.733 171.203 419.61 170.453C418.611 169.695 418.073 168.469 418.204 167.222ZM420.051 159.301C420.051 161.03 420.396 162.29 421.085 163.089C421.719 163.861 422.67 164.295 423.669 164.281C424.662 164.295 425.613 163.861 426.254 163.096C426.95 162.304 427.294 161.064 427.301 159.37C427.398 158.061 427.019 156.766 426.226 155.719C425.592 154.941 424.641 154.486 423.635 154.493C422.649 154.472 421.705 154.906 421.078 155.671C420.313 156.718 419.948 158.006 420.051 159.301Z" fill="white"/>
<path d="M432.725 171.21L432.47 169.109C432.883 169.233 433.317 169.302 433.752 169.308C434.165 169.329 434.572 169.24 434.944 169.061C435.247 168.895 435.502 168.661 435.681 168.372C435.957 167.834 436.184 167.283 436.37 166.712C436.412 166.581 436.481 166.402 436.57 166.161L431.553 152.915H433.965L436.722 160.554C437.08 161.525 437.411 162.544 437.68 163.612C437.935 162.593 438.245 161.594 438.603 160.609L441.408 152.915H443.648L438.624 166.333C438.266 167.352 437.845 168.358 437.37 169.329C437.046 169.97 436.577 170.528 435.991 170.948C435.454 171.313 434.82 171.513 434.172 171.513C433.676 171.492 433.187 171.396 432.725 171.21Z" fill="white"/>
<path d="M444.344 166.134V163.585H446.894V166.134H444.344Z" fill="white"/>
</svg>
