<svg width="480" height="72" viewBox="0 0 480 72" fill="none" xmlns="http://www.w3.org/2000/svg">
<g clip-path="url(#clip0_2001_9)">
<path d="M36.1374 70.6846H2.11981V58.9756H36.3918C40.8858 58.9756 44.871 55.5469 44.871 49.9186C44.871 44.6899 40.8699 41.347 36.3918 41.347H20.1753C8.94028 41.3584 0 32.6555 0 20.4896C0 8.43235 9.32714 0.0265121 20.5621 0.0265121H53.9917V11.9352H20.6681C16.1741 11.9352 12.1889 15.3181 12.1889 20.5068C12.1889 26.1125 16.1953 29.4669 20.6681 29.4669H36.2381C47.4729 29.4669 57.06 38.0384 57.06 50.2387C57.06 62.3131 47.1817 70.6045 36.1374 70.7015" fill="#FD3533"/>
<path d="M123.579 0.0267334L86.79 32.8329L123.298 70.6848H107.384L77.802 40.1015L75.2742 37.6786V70.6848H63.1066V0.0267334H75.2742V28.9928L107.013 0.0267334H123.579Z" fill="#FD3533"/>
<path d="M138.143 58.5701H175.589V70.6848H125.975V0.0267334H174.651V12.1354H138.143V29.6042L172.78 29.5014V41.313H138.143V58.5701Z" fill="#FD3533"/>
<path d="M196.745 58.5701H232.034V70.6848H184.572V0.0267334H196.745V58.5701Z" fill="#FD3533"/>
<path d="M293.592 70.6848L286.475 52.8159H253.618L246.501 70.6848H234.428L262.791 0.0267334H277.492L305.951 70.6848H293.592ZM258.393 40.9072H281.711L270.094 11.6326L258.393 40.9072Z" fill="#FD3533"/>
<path d="M365.735 70.6848H349.836L320.62 40.4043V70.6903H308.431V0.0267334H345.421C356.657 0.0267334 365.083 8.45542 365.083 20.3127C365.083 32.0386 356.752 40.3129 345.702 40.4043H345.421L335.686 40.1987L365.735 70.6848ZM320.62 11.9354V28.9985L344.68 28.8956C349.174 28.8956 352.915 25.8213 352.915 20.3241C352.915 15.0269 349.174 11.9469 344.68 11.9469L320.62 11.9354Z" fill="#FD3533"/>
<path d="M436.961 46.4124H414.513V70.6186H436.961V46.4124Z" fill="#FD3533"/>
<path d="M450.254 32.0719H419.893V64.8096H450.254V32.0719Z" fill="#FD3533"/>
<path d="M464.829 16.3562H426.553V57.6308H464.829V16.3562Z" fill="#FD3533"/>
<path d="M480 0H433.809V49.8064H480V0Z" fill="#FD3533"/>
</g>
<defs>
<clipPath id="clip0_2001_9">
<rect width="480" height="71.1811" fill="white"/>
</clipPath>
</defs>
</svg>
