<svg width="471" height="81" viewBox="0 0 471 81" fill="none" xmlns="http://www.w3.org/2000/svg">
<g clip-path="url(#clip0_2001_113)">
<path d="M227.236 1.69464V11.5846H236.788V1.69464H227.236Z" fill="white"/>
<path fill-rule="evenodd" clip-rule="evenodd" d="M40.4679 0C57.5445 0 66.085 0 72.0161 4.43912C73.7149 5.71226 75.2282 7.22147 76.5012 8.92461C80.9401 14.8561 80.9401 23.3928 80.9401 40.4748C80.9401 57.5568 80.9401 66.0935 76.5012 72.025C75.2282 73.7239 73.7191 75.2374 72.0161 76.5105C66.085 80.9496 57.5445 80.9496 40.4679 80.9496C23.3913 80.9496 14.8509 80.9496 8.91981 76.5105C7.221 75.2374 5.70766 73.7281 4.43461 72.025C0 66.0893 0 57.5483 0 40.4706C0 23.3928 0 14.8519 4.43883 8.92039C5.71188 7.22147 7.221 5.70804 8.92402 4.4349C14.8509 0 23.3913 0 40.4679 0ZM30.1697 16.4412C30.1697 21.0194 30.1697 25.5934 30.1697 30.1717H16.4401C16.4401 41.613 16.4401 53.0586 16.4401 64.5H50.7662C50.7662 59.9218 50.7662 55.3477 50.7662 50.7695H64.4958C64.4915 39.3281 64.4958 27.8825 64.4958 16.4412H30.1697Z" fill="white"/>
<path d="M50.7662 30.1717H30.1697V50.7695H50.7662V30.1717Z" fill="white"/>
<path d="M207.015 63.1046V1.6947H216.647V63.1046H207.015Z" fill="white"/>
<path fill-rule="evenodd" clip-rule="evenodd" d="M164.355 62.6872C167.293 63.973 170.695 64.618 174.56 64.618C178.426 64.618 181.827 63.973 184.766 62.6872C187.704 61.3424 190.182 59.5803 192.193 57.3966C194.208 55.2128 195.73 52.7509 196.767 50.0107C197.8 47.2115 198.318 44.3321 198.318 41.3643V39.6865C198.318 36.7186 197.774 33.8393 196.687 31.0401C195.654 28.2409 194.103 25.7494 192.033 23.5699C189.963 21.3314 187.459 19.5692 184.521 18.2792C181.638 16.9934 178.316 16.3484 174.56 16.3484C170.804 16.3484 167.457 16.9934 164.519 18.2792C161.581 19.565 159.077 21.3314 157.007 23.5699C154.992 25.7536 153.441 28.2451 152.353 31.0401C151.321 33.8393 150.802 36.7186 150.802 39.6865V41.3643C150.802 44.3321 151.321 47.2115 152.353 50.0107C153.386 52.7551 154.912 55.217 156.927 57.3966C158.942 59.5803 161.416 61.3424 164.355 62.6872ZM182.232 54.0409C180.108 55.3857 177.553 56.056 174.56 56.056C171.567 56.056 169.008 55.3857 166.888 54.0409C164.763 52.6413 163.132 50.7653 161.99 48.4171C160.902 46.0648 160.358 43.4342 160.358 40.5254C160.358 37.6166 160.932 34.9017 162.074 32.5493C163.216 30.1969 164.848 28.3505 166.972 27.0099C169.097 25.6103 171.626 24.9105 174.564 24.9105C177.502 24.9105 180.036 25.6103 182.156 27.0099C184.281 28.3547 185.912 30.2012 187.055 32.5493C188.197 34.9017 188.77 37.5575 188.77 40.5254C188.77 43.4932 188.197 46.0648 187.055 48.4171C185.967 50.7653 184.361 52.6413 182.236 54.0409H182.232Z" fill="white"/>
<path d="M113.331 60.5879C116.653 63.1636 121.277 64.4494 127.208 64.4494C130.91 64.4494 134.147 63.8634 136.925 62.6873C139.753 61.4563 141.958 59.7489 143.539 57.5652C145.115 55.3815 145.908 52.8352 145.908 49.9264C145.908 45.8962 144.437 42.7639 141.499 40.5254C138.615 38.2321 134.695 36.8029 129.742 36.2423L125.417 35.8207C122.968 35.5425 121.197 34.9523 120.11 34.0585C119.022 33.1648 118.478 31.9338 118.478 30.3656C118.478 28.6287 119.186 27.2038 120.603 26.0825C122.074 24.9611 124.169 24.4046 126.888 24.4046C129.771 24.4046 131.951 24.9906 133.418 26.1668C134.889 27.3429 135.677 28.7974 135.787 30.5342H144.521C144.411 25.9433 142.751 22.4738 139.543 20.1257C136.331 17.7185 132.115 16.5171 126.888 16.5171C123.516 16.5171 120.519 17.0777 117.909 18.1949C115.35 19.3163 113.336 20.9098 111.869 22.9797C110.397 25.0496 109.664 27.5959 109.664 30.6185C109.664 34.4253 110.971 37.4479 113.584 39.6865C116.253 41.925 119.844 43.2951 124.359 43.801L128.684 44.2226C131.732 44.5598 133.881 45.2301 135.133 46.2377C136.44 47.1904 137.094 48.5057 137.094 50.1835C137.094 52.03 136.221 53.5687 134.48 54.7997C132.739 56.0307 130.345 56.6462 127.297 56.6462C123.705 56.6462 121.121 55.9464 119.541 54.5468C117.964 53.1472 117.117 51.6084 117.011 49.9306H108.197C108.361 54.4625 110.073 58.0163 113.34 60.5921L113.331 60.5879Z" fill="white"/>
<path d="M227.236 17.8576V63.1088H236.788V17.8576H227.236Z" fill="white"/>
<path fill-rule="evenodd" clip-rule="evenodd" d="M266.861 64.618C263.703 64.618 260.82 64.0321 258.207 62.8559C255.648 61.6797 253.388 60.0314 251.432 57.9025C249.527 55.7777 248.056 53.3116 247.023 50.5166C245.99 47.7216 245.472 44.6694 245.472 41.3643V39.7708C245.472 36.5247 245.961 33.5021 246.943 30.7028C247.976 27.8488 249.422 25.3574 251.268 23.2326C253.119 21.1079 255.323 19.4554 257.882 18.2792C260.495 17.0482 263.379 16.4327 266.536 16.4327C269.908 16.4327 272.931 17.1874 275.599 18.7008C278.057 20.0161 280.072 21.989 281.64 24.628V1.6947H291.192V63.1046H283.6V53.8554C283.351 54.4161 283.077 54.9515 282.782 55.4658C281.041 58.598 278.782 60.9209 276.008 62.4343C273.234 63.8887 270.182 64.618 266.865 64.618H266.861ZM268.656 56.1361C271.106 56.1361 273.31 55.5754 275.27 54.4582C277.285 53.3369 278.892 51.7138 280.089 49.5891C281.341 47.4054 281.965 44.8591 281.965 41.9503V38.3417C281.965 35.4876 281.341 33.051 280.089 31.0359C278.837 29.0208 277.205 27.4821 275.19 26.4197C273.175 25.3573 270.971 24.8262 268.576 24.8262C265.908 24.8262 263.543 25.4965 261.473 26.8413C259.458 28.1271 257.882 29.9482 256.74 32.2964C255.597 34.6487 255.024 37.3889 255.024 40.5254C255.024 43.6619 255.597 46.4864 256.74 48.8345C257.937 51.1869 259.568 53.0038 261.638 54.2896C263.708 55.5206 266.047 56.1361 268.656 56.1361Z" fill="white"/>
<path fill-rule="evenodd" clip-rule="evenodd" d="M307.223 79.2676H319.676C325.122 79.2676 330.378 78.787 333.759 77.5476C337.14 76.3081 340.386 74.4111 342.072 70.9964C343.813 67.6407 344.686 63.2184 344.686 57.7338V17.8576H337.094V26.6811C336.963 26.3944 336.828 26.112 336.685 25.8337C335.108 22.7563 332.929 20.4334 330.155 18.8652C327.432 17.2422 324.279 16.4285 320.687 16.4285C317.585 16.4285 314.727 16.9892 312.117 18.1064C309.559 19.2277 307.354 20.8213 305.503 22.8912C303.653 24.9063 302.211 27.2839 301.178 30.0283C300.2 32.7727 299.707 35.7364 299.707 38.9276V40.5212C299.707 43.6534 300.196 46.6213 301.178 49.4205C302.156 52.1607 303.547 54.5974 305.343 56.7221C307.139 58.8468 309.289 60.4993 311.793 61.6755C314.297 62.8517 317.07 63.4377 320.118 63.4377C323.491 63.4377 326.488 62.683 329.097 61.1696C331.765 59.6562 333.886 57.4177 335.462 54.454C335.492 54.3992 335.521 54.3486 335.551 54.2938L335.627 54.1505V58.2313C335.627 61.5912 335.083 64.3019 333.995 66.376C332.963 68.5007 331.099 69.504 329.097 70.0984C326.707 70.8067 319.68 70.9964 319.68 70.9964H307.227V79.2676H307.223ZM329.013 53.1177C327.053 54.18 324.877 54.7112 322.483 54.7112C319.924 54.7112 317.64 54.1252 315.625 52.949C313.664 51.718 312.113 49.9812 310.971 47.7427C309.828 45.4493 309.255 42.7597 309.255 39.6823C309.255 36.6048 309.799 34.029 310.886 31.7905C312.029 29.4972 313.61 27.7308 315.62 26.4998C317.635 25.214 319.945 24.569 322.559 24.569C324.844 24.569 326.968 25.0707 328.928 26.0782C330.889 27.0858 332.465 28.5697 333.662 30.5258C334.914 32.4271 335.538 34.7794 335.538 37.5786V41.0186C335.538 43.8727 334.94 46.3346 333.742 48.4045C332.6 50.4196 331.023 51.9879 329.008 53.105L329.013 53.1177Z" fill="white"/>
<path fill-rule="evenodd" clip-rule="evenodd" d="M382.3 63.1046V54.4119C381.937 55.5923 381.473 56.6715 380.913 57.6495C379.716 59.7784 378.029 61.4268 375.85 62.6029C373.726 63.7201 371.116 64.2808 368.014 64.2808C364.911 64.2808 361.998 63.7201 359.604 62.6029C357.21 61.4268 355.359 59.7489 354.052 57.5652C352.745 55.3267 352.092 52.6666 352.092 49.5891C352.092 46.343 352.826 43.6576 354.297 41.5287C355.823 39.404 357.968 37.8063 360.746 36.7439C363.524 35.6816 366.842 35.1504 370.707 35.1504H380.748V34.3115C380.748 31.5123 380.04 29.3876 378.624 27.9331C377.207 26.4787 375.112 25.7494 372.339 25.7494C370.817 25.7494 369.127 25.7789 367.276 25.8337C365.425 25.8885 363.6 25.9728 361.804 26.0867C360.063 26.1415 358.512 26.2258 357.151 26.3396V17.8619C358.348 17.748 359.655 17.6679 361.071 17.6089C362.542 17.4951 364.039 17.415 365.56 17.356C367.137 17.3012 368.633 17.2717 370.05 17.2717C374.514 17.2717 378.215 17.8576 381.153 19.0338C384.091 20.21 386.271 22.086 387.683 24.6576C389.154 27.1743 389.887 30.5637 389.887 34.8174V63.1088H382.295L382.3 63.1046ZM380.748 41.613V46.3135C380.639 49.0579 380.07 51.1826 379.033 52.6961C378.055 54.2053 376.803 55.2972 375.277 55.9717C373.751 56.5872 372.149 56.8949 370.459 56.8949C367.575 56.8949 365.371 56.2246 363.845 54.8798C362.323 53.4802 361.56 51.6337 361.56 49.3404C361.56 47.0471 362.323 45.2006 363.845 43.801C365.366 42.3466 367.571 41.6173 370.459 41.6173H380.744L380.748 41.613Z" fill="white"/>
<path d="M406.673 62.0971C409.177 63.1046 412.25 63.6105 415.896 63.6105H422.51V55.0484H415.163C412.933 55.0484 411.188 54.4329 409.936 53.202C408.739 51.9162 408.14 50.095 408.14 47.7469V25.1634H422.51V17.8576H408.14V4.92813H399.077V46.9037C399.077 51.1025 399.705 54.4329 400.953 56.8949C402.26 59.3569 404.165 61.0937 406.669 62.1013L406.673 62.0971Z" fill="white"/>
<path fill-rule="evenodd" clip-rule="evenodd" d="M449.35 64.618C445.539 64.618 442.222 63.9477 439.389 62.6029C436.56 61.2581 434.246 59.496 432.45 57.3122C430.655 55.0737 429.293 52.5822 428.37 49.8421C427.497 47.0428 427.063 44.1888 427.063 41.28V39.6865C427.063 36.7186 427.497 33.8646 428.37 31.1244C429.293 28.3252 430.655 25.8337 432.45 23.6542C434.246 21.4157 436.506 19.6535 439.229 18.3635C442.002 17.0187 445.215 16.3484 448.861 16.3484C453.595 16.3484 457.541 17.4108 460.698 19.5397C463.855 21.6644 466.22 24.4383 467.801 27.8488C469.377 31.2087 470.17 34.8426 470.17 38.7632V42.7091H436.211C436.383 44.8718 436.818 46.8573 437.513 48.6701C438.436 51.0224 439.882 52.8942 441.838 54.2938C443.798 55.6386 446.302 56.3089 449.35 56.3089C452.398 56.3089 454.902 55.6386 456.862 54.2938C458.822 52.8942 460.019 51.2712 460.453 49.4247H469.352C468.754 52.5021 467.527 55.1918 465.676 57.4851C463.88 59.7784 461.596 61.5406 458.822 62.7716C456.044 64.0025 452.887 64.618 449.35 64.618ZM437.513 32.2121C437.049 33.3924 436.7 34.6824 436.468 36.0736H460.892C460.673 34.4337 460.28 32.954 459.72 31.6261C458.792 29.3875 457.431 27.6802 455.635 26.504C453.839 25.273 451.58 24.6575 448.861 24.6575C446.142 24.6575 443.663 25.3278 441.758 26.6726C439.853 28.0174 438.436 29.8639 437.513 32.2121Z" fill="white"/>
</g>
<defs>
<clipPath id="clip0_2001_113">
<rect width="470.17" height="80.9412" fill="white"/>
</clipPath>
</defs>
</svg>
