<svg width="480" height="95" viewBox="0 0 480 95" fill="none" xmlns="http://www.w3.org/2000/svg">
<rect width="480" height="94.9543" fill="white"/>
<g clip-path="url(#clip0_2001_113)">
<path d="M232.255 10.2694V20.1594H241.808V10.2694H232.255Z" fill="black"/>
<path fill-rule="evenodd" clip-rule="evenodd" d="M45.4874 8.57477C62.564 8.57477 71.1045 8.57477 77.0355 13.0139C78.7344 14.287 80.2477 15.7962 81.5207 17.4994C85.9596 23.4308 85.9596 31.9676 85.9596 49.0496C85.9596 66.1315 85.9596 74.6683 81.5207 80.5998C80.2477 82.2987 78.7386 83.8121 77.0355 85.0853C71.1045 89.5244 62.564 89.5244 45.4874 89.5244C28.4108 89.5244 19.8704 89.5244 13.9393 85.0853C12.2405 83.8121 10.7272 82.3029 9.4541 80.5998C5.01949 74.6641 5.01949 66.1231 5.01949 49.0454C5.01949 31.9676 5.01949 23.4266 9.45832 17.4952C10.7314 15.7962 12.2405 14.2828 13.9435 13.0097C19.8704 8.57477 28.4108 8.57477 45.4874 8.57477ZM35.1892 25.0159C35.1892 29.5942 35.1892 34.1682 35.1892 38.7464H21.4596C21.4596 50.1878 21.4596 61.6334 21.4596 73.0748H55.7857C55.7857 68.4965 55.7857 63.9225 55.7857 59.3443H69.5153C69.511 47.9029 69.5153 36.4573 69.5153 25.0159H35.1892Z" fill="black"/>
<path d="M55.7857 38.7464H35.1892V59.3443H55.7857V38.7464Z" fill="black"/>
<path d="M212.034 71.6794V10.2695H221.666V71.6794H212.034Z" fill="black"/>
<path fill-rule="evenodd" clip-rule="evenodd" d="M169.374 71.262C172.312 72.5478 175.714 73.1928 179.58 73.1928C183.445 73.1928 186.847 72.5478 189.785 71.262C192.723 69.9172 195.202 68.1551 197.213 65.9713C199.228 63.7876 200.749 61.3256 201.786 58.5854C202.819 55.7862 203.338 52.9069 203.338 49.9391V48.2612C203.338 45.2934 202.794 42.4141 201.706 39.6149C200.673 36.8156 199.122 34.3242 197.052 32.1447C194.983 29.9061 192.479 28.144 189.541 26.854C186.657 25.5682 183.336 24.9232 179.58 24.9232C175.824 24.9232 172.477 25.5682 169.538 26.854C166.6 28.1398 164.096 29.9061 162.027 32.1447C160.012 34.3284 158.46 36.8199 157.373 39.6149C156.34 42.4141 155.822 45.2934 155.822 48.2612V49.9391C155.822 52.9069 156.34 55.7862 157.373 58.5854C158.406 61.3299 159.932 63.7918 161.947 65.9713C163.961 68.1551 166.436 69.9172 169.374 71.262ZM187.252 62.6156C185.127 63.9604 182.573 64.6307 179.58 64.6307C176.587 64.6307 174.028 63.9604 171.908 62.6156C169.783 61.216 168.152 59.3401 167.009 56.9919C165.922 54.6396 165.378 52.009 165.378 49.1001C165.378 46.1913 165.951 43.4764 167.094 41.1241C168.236 38.7717 169.867 36.9252 171.992 35.5847C174.116 34.1851 176.646 33.4852 179.584 33.4852C182.522 33.4852 185.055 34.1851 187.176 35.5847C189.3 36.9295 190.932 38.7759 192.074 41.1241C193.216 43.4764 193.79 46.1323 193.79 49.1001C193.79 52.068 193.216 54.6396 192.074 56.9919C190.986 59.3401 189.38 61.216 187.256 62.6156H187.252Z" fill="black"/>
<path d="M118.351 69.1626C121.673 71.7384 126.297 73.0242 132.228 73.0242C135.929 73.0242 139.166 72.4382 141.944 71.262C144.773 70.031 146.978 68.3237 148.558 66.14C150.135 63.9562 150.927 61.41 150.927 58.5011C150.927 54.4709 149.456 51.3387 146.518 49.1002C143.635 46.8068 139.714 45.3777 134.761 44.817L130.436 44.3955C127.987 44.1172 126.217 43.527 125.129 42.6333C124.042 41.7396 123.498 40.5086 123.498 38.9404C123.498 37.2035 124.206 35.7786 125.622 34.6572C127.094 33.5358 129.189 32.9794 131.908 32.9794C134.791 32.9794 136.97 33.5654 138.437 34.7415C139.908 35.9177 140.697 37.3721 140.806 39.109H149.541C149.431 34.5181 147.77 31.0486 144.562 28.7005C141.35 26.2933 137.135 25.0918 131.908 25.0918C128.535 25.0918 125.538 25.6525 122.929 26.7697C120.37 27.891 118.355 29.4846 116.888 31.5545C115.417 33.6244 114.683 36.1707 114.683 39.1933C114.683 43.0001 115.99 46.0227 118.604 48.2612C121.272 50.4998 124.864 51.8699 129.378 52.3758L133.703 52.7973C136.751 53.1346 138.901 53.8049 140.153 54.8124C141.46 55.7652 142.113 57.0805 142.113 58.7583C142.113 60.6048 141.24 62.1435 139.499 63.3745C137.759 64.6055 135.364 65.2209 132.316 65.2209C128.725 65.2209 126.141 64.5211 124.56 63.1215C122.984 61.7219 122.136 60.1832 122.031 58.5054H113.216C113.381 63.0372 115.092 66.591 118.359 69.1668L118.351 69.1626Z" fill="black"/>
<path d="M232.255 26.4324V71.6836H241.807V26.4324H232.255Z" fill="black"/>
<path fill-rule="evenodd" clip-rule="evenodd" d="M271.88 73.1928C268.723 73.1928 265.84 72.6068 263.226 71.4307C260.667 70.2545 258.408 68.6061 256.452 66.4772C254.546 64.3525 253.075 61.8863 252.043 59.0913C251.01 56.2963 250.491 53.2442 250.491 49.9391V48.3456C250.491 45.0995 250.98 42.0768 251.962 39.2776C252.995 36.4236 254.441 33.9321 256.287 31.8074C258.138 29.6827 260.343 28.0302 262.901 26.854C265.515 25.623 268.398 25.0075 271.556 25.0075C274.928 25.0075 277.95 25.7621 280.619 27.2756C283.076 28.5908 285.091 30.5638 286.659 33.2028V10.2695H296.212V71.6794H288.62V62.4302C288.371 62.9908 288.097 63.5262 287.802 64.0406C286.061 67.1728 283.801 69.4957 281.028 71.0091C278.254 72.4635 275.202 73.1928 271.884 73.1928H271.88ZM273.676 64.7108C276.125 64.7108 278.33 64.1502 280.29 63.033C282.305 61.9116 283.911 60.2886 285.108 58.1639C286.36 55.9802 286.984 53.4339 286.984 50.5251V46.9164C286.984 44.0624 286.36 41.6257 285.108 39.6107C283.856 37.5956 282.225 36.0568 280.21 34.9945C278.195 33.9321 275.99 33.4009 273.596 33.4009C270.928 33.4009 268.563 34.0712 266.493 35.416C264.478 36.7018 262.901 38.523 261.759 40.8711C260.617 43.2235 260.043 45.9637 260.043 49.1002C260.043 52.2366 260.617 55.0611 261.759 57.4093C262.956 59.7616 264.588 61.5786 266.657 62.8644C268.727 64.0954 271.067 64.7108 273.676 64.7108Z" fill="black"/>
<path fill-rule="evenodd" clip-rule="evenodd" d="M312.243 87.8423H324.695C330.141 87.8423 335.398 87.3617 338.779 86.1223C342.16 84.8829 345.405 82.9859 347.092 79.5712C348.832 76.2155 349.705 71.7932 349.705 66.3086V26.4324H342.113V35.2558C341.982 34.9692 341.848 34.6867 341.704 34.4085C340.128 31.331 337.948 29.0082 335.175 27.44C332.451 25.8169 329.298 25.0033 325.707 25.0033C322.604 25.0033 319.746 25.564 317.137 26.6811C314.578 27.8025 312.373 29.396 310.523 31.4659C308.672 33.481 307.231 35.8587 306.198 38.6031C305.22 41.3475 304.727 44.3111 304.727 47.5024V49.0959C304.727 52.2282 305.216 55.196 306.198 57.9953C307.176 60.7355 308.567 63.1721 310.363 65.2968C312.158 67.4215 314.308 69.0741 316.812 70.2503C319.316 71.4264 322.09 72.0124 325.138 72.0124C328.51 72.0124 331.507 71.2578 334.117 69.7444C336.785 68.231 338.905 65.9924 340.482 63.0288C340.511 62.974 340.541 62.9234 340.57 62.8686L340.646 62.7253V66.8061C340.646 70.166 340.102 72.8766 339.015 74.9508C337.982 77.0755 336.119 78.0788 334.117 78.6732C331.726 79.3814 324.699 79.5712 324.699 79.5712H312.247V87.8423H312.243ZM334.032 61.6924C332.072 62.7548 329.897 63.2859 327.503 63.2859C324.944 63.2859 322.659 62.7 320.644 61.5238C318.684 60.2928 317.133 58.556 315.99 56.3174C314.848 54.0241 314.275 51.3345 314.275 48.257C314.275 45.1796 314.818 42.6038 315.906 40.3653C317.048 38.0719 318.629 36.3056 320.64 35.0746C322.655 33.7888 324.965 33.1438 327.578 33.1438C329.863 33.1438 331.988 33.6455 333.948 34.653C335.908 35.6606 337.485 37.1445 338.682 39.1006C339.934 41.0018 340.558 43.3542 340.558 46.1534V49.5934C340.558 52.4474 339.959 54.9094 338.762 56.9793C337.619 58.9944 336.043 60.5626 334.028 61.6798L334.032 61.6924Z" fill="black"/>
<path fill-rule="evenodd" clip-rule="evenodd" d="M387.319 71.6794V62.9866C386.957 64.167 386.493 65.2462 385.932 66.2243C384.735 68.3532 383.049 70.0015 380.87 71.1777C378.745 72.2949 376.136 72.8556 373.033 72.8556C369.931 72.8556 367.018 72.2949 364.623 71.1777C362.229 70.0015 360.379 68.3237 359.072 66.14C357.765 63.9014 357.112 61.2413 357.112 58.1639C357.112 54.9178 357.845 52.2324 359.316 50.1035C360.842 47.9788 362.988 46.381 365.766 45.3187C368.544 44.2563 371.861 43.7252 375.727 43.7252H385.768V42.8862C385.768 40.087 385.06 37.9623 383.643 36.5079C382.227 35.0535 380.132 34.3242 377.358 34.3242C375.836 34.3242 374.146 34.3537 372.295 34.4085C370.445 34.4633 368.62 34.5476 366.824 34.6614C365.083 34.7162 363.532 34.8006 362.17 34.9144V26.4366C363.367 26.3228 364.674 26.2427 366.09 26.1837C367.562 26.0699 369.058 25.9898 370.58 25.9307C372.156 25.8759 373.653 25.8464 375.069 25.8464C379.533 25.8464 383.234 26.4324 386.173 27.6086C389.111 28.7848 391.29 30.6607 392.702 33.2323C394.173 35.7491 394.907 39.1385 394.907 43.3921V71.6836H387.315L387.319 71.6794ZM385.768 50.1878V54.8883C385.658 57.6327 385.089 59.7574 384.052 61.2708C383.074 62.7801 381.822 63.8719 380.296 64.5464C378.77 65.1619 377.168 65.4697 375.478 65.4697C372.595 65.4697 370.39 64.7994 368.864 63.4546C367.342 62.055 366.579 60.2085 366.579 57.9152C366.579 55.6218 367.342 53.7754 368.864 52.3757C370.386 50.9213 372.591 50.192 375.478 50.192H385.764L385.768 50.1878Z" fill="black"/>
<path d="M411.693 70.6718C414.197 71.6794 417.27 72.1853 420.916 72.1853H427.53V63.6232H420.182C417.953 63.6232 416.207 63.0077 414.955 61.7767C413.758 60.4909 413.16 58.6698 413.16 56.3216V33.7382H427.53V26.4324H413.16V13.5029H404.096V55.4785C404.096 59.6773 404.725 63.0077 405.972 65.4697C407.279 67.9316 409.184 69.6685 411.688 70.676L411.693 70.6718Z" fill="black"/>
<path fill-rule="evenodd" clip-rule="evenodd" d="M454.369 73.1928C450.559 73.1928 447.241 72.5225 444.408 71.1777C441.58 69.8329 439.266 68.0707 437.47 65.887C435.674 63.6485 434.313 61.157 433.389 58.4168C432.517 55.6176 432.083 52.7636 432.083 49.8548V48.2612C432.083 45.2934 432.517 42.4394 433.389 39.6992C434.313 36.9 435.674 34.4085 437.47 32.229C439.266 29.9904 441.525 28.2283 444.248 26.9383C447.022 25.5935 450.234 24.9232 453.88 24.9232C458.614 24.9232 462.56 25.9855 465.717 28.1145C468.875 30.2392 471.24 33.0131 472.82 36.4236C474.397 39.7835 475.189 43.4174 475.189 47.338V51.2839H441.23C441.403 53.4465 441.837 55.4321 442.533 57.2449C443.456 59.5972 444.902 61.469 446.858 62.8686C448.818 64.2134 451.322 64.8837 454.369 64.8837C457.417 64.8837 459.921 64.2134 461.881 62.8686C463.841 61.469 465.039 59.8459 465.473 57.9995H474.372C473.773 61.0769 472.546 63.7665 470.696 66.0599C468.9 68.3532 466.615 70.1153 463.841 71.3463C461.064 72.5773 457.906 73.1928 454.369 73.1928ZM442.533 40.7868C442.069 41.9672 441.719 43.2572 441.487 44.6484H465.911C465.692 43.0085 465.3 41.5288 464.739 40.2008C463.812 37.9623 462.45 36.255 460.655 35.0788C458.859 33.8478 456.599 33.2323 453.88 33.2323C451.162 33.2323 448.683 33.9026 446.777 35.2474C444.872 36.5922 443.456 38.4387 442.533 40.7868Z" fill="black"/>
</g>
<defs>
<clipPath id="clip0_2001_113">
<rect width="470.17" height="80.9412" fill="white" transform="translate(5.01949 8.57477)"/>
</clipPath>
</defs>
</svg>
