<svg width="338" height="70" viewBox="0 0 338 70" fill="none" xmlns="http://www.w3.org/2000/svg">
<g clip-path="url(#clip0_2001_106)">
<path d="M127.341 14.3085C127.341 6.42914 120.952 0.0461884 113.064 0.0461884H84.3241C76.4363 0.0461884 70.0466 6.42914 70.0466 14.3085V43.0179C70.0466 50.8973 76.4363 57.2803 84.3241 57.2803H114.775V70H127.332V14.3085H127.341ZM114.784 44.7268H85.258C83.797 44.7268 82.6226 43.5445 82.6226 42.0942V15.2322C82.6226 13.782 83.8062 12.5996 85.258 12.5996H112.148C113.61 12.5996 114.784 13.782 114.784 15.2322V44.7268Z" fill="white"/>
<path d="M43.7387 22.6036H15.2022C13.7412 22.6036 12.5668 21.4212 12.5668 19.971V15.2322C12.5668 13.782 13.7504 12.5996 15.2022 12.5996H57.2024V0.0554199H14.2775C6.38973 0.0554199 0 6.43837 0 14.3178V20.8947C0 28.7741 6.38973 35.157 14.2775 35.157H42.814C44.275 35.157 45.4494 36.3394 45.4494 37.7896V42.0942C45.4494 43.5537 44.2657 44.7268 42.814 44.7268H0.924708V57.271H43.7387C51.6264 57.271 58.0162 50.8881 58.0162 43.0087V36.8567C58.0162 28.9773 51.6264 22.5943 43.7387 22.5943V22.6036Z" fill="white"/>
<path d="M184.923 42.0942C184.923 43.5537 183.739 44.7268 182.288 44.7268H155.258C153.797 44.7268 152.623 43.5445 152.623 42.0942V0H140.065V43.0087C140.065 50.8881 146.455 57.271 154.343 57.271H183.222C191.109 57.271 197.499 50.8881 197.499 43.0087V0H184.941V42.0942H184.923Z" fill="white"/>
<path d="M253.342 0.0554199H224.482C216.594 0.0554199 210.204 6.43837 210.204 14.3178V57.3172H222.762V42.7408H255.053V57.3172H267.61V14.3178C267.61 6.43837 261.221 0.0554199 253.333 0.0554199H253.342ZM222.762 30.1504V15.2415C222.762 13.782 223.946 12.6089 225.397 12.6089H252.417C253.869 12.6089 255.053 13.7912 255.053 15.2415V30.1504H222.762Z" fill="white"/>
<path d="M323.333 0.0461884H280.316V57.2803H323.333C331.221 57.2803 337.611 50.8973 337.611 43.0179V14.3085C337.611 6.42914 331.221 0.0461884 323.333 0.0461884ZM325.044 42.0942C325.044 43.5537 323.86 44.7268 322.408 44.7268H292.883V12.5904H322.408C323.86 12.5904 325.044 13.7728 325.044 15.223V42.085V42.0942Z" fill="white"/>
</g>
<defs>
<clipPath id="clip0_2001_106">
<rect width="337.611" height="70" fill="white"/>
</clipPath>
</defs>
</svg>
