<?xml version="1.0" encoding="UTF-8"?><svg id="Layer_2" xmlns="http://www.w3.org/2000/svg" viewBox="0 0 1000 143.0102"><g id="Components"><g id="_26789f5d-e149-42f0-b567-0e224268dd27_5"><path d="M141.6738,38.162c-1.5698-19.7166-17.2516-35.3603-36.9554-36.8907-22.1551-1.712-44.4013-1.6991-66.5564.0646C18.4453,2.8928,2.8017,18.5753,1.2713,38.2919c-1.712,22.1551-1.6991,44.4007.0647,66.5558,1.5698,19.7166,17.2523,35.3603,36.956,36.8907,22.1551,1.7127,44.4006,1.6998,66.5558-.0646,19.7166-1.5699,35.3604-17.2523,36.8908-36.9553,1.7126-22.1551,1.6997-44.4014-.0647-66.5565ZM71.6796,22.7911c7.9773,0,14.437,6.4468,14.437,14.3982s-6.4597,14.3982-14.437,14.3982-14.4369-6.4468-14.4369-14.3982,6.4597-14.3982,14.4369-14.3982ZM98.9199,117.6509h.0129l-25.0609-13.7235c-1.3624-.7523-3.0227-.7523-4.3845,0l-25.0609,13.7235c-4.0342,2.2052-8.4309-2.2698-6.1094-6.2135l29.4453-49.8878c1.7508-2.9704,6.0707-2.9704,7.8215,0l29.4454,49.8878c2.3215,3.9437-2.0623,8.4187-6.1094,6.2135Z" style="fill:#fff; stroke-width:0px;"/><path d="M643.9372,63.0279v-27.2659h16.4469v71.4853h-16.4469v-29.3153h-29.1118v29.3153h-16.4469V35.762h16.4469v27.2659h29.1118Z" style="fill:#fff; stroke-width:0px;"/><path d="M228.7623,85.0917c1.1284,6.6413,6.1224,9.9103,15.1117,9.9103,8.2751,0,12.867-3.1649,12.867-8.5738,0-4.1899-2.1399-6.1223-8.1718-7.4589l-10.7272-2.3473c-17.4596-3.8784-24.2043-9.8069-24.2043-21.455,0-12.7637,11.3366-21.0395,28.6922-21.0395s28.7963,7.9643,29.5098,22.259h-16.3435c-1.1284-5.5129-5.617-8.3792-13.1792-8.3792s-12.2576,2.7622-12.2576,7.5623c0,3.6703,2.0364,5.3048,9.1968,7.0433l10.1041,2.2439c17.7712,3.7743,23.8024,9.3913,23.8024,22.0638,0,13.5813-11.1292,21.9604-29.3146,21.9604-19.0941,0-30.8457-8.7683-31.5592-23.7895h16.4734Z" style="fill:#fff; stroke-width:0px;"/><path d="M334.9846,35.762h16.4475v41.1579c0,21.6496-10.2089,31.9619-31.2483,31.9619s-31.2477-10.3123-31.2477-31.9619v-41.1579h16.4475v41.5606c0,11.6482,4.4879,16.7454,14.8131,16.7454s14.8137-5.1102,14.8137-16.7454v-41.5606h-.0258Z" style="fill:#fff; stroke-width:0px;"/><path d="M500.0572,107.2474h-53.9223V35.762h53.9223v14.7097h-37.4877v12.7637h31.819v14.7096h-31.819v14.6056h37.4877v14.7096-.0129Z" style="fill:#fff; stroke-width:0px;"/><path d="M726.0423,35.762h16.4468v41.1579c0,21.6496-10.2096,31.9619-31.2476,31.9619s-31.2477-10.3123-31.2477-31.9619v-41.1579h16.4469v41.5606c0,11.6482,4.4892,16.7454,14.8144,16.7454s14.8143-5.1102,14.8143-16.7454v-41.5606h-.0272Z" style="fill:#fff; stroke-width:0px;"/><path d="M798.8628,69.9808l17.4604-34.2187h19.3036v71.4853h-16.032v-47.2803l-18.9023,37.487h-3.673l-18.8955-37.487v47.2803h-16.0319V35.762h19.2968l17.4603,34.2187h.0136Z" style="fill:#fff; stroke-width:0px;"/><path d="M920.4661,107.2474h-16.338l-2.6595-18.2765h-29.3159l-2.6595,18.2765h-16.3448l6.5366-45.2445c3.1629-20.4293,10.3116-27.8753,27.0713-27.8753s23.9969,7.4589,27.0577,27.8753l6.6454,45.2445h.0068ZM874.4109,74.0666h24.8131l-1.5304-10.7272c-1.6393-10.8312-4.292-14.3981-10.9238-14.3981-6.625,0-9.1961,3.5798-10.8285,14.3981l-1.5304,10.7272Z" style="fill:#fff; stroke-width:0px;"/><path d="M983.9613,82.3295v-46.5674h16.0387v71.4853h-16.4536l-29.5064-46.5675v46.5675h-16.0319V35.762h16.4468l29.5064,46.5674Z" style="fill:#fff; stroke-width:0px;"/><polygon points="541.9364 78.5641 557.265 72.7592 580.7644 107.1827 561.1582 107.1827 541.9364 78.5641" style="fill:#fff; stroke-width:0px;"/><path d="M519.9539,35.5922h34.4765c5.0494,0,9.4846.9385,13.3071,2.8146,3.821,1.878,6.7896,4.573,8.9054,8.0869,2.1148,3.5154,3.1733,7.6612,3.1733,12.437s-1.0605,8.3694-3.1753,11.8834c-2.1157,3.5154-5.9502,6.4516-9.9025,8.1039-4.275,1.7872-38.2122,12.0423-38.2122,12.0423l.0264-16.4689s24.941-6.1901,29.0025-7.6918c1.7744-.6561,6.2657-2.1497,6.2657-7.8689,0-6.8353-6.774-7.4727-11.0477-7.4727h-20.9781l4.6065-4.6065v60.394h-16.4476V35.5922Z" style="fill:#fff; stroke-width:0px;"/><path d="M371.018,35.5922h34.4765c5.0494,0,9.4846.9385,13.3071,2.8146,3.821,1.878,6.7896,4.573,8.9054,8.0869,2.1148,3.5154,3.1733,7.6612,3.1733,12.437s-1.0605,8.3694-3.1753,11.8834c-2.1157,3.5154-5.9502,6.4516-9.9025,8.1039-4.275,1.7872-38.2122,12.0423-38.2122,12.0423l.0264-16.4689s24.941-6.1901,29.0025-7.6918c1.7744-.6561,6.2657-2.1497,6.2657-7.8689,0-6.8353-6.774-7.4727-11.0477-7.4727h-20.9781l4.6065-4.6065v60.394h-16.4476V35.5922Z" style="fill:#fff; stroke-width:0px;"/></g></g></svg>