<svg width="329" height="272" viewBox="0 0 329 272" fill="none" xmlns="http://www.w3.org/2000/svg">
<path d="M151.849 24.6934H126.54V49.3865H151.849V24.6934Z" fill="#F6417B" fill-opacity="0.63"/>
<path d="M177.157 49.3857H151.848V74.0789H177.157V49.3857Z" fill="#F6417B" fill-opacity="0.63"/>
<path d="M126.54 0H101.23V24.6932H126.54V0Z" fill="#F6417B" fill-opacity="0.63"/>
<path d="M101.236 0H75.9272V24.6932H101.236V0Z" fill="#F6417B" fill-opacity="0.63"/>
<path d="M75.9272 0H50.6182V24.6932H75.9272V0Z" fill="#F6417B" fill-opacity="0.63"/>
<path d="M50.6181 24.6934H25.3091V49.3865H50.6181V24.6934Z" fill="#F6417B" fill-opacity="0.63"/>
<path d="M151.849 49.3857H126.54V74.0789H151.849V49.3857Z" fill="#F6417B" fill-opacity="0.63"/>
<path d="M126.54 24.6934H101.23V49.3865H126.54V24.6934Z" fill="#F6417B" fill-opacity="0.63"/>
<path d="M101.236 24.6934H75.9272V49.3865H101.236V24.6934Z" fill="#F6417B" fill-opacity="0.63"/>
<path d="M75.9272 24.6934H50.6182V49.3865H75.9272V24.6934Z" fill="#F6417B" fill-opacity="0.63"/>
<path d="M50.6181 49.3857H25.3091V74.0789H50.6181V49.3857Z" fill="#F6417B" fill-opacity="0.63"/>
<path d="M151.849 74.0723H126.54V98.7655H151.849V74.0723Z" fill="#F6417B" fill-opacity="0.63"/>
<path d="M126.54 49.3857H101.23V74.0789H126.54V49.3857Z" fill="#F6417B" fill-opacity="0.63"/>
<path d="M101.236 49.3857H75.9272V74.0789H101.236V49.3857Z" fill="#F6417B" fill-opacity="0.63"/>
<path d="M75.9272 49.3857H50.6182V74.0789H75.9272V49.3857Z" fill="#F6417B" fill-opacity="0.63"/>
<path d="M50.6181 74.0723H25.3091V98.7655H50.6181V74.0723Z" fill="#F6417B" fill-opacity="0.63"/>
<path d="M151.849 98.7656H126.54V123.459H151.849V98.7656Z" fill="#F6417B" fill-opacity="0.63"/>
<path d="M151.849 123.459H126.54V148.152H151.849V123.459Z" fill="#F6417B" fill-opacity="0.63"/>
<path d="M151.849 148.151H126.54V172.845H151.849V148.151Z" fill="#F6417B" fill-opacity="0.63"/>
<path d="M151.849 172.844H126.54V197.537H151.849V172.844Z" fill="#F6417B" fill-opacity="0.63"/>
<path d="M151.849 197.537H126.54V222.23H151.849V197.537Z" fill="#F6417B" fill-opacity="0.63"/>
<path d="M177.157 74.0723H151.848V98.7655H177.157V74.0723Z" fill="#F6417B" fill-opacity="0.63"/>
<path d="M177.157 98.7656H151.848V123.459H177.157V98.7656Z" fill="#F6417B" fill-opacity="0.63"/>
<path d="M177.157 123.459H151.848V148.152H177.157V123.459Z" fill="#F6417B" fill-opacity="0.63"/>
<path d="M177.157 148.151H151.848V172.845H177.157V148.151Z" fill="#F6417B" fill-opacity="0.63"/>
<path d="M177.157 172.844H151.848V197.537H177.157V172.844Z" fill="#F6417B" fill-opacity="0.63"/>
<path d="M177.157 197.537H151.848V222.23H177.157V197.537Z" fill="#F6417B" fill-opacity="0.63"/>
<path d="M202.466 74.0723H177.157V98.7655H202.466V74.0723Z" fill="#F6417B" fill-opacity="0.63"/>
<path d="M202.466 49.3857H177.157V74.0789H202.466V49.3857Z" fill="#F6417B" fill-opacity="0.63"/>
<path d="M202.466 98.7656H177.157V123.459H202.466V98.7656Z" fill="#F6417B" fill-opacity="0.63"/>
<path d="M202.466 123.459H177.157V148.152H202.466V123.459Z" fill="#F6417B" fill-opacity="0.63"/>
<path d="M202.466 148.151H177.157V172.845H202.466V148.151Z" fill="#F6417B" fill-opacity="0.63"/>
<path d="M202.466 172.844H177.157V197.537H202.466V172.844Z" fill="#F6417B" fill-opacity="0.63"/>
<path d="M227.77 74.0723H202.46V98.7655H227.77V74.0723Z" fill="#F6417B" fill-opacity="0.63"/>
<path d="M227.77 49.3857H202.46V74.0789H227.77V49.3857Z" fill="#F6417B" fill-opacity="0.63"/>
<path d="M227.77 24.6934H202.46V49.3865H227.77V24.6934Z" fill="#F6417B" fill-opacity="0.63"/>
<path d="M227.77 98.7656H202.46V123.459H227.77V98.7656Z" fill="#F6417B" fill-opacity="0.63"/>
<path d="M227.77 123.459H202.46V148.152H227.77V123.459Z" fill="#F6417B" fill-opacity="0.63"/>
<path d="M227.77 148.151H202.46V172.845H227.77V148.151Z" fill="#F6417B" fill-opacity="0.63"/>
<path d="M253.079 74.0723H227.77V98.7655H253.079V74.0723Z" fill="#F6417B" fill-opacity="0.63"/>
<path d="M253.079 49.3857H227.77V74.0789H253.079V49.3857Z" fill="#F6417B" fill-opacity="0.63"/>
<path d="M253.079 24.6934H227.77V49.3865H253.079V24.6934Z" fill="#F6417B" fill-opacity="0.63"/>
<path d="M253.079 98.7656H227.77V123.459H253.079V98.7656Z" fill="#F6417B" fill-opacity="0.63"/>
<path d="M253.079 123.459H227.77V148.152H253.079V123.459Z" fill="#F6417B" fill-opacity="0.63"/>
<path d="M278.388 74.0723H253.079V98.7655H278.388V74.0723Z" fill="#F6417B" fill-opacity="0.63"/>
<path d="M278.388 49.3857H253.079V74.0789H278.388V49.3857Z" fill="#F6417B" fill-opacity="0.63"/>
<path d="M278.388 24.6934H253.079V49.3865H278.388V24.6934Z" fill="#F6417B" fill-opacity="0.63"/>
<path d="M278.388 98.7656H253.079V123.459H278.388V98.7656Z" fill="#F6417B" fill-opacity="0.63"/>
<path d="M303.697 74.0723H278.388V98.7655H303.697V74.0723Z" fill="#F6417B" fill-opacity="0.63"/>
<path d="M303.697 49.3857H278.388V74.0789H303.697V49.3857Z" fill="#F6417B" fill-opacity="0.63"/>
<path d="M303.697 98.7656H278.388V123.459H303.697V98.7656Z" fill="#F6417B" fill-opacity="0.63"/>
<path d="M278.388 123.459H253.079V148.152H278.388V123.459Z" fill="#F6417B" fill-opacity="0.63"/>
<path d="M253.079 148.151H227.77V172.845H253.079V148.151Z" fill="#F6417B" fill-opacity="0.63"/>
<path d="M227.77 172.844H202.46V197.537H227.77V172.844Z" fill="#F6417B" fill-opacity="0.63"/>
<path d="M202.466 197.537H177.157V222.23H202.466V197.537Z" fill="#F6417B" fill-opacity="0.63"/>
<path d="M177.157 222.229H151.848V246.923H177.157V222.229Z" fill="#F6417B" fill-opacity="0.63"/>
<path d="M126.54 74.0723H101.23V98.7655H126.54V74.0723Z" fill="#F6417B" fill-opacity="0.63"/>
<path d="M101.236 74.0723H75.9272V98.7655H101.236V74.0723Z" fill="#F6417B" fill-opacity="0.63"/>
<path d="M75.9272 74.0723H50.6182V98.7655H75.9272V74.0723Z" fill="#F6417B" fill-opacity="0.63"/>
<path d="M126.54 98.7656H101.23V123.459H126.54V98.7656Z" fill="#F6417B" fill-opacity="0.63"/>
<path d="M101.236 98.7656H75.9272V123.459H101.236V98.7656Z" fill="#F6417B" fill-opacity="0.63"/>
<path d="M75.9272 98.7656H50.6182V123.459H75.9272V98.7656Z" fill="#F6417B" fill-opacity="0.63"/>
<path d="M126.54 123.459H101.23V148.152H126.54V123.459Z" fill="#F6417B" fill-opacity="0.63"/>
<path d="M126.54 148.151H101.23V172.845H126.54V148.151Z" fill="#F6417B" fill-opacity="0.63"/>
<path d="M126.54 172.844H101.23V197.537H126.54V172.844Z" fill="#F6417B" fill-opacity="0.63"/>
<path d="M101.236 123.459H75.9272V148.152H101.236V123.459Z" fill="#F6417B" fill-opacity="0.63"/>
<path d="M101.236 148.151H75.9272V172.845H101.236V148.151Z" fill="#F6417B" fill-opacity="0.63"/>
<path d="M75.9272 123.459H50.6182V148.152H75.9272V123.459Z" fill="#F6417B" fill-opacity="0.63"/>
<path d="M50.6181 98.7656H25.3091V123.459H50.6181V98.7656Z" fill="#F6417B" fill-opacity="0.63"/>
<path d="M25.309 49.3857H0V74.0789H25.309V49.3857Z" fill="#F6417B" fill-opacity="0.63"/>
<path d="M25.309 74.0723H0V98.7655H25.309V74.0723Z" fill="#F6417B" fill-opacity="0.63"/>
<path d="M25.309 98.7656H0V123.459H25.309V98.7656Z" fill="#F6417B" fill-opacity="0.63"/>
<path d="M50.6181 123.459H25.3091V148.152H50.6181V123.459Z" fill="#F6417B" fill-opacity="0.63"/>
<path d="M75.9272 148.151H50.6182V172.845H75.9272V148.151Z" fill="#F6417B" fill-opacity="0.63"/>
<path d="M101.236 172.844H75.9272V197.537H101.236V172.844Z" fill="#F6417B" fill-opacity="0.63"/>
<path d="M126.54 197.537H101.23V222.23H126.54V197.537Z" fill="#F6417B" fill-opacity="0.63"/>
<path d="M151.849 222.229H126.54V246.923H151.849V222.229Z" fill="#F6417B" fill-opacity="0.63"/>
<path d="M177.157 246.917H151.848V271.61H177.157V246.917Z" fill="#F6417B" fill-opacity="0.63"/>
<path d="M202.466 24.6934H177.157V49.3865H202.466V24.6934Z" fill="#F6417B" fill-opacity="0.63"/>
<path d="M227.77 0H202.46V24.6932H227.77V0Z" fill="#F6417B" fill-opacity="0.63"/>
<path d="M253.078 0H227.769V24.6932H253.078V0Z" fill="#F6417B" fill-opacity="0.63"/>
<path d="M278.388 0H253.079V24.6932H278.388V0Z" fill="#F6417B" fill-opacity="0.63"/>
<path d="M303.697 24.6934H278.388V49.3865H303.697V24.6934Z" fill="#F6417B" fill-opacity="0.63"/>
<path d="M329 49.3857H303.691V74.0789H329V49.3857Z" fill="#F6417B" fill-opacity="0.63"/>
<path d="M329 74.0723H303.691V98.7655H329V74.0723Z" fill="#F6417B" fill-opacity="0.63"/>
<path d="M329 98.7656H303.691V123.459H329V98.7656Z" fill="#F6417B" fill-opacity="0.63"/>
<path d="M303.697 123.459H278.388V148.152H303.697V123.459Z" fill="#F6417B" fill-opacity="0.63"/>
<path d="M278.388 148.151H253.079V172.845H278.388V148.151Z" fill="#F6417B" fill-opacity="0.63"/>
<path d="M253.078 172.844H227.769V197.537H253.078V172.844Z" fill="#F6417B" fill-opacity="0.63"/>
<path d="M227.77 197.536H202.46V222.229H227.77V197.536Z" fill="#F6417B" fill-opacity="0.63"/>
<path d="M202.466 222.229H177.157V246.922H202.466V222.229Z" fill="#F6417B" fill-opacity="0.63"/>
</svg>
