<svg width="329" height="272" viewBox="0 0 329 272" fill="none" xmlns="http://www.w3.org/2000/svg">
<path d="M151.848 24.6929H126.539V49.386H151.848V24.6929Z" fill="#F6417B" fill-opacity="0.63"/>
<path d="M177.152 49.3853H151.843V74.0784H177.152V49.3853Z" fill="#F6417B" fill-opacity="0.63"/>
<path d="M126.539 0H101.229V24.6932H126.539V0Z" fill="#F6417B" fill-opacity="0.63"/>
<path d="M101.23 0H75.9214V24.6932H101.23V0Z" fill="#F6417B" fill-opacity="0.63"/>
<path d="M75.9213 0H50.6123V24.6932H75.9213V0Z" fill="#F6417B" fill-opacity="0.63"/>
<path d="M50.6179 24.6929H25.3091V49.386H50.6179V24.6929Z" fill="#F6417B" fill-opacity="0.63"/>
<path d="M151.848 148.154H126.539V172.847H151.848V148.154Z" fill="#F6417B" fill-opacity="0.63"/>
<path d="M151.848 172.841H126.539V197.534H151.848V172.841Z" fill="#F6417B" fill-opacity="0.63"/>
<path d="M151.848 197.534H126.539V222.227H151.848V197.534Z" fill="#F6417B" fill-opacity="0.63"/>
<path d="M177.152 148.154H151.843V172.847H177.152V148.154Z" fill="#F6417B" fill-opacity="0.63"/>
<path d="M177.152 172.841H151.843V197.534H177.152V172.841Z" fill="#F6417B" fill-opacity="0.63"/>
<path d="M177.152 197.534H151.843V222.227H177.152V197.534Z" fill="#F6417B" fill-opacity="0.63"/>
<path d="M202.46 148.154H177.151V172.847H202.46V148.154Z" fill="#F6417B" fill-opacity="0.63"/>
<path d="M202.46 172.841H177.151V197.534H202.46V172.841Z" fill="#F6417B" fill-opacity="0.63"/>
<path d="M227.769 148.154H202.46V172.847H227.769V148.154Z" fill="#F6417B" fill-opacity="0.63"/>
<path d="M253.072 148.154H227.763V172.847H253.072V148.154Z" fill="#F6417B" fill-opacity="0.63"/>
<path d="M227.769 172.841H202.46V197.534H227.769V172.841Z" fill="#F6417B" fill-opacity="0.63"/>
<path d="M202.46 197.534H177.151V222.227H202.46V197.534Z" fill="#F6417B" fill-opacity="0.63"/>
<path d="M177.152 222.227H151.843V246.92H177.152V222.227Z" fill="#F6417B" fill-opacity="0.63"/>
<path d="M126.539 148.154H101.229V172.847H126.539V148.154Z" fill="#F6417B" fill-opacity="0.63"/>
<path d="M126.539 172.841H101.229V197.534H126.539V172.841Z" fill="#F6417B" fill-opacity="0.63"/>
<path d="M101.23 148.154H75.9214V172.847H101.23V148.154Z" fill="#F6417B" fill-opacity="0.63"/>
<path d="M25.309 49.3853H0V74.0784H25.309V49.3853Z" fill="#F6417B" fill-opacity="0.63"/>
<path d="M25.309 74.0728H0V98.7659H25.309V74.0728Z" fill="#F6417B" fill-opacity="0.63"/>
<path d="M25.309 98.7681H0V123.461H25.309V98.7681Z" fill="#F6417B" fill-opacity="0.63"/>
<path d="M50.6179 123.461H25.3091V148.154H50.6179V123.461Z" fill="#F6417B" fill-opacity="0.63"/>
<path d="M75.9213 148.154H50.6123V172.847H75.9213V148.154Z" fill="#F6417B" fill-opacity="0.63"/>
<path d="M101.23 172.841H75.9214V197.534H101.23V172.841Z" fill="#F6417B" fill-opacity="0.63"/>
<path d="M126.539 197.534H101.229V222.227H126.539V197.534Z" fill="#F6417B" fill-opacity="0.63"/>
<path d="M151.848 222.227H126.539V246.92H151.848V222.227Z" fill="#F6417B" fill-opacity="0.63"/>
<path d="M177.152 246.914H151.843V271.607H177.152V246.914Z" fill="#F6417B" fill-opacity="0.63"/>
<path d="M202.46 24.6929H177.151V49.386H202.46V24.6929Z" fill="#F6417B" fill-opacity="0.63"/>
<path d="M227.769 0H202.46V24.6932H227.769V0Z" fill="#F6417B" fill-opacity="0.63"/>
<path d="M253.073 0H227.764V24.6932H253.073V0Z" fill="#F6417B" fill-opacity="0.63"/>
<path d="M278.381 0H253.072V24.6932H278.381V0Z" fill="#F6417B" fill-opacity="0.63"/>
<path d="M303.69 24.6929H278.381V49.386H303.69V24.6929Z" fill="#F6417B" fill-opacity="0.63"/>
<path d="M329 49.3853H303.691V74.0784H329V49.3853Z" fill="#F6417B" fill-opacity="0.63"/>
<path d="M329 74.0728H303.691V98.7659H329V74.0728Z" fill="#F6417B" fill-opacity="0.63"/>
<path d="M329 98.7681H303.691V123.461H329V98.7681Z" fill="#F6417B" fill-opacity="0.63"/>
<path d="M303.69 123.461H278.381V148.154H303.69V123.461Z" fill="#F6417B" fill-opacity="0.63"/>
<path d="M278.381 148.154H253.072V172.847H278.381V148.154Z" fill="#F6417B" fill-opacity="0.63"/>
<path d="M253.073 172.841H227.764V197.534H253.073V172.841Z" fill="#F6417B" fill-opacity="0.63"/>
<path d="M227.769 197.534H202.46V222.227H227.769V197.534Z" fill="#F6417B" fill-opacity="0.63"/>
<path d="M202.46 222.227H177.151V246.92H202.46V222.227Z" fill="#F6417B" fill-opacity="0.63"/>
</svg>
