<svg width="329" height="272" viewBox="0 0 329 272" fill="none" xmlns="http://www.w3.org/2000/svg">
<path d="M151.843 24.6934H126.534V49.3867H151.843V24.6934Z" fill="#F6417B" fill-opacity="0.63"/>
<path d="M177.151 49.3857H151.842V74.0791H177.151V49.3857Z" fill="#F6417B" fill-opacity="0.63"/>
<path d="M126.539 0H101.23V24.6934H126.539V0Z" fill="#F6417B" fill-opacity="0.63"/>
<path d="M101.23 0H75.9214V24.6934H101.23V0Z" fill="#F6417B" fill-opacity="0.63"/>
<path d="M75.9208 0H50.6118V24.6934H75.9208V0Z" fill="#F6417B" fill-opacity="0.63"/>
<path d="M50.6123 24.6934H25.3032V49.3867H50.6123V24.6934Z" fill="#F6417B" fill-opacity="0.63"/>
<path d="M151.843 98.769H126.534V123.462H151.843V98.769Z" fill="#F6417B" fill-opacity="0.63"/>
<path d="M151.843 123.462H126.534V148.155H151.843V123.462Z" fill="#F6417B" fill-opacity="0.63"/>
<path d="M151.843 148.154H126.534V172.848H151.843V148.154Z" fill="#F6417B" fill-opacity="0.63"/>
<path d="M151.843 172.843H126.534V197.536H151.843V172.843Z" fill="#F6417B" fill-opacity="0.63"/>
<path d="M151.843 197.535H126.534V222.229H151.843V197.535Z" fill="#F6417B" fill-opacity="0.63"/>
<path d="M177.151 98.769H151.842V123.462H177.151V98.769Z" fill="#F6417B" fill-opacity="0.63"/>
<path d="M177.151 123.462H151.842V148.155H177.151V123.462Z" fill="#F6417B" fill-opacity="0.63"/>
<path d="M177.151 148.154H151.842V172.848H177.151V148.154Z" fill="#F6417B" fill-opacity="0.63"/>
<path d="M177.151 172.843H151.842V197.536H177.151V172.843Z" fill="#F6417B" fill-opacity="0.63"/>
<path d="M177.151 197.535H151.842V222.229H177.151V197.535Z" fill="#F6417B" fill-opacity="0.63"/>
<path d="M202.46 98.769H177.151V123.462H202.46V98.769Z" fill="#F6417B" fill-opacity="0.63"/>
<path d="M202.46 123.462H177.151V148.155H202.46V123.462Z" fill="#F6417B" fill-opacity="0.63"/>
<path d="M202.46 148.154H177.151V172.848H202.46V148.154Z" fill="#F6417B" fill-opacity="0.63"/>
<path d="M202.46 172.843H177.151V197.536H202.46V172.843Z" fill="#F6417B" fill-opacity="0.63"/>
<path d="M227.77 98.769H202.461V123.462H227.77V98.769Z" fill="#F6417B" fill-opacity="0.63"/>
<path d="M227.77 123.462H202.461V148.155H227.77V123.462Z" fill="#F6417B" fill-opacity="0.63"/>
<path d="M227.77 148.154H202.461V172.848H227.77V148.154Z" fill="#F6417B" fill-opacity="0.63"/>
<path d="M253.073 98.769H227.764V123.462H253.073V98.769Z" fill="#F6417B" fill-opacity="0.63"/>
<path d="M253.073 123.462H227.764V148.155H253.073V123.462Z" fill="#F6417B" fill-opacity="0.63"/>
<path d="M278.382 98.769H253.073V123.462H278.382V98.769Z" fill="#F6417B" fill-opacity="0.63"/>
<path d="M303.69 98.769H278.381V123.462H303.69V98.769Z" fill="#F6417B" fill-opacity="0.63"/>
<path d="M278.382 123.462H253.073V148.155H278.382V123.462Z" fill="#F6417B" fill-opacity="0.63"/>
<path d="M253.073 148.154H227.764V172.848H253.073V148.154Z" fill="#F6417B" fill-opacity="0.63"/>
<path d="M227.77 172.843H202.461V197.536H227.77V172.843Z" fill="#F6417B" fill-opacity="0.63"/>
<path d="M202.46 197.535H177.151V222.229H202.46V197.535Z" fill="#F6417B" fill-opacity="0.63"/>
<path d="M177.151 222.229H151.842V246.922H177.151V222.229Z" fill="#F6417B" fill-opacity="0.63"/>
<path d="M126.539 98.769H101.23V123.462H126.539V98.769Z" fill="#F6417B" fill-opacity="0.63"/>
<path d="M101.23 98.769H75.9214V123.462H101.23V98.769Z" fill="#F6417B" fill-opacity="0.63"/>
<path d="M75.9208 98.769H50.6118V123.462H75.9208V98.769Z" fill="#F6417B" fill-opacity="0.63"/>
<path d="M126.539 123.462H101.23V148.155H126.539V123.462Z" fill="#F6417B" fill-opacity="0.63"/>
<path d="M126.539 148.154H101.23V172.848H126.539V148.154Z" fill="#F6417B" fill-opacity="0.63"/>
<path d="M126.539 172.843H101.23V197.536H126.539V172.843Z" fill="#F6417B" fill-opacity="0.63"/>
<path d="M101.23 123.462H75.9214V148.155H101.23V123.462Z" fill="#F6417B" fill-opacity="0.63"/>
<path d="M101.23 148.154H75.9214V172.848H101.23V148.154Z" fill="#F6417B" fill-opacity="0.63"/>
<path d="M75.9208 123.462H50.6118V148.155H75.9208V123.462Z" fill="#F6417B" fill-opacity="0.63"/>
<path d="M50.6123 98.769H25.3032V123.462H50.6123V98.769Z" fill="#F6417B" fill-opacity="0.63"/>
<path d="M25.309 49.3857H0V74.0791H25.309V49.3857Z" fill="#F6417B" fill-opacity="0.63"/>
<path d="M25.309 74.0732H0V98.7666H25.309V74.0732Z" fill="#F6417B" fill-opacity="0.63"/>
<path d="M25.309 98.769H0V123.462H25.309V98.769Z" fill="#F6417B" fill-opacity="0.63"/>
<path d="M50.6123 123.462H25.3032V148.155H50.6123V123.462Z" fill="#F6417B" fill-opacity="0.63"/>
<path d="M75.9208 148.154H50.6118V172.848H75.9208V148.154Z" fill="#F6417B" fill-opacity="0.63"/>
<path d="M101.23 172.843H75.9214V197.536H101.23V172.843Z" fill="#F6417B" fill-opacity="0.63"/>
<path d="M126.539 197.535H101.23V222.229H126.539V197.535Z" fill="#F6417B" fill-opacity="0.63"/>
<path d="M151.843 222.229H126.534V246.922H151.843V222.229Z" fill="#F6417B" fill-opacity="0.63"/>
<path d="M177.151 246.917H151.842V271.61H177.151V246.917Z" fill="#F6417B" fill-opacity="0.63"/>
<path d="M202.46 24.6934H177.151V49.3867H202.46V24.6934Z" fill="#F6417B" fill-opacity="0.63"/>
<path d="M227.77 0H202.461V24.6934H227.77V0Z" fill="#F6417B" fill-opacity="0.63"/>
<path d="M253.073 0H227.764V24.6934H253.073V0Z" fill="#F6417B" fill-opacity="0.63"/>
<path d="M278.382 0H253.073V24.6934H278.382V0Z" fill="#F6417B" fill-opacity="0.63"/>
<path d="M303.69 24.6934H278.381V49.3867H303.69V24.6934Z" fill="#F6417B" fill-opacity="0.63"/>
<path d="M329 49.3857H303.691V74.0791H329V49.3857Z" fill="#F6417B" fill-opacity="0.63"/>
<path d="M329 74.0732H303.691V98.7666H329V74.0732Z" fill="#F6417B" fill-opacity="0.63"/>
<path d="M329 98.769H303.691V123.462H329V98.769Z" fill="#F6417B" fill-opacity="0.63"/>
<path d="M303.69 123.462H278.381V148.155H303.69V123.462Z" fill="#F6417B" fill-opacity="0.63"/>
<path d="M278.382 148.154H253.073V172.848H278.382V148.154Z" fill="#F6417B" fill-opacity="0.63"/>
<path d="M253.073 172.843H227.764V197.536H253.073V172.843Z" fill="#F6417B" fill-opacity="0.63"/>
<path d="M227.77 197.535H202.461V222.229H227.77V197.535Z" fill="#F6417B" fill-opacity="0.63"/>
<path d="M202.46 222.229H177.151V246.923H202.46V222.229Z" fill="#F6417B" fill-opacity="0.63"/>
</svg>
