<svg width="329" height="272" viewBox="0 0 329 272" fill="none" xmlns="http://www.w3.org/2000/svg">
<path d="M151.845 24.6934H126.536V49.3866H151.845V24.6934Z" fill="#F6417B" fill-opacity="0.63"/>
<path d="M177.155 49.3857H151.845V74.0789H177.155V49.3857Z" fill="#F6417B" fill-opacity="0.63"/>
<path d="M126.536 0H101.226V24.6932H126.536V0Z" fill="#F6417B" fill-opacity="0.63"/>
<path d="M101.232 0H75.9229V24.6932H101.232V0Z" fill="#F6417B" fill-opacity="0.63"/>
<path d="M75.9222 0H50.6128V24.6932H75.9222V0Z" fill="#F6417B" fill-opacity="0.63"/>
<path d="M50.6137 24.6934H25.3042V49.3866H50.6137V24.6934Z" fill="#F6417B" fill-opacity="0.63"/>
<path d="M151.845 74.0732H126.536V98.7664H151.845V74.0732Z" fill="#F6417B" fill-opacity="0.63"/>
<path d="M50.6137 74.0732H25.3042V98.7664H50.6137V74.0732Z" fill="#F6417B" fill-opacity="0.63"/>
<path d="M151.845 98.7656H126.536V123.459H151.845V98.7656Z" fill="#F6417B" fill-opacity="0.63"/>
<path d="M151.845 123.458H126.536V148.151H151.845V123.458Z" fill="#F6417B" fill-opacity="0.63"/>
<path d="M151.845 148.151H126.536V172.845H151.845V148.151Z" fill="#F6417B" fill-opacity="0.63"/>
<path d="M151.845 172.844H126.536V197.537H151.845V172.844Z" fill="#F6417B" fill-opacity="0.63"/>
<path d="M151.845 197.536H126.536V222.229H151.845V197.536Z" fill="#F6417B" fill-opacity="0.63"/>
<path d="M177.155 74.0732H151.845V98.7664H177.155V74.0732Z" fill="#F6417B" fill-opacity="0.63"/>
<path d="M177.155 98.7656H151.845V123.459H177.155V98.7656Z" fill="#F6417B" fill-opacity="0.63"/>
<path d="M177.155 123.458H151.845V148.151H177.155V123.458Z" fill="#F6417B" fill-opacity="0.63"/>
<path d="M177.155 148.151H151.845V172.845H177.155V148.151Z" fill="#F6417B" fill-opacity="0.63"/>
<path d="M177.155 172.844H151.845V197.537H177.155V172.844Z" fill="#F6417B" fill-opacity="0.63"/>
<path d="M177.155 197.536H151.845V222.229H177.155V197.536Z" fill="#F6417B" fill-opacity="0.63"/>
<path d="M202.464 74.0732H177.155V98.7664H202.464V74.0732Z" fill="#F6417B" fill-opacity="0.63"/>
<path d="M202.464 98.7656H177.155V123.459H202.464V98.7656Z" fill="#F6417B" fill-opacity="0.63"/>
<path d="M202.464 123.458H177.155V148.151H202.464V123.458Z" fill="#F6417B" fill-opacity="0.63"/>
<path d="M202.464 148.151H177.155V172.845H202.464V148.151Z" fill="#F6417B" fill-opacity="0.63"/>
<path d="M202.464 172.844H177.155V197.537H202.464V172.844Z" fill="#F6417B" fill-opacity="0.63"/>
<path d="M227.774 74.0732H202.465V98.7664H227.774V74.0732Z" fill="#F6417B" fill-opacity="0.63"/>
<path d="M227.774 98.7656H202.465V123.459H227.774V98.7656Z" fill="#F6417B" fill-opacity="0.63"/>
<path d="M227.774 123.458H202.465V148.151H227.774V123.458Z" fill="#F6417B" fill-opacity="0.63"/>
<path d="M227.774 148.151H202.465V172.845H227.774V148.151Z" fill="#F6417B" fill-opacity="0.63"/>
<path d="M253.077 74.0732H227.768V98.7664H253.077V74.0732Z" fill="#F6417B" fill-opacity="0.63"/>
<path d="M253.077 98.7656H227.768V123.459H253.077V98.7656Z" fill="#F6417B" fill-opacity="0.63"/>
<path d="M253.077 123.458H227.768V148.151H253.077V123.458Z" fill="#F6417B" fill-opacity="0.63"/>
<path d="M278.387 74.0732H253.078V98.7664H278.387V74.0732Z" fill="#F6417B" fill-opacity="0.63"/>
<path d="M278.387 98.7656H253.078V123.459H278.387V98.7656Z" fill="#F6417B" fill-opacity="0.63"/>
<path d="M303.697 74.0732H278.387V98.7664H303.697V74.0732Z" fill="#F6417B" fill-opacity="0.63"/>
<path d="M303.697 98.7656H278.387V123.459H303.697V98.7656Z" fill="#F6417B" fill-opacity="0.63"/>
<path d="M278.387 123.458H253.078V148.151H278.387V123.458Z" fill="#F6417B" fill-opacity="0.63"/>
<path d="M253.077 148.151H227.768V172.845H253.077V148.151Z" fill="#F6417B" fill-opacity="0.63"/>
<path d="M227.774 172.844H202.465V197.537H227.774V172.844Z" fill="#F6417B" fill-opacity="0.63"/>
<path d="M202.464 197.536H177.155V222.229H202.464V197.536Z" fill="#F6417B" fill-opacity="0.63"/>
<path d="M177.155 222.229H151.845V246.923H177.155V222.229Z" fill="#F6417B" fill-opacity="0.63"/>
<path d="M126.536 74.0732H101.226V98.7664H126.536V74.0732Z" fill="#F6417B" fill-opacity="0.63"/>
<path d="M101.232 74.0732H75.9229V98.7664H101.232V74.0732Z" fill="#F6417B" fill-opacity="0.63"/>
<path d="M75.9222 74.0732H50.6128V98.7664H75.9222V74.0732Z" fill="#F6417B" fill-opacity="0.63"/>
<path d="M126.536 98.7656H101.226V123.459H126.536V98.7656Z" fill="#F6417B" fill-opacity="0.63"/>
<path d="M101.232 98.7656H75.9229V123.459H101.232V98.7656Z" fill="#F6417B" fill-opacity="0.63"/>
<path d="M75.9222 98.7656H50.6128V123.459H75.9222V98.7656Z" fill="#F6417B" fill-opacity="0.63"/>
<path d="M126.536 123.458H101.226V148.151H126.536V123.458Z" fill="#F6417B" fill-opacity="0.63"/>
<path d="M126.536 148.151H101.226V172.845H126.536V148.151Z" fill="#F6417B" fill-opacity="0.63"/>
<path d="M126.536 172.844H101.226V197.537H126.536V172.844Z" fill="#F6417B" fill-opacity="0.63"/>
<path d="M101.232 123.458H75.9229V148.151H101.232V123.458Z" fill="#F6417B" fill-opacity="0.63"/>
<path d="M101.232 148.151H75.9229V172.845H101.232V148.151Z" fill="#F6417B" fill-opacity="0.63"/>
<path d="M75.9222 123.458H50.6128V148.151H75.9222V123.458Z" fill="#F6417B" fill-opacity="0.63"/>
<path d="M50.6137 98.7656H25.3042V123.459H50.6137V98.7656Z" fill="#F6417B" fill-opacity="0.63"/>
<path d="M25.3094 49.3857H0V74.0789H25.3094V49.3857Z" fill="#F6417B" fill-opacity="0.63"/>
<path d="M25.3094 74.0732H0V98.7664H25.3094V74.0732Z" fill="#F6417B" fill-opacity="0.63"/>
<path d="M25.3094 98.7656H0V123.459H25.3094V98.7656Z" fill="#F6417B" fill-opacity="0.63"/>
<path d="M50.6137 123.458H25.3042V148.151H50.6137V123.458Z" fill="#F6417B" fill-opacity="0.63"/>
<path d="M75.9222 148.151H50.6128V172.845H75.9222V148.151Z" fill="#F6417B" fill-opacity="0.63"/>
<path d="M101.232 172.844H75.9229V197.537H101.232V172.844Z" fill="#F6417B" fill-opacity="0.63"/>
<path d="M126.536 197.536H101.226V222.229H126.536V197.536Z" fill="#F6417B" fill-opacity="0.63"/>
<path d="M151.845 222.229H126.536V246.923H151.845V222.229Z" fill="#F6417B" fill-opacity="0.63"/>
<path d="M177.155 246.917H151.845V271.61H177.155V246.917Z" fill="#F6417B" fill-opacity="0.63"/>
<path d="M202.464 24.6934H177.155V49.3866H202.464V24.6934Z" fill="#F6417B" fill-opacity="0.63"/>
<path d="M227.774 0H202.465V24.6932H227.774V0Z" fill="#F6417B" fill-opacity="0.63"/>
<path d="M253.078 0H227.768V24.6932H253.078V0Z" fill="#F6417B" fill-opacity="0.63"/>
<path d="M278.387 0H253.078V24.6932H278.387V0Z" fill="#F6417B" fill-opacity="0.63"/>
<path d="M303.697 24.6934H278.387V49.3866H303.697V24.6934Z" fill="#F6417B" fill-opacity="0.63"/>
<path d="M329 49.3857H303.691V74.0789H329V49.3857Z" fill="#F6417B" fill-opacity="0.63"/>
<path d="M329 74.0732H303.691V98.7664H329V74.0732Z" fill="#F6417B" fill-opacity="0.63"/>
<path d="M329 98.7656H303.691V123.459H329V98.7656Z" fill="#F6417B" fill-opacity="0.63"/>
<path d="M303.697 123.458H278.387V148.151H303.697V123.458Z" fill="#F6417B" fill-opacity="0.63"/>
<path d="M278.387 148.151H253.078V172.845H278.387V148.151Z" fill="#F6417B" fill-opacity="0.63"/>
<path d="M253.078 172.844H227.768V197.537H253.078V172.844Z" fill="#F6417B" fill-opacity="0.63"/>
<path d="M227.774 197.536H202.465V222.229H227.774V197.536Z" fill="#F6417B" fill-opacity="0.63"/>
<path d="M202.464 222.229H177.155V246.923H202.464V222.229Z" fill="#F6417B" fill-opacity="0.63"/>
</svg>
