<svg width="103" height="116" viewBox="0 0 103 116" fill="none" xmlns="http://www.w3.org/2000/svg">
<path d="M26.4504 22.2942L19.4683 26.45L43.6103 69.5586L38.1069 68.0447L32.6041 66.5304L25.622 70.6862L29.6455 77.8706L37.1604 82.9778L44.6753 88.085L50.1781 89.5993L57.6933 94.7055L56.2137 100.377L58.2255 103.969L93.1379 83.1887L91.1262 79.5965L85.623 78.0815L85.0906 68.8192L84.5578 59.5562L70.4748 34.4093L66.9838 36.4872L61.481 34.9728L54.4982 39.129L48.9954 37.6147L42.0127 41.7709L26.4504 22.2942Z" fill="#4D4951"/>
<path d="M22.9594 24.372L19.4683 26.45L21.48 30.0422L24.9711 27.9642L22.9594 24.372Z" fill="#6C6970"/>
<path d="M38.1069 68.0447L34.6159 70.1226L36.6276 73.7148L40.1186 71.6369L38.1069 68.0447Z" fill="#6C6970"/>
<path d="M32.6041 66.5302L29.1131 68.6082L31.1248 72.2004L34.6159 70.1225L32.6041 66.5302Z" fill="#6C6970"/>
<path d="M29.1131 68.6084L25.622 70.6863L27.6338 74.2785L31.1248 72.2006L29.1131 68.6084Z" fill="#6C6970"/>
<path d="M26.4504 22.2942L22.9594 24.3721L24.9711 27.9643L28.4621 25.8864L26.4504 22.2942Z" fill="#6C6970"/>
<path d="M45.5037 39.6931L42.0126 41.771L44.0244 45.3632L47.5155 43.2853L45.5037 39.6931Z" fill="#6C6970"/>
<path d="M48.9954 37.6147L45.5044 39.6926L47.5161 43.2849L51.0071 41.207L48.9954 37.6147Z" fill="#6C6970"/>
<path d="M57.9893 37.0513L54.4982 39.1292L56.51 42.7214L60.001 40.6435L57.9893 37.0513Z" fill="#6C6970"/>
<path d="M70.4748 34.4092L66.9837 36.4871L68.9955 40.0793L72.4865 38.0014L70.4748 34.4092Z" fill="#6C6970"/>
<path d="M61.4803 34.9731L57.9893 37.051L60.001 40.6432L63.492 38.5653L61.4803 34.9731Z" fill="#6C6970"/>
<path d="M51.6574 83.9292L48.1664 86.0071L50.1781 89.5993L53.6692 87.5214L51.6574 83.9292Z" fill="#161419"/>
<path d="M59.1726 89.0354L55.6815 91.1133L57.6933 94.7055L61.1844 92.6276L59.1726 89.0354Z" fill="#161419"/>
<path d="M62.6637 86.9575L59.1726 89.0354L61.1844 92.6276L64.6754 90.5497L62.6637 86.9575Z" fill="#161419"/>
<path d="M66.1547 84.8796L62.6637 86.9575L64.6754 90.5497L68.1664 88.4719L66.1547 84.8796Z" fill="#161419"/>
<path d="M69.6458 82.8017L66.1547 84.8796L68.1664 88.4719L71.6575 86.3939L69.6458 82.8017Z" fill="#161419"/>
<path d="M73.1374 80.7234L69.6464 82.8013L71.6582 86.3935L75.1492 84.3156L73.1374 80.7234Z" fill="#161419"/>
<path d="M83.6106 74.4897L80.1196 76.5676L82.1313 80.1599L85.6223 78.082L83.6106 74.4897Z" fill="#161419"/>
<path d="M82.1313 80.1597L78.6403 82.2375L80.652 85.8298L84.1431 83.7519L82.1313 80.1597Z" fill="#161419"/>
<path d="M91.1262 79.5964L87.6351 81.6743L89.6469 85.2665L93.1379 83.1886L91.1262 79.5964Z" fill="#161419"/>
<path d="M87.6345 81.6748L84.1434 83.7527L86.1552 87.3449L89.6462 85.267L87.6345 81.6748Z" fill="#161419"/>
<path d="M84.1434 83.7527L80.6524 85.8306L82.6641 89.4228L86.1552 87.3449L84.1434 83.7527Z" fill="#161419"/>
<path d="M80.6524 85.8305L77.1613 87.9084L79.1731 91.5007L82.6641 89.4227L80.6524 85.8305Z" fill="#161419"/>
<path d="M77.1613 87.9084L73.6703 89.9863L75.682 93.5785L79.1731 91.5006L77.1613 87.9084Z" fill="#161419"/>
<path d="M73.6696 89.9868L70.1786 92.0647L72.1903 95.6569L75.6814 93.579L73.6696 89.9868Z" fill="#161419"/>
<path d="M70.1786 92.0647L66.6875 94.1426L68.6993 97.7348L72.1903 95.6569L70.1786 92.0647Z" fill="#161419"/>
<path d="M66.6875 94.1426L63.1965 96.2205L65.2082 99.8127L68.6993 97.7348L66.6875 94.1426Z" fill="#161419"/>
<path d="M63.1965 96.2204L59.7054 98.2983L61.7172 101.891L65.2082 99.8126L63.1965 96.2204Z" fill="#161419"/>
<path d="M59.7048 98.2988L56.2137 100.377L58.2255 103.969L61.7165 101.891L59.7048 98.2988Z" fill="#161419"/>
<path d="M83.0788 65.2268L79.5878 67.3047L81.5995 70.8969L85.0906 68.819L83.0788 65.2268Z" fill="#161419"/>
<path d="M20.9476 20.7797L17.4565 22.8577L19.4683 26.4499L22.9594 24.372L20.9476 20.7797Z" fill="white"/>
<path d="M19.4676 26.4504L15.9766 28.5283L17.9883 32.1205L21.4794 30.0426L19.4676 26.4504Z" fill="white"/>
<path d="M23.4915 33.6355L20.0005 35.7134L22.0122 39.3056L25.5032 37.2277L23.4915 33.6355Z" fill="white"/>
<path d="M25.5032 37.2278L22.0122 39.3057L24.0239 42.8979L27.515 40.82L25.5032 37.2278Z" fill="white"/>
<path d="M27.515 40.8198L24.0239 42.8977L26.0357 46.4899L29.5267 44.412L27.515 40.8198Z" fill="white"/>
<path d="M29.5267 44.4121L26.0357 46.49L28.0474 50.0822L31.5385 48.0043L29.5267 44.4121Z" fill="white"/>
<path d="M31.5389 48.0051L28.0478 50.083L30.0596 53.6752L33.5506 51.5973L31.5389 48.0051Z" fill="white"/>
<path d="M33.5506 51.5971L30.0596 53.675L32.0713 57.2673L35.5623 55.1893L33.5506 51.5971Z" fill="white"/>
<path d="M35.5623 55.1894L32.0713 57.2673L34.083 60.8596L37.5741 58.7817L35.5623 55.1894Z" fill="white"/>
<path d="M37.5745 58.7824L34.0834 60.8604L36.0952 64.4526L39.5862 62.3747L37.5745 58.7824Z" fill="white"/>
<path d="M39.5862 62.3745L36.0952 64.4524L38.1069 68.0446L41.5979 65.9667L39.5862 62.3745Z" fill="white"/>
<path d="M36.0952 64.4524L32.6041 66.5303L34.6159 70.1225L38.1069 68.0446L36.0952 64.4524Z" fill="white"/>
<path d="M30.5924 62.9382L27.1013 65.0161L29.1131 68.6083L32.6041 66.5304L30.5924 62.9382Z" fill="white"/>
<path d="M27.1013 65.0161L23.6103 67.094L25.622 70.6862L29.1131 68.6083L27.1013 65.0161Z" fill="white"/>
<path d="M23.6096 67.0945L20.1186 69.1724L22.1303 72.7646L25.6214 70.6867L23.6096 67.0945Z" fill="white"/>
<path d="M25.6214 70.6865L22.1303 72.7644L24.142 76.3566L27.6331 74.2787L25.6214 70.6865Z" fill="white"/>
<path d="M27.6331 74.2788L24.1421 76.3567L26.1538 79.9489L29.6449 77.871L27.6331 74.2788Z" fill="white"/>
<path d="M33.1365 75.7927L29.6455 77.8706L31.6572 81.4628L35.1483 79.3849L33.1365 75.7927Z" fill="white"/>
<path d="M35.1487 79.3857L31.6576 81.4636L33.6694 85.0558L37.1604 82.9779L35.1487 79.3857Z" fill="white"/>
<path d="M40.6515 80.8999L37.1604 82.9778L39.1722 86.57L42.6632 84.4921L40.6515 80.8999Z" fill="white"/>
<path d="M42.6632 84.4922L39.1722 86.5701L41.1839 90.1623L44.675 88.0844L42.6632 84.4922Z" fill="white"/>
<path d="M48.1664 86.0071L44.6753 88.085L46.6871 91.6772L50.1781 89.5993L48.1664 86.0071Z" fill="white"/>
<path d="M53.6692 87.5215L50.1781 89.5994L52.1899 93.1916L55.6809 91.1137L53.6692 87.5215Z" fill="white"/>
<path d="M55.6809 91.1137L52.1898 93.1917L54.2016 96.7839L57.6927 94.706L55.6809 91.1137Z" fill="white"/>
<path d="M61.1844 92.6276L57.6933 94.7056L59.705 98.2978L63.1961 96.2199L61.1844 92.6276Z" fill="white"/>
<path d="M57.6927 94.7058L54.2016 96.7837L56.2133 100.376L59.7044 98.298L57.6927 94.7058Z" fill="white"/>
<path d="M54.2016 96.7837L50.7106 98.8616L52.7223 102.454L56.2134 100.376L54.2016 96.7837Z" fill="white"/>
<path d="M56.2137 100.377L52.7227 102.455L54.7344 106.047L58.2255 103.969L56.2137 100.377Z" fill="white"/>
<path d="M58.2255 103.969L54.7344 106.047L56.7462 109.639L60.2372 107.561L58.2255 103.969Z" fill="white"/>
<path d="M61.7165 101.891L58.2255 103.969L60.2372 107.561L63.7283 105.483L61.7165 101.891Z" fill="white"/>
<path d="M65.2082 99.8127L61.7172 101.891L63.7289 105.483L67.22 103.405L65.2082 99.8127Z" fill="white"/>
<path d="M68.6993 97.7349L65.2082 99.8127L67.22 103.405L70.711 101.327L68.6993 97.7349Z" fill="white"/>
<path d="M72.1903 95.657L68.6993 97.7349L70.711 101.327L74.202 99.2492L72.1903 95.657Z" fill="white"/>
<path d="M75.6814 93.5791L72.1903 95.657L74.2021 99.2492L77.6931 97.1713L75.6814 93.5791Z" fill="white"/>
<path d="M79.1731 91.5007L75.682 93.5786L77.6938 97.1708L81.1848 95.0929L79.1731 91.5007Z" fill="white"/>
<path d="M82.6641 89.4228L79.1731 91.5007L81.1848 95.093L84.6759 93.015L82.6641 89.4228Z" fill="white"/>
<path d="M86.1552 87.345L82.6641 89.4229L84.6759 93.0151L88.1669 90.9372L86.1552 87.345Z" fill="white"/>
<path d="M89.6462 85.2671L86.1552 87.345L88.1669 90.9372L91.6579 88.8593L89.6462 85.2671Z" fill="white"/>
<path d="M93.1379 83.1887L89.6469 85.2666L91.6586 88.8588L95.1497 86.7809L93.1379 83.1887Z" fill="white"/>
<path d="M96.629 81.1108L93.1379 83.1887L95.1497 86.7809L98.6407 84.7031L96.629 81.1108Z" fill="white"/>
<path d="M94.6172 77.5185L91.1262 79.5964L93.1379 83.1886L96.629 81.1107L94.6172 77.5185Z" fill="white"/>
<path d="M92.6051 73.9258L89.1141 76.0037L91.1258 79.5959L94.6168 77.518L92.6051 73.9258Z" fill="white"/>
<path d="M89.1141 76.0037L85.623 78.0815L87.6348 81.6738L91.1258 79.5959L89.1141 76.0037Z" fill="white"/>
<path d="M64.6754 90.5498L61.1844 92.6277L63.1961 96.2199L66.6872 94.142L64.6754 90.5498Z" fill="white"/>
<path d="M68.1665 88.4719L64.6754 90.5498L66.6872 94.142L70.1782 92.0641L68.1665 88.4719Z" fill="white"/>
<path d="M71.6575 86.3938L68.1664 88.4717L70.1782 92.0639L73.6693 89.986L71.6575 86.3938Z" fill="white"/>
<path d="M75.1492 84.3157L71.6582 86.3936L73.6699 89.9858L77.1609 87.9079L75.1492 84.3157Z" fill="white"/>
<path d="M41.598 65.9668L38.1069 68.0447L40.1187 71.6369L43.6097 69.559L41.598 65.9668Z" fill="white"/>
<path d="M43.6097 69.5591L40.1186 71.637L42.1304 75.2292L45.6214 73.1513L43.6097 69.5591Z" fill="white"/>
<path d="M24.4387 18.7019L20.9476 20.7798L22.9594 24.372L26.4504 22.2941L24.4387 18.7019Z" fill="white"/>
<path d="M29.9414 20.2163L26.4504 22.2942L28.4621 25.8864L31.9532 23.8085L29.9414 20.2163Z" fill="white"/>
<path d="M33.9653 27.4014L30.4743 29.4792L32.486 33.0715L35.977 30.9936L33.9653 27.4014Z" fill="white"/>
<path d="M21.4794 30.0427L17.9883 32.1206L20.0001 35.7128L23.4911 33.6349L21.4794 30.0427Z" fill="white"/>
<path d="M31.9532 23.8086L28.4621 25.8865L30.4739 29.4787L33.9649 27.4008L31.9532 23.8086Z" fill="white"/>
<path d="M35.977 30.9936L32.486 33.0715L34.4977 36.6638L37.9888 34.5859L35.977 30.9936Z" fill="white"/>
<path d="M37.9888 34.5859L34.4977 36.6638L36.5095 40.256L40.0005 38.1782L37.9888 34.5859Z" fill="white"/>
<path d="M40.0005 38.178L36.5095 40.2559L38.5212 43.8481L42.0123 41.7702L40.0005 38.178Z" fill="white"/>
<path d="M42.0126 41.771L38.5216 43.8489L40.5334 47.4411L44.0244 45.3632L42.0126 41.771Z" fill="white"/>
<path d="M44.0244 45.3633L40.5334 47.4412L42.5451 51.0334L46.0361 48.9555L44.0244 45.3633Z" fill="white"/>
<path d="M46.0361 48.9553L42.5451 51.0332L44.5568 54.6254L48.0479 52.5475L46.0361 48.9553Z" fill="white"/>
<path d="M48.0483 52.5483L44.5572 54.6262L46.569 58.2184L50.06 56.1406L48.0483 52.5483Z" fill="white"/>
<path d="M43.4916 36.1001L40.0005 38.178L42.0123 41.7702L45.5033 39.6923L43.4916 36.1001Z" fill="white"/>
<path d="M46.9833 34.022L43.4922 36.0999L45.504 39.6921L48.995 37.6142L46.9833 34.022Z" fill="white"/>
<path d="M52.4865 35.5368L48.9954 37.6147L51.0071 41.207L54.4982 39.1291L52.4865 35.5368Z" fill="white"/>
<path d="M54.4982 39.1291L51.0071 41.207L53.0189 44.7992L56.51 42.7213L54.4982 39.1291Z" fill="white"/>
<path d="M56.51 42.7212L53.0189 44.7991L55.0306 48.3913L58.5217 46.3134L56.51 42.7212Z" fill="white"/>
<path d="M58.5221 46.3142L55.031 48.3921L57.0428 51.9843L60.5338 49.9064L58.5221 46.3142Z" fill="white"/>
<path d="M55.9775 33.459L52.4865 35.5369L54.4982 39.1291L57.9893 37.0512L55.9775 33.459Z" fill="white"/>
<path d="M64.972 32.895L61.481 34.9729L63.4927 38.5651L66.9837 36.4872L64.972 32.895Z" fill="white"/>
<path d="M66.9837 36.4873L63.4927 38.5652L65.5045 42.1574L68.9955 40.0795L66.9837 36.4873Z" fill="white"/>
<path d="M68.9959 40.0801L65.5048 42.158L67.5166 45.7502L71.0076 43.6723L68.9959 40.0801Z" fill="white"/>
<path d="M71.0076 43.6724L67.5166 45.7502L69.5283 49.3424L73.0194 47.2646L71.0076 43.6724Z" fill="white"/>
<path d="M68.4631 30.8171L64.972 32.895L66.9838 36.4872L70.4748 34.4093L68.4631 30.8171Z" fill="white"/>
<path d="M73.9659 32.3313L70.4748 34.4092L72.4865 38.0014L75.9776 35.9235L73.9659 32.3313Z" fill="white"/>
<path d="M75.978 35.9243L72.4869 38.0022L74.4987 41.5944L77.9897 39.5165L75.978 35.9243Z" fill="white"/>
<path d="M77.9897 39.5166L74.4987 41.5945L76.5104 45.1867L80.0015 43.1088L77.9897 39.5166Z" fill="white"/>
<path d="M80.0015 43.1086L76.5104 45.1865L78.5221 48.7787L82.0132 46.7008L80.0015 43.1086Z" fill="white"/>
<path d="M82.0132 46.7009L78.5221 48.7788L80.5339 52.371L84.025 50.2931L82.0132 46.7009Z" fill="white"/>
<path d="M84.0253 50.2939L80.5343 52.3718L82.546 55.9641L86.0371 53.8861L84.0253 50.2939Z" fill="white"/>
<path d="M86.0371 53.886L82.546 55.9639L84.5578 59.5561L88.0488 57.4782L86.0371 53.886Z" fill="white"/>
<path d="M84.5577 59.5561L81.0667 61.634L83.0784 65.2262L86.5695 63.1483L84.5577 59.5561Z" fill="white"/>
<path d="M86.5699 63.1492L83.0788 65.2271L85.0906 68.8193L88.5816 66.7414L86.5699 63.1492Z" fill="white"/>
<path d="M85.0906 68.8191L81.5995 70.897L83.6113 74.4892L87.1023 72.4113L85.0906 68.8191Z" fill="white"/>
<path d="M87.1023 72.4114L83.6113 74.4893L85.623 78.0815L89.1141 76.0036L87.1023 72.4114Z" fill="white"/>
<path d="M85.6223 78.082L82.1313 80.1599L84.143 83.7521L87.6341 81.6742L85.6223 78.082Z" fill="white"/>
<path d="M59.4685 31.3811L55.9775 33.459L57.9893 37.0512L61.4803 34.9733L59.4685 31.3811Z" fill="white"/>
</svg>
