<svg width="765" height="765" viewBox="0 0 765 765" fill="none" xmlns="http://www.w3.org/2000/svg">
<path d="M585 765H180V720H585V765Z" fill="#D9D9D9"/>
<path d="M180 720H90V675H180V720Z" fill="#D9D9D9"/>
<path d="M675 720H585V675H675V720Z" fill="#D9D9D9"/>
<path d="M90 675H45V630H90V675Z" fill="#D9D9D9"/>
<path d="M720 675H675V630H720V675Z" fill="#D9D9D9"/>
<path d="M45 495H90V540H45V630H0V135H45V90H90V45H180V0H585V45H675V90H720V135H765V630H720V540H675V495H720V405H675V360H720V270H675V315H585V360H180V315H90V270H45V360H90V405H45V495Z" fill="#D9D9D9"/>
<path d="M585 630H180V585H585V630Z" fill="#D9D9D9"/>
<path d="M180 585H90V540H180V585Z" fill="#D9D9D9"/>
<path d="M675 585H585V540H675V585Z" fill="#D9D9D9"/>
<path d="M585 495H180V450H585V495Z" fill="#D9D9D9"/>
<path d="M180 450H90V405H180V450Z" fill="#D9D9D9"/>
<path d="M675 450H585V405H675V450Z" fill="#D9D9D9"/>
<path d="M675 405V360H720V270H675V315H585V360H180V315H90V270H45V360H90V405H180V450H585V405H675Z" fill="#262626"/>
<path d="M45 495H90V540H180V585H585V540H675V495H720V405H675V450H585V495H180V450H90V405H45V495Z" fill="#262626"/>
<path d="M180 720H585V675H675V630H720V540H675V585H585V630H180V585H90V540H45V630H90V675H180V720Z" fill="#262626"/>
</svg>
