<svg viewBox="0 0 180 180" fill="none" xmlns="http://www.w3.org/2000/svg">
<path d="M169.412 180H10.5882V169.412H169.412V180Z" fill="#EFEFEF"/>
<path d="M10.5882 21.1765H169.412V10.5882H180V169.412H169.412V31.7647H10.5882V169.412H0V10.5882H10.5882V21.1765Z" fill="#EFEFEF"/>
<path d="M31.7647 148.235H21.1765V137.647H31.7647V148.235Z" fill="#EFEFEF"/>
<path d="M95.2941 148.235H42.3529V137.647H95.2941V148.235Z" fill="#EFEFEF"/>
<path d="M116.471 148.235H105.882V137.647H116.471V148.235Z" fill="#F6417B"/>
<path d="M158.824 148.235H142.941H127.059V137.647H158.824V148.235Z" fill="#F6417B"/>
<path fill-rule="evenodd" clip-rule="evenodd" d="M74.1177 84.7059H84.7059V95.2941H95.2941V127.059H84.7059V105.882H74.1177V127.059H42.3529V105.882H31.7647V127.059H21.1765V95.2941H31.7647V84.7059H42.3529V52.9412H52.9412V63.5294H63.5294V52.9412H52.9412V42.3529H74.1177V84.7059ZM52.9412 85.0588H63.5294V74.1177H52.9412V85.0588Z" fill="#EFEFEF"/>
<path d="M116.471 127.059H105.882V116.471H116.471V127.059Z" fill="#F6417B"/>
<path d="M158.824 127.059H127.059V116.471H158.824V127.059Z" fill="#F6417B"/>
<path d="M158.824 106.235H127.059V95.6471H158.824V106.235Z" fill="#F6417B"/>
<path d="M116.471 105.882H105.882V95.2941H116.471V105.882Z" fill="#F6417B"/>
<path d="M137.647 52.9412H148.235V63.5294H137.647V74.1177H127.059V63.5294H116.471V52.9412H127.059V42.3529H137.647V52.9412Z" fill="#36EBFF"/>
<path d="M169.412 10.5882H10.5882V0H169.412V10.5882Z" fill="#EFEFEF"/>
<path fill-rule="evenodd" clip-rule="evenodd" d="M10.5882 169.412H169.412V31.7647H10.5882V169.412ZM21.1765 148.235H31.7647V137.647H21.1765V148.235ZM42.3529 148.235H95.2941V137.647H42.3529V148.235ZM105.882 148.235H116.471V137.647H105.882V148.235ZM127.059 137.647V148.235H142.941H158.824V137.647H127.059ZM74.1177 84.7059H84.7059V95.2941H95.2941V127.059H84.7059V105.882H74.1177V127.059H42.3529V105.882H31.7647V127.059H21.1765V95.2941H31.7647V84.7059H42.3529V52.9412H52.9412V42.3529H74.1177V84.7059ZM105.882 127.059H116.471V116.471H105.882V127.059ZM127.059 127.059H158.824V116.471H127.059V127.059ZM127.059 106.235H158.824V95.6471H127.059V106.235ZM105.882 105.882H116.471V95.2941H105.882V105.882ZM148.235 52.9412H137.647V42.3529H127.059V52.9412H116.471V63.5294H127.059V74.1177H137.647V63.5294H148.235V52.9412Z" fill="#262626"/>
<path d="M10.5882 21.1765H169.412V10.5882H10.5882V21.1765Z" fill="#262626"/>
<g opacity="0.3">
</g>
</svg>
