<svg width="825" height="825" viewBox="0 0 825 825" fill="none" xmlns="http://www.w3.org/2000/svg">
<path d="M750 750V795H75V750H750Z" fill="#EFEFEF"/>
<path fill-rule="evenodd" clip-rule="evenodd" d="M750 75H795V750H750V255H75V750H30V75H75V30H750V75ZM120 165H165V120H120V165ZM210 165H255V120H210V165ZM300 165H345V120H300V165Z" fill="#EFEFEF"/>
<path d="M390 615H345V525H390V615Z" fill="#36EBFF"/>
<path d="M300 613.5H255V568.5H300V613.5Z" fill="#36EBFF"/>
<path d="M570 613.5H525V568.5H570V613.5Z" fill="#36EBFF"/>
<path d="M255 568.5H210V523.5H255V568.5Z" fill="#36EBFF"/>
<path d="M615 568.5H570V523.5H615V568.5Z" fill="#36EBFF"/>
<path d="M435 525H390V435H435V525Z" fill="#36EBFF"/>
<path d="M300 436.5H255V480H210V523.5H165V478.5H210V435H255V391.5H300V436.5Z" fill="#36EBFF"/>
<path d="M660 523.5H615V478.5H660V523.5Z" fill="#36EBFF"/>
<path d="M615 478.5H570V433.5H615V478.5Z" fill="#36EBFF"/>
<path d="M480 435H435V345H480V435Z" fill="#36EBFF"/>
<path d="M570 433.5H525V388.5H570V433.5Z" fill="#36EBFF"/>
<path d="M300 165H345V120H300V165Z" fill="#F6417B"/>
<path d="M210 165H255V120H210V165Z" fill="#F6417B"/>
<path d="M120 165H165V120H120V165Z" fill="#F6417B"/>
<path fill-rule="evenodd" clip-rule="evenodd" d="M75 750H750V255H75V750ZM390 615H345V525H390V435H435V345H480V435H435V525H390V615ZM300 613.5H255V568.5H210V523.5H165V478.5H210V435H255V391.5H300V436.5H255V480H210V523.5H255V568.5H300V613.5ZM570 613.5H525V568.5H570V523.5H615V478.5H570V433.5H525V388.5H570V433.5H615V478.5H660V523.5H615V568.5H570V613.5Z" fill="#262626"/>
<g opacity="0.3" filter="url(#filter0_f_127_216)">
<path d="M390 615H345V525H390V615Z" fill="#36EBFF"/>
<path d="M300 613.5H255V568.5H300V613.5Z" fill="#36EBFF"/>
<path d="M570 613.5H525V568.5H570V613.5Z" fill="#36EBFF"/>
<path d="M255 568.5H210V523.5H255V568.5Z" fill="#36EBFF"/>
<path d="M615 568.5H570V523.5H615V568.5Z" fill="#36EBFF"/>
<path d="M435 525H390V435H435V525Z" fill="#36EBFF"/>
<path d="M300 436.5H255V480H210V523.5H165V478.5H210V435H255V391.5H300V436.5Z" fill="#36EBFF"/>
<path d="M660 523.5H615V478.5H660V523.5Z" fill="#36EBFF"/>
<path d="M615 478.5H570V433.5H615V478.5Z" fill="#36EBFF"/>
<path d="M480 435H435V345H480V435Z" fill="#36EBFF"/>
<path d="M570 433.5H525V388.5H570V433.5Z" fill="#36EBFF"/>
<path d="M300 165H345V120H300V165Z" fill="#36EBFF"/>
<path d="M210 165H255V120H210V165Z" fill="#36EBFF"/>
<path d="M120 165H165V120H120V165Z" fill="#36EBFF"/>
</g>
<defs>
<filter id="filter0_f_127_216" x="0" y="0" width="825" height="825" filterUnits="userSpaceOnUse" color-interpolation-filters="sRGB">
<feFlood flood-opacity="0" result="BackgroundImageFix"/>
<feBlend mode="normal" in="SourceGraphic" in2="BackgroundImageFix" result="shape"/>
<feGaussianBlur stdDeviation="15" result="effect1_foregroundBlur_127_216"/>
</filter>
</defs>
</svg>
