<svg width="2314" height="1823" viewBox="0 0 2314 1823" fill="none" xmlns="http://www.w3.org/2000/svg">
<path fill-rule="evenodd" clip-rule="evenodd" d="M1381.51 12.7449H1368.57H1355.63H1342.69V0H1355.63H1368.57H1381.51H1394.45H1407.39V12.7449H1420.34H1433.28V25.4898H1446.22V38.2346H1433.28V50.9795H1446.22V38.2346H1459.16V50.9795H1446.22V63.7244H1459.16V50.9795H1472.1V63.7244H1459.16V76.4693H1472.1V63.7244H1485.04V76.4693H1472.1V89.2141H1485.04V76.4693H1497.98V89.2141H1485.04V101.959H1497.98V89.2141H1510.93V101.959H1497.98V114.704H1510.93V101.959H1523.87V114.704H1510.93V127.449H1523.87V114.704H1536.81V127.449H1523.87V140.194H1536.81V127.449H1549.75V140.194H1536.81V152.939H1549.75V140.194H1562.69V152.939H1549.75V165.683H1562.69V152.939H1575.63V165.683H1562.69V178.428H1575.63V165.683H1588.58V178.428H1575.63V191.173H1588.58V178.428H1601.52V191.173H1588.58V203.918H1601.52V191.173H1614.46V203.918H1601.52V216.663H1614.46V203.918H1627.4V216.663H1614.46V229.408H1627.4V216.663H1640.34V229.408H1627.4V242.153H1640.34V229.408H1653.28V242.153H1640.34V254.898H1653.28V242.153H1666.22V254.898H1653.28V267.642H1666.22V254.898H1679.17V267.642H1666.22V280.387H1679.17V267.642H1692.11V280.387H1679.17V293.132H1692.11V280.387H1705.05V293.132H1692.11V305.877H1705.05V293.132H1717.99V305.877H1705.05V318.622H1717.99V305.877H1730.93V318.622H1743.87V331.367H1756.82V344.112H1769.76V356.857V369.601H1756.82V356.857V344.112H1743.87H1730.93V331.367H1717.99H1705.05H1692.11V344.112V356.857V369.601V382.346H1679.17V395.091V407.836V420.581H1666.22V433.326V446.071V458.816V471.561H1653.28V484.305V497.05V509.795H1666.22V522.54H1679.17V535.285H1692.11V548.03H1705.05V535.285V522.54V509.795H1717.99V497.05V484.305V471.561V458.816H1730.93V446.071V433.326V420.581H1743.87V407.836V395.091V382.346V369.601H1756.82V382.346V395.091V407.836V420.581H1743.87V433.326V446.071V458.816H1730.93V471.561V484.305V497.05V509.795H1717.99V522.54V535.285V548.03V560.775H1705.05H1692.11H1679.17V548.03H1666.22H1653.28V535.285H1640.34H1627.4V522.54H1614.46V509.795H1601.52V497.05H1588.58V484.305H1575.63V471.561H1562.69V458.816H1549.75V446.071H1536.81V433.326H1523.87V420.581H1510.93V407.836H1497.98V395.091H1485.04V382.346H1472.1V369.601H1459.16V356.857H1446.22V344.112H1433.28V331.367H1420.34V318.622H1407.39V305.877H1394.45V318.622H1381.51V305.877V293.132V280.387H1368.57V267.642H1355.63V254.898H1342.69V242.153H1329.74V254.898V267.642V280.387H1316.8V293.132V305.877V318.622V331.367H1303.86V344.112H1316.8V356.857H1329.74V369.601H1342.69V382.346H1355.63V369.601H1368.57V356.857V344.112V331.367V318.622H1381.51V331.367V344.112V356.857V369.601H1368.57V382.346V395.091H1355.63V407.836H1342.69V395.091H1329.74H1316.8V382.346H1303.86H1290.92V369.601H1277.98V356.857H1265.04V344.112H1252.1V331.367H1239.15V318.622H1226.21V305.877H1213.27V293.132H1200.33V280.387H1187.39V267.642H1174.45V254.898H1161.5V242.153H1148.56V229.408H1135.62V216.663H1148.56H1161.5H1174.45V229.408H1161.5V242.153H1174.45V254.898H1187.39V267.642H1200.33V280.387H1213.27V293.132H1226.21V305.877H1239.15V318.622H1252.1V331.367H1265.04V344.112H1277.98V356.857H1290.92V344.112V331.367H1277.98V318.622H1290.92V331.367H1303.86V318.622V305.877V293.132V280.387H1316.8V267.642V254.898V242.153V229.408H1329.74H1342.69H1355.63V242.153H1368.57H1381.51V254.898H1368.57V267.642H1381.51V280.387H1394.45V267.642H1381.51V254.898H1394.45H1407.39V267.642H1420.34V280.387H1433.28V293.132H1446.22V305.877H1459.16V318.622H1472.1V331.367H1485.04V344.112H1497.98V356.857H1510.93V369.601H1523.87V382.346H1536.81V395.091H1549.75V407.836H1562.69V420.581H1575.63V433.326H1588.58V446.071H1601.52V458.816H1614.46V471.561H1627.4V484.305H1640.34V471.561H1653.28V458.816V446.071V433.326V420.581H1666.22V407.836V395.091V382.346H1679.17V369.601V356.857V344.112V331.367H1692.11V318.622V305.877H1679.17V293.132H1666.22V280.387H1653.28V267.642H1640.34V254.898H1627.4V242.153H1614.46V229.408H1601.52V216.663H1588.58V203.918H1575.63V191.173H1562.69V178.428H1549.75V165.683H1536.81V152.939H1523.87V140.194H1510.93V127.449H1497.98V114.704H1485.04V101.959H1472.1V89.2141H1459.16V76.4693H1446.22V63.7244H1433.28V50.9795H1420.34H1407.39H1394.45H1381.51V63.7244H1368.57H1355.63H1342.69H1329.74V76.4693H1316.8H1303.86H1290.92H1277.98V89.2141H1265.04H1252.1V101.959H1239.15V114.704V127.449V140.194H1226.21V152.939V165.683V178.428V191.173H1213.27V203.918V216.663V229.408V242.153V254.898H1226.21V267.642H1239.15V280.387H1252.1V293.132H1265.04V305.877H1277.98V318.622H1265.04V305.877H1252.1V293.132H1239.15V280.387H1226.21V267.642H1213.27V254.898H1200.33V242.153H1187.39H1174.45V229.408H1187.39H1200.33V216.663V203.918V191.173H1213.27V178.428V165.683V152.939V140.194H1226.21V127.449V114.704V101.959H1239.15V89.2141H1226.21H1213.27V76.4693H1226.21H1239.15H1252.1H1265.04H1277.98V63.7244H1290.92H1303.86H1316.8H1329.74V50.9795H1342.69H1355.63H1368.57H1381.51V38.2346H1394.45H1407.39V25.4898H1394.45V12.7449H1381.51ZM1342.69 25.4898H1329.74H1316.8H1303.86H1290.92V12.7449H1303.86H1316.8H1329.74H1342.69V25.4898ZM1290.92 38.2346H1277.98H1265.04H1252.1H1239.15V25.4898H1252.1H1265.04H1277.98H1290.92V38.2346ZM1239.15 50.9795H1226.21H1213.27H1200.33V38.2346H1213.27H1226.21H1239.15V50.9795ZM1200.33 50.9795V63.7244H1213.27V76.4693H1200.33H1187.39V63.7244H1174.45V76.4693V89.2141V101.959H1161.5V89.2141V76.4693V63.7244V50.9795H1174.45H1187.39H1200.33ZM1329.74 382.346V369.601H1316.8V356.857H1303.86V369.601H1316.8V382.346H1329.74ZM1407.39 280.387H1394.45V293.132H1407.39V305.877H1420.34V318.622H1433.28V331.367H1446.22V344.112H1459.16V356.857H1472.1V369.601H1485.04V382.346H1497.98V395.091H1510.93V407.836H1523.87V420.581H1536.81V433.326H1549.75V446.071H1562.69V458.816H1575.63V471.561H1588.58V484.305H1601.52V497.05H1614.46V509.795H1627.4V522.54H1640.34V509.795V497.05H1627.4V484.305H1614.46V471.561H1601.52V458.816H1588.58V446.071H1575.63V433.326H1562.69V420.581H1549.75V407.836H1536.81V395.091H1523.87V382.346H1510.93V369.601H1497.98V356.857H1485.04V344.112H1472.1V331.367H1459.16V318.622H1446.22V305.877H1433.28V293.132H1420.34V280.387H1407.39ZM1666.22 535.285V522.54H1653.28V535.285H1666.22ZM1148.56 114.704V101.959H1161.5V114.704V127.449V140.194V152.939H1148.56V140.194V127.449V114.704ZM1135.62 165.683V152.939H1148.56V165.683V178.428V191.173V203.918H1135.62V191.173V178.428V165.683ZM1122.68 216.663V203.918H1135.62V216.663H1122.68Z" fill="#36EBFF"/>
<path fill-rule="evenodd" clip-rule="evenodd" d="M1265.04 407.837V395.092H1277.98V407.837H1265.04ZM1252.1 395.092V382.347H1265.04V395.092H1252.1ZM1239.16 382.347V369.602H1252.1V382.347H1239.16ZM1226.21 369.602V356.857H1239.16V369.602H1226.21ZM1213.27 356.857V344.112H1226.21V356.857H1213.27ZM1200.33 344.112V331.367H1213.27V344.112H1200.33ZM1200.33 331.367H1187.39H1174.45V344.112V356.857V369.602V382.347H1161.51V395.092V407.837V420.581V433.326H1148.56V446.071V458.816V471.561H1135.62V484.306V497.051V509.796V522.54H1122.68V535.285V548.03V560.775V573.52H1109.74V586.265V599.01V611.755V624.499H1096.8V637.244V649.989V662.734H1083.86V675.479V688.224V700.969V713.714H1070.92V726.459V739.203V751.948V764.693H1057.97V777.438V790.183V802.928V815.673H1045.03V828.418V841.162V853.907H1032.09V866.652V879.397V892.142V904.887H1019.15V917.632V930.377V943.122V955.866H1006.21V968.611V981.356V994.101H993.266V1006.85V1019.59V1032.34V1045.08H980.324V1057.83V1070.57V1083.32V1096.06H967.383V1108.8V1121.55V1134.29V1147.04H954.441V1159.78V1172.53V1185.27H967.383V1198.02H980.324V1210.76H993.266V1223.51H1006.21V1236.25H1019.15V1249H1032.09H1045.03H1057.97H1070.92H1083.86V1261.74H1070.92H1057.97H1045.03V1274.49H1057.97V1287.23H1070.92H1083.86H1096.8H1109.74H1122.68V1274.49H1135.62H1148.56H1161.51V1261.74V1249H1148.56H1135.62V1236.25H1122.68V1249H1109.74H1096.8H1083.86V1236.25H1096.8H1109.74H1122.68V1223.51H1135.62V1210.76V1198.02V1185.27H1148.56V1172.53V1159.78V1147.04V1134.29H1161.51V1121.55V1108.8V1096.06H1174.45V1083.32V1070.57H1161.51H1148.56V1057.83H1161.51H1174.45V1045.08V1032.34H1161.51H1148.56H1135.62V1019.59H1148.56H1161.51H1174.45H1187.39V1006.85V994.101H1200.33V981.356V968.611V955.866V943.122H1213.27V930.377V917.632V904.887V892.142H1226.21V879.397V866.652V853.907V841.162H1239.16V828.418V815.673V802.928H1252.1V790.183V777.438V764.693V751.948H1265.04V739.203V726.459V713.714V700.969H1277.98V688.224V675.479V662.734V649.989H1290.92V637.244V624.499V611.755H1303.86V599.01V586.265V573.52V560.775H1316.8V548.03V535.285V522.54V509.796H1329.75V497.051V484.306V471.561V458.816H1342.69V446.071H1355.63V458.816H1342.69V471.561V484.306V497.051V509.796H1329.75V522.54V535.285V548.03V560.775H1316.8V573.52V586.265V599.01V611.755H1303.86V624.499V637.244V649.989H1290.92V662.734V675.479V688.224V700.969H1277.98V713.714V726.459V739.203V751.948H1265.04V764.693V777.438V790.183V802.928H1252.1V815.673V828.418V841.162H1239.16V853.907V866.652V879.397V892.142H1226.21V904.887V917.632V930.377V943.122H1213.27V955.866V968.611V981.356V994.101H1200.33V1006.85V1019.59H1213.27H1226.21V1032.34H1239.16H1252.1V1045.08H1265.04V1057.83V1070.57V1083.32H1252.1V1096.06V1108.8V1121.55V1134.29H1239.16V1147.04V1159.78V1172.53H1226.21V1185.27V1198.02V1210.76V1223.51H1213.27V1236.25V1249V1261.74H1200.33V1274.49H1187.39H1174.45H1161.51V1287.23H1148.56H1135.62H1122.68V1299.98H1109.74H1096.8H1083.86H1070.92H1057.97H1045.03V1287.23H1032.09H1019.15V1274.49H1006.21H993.266V1261.74H980.324V1249H967.383V1236.25H954.441V1223.51H941.5V1210.76H928.558V1198.02H915.616V1185.27H902.675V1172.53H889.733V1159.78H876.792V1147.04V1134.29V1121.55V1108.8H889.733V1096.06V1083.32V1070.57V1057.83H902.675V1045.08V1032.34V1019.59V1006.85H915.616V994.101V981.356V968.611V955.866H928.558V943.122V930.377V917.632H941.5V904.887V892.142V879.397V866.652H954.441V853.907V841.162V828.418V815.673H967.383V802.928V790.183V777.438V764.693H980.324V751.948V739.203V726.459H993.266V713.714V700.969V688.224V675.479H1006.21V662.734V649.989V637.244V624.499H1019.15V611.755V599.01V586.265H1032.09V573.52V560.775V548.03V535.285H1045.03V522.54V509.796V497.051V484.306H1057.97V471.561V458.816V446.071V433.326H1070.92V420.581V407.837V395.092H1083.86V382.347V369.602V356.857V344.112H1096.8V331.367V318.622V305.877V293.133H1109.74V280.388V267.643V254.898H1122.68H1135.62H1148.56V267.643H1161.51H1174.45V280.388H1187.39V293.133H1200.33V305.877H1187.39V318.622H1200.33V331.367ZM1161.51 305.877V293.133H1174.45V280.388H1161.51V293.133H1148.56V280.388H1135.62V267.643H1122.68V280.388V293.133H1109.74V305.877V318.622V331.367V344.112H1096.8V356.857V369.602V382.347V395.092H1083.86V407.837V420.581V433.326H1070.92V446.071V458.816V471.561V484.306H1057.97V497.051V509.796V522.54V535.285H1045.03V548.03V560.775V573.52V586.265H1032.09V599.01V611.755V624.499H1019.15V637.244V649.989V662.734V675.479H1006.21V688.224V700.969V713.714V726.459H993.266V739.203V751.948V764.693H980.324V777.438V790.183V802.928V815.673H967.383V828.418V841.162V853.907V866.652H954.441V879.397V892.142V904.887V917.632H941.5V930.377V943.122V955.866H928.558V968.611V981.356V994.101V1006.85H915.616V1019.59V1032.34V1045.08V1057.83H902.675V1070.57V1083.32V1096.06V1108.8H889.733V1121.55V1134.29V1147.04H902.675V1159.78H915.616H928.558H941.5V1147.04H954.441V1134.29V1121.55V1108.8V1096.06H967.383V1083.32V1070.57V1057.83V1045.08H980.324V1032.34V1019.59V1006.85V994.101H993.266V981.356V968.611V955.866H1006.21V943.122V930.377V917.632V904.887H1019.15V892.142V879.397V866.652V853.907H1032.09V841.162V828.418V815.673H1045.03V802.928V790.183V777.438V764.693H1057.97V751.948V739.203V726.459V713.714H1070.92V700.969V688.224V675.479V662.734H1083.86V649.989V637.244V624.499H1096.8V611.755V599.01V586.265V573.52H1109.74V560.775V548.03V535.285V522.54H1122.68V509.796V497.051V484.306V471.561H1135.62V458.816V446.071V433.326H1148.56V420.581V407.837V395.092V382.347H1161.51V369.602V356.857V344.112V331.367H1174.45V318.622V305.877H1161.51ZM1109.74 1032.34V1019.59V1006.85V994.101H1122.68V1006.85V1019.59V1032.34H1135.62V1045.08H1148.56V1057.83H1135.62H1122.68V1045.08H1109.74V1032.34ZM1122.68 994.101V981.356V968.611V955.866V943.122H1135.62V955.866V968.611V981.356V994.101H1122.68ZM1135.62 943.122V930.377V917.632V904.887H1148.56V917.632V930.377V943.122H1135.62ZM1148.56 904.887V892.142V879.397V866.652V853.907H1161.51V866.652V879.397V892.142V904.887H1148.56ZM1161.51 853.907V841.162V828.418V815.673V802.928H1174.45V815.673V828.418V841.162V853.907H1161.51ZM1174.45 802.928V790.183V777.438V764.693H1187.39V777.438V790.183V802.928H1174.45ZM1187.39 764.693V751.948V739.203V726.459V713.714H1200.33V726.459V739.203V751.948V764.693H1187.39ZM1200.33 713.714V700.969V688.224V675.479V662.734H1213.27V675.479V688.224V700.969V713.714H1200.33ZM1213.27 662.734V649.989V637.244V624.499V611.755H1226.21V624.499V637.244V649.989V662.734H1213.27ZM1226.21 611.755V599.01V586.265V573.52H1239.16V586.265V599.01V611.755H1226.21ZM1239.16 573.52V560.775V548.03V535.285V522.54H1252.1V535.285V548.03V560.775V573.52H1239.16ZM1252.1 522.54V509.796V497.051V484.306V471.561H1265.04V484.306V497.051V509.796V522.54H1252.1ZM1265.04 471.561V458.816V446.071V433.326V420.581H1277.98V433.326V446.071V458.816V471.561H1265.04ZM1316.8 446.071V433.326H1303.86H1290.92V420.581H1303.86V407.837H1290.92V420.581H1277.98V407.837H1290.92V395.092H1277.98V382.347H1265.04V369.602H1252.1V356.857H1239.16V344.112H1226.21V331.367H1213.27V318.622H1200.33V305.877H1213.27V318.622H1226.21V331.367H1239.16V344.112H1252.1V356.857H1265.04V369.602H1277.98V382.347H1290.92V395.092H1303.86V407.837H1316.8V420.581H1329.75V433.326H1342.69V446.071H1329.75H1316.8ZM1019.15 1261.74V1249H1006.21V1236.25H993.266V1223.51H980.324V1210.76H967.383V1198.02H954.441V1185.27H941.5V1172.53H928.558H915.616V1185.27H928.558V1198.02H941.5V1210.76H954.441V1223.51H967.383V1236.25H980.324V1249H993.266V1261.74H1006.21H1019.15ZM1200.33 1249V1236.25V1223.51H1213.27V1210.76V1198.02V1185.27V1172.53H1226.21V1159.78V1147.04V1134.29H1239.16V1121.55V1108.8V1096.06V1083.32H1252.1V1070.57V1057.83H1239.16H1226.21V1070.57H1213.27H1200.33H1187.39V1083.32V1096.06H1174.45V1108.8V1121.55V1134.29H1161.51V1147.04V1159.78V1172.53V1185.27H1148.56V1198.02V1210.76V1223.51V1236.25H1161.51V1249H1174.45H1187.39H1200.33ZM1187.39 1057.83H1200.33H1213.27H1226.21V1045.08V1032.34H1213.27H1200.33V1045.08H1187.39V1057.83Z" fill="#36EBFF"/>
<path fill-rule="evenodd" clip-rule="evenodd" d="M1200.33 1261.74V1249H1213.27H1226.21V1236.25V1223.51H1213.27H1200.33H1187.39H1174.45V1236.25H1187.39H1200.33V1249H1187.39H1174.45V1236.25H1161.5H1148.56V1223.51V1210.76H1161.5V1223.51H1174.45V1210.76H1187.39H1200.33H1213.27H1226.21V1198.02H1239.15V1185.27V1172.53V1159.79H1252.1V1172.53V1185.27V1198.02V1210.76H1265.04H1277.98V1223.51H1265.04H1252.1V1210.76H1239.15V1223.51V1236.25V1249H1252.1H1265.04V1236.25H1277.98V1223.51H1290.92H1303.86V1210.76V1198.02H1316.8V1185.27V1172.53V1159.79H1329.74V1147.04V1134.3V1121.55V1108.81H1342.69V1096.06V1083.32V1070.57V1057.83H1355.63V1045.08V1032.34H1342.69H1329.74V1045.08H1316.8H1303.86H1290.92V1057.83V1070.57H1277.98V1083.32V1096.06V1108.81V1121.55H1265.04V1134.3V1147.04V1159.79H1252.1V1147.04V1134.3V1121.55V1108.81H1265.04V1096.06V1083.32V1070.57H1277.98V1057.83V1045.08H1265.04V1032.34H1252.1H1239.15V1019.59H1226.21H1213.27V1032.34V1045.08V1057.83V1070.57H1200.33V1083.32V1096.06V1108.81V1121.55H1187.39V1134.3V1147.04V1159.79V1172.53H1174.45V1185.27V1198.02V1210.76H1161.5V1198.02V1185.27V1172.53H1174.45V1159.79V1147.04V1134.3V1121.55H1187.39V1108.81V1096.06V1083.32V1070.57H1200.33V1057.83V1045.08V1032.34V1019.59H1213.27V1006.85H1226.21H1239.15V994.102H1252.1H1265.04H1277.98H1290.92V981.357H1303.86V994.102H1316.8H1329.74V1006.85H1342.69H1355.63H1368.57V1019.59V1032.34V1045.08V1057.83H1355.63V1070.57V1083.32V1096.06V1108.81H1342.69V1121.55V1134.3V1147.04V1159.79H1329.74V1172.53V1185.27V1198.02H1316.8V1210.76V1223.51V1236.25H1303.86V1249H1290.92H1277.98H1265.04V1261.74H1252.1H1239.15H1226.21H1213.27H1200.33ZM1290.92 1032.34H1303.86H1316.8H1329.74V1019.59V1006.85H1316.8H1303.86V1019.59H1290.92V1032.34ZM1277.98 1032.34V1019.59H1290.92V1006.85H1277.98H1265.04H1252.1H1239.15V1019.59H1252.1H1265.04V1032.34H1277.98Z" fill="#36EBFF"/>
<path fill-rule="evenodd" clip-rule="evenodd" d="M1316.8 1236.25V1223.51H1329.74V1210.76V1198.02V1185.27H1316.8V1172.53H1329.74H1342.69V1159.78V1147.04V1134.3H1355.63V1121.55V1108.81V1096.06V1083.32H1368.57V1070.57V1057.83V1045.08H1381.51V1032.34V1019.59H1368.57V1006.85H1355.63H1342.69V994.102H1329.74V1006.85H1316.8V1019.59V1032.34V1045.08H1303.86V1057.83V1070.57V1083.32V1096.06H1290.92V1108.81V1121.55V1134.3V1147.04H1277.98V1159.78V1172.53V1185.27H1290.92H1303.86H1316.8V1198.02H1303.86H1290.92H1277.98V1185.27H1265.04V1198.02H1277.98V1210.76H1290.92H1303.86H1316.8V1223.51H1303.86H1290.92H1277.98V1210.76H1265.04V1198.02H1252.09V1185.27H1265.04V1172.53V1159.78V1147.04H1277.98V1134.3V1121.55V1108.81V1096.06H1290.92V1083.32V1070.57V1057.83V1045.08H1303.86V1032.34V1019.59V1006.85H1316.8V994.102V981.357H1329.74V968.612H1342.69H1355.63H1368.57H1381.51V981.357H1368.57H1355.63H1342.69V994.102H1355.63H1368.57V1006.85H1381.51H1394.45V994.102V981.357H1407.39V968.612H1394.45H1381.51V955.867H1394.45H1407.39H1420.34H1433.28V968.612H1420.34V981.357H1407.39V994.102V1006.85H1420.34V994.102H1433.28H1446.22H1459.16V981.357H1446.22H1433.28V968.612H1446.22H1459.16V981.357H1472.1H1485.04V994.102V1006.85V1019.59H1472.1V1032.34V1045.08V1057.83V1070.57H1459.16V1083.32V1096.06V1108.81V1121.55H1446.22V1134.3V1147.04V1159.78V1172.53H1433.28V1185.27V1198.02V1210.76H1420.34H1407.39V1223.51H1394.45H1381.51H1368.57H1355.63V1236.25H1342.69H1329.74H1316.8ZM1342.69 1185.27V1198.02V1210.76V1223.51H1355.63V1210.76H1368.57H1381.51H1394.45H1407.39V1198.02H1420.34V1185.27V1172.53H1433.28V1159.78V1147.04V1134.3V1121.55H1446.22V1108.81V1096.06V1083.32V1070.57H1459.16V1057.83V1045.08V1032.34V1019.59H1472.1V1006.85H1459.16H1446.22H1433.28H1420.34V1019.59H1407.39V1032.34H1394.45V1045.08V1057.83V1070.57V1083.32H1381.51V1096.06V1108.81V1121.55V1134.3H1368.57V1147.04V1159.78V1172.53H1381.51V1185.27H1394.45H1407.39V1198.02H1394.45H1381.51V1185.27H1368.57H1355.63H1342.69Z" fill="#36EBFF"/>
<path fill-rule="evenodd" clip-rule="evenodd" d="M1446.22 1198.02V1185.27H1459.16V1172.53H1472.1V1159.78H1459.16H1446.22H1433.28H1420.34V1147.04H1433.28H1446.22H1459.16H1472.1V1134.29H1485.05V1121.55V1108.81V1096.06V1083.32H1497.99V1070.57V1057.83V1045.08V1032.34H1510.93V1019.59V1006.85V994.101V981.356H1497.99V968.611H1485.05H1472.1V955.866H1459.16V968.611V981.356V994.101H1446.22V1006.85V1019.59V1032.34V1045.08H1433.28V1057.83V1070.57V1083.32V1096.06H1420.34V1108.81V1121.55V1134.29H1407.4V1147.04V1159.78H1420.34V1172.53H1433.28H1446.22V1185.27H1433.28H1420.34V1172.53H1407.4H1394.45V1159.78V1147.04V1134.29H1407.4V1121.55V1108.81V1096.06H1420.34V1083.32V1070.57V1057.83V1045.08H1433.28V1032.34V1019.59V1006.85V994.101H1446.22V981.356V968.611V955.866V943.122H1459.16H1472.1H1485.05V955.866H1497.99V968.611H1510.93H1523.87H1536.81H1549.75H1562.7V955.866V943.122V930.377H1549.75H1536.81H1523.87V943.122H1510.93H1497.99H1485.05V930.377H1497.99H1510.93H1523.87V917.632H1536.81H1549.75H1562.7H1575.64H1588.58H1601.52V930.377H1588.58H1575.64V943.122V955.866H1588.58H1601.52H1614.46V943.122H1601.52V930.377H1614.46H1627.4H1640.34V943.122H1653.29V955.866V968.611H1640.34V981.356V994.101V1006.85H1627.4V1019.59V1032.34V1045.08V1057.83H1614.46V1070.57V1083.32V1096.06V1108.81H1601.52V1121.55V1134.29V1147.04V1159.78H1588.58V1147.04V1134.29V1121.55V1108.81H1601.52V1096.06V1083.32V1070.57V1057.83H1614.46V1045.08V1032.34V1019.59V1006.85H1627.4V994.101V981.356V968.611H1640.34V955.866H1627.4H1614.46V968.611H1601.52H1588.58H1575.64H1562.7V981.356V994.101V1006.85V1019.59H1549.75V1006.85V994.101V981.356H1536.81H1523.87V994.101V1006.85V1019.59V1032.34H1510.93V1045.08V1057.83V1070.57V1083.32H1497.99V1096.06V1108.81V1121.55V1134.29H1510.93V1147.04H1497.99H1485.05V1159.78V1172.53H1472.1V1185.27H1485.05H1497.99H1510.93V1198.02H1497.99H1485.05H1472.1H1459.16H1446.22ZM1510.93 1185.27V1172.53H1523.87H1536.81H1549.75V1185.27H1536.81H1523.87H1510.93ZM1549.75 1172.53V1159.78V1147.04H1562.7H1575.64V1159.78H1588.58V1172.53H1575.64H1562.7H1549.75ZM1549.75 1147.04H1536.81H1523.87V1134.29H1536.81H1549.75V1147.04ZM1536.81 1032.34V1019.59H1549.75V1032.34V1045.08V1057.83V1070.57H1536.81V1057.83V1045.08V1032.34ZM1523.87 1083.32V1070.57H1536.81V1083.32V1096.06V1108.81H1523.87V1096.06V1083.32ZM1510.93 1121.55V1108.81H1523.87V1121.55V1134.29H1510.93V1121.55Z" fill="#36EBFF"/>
<path fill-rule="evenodd" clip-rule="evenodd" d="M1627.4 1121.55H1614.46H1601.52V1108.8V1096.06V1083.31H1614.46V1070.57V1057.82V1045.08V1032.34H1627.4V1019.59V1006.85V994.1H1640.34V981.356V968.611V955.866V943.121H1653.28V930.376V917.631V904.886V892.141H1666.23V879.397H1679.17H1692.11H1705.05H1717.99V866.652H1730.93H1743.87H1756.82H1769.76V853.907H1782.7H1795.64H1808.58H1821.52V841.162H1834.47H1847.41H1860.35V828.417H1873.29H1886.23H1899.17H1912.11V815.672V802.927H1899.17V790.182H1886.23V777.437H1873.29V764.693H1860.35V751.948H1847.41V739.203H1834.47V726.458H1821.52V713.713H1808.58V700.968H1795.64V688.223H1782.7V675.478H1769.76V662.734H1756.82V649.989H1743.87V637.244H1730.93V624.499V611.754V599.009H1743.87V586.264V573.519V560.775V548.03H1756.82V535.285V522.54V509.795V497.05H1769.76V484.305V471.56V458.815V446.071H1782.7V433.326V420.581V407.836H1795.64H1808.58H1821.52V420.581H1834.47H1847.41V433.326H1860.35V446.071H1873.29V458.815H1860.35V471.56H1873.29V484.305H1886.23V497.05H1899.17V509.795H1912.11V522.54H1925.06V535.285H1938V548.03H1950.94V560.775H1963.88V573.519H1976.82V586.264H1989.76V599.009H2002.71V611.754H2015.65V624.499H2028.59V637.244H2041.53V649.989H2054.47V662.734H2067.41V675.478H2080.35V688.223H2093.3V700.968H2106.24V713.713H2119.18V726.458H2132.12V739.203H2145.06V751.948H2158V764.693H2170.95V777.437H2183.89V790.182H2170.95V777.437H2158V764.693H2145.06V751.948H2132.12V739.203H2119.18V726.458H2106.24V713.713H2093.3V700.968H2080.35V688.223H2067.41V675.478H2054.47V662.734H2041.53V649.989H2028.59V637.244H2015.65V624.499H2002.71V611.754H1989.76V599.009H1976.82V586.264H1963.88V573.519H1950.94V560.775H1938V548.03H1925.06V535.285H1912.11V522.54H1899.17V509.795H1886.23V497.05H1873.29V484.305H1860.35H1847.41V497.05V509.795V522.54V535.285H1834.47V548.03V560.775V573.519V586.264H1821.52V599.009V611.754V624.499V637.244H1808.58V649.989V662.734H1821.52V675.478H1834.47V688.223H1847.41V700.968H1860.35V713.713H1873.29V726.458H1886.23V739.203H1899.17V751.948H1912.11V764.693H1925.06V777.437H1938V790.182H1950.94V802.927H1963.88V815.672H1976.82V828.417H1989.76V841.162H2002.71V853.907V866.652H1989.76H1976.82H1963.88H1950.94V879.397H1938H1925.06H1912.11H1899.17V892.141H1886.23H1873.29H1860.35V904.886H1847.41H1834.47H1821.52H1808.58V917.631H1795.64H1782.7H1769.76H1756.82V930.376H1743.87H1730.93V943.121V955.866V968.611V981.356H1717.99V994.1V1006.85V1019.59V1032.34H1705.05V1045.08V1057.82V1070.57H1717.99H1730.93H1743.87H1756.82V1083.31H1743.87H1730.93H1717.99H1705.05V1096.06H1692.11V1108.8V1121.55H1679.17V1134.29H1692.11H1705.05V1121.55H1717.99H1730.93H1743.87V1108.8H1756.82H1769.76H1782.7H1795.64V1096.06H1808.58H1821.52H1834.47H1847.41V1083.31H1860.35H1873.29H1886.23V1070.57H1899.17H1912.11H1925.06H1938V1057.82H1950.94H1963.88H1976.82H1989.76V1045.08H2002.71H2015.65H2028.59H2041.53V1032.34H2054.47H2067.41H2080.35V1019.59H2093.3H2106.24H2119.18H2132.12V1006.85H2145.06H2158H2170.95H2183.89V994.1H2170.95V981.356H2158H2145.06H2132.12H2119.18H2106.24H2093.3V994.1H2080.35H2067.41H2054.47H2041.53V1006.85H2028.59H2015.65H2002.71V1019.59H1989.76H1976.82H1963.88H1950.94V1032.34H1938H1925.06H1912.11H1899.17V1045.08H1886.23H1873.29H1860.35H1847.41V1057.82H1834.47H1821.52H1808.58V1070.57H1795.64H1782.7H1769.76H1756.82V1057.82H1769.76H1782.7H1795.64H1808.58V1045.08H1821.52H1834.47H1847.41V1032.34H1860.35H1873.29H1886.23H1899.17V1019.59H1912.11H1925.06H1938H1950.94V1006.85H1963.88H1976.82H1989.76H2002.71V994.1H2015.65H2028.59H2041.53V981.356H2054.47H2067.41H2080.35H2093.3V968.611H2106.24H2119.18H2132.12H2145.06V955.866V943.121V930.376V917.631H2158V930.376V943.121V955.866V968.611H2170.95V981.356H2183.89H2196.83V994.1H2209.77V1006.85H2196.83H2183.89V1019.59H2170.95H2158H2145.06H2132.12V1032.34H2119.18H2106.24H2093.3H2080.35V1045.08H2067.41H2054.47H2041.53V1057.82H2028.59H2015.65H2002.71H1989.76V1070.57H1976.82H1963.88H1950.94H1938V1083.31H1925.06H1912.11H1899.17H1886.23V1096.06H1873.29H1860.35H1847.41V1108.8H1834.47H1821.52H1808.58H1795.64V1121.55H1782.7H1769.76H1756.82H1743.87V1134.29H1730.93H1717.99H1705.05V1147.04H1692.11H1679.17H1666.23V1134.29H1653.28H1640.34H1627.4V1121.55ZM1627.4 1108.8V1121.55H1640.34H1653.28H1666.23H1679.17V1108.8V1096.06H1666.23V1108.8H1653.28H1640.34H1627.4ZM1834.47 458.815V446.071H1847.41V433.326H1834.47V446.071H1821.52V433.326H1808.58V420.581H1795.64V433.326V446.071H1782.7V458.815V471.56V484.305V497.05H1769.76V509.795V522.54V535.285V548.03H1756.82V560.775V573.519V586.264V599.009H1743.87V611.754V624.499H1756.82V637.244H1769.76H1782.7V649.989H1769.76V662.734H1782.7V675.478H1795.64V688.223H1808.58V700.968H1821.52V713.713H1834.47V726.458H1847.41V739.203H1860.35V751.948H1873.29V764.693H1886.23V777.437H1899.17V790.182H1912.11V802.927H1925.06V815.672H1938H1950.94V802.927H1938V790.182H1925.06V777.437H1912.11V764.693H1899.17V751.948H1886.23V739.203H1873.29V726.458H1860.35V713.713H1847.41V700.968H1834.47V688.223H1821.52V675.478H1808.58V662.734H1795.64H1782.7V649.989H1795.64V637.244H1808.58V624.499V611.754V599.009V586.264H1821.52V573.519V560.775V548.03V535.285H1834.47V522.54V509.795V497.05V484.305H1847.41V471.56V458.815H1834.47ZM2158 917.631V904.886V892.141V879.397V866.652H2170.95V879.397V892.141V904.886V917.631H2158ZM2170.95 866.652V853.907V841.162V828.417H2183.89V841.162V853.907V866.652H2170.95ZM2183.89 828.417V815.672V802.927V790.182H2196.83V802.927H2209.77V790.182H2196.83V777.437H2183.89V764.693H2170.95V751.948H2158V739.203H2145.06V726.458H2132.12V713.713H2119.18V700.968H2106.24V688.223H2093.3V675.478H2080.35V662.734H2067.41V649.989H2054.47V637.244H2041.53V624.499H2028.59V611.754H2015.65V599.009H2002.71V586.264H1989.76V573.519H1976.82V560.775H1963.88V548.03H1950.94V535.285H1938V522.54H1925.06V509.795H1912.11V497.05H1899.17V484.305H1886.23V471.56H1873.29V458.815H1886.23V471.56H1899.17V484.305H1912.11V497.05H1925.06V509.795H1938V522.54H1950.94V535.285H1963.88V548.03H1976.82V560.775H1989.76V573.519H2002.71V586.264H2015.65V599.009H2028.59V611.754H2041.53V624.499H2054.47V637.244H2067.41V649.989H2080.35V662.734H2093.3V675.478H2106.24V688.223H2119.18V700.968H2132.12V713.713H2145.06V726.458H2158V739.203H2170.95V751.948H2183.89V764.693H2196.83V777.437H2209.77V790.182H2222.71V802.927H2235.65V815.672H2248.6V828.417H2235.65H2222.71V815.672H2209.77H2196.83V828.417H2183.89ZM1614.46 1096.06H1627.4H1640.34H1653.28H1666.23V1083.31H1679.17V1070.57H1692.11V1083.31H1705.05V1070.57H1692.11V1057.82V1045.08V1032.34H1705.05V1019.59V1006.85V994.1V981.356H1717.99V968.611V955.866V943.121V930.376V917.631H1730.93H1743.87H1756.82V904.886H1769.76H1782.7H1795.64H1808.58V892.141H1821.52H1834.47H1847.41H1860.35V879.397H1873.29H1886.23H1899.17V866.652H1912.11H1925.06H1938H1950.94V853.907H1963.88H1976.82V841.162H1963.88H1950.94V828.417H1938H1925.06H1912.11V841.162H1899.17H1886.23H1873.29H1860.35V853.907H1847.41H1834.47H1821.52V866.652H1808.58H1795.64H1782.7H1769.76V879.397H1756.82H1743.87H1730.93H1717.99V892.141H1705.05H1692.11V904.886H1705.05H1717.99V917.631H1705.05H1692.11V904.886H1679.17H1666.23V917.631V930.376V943.121H1653.28V955.866V968.611V981.356V994.1H1640.34V1006.85V1019.59V1032.34H1627.4V1045.08V1057.82V1070.57V1083.31H1614.46V1096.06ZM2248.6 853.907V841.162V828.417H2261.54V841.162V853.907V866.652H2248.6V853.907ZM2235.65 879.397V866.652H2248.6V879.397V892.141V904.886H2235.65V892.141V879.397ZM2222.71 917.631V904.886H2235.65V917.631V930.376V943.121V955.866H2222.71V943.121V930.376V917.631ZM2209.77 968.611V955.866H2222.71V968.611V981.356V994.1H2209.77V981.356V968.611ZM1963.88 828.417V815.672H1950.94V828.417H1963.88Z" fill="#36EBFF"/>
<path fill-rule="evenodd" clip-rule="evenodd" d="M225.036 1660.15L535.322 1573.96C554.964 1639.51 593.951 1696.9 645.772 1739.71C706.303 1789.71 784.347 1819.81 869.531 1819.81C1061.95 1819.81 1217.94 1666.19 1217.94 1476.69C1217.94 1371.08 1169.49 1276.62 1093.29 1213.68C1032.76 1163.68 954.716 1133.57 869.531 1133.57C706.503 1133.57 569.627 1243.85 531.614 1392.79L460.442 1412.56L492.178 1258.44C498.937 1226.43 497.662 1194.19 488.364 1161.71C476.127 1118.99 453.865 1084.3 421.575 1057.62C411.018 1048.91 399.394 1041.05 386.695 1034.04C335.44 1005.54 281.178 999.237 223.909 1015.15C166.929 1030.97 124.089 1064.55 95.3874 1115.89C66.6044 1166.93 60.2488 1220.51 76.3206 1276.63C86.6813 1312.81 104.677 1343.48 130.309 1368.65C134.526 1372.79 138.901 1376.73 143.436 1380.48C166.463 1399.49 193.584 1413.4 224.801 1422.2L262.546 1267.8C258.453 1265.69 254.83 1263.33 251.677 1260.73C244.673 1254.93 239.99 1247.91 237.627 1239.67C234.608 1229.13 235.902 1218.92 241.509 1209.07C247.324 1198.84 255.582 1192.24 266.284 1189.27C283.671 1184.44 296.881 1185.75 305.912 1193.22C311.152 1197.55 314.986 1203.95 317.412 1212.43C320.023 1221.54 320.071 1231.53 317.557 1242.37L314.475 1256.14L225.036 1660.15ZM1046.15 1272.27C1105.34 1321.21 1142.97 1394.62 1142.97 1476.69C1142.97 1624.02 1021.69 1743.46 872.094 1743.46C805.823 1743.46 745.111 1720.02 698.039 1681.11C638.845 1632.17 601.214 1558.76 601.214 1476.69C601.214 1329.36 722.493 1209.92 872.094 1209.92C938.364 1209.92 999.076 1233.36 1046.15 1272.27Z" fill="#C7C7C7"/>
<path d="M159.463 961.888C102.483 977.717 59.6418 1011.3 30.9407 1062.63L95.3903 1115.89C124.091 1064.55 166.932 1030.97 223.912 1015.15L159.463 961.888Z" fill="#C7C7C7"/>
<path d="M30.9412 1062.63C2.1584 1113.68 -4.19719 1167.26 11.8744 1223.37L76.324 1276.63C60.2522 1220.52 66.6078 1166.94 95.3908 1115.89L30.9412 1062.63Z" fill="#C7C7C7"/>
<path d="M322.249 980.785C270.994 952.277 216.732 945.978 159.463 961.887L223.912 1015.14C281.181 999.239 335.442 1005.54 386.697 1034.05L322.249 980.785Z" fill="#C7C7C7"/>
<path d="M11.8755 1223.37C22.2363 1259.55 40.2324 1290.22 65.8635 1315.39L130.313 1368.65C104.682 1343.48 86.6858 1312.81 76.3251 1276.63L11.8755 1223.37Z" fill="#C7C7C7"/>
<path d="M357.129 1004.37C346.572 995.65 334.947 987.789 322.248 980.786L386.697 1034.05C399.396 1041.05 411.021 1048.91 421.578 1057.63L357.129 1004.37Z" fill="#C7C7C7"/>
<path d="M65.8623 1315.39C70.0793 1319.53 74.4552 1323.47 78.9899 1327.22L143.337 1380.39C138.839 1376.67 134.497 1372.76 130.312 1368.65L65.8623 1315.39Z" fill="#C7C7C7"/>
<path d="M201.838 1136.01C219.226 1131.18 232.437 1132.5 241.468 1139.96L305.907 1193.22C296.877 1185.76 283.669 1184.44 266.286 1189.27C255.585 1192.24 247.326 1198.84 241.512 1209.07L241.509 1209.06C235.903 1218.92 234.614 1229.13 237.633 1239.67C239.995 1247.92 244.679 1254.94 251.683 1260.73L187.231 1207.47C180.227 1201.68 175.544 1194.65 173.181 1186.41C170.162 1175.87 171.458 1165.67 177.064 1155.81L178.182 1153.93C183.92 1144.77 191.805 1138.79 201.838 1136.01Z" fill="url(#paint0_linear_342_7916)"/>
<path d="M305.905 1193.22L303.826 1195.66C305.195 1196.79 307.235 1196.61 308.384 1195.26C309.532 1193.91 309.354 1191.91 307.985 1190.78L305.905 1193.22ZM241.51 1209.07L239.222 1211.32C239.939 1212.03 240.95 1212.36 241.953 1212.22C242.957 1212.09 243.838 1211.49 244.333 1210.62L241.51 1209.07ZM241.507 1209.06L243.795 1206.81C243.078 1206.11 242.067 1205.77 241.064 1205.91C240.06 1206.04 239.179 1206.63 238.684 1207.51L241.507 1209.06ZM251.681 1260.73L249.601 1263.17C250.97 1264.3 253.01 1264.12 254.159 1262.78C255.307 1261.43 255.13 1259.42 253.761 1258.29L251.681 1260.73ZM177.062 1155.8L174.271 1154.19C174.26 1154.21 174.249 1154.23 174.238 1154.25L177.062 1155.8ZM178.18 1153.93L175.426 1152.26C175.414 1152.28 175.402 1152.3 175.39 1152.32L178.18 1153.93ZM201.836 1136.01L202.714 1139.07C219.645 1134.37 231.544 1135.92 239.386 1142.4L241.466 1139.96L243.546 1137.52C233.325 1129.07 218.803 1127.98 200.957 1132.94L201.836 1136.01ZM241.466 1139.96L239.386 1142.4L303.826 1195.66L305.905 1193.22L307.985 1190.78L243.546 1137.52L241.466 1139.96ZM305.905 1193.22L307.985 1190.78C297.764 1182.33 283.246 1181.25 265.406 1186.2L266.284 1189.27L267.163 1192.33C284.088 1187.63 295.985 1189.18 303.826 1195.66L305.905 1193.22ZM266.284 1189.27L265.406 1186.2C253.816 1189.42 244.888 1196.6 238.687 1207.51L241.51 1209.07L244.333 1210.62C249.761 1201.08 257.349 1195.06 267.163 1192.33L266.284 1189.27ZM241.51 1209.07L243.798 1206.81L243.795 1206.81L241.507 1209.06L239.219 1211.31L239.222 1211.32L241.51 1209.07ZM241.507 1209.06L238.684 1207.51C232.673 1218.08 231.257 1229.15 234.516 1240.53L237.63 1239.67L240.744 1238.8C237.966 1229.1 239.129 1219.77 244.33 1210.62L241.507 1209.06ZM237.63 1239.67L234.516 1240.53C237.065 1249.43 242.126 1256.99 249.601 1263.17L251.681 1260.73L253.761 1258.29C247.228 1252.89 242.922 1246.4 240.744 1238.8L237.63 1239.67ZM251.681 1260.73L253.761 1258.29L189.308 1205.03L187.229 1207.47L185.148 1209.91L249.601 1263.17L251.681 1260.73ZM187.229 1207.47L189.308 1205.03C182.775 1199.62 178.47 1193.14 176.292 1185.54L173.178 1186.4L170.064 1187.27C172.613 1196.17 177.674 1203.73 185.148 1209.91L187.229 1207.47ZM173.178 1186.4L176.292 1185.54C173.515 1175.84 174.682 1166.51 179.884 1157.36L177.062 1155.8L174.238 1154.25C168.228 1164.82 166.805 1175.89 170.064 1187.27L173.178 1186.4ZM177.062 1155.8L179.851 1157.42L180.97 1155.54L178.18 1153.93L175.39 1152.32L174.271 1154.19L177.062 1155.8ZM178.18 1153.93L180.934 1155.6C186.268 1147.08 193.502 1141.63 202.714 1139.07L201.836 1136.01L200.957 1132.94C190.103 1135.95 181.566 1142.45 175.426 1152.26L178.18 1153.93Z" fill="#262626"/>
<path d="M198.099 1214.54C194.015 1212.44 190.399 1210.08 187.25 1207.48L251.68 1260.73C254.833 1263.33 258.456 1265.69 262.549 1267.8L198.099 1214.54Z" fill="#C7C7C7"/>
<path d="M241.465 1139.96C246.705 1144.3 250.539 1150.7 252.965 1159.17L317.415 1212.43C314.988 1203.96 311.155 1197.55 305.915 1193.22L241.465 1139.96Z" fill="#C7C7C7"/>
<path d="M252.966 1159.17C255.577 1168.28 255.625 1178.26 253.111 1189.11L317.56 1242.37C320.075 1231.52 320.026 1221.54 317.416 1212.43L252.966 1159.17Z" fill="#C7C7C7"/>
<path d="M78.989 1327.22C102.016 1346.23 129.138 1360.14 160.354 1368.94L224.804 1422.2C193.587 1413.4 166.466 1399.49 143.439 1380.48L78.989 1327.22Z" fill="url(#paint1_linear_342_7916)" stroke="#262626" stroke-width="2" stroke-linejoin="round"/>
<path d="M253.111 1189.11L250.03 1202.88L314.479 1256.14L317.561 1242.37L253.111 1189.11Z" fill="#C7C7C7"/>
<path d="M160.353 1368.94L198.098 1214.54L262.547 1267.8L224.802 1422.2L160.353 1368.94Z" fill="url(#paint2_linear_342_7916)" stroke="#262626" stroke-width="2" stroke-linejoin="round"/>
<path d="M250.03 1202.89L160.59 1606.89L225.04 1660.15L314.479 1256.14L250.03 1202.89Z" fill="#C7C7C7"/>
<path d="M421.575 1057.63C453.868 1084.3 476.131 1118.99 488.367 1161.71C497.665 1194.19 498.94 1226.43 492.185 1258.44L460.445 1412.56L395.997 1359.3L427.736 1205.18C434.491 1173.17 433.216 1140.93 423.918 1108.45C411.691 1065.77 389.455 1031.1 357.211 1004.44L421.575 1057.63Z" fill="url(#paint3_linear_342_7916)"/>
<path d="M492.184 1258.44L489.014 1257.8L489.01 1257.81L492.184 1258.44ZM460.445 1412.56L458.365 1415C459.238 1415.72 460.436 1415.94 461.513 1415.57C462.59 1415.2 463.389 1414.29 463.616 1413.19L460.445 1412.56ZM395.996 1359.3L392.826 1358.67C392.589 1359.81 393.01 1360.99 393.916 1361.74L395.996 1359.3ZM427.735 1205.19L424.568 1204.54L424.565 1204.55L427.735 1205.19ZM357.21 1004.44L359.291 1002C357.922 1000.87 355.881 1001.04 354.732 1002.39C353.584 1003.74 353.762 1005.74 355.13 1006.88L357.21 1004.44ZM421.575 1057.63L419.495 1060.07C451.25 1086.3 473.18 1120.43 485.251 1162.58L488.367 1161.72L491.479 1160.85C479.081 1117.56 456.479 1082.3 423.656 1055.19L421.575 1057.63ZM488.367 1161.72L485.251 1162.58C494.417 1194.58 495.662 1226.3 489.014 1257.8L492.184 1258.44L495.352 1259.09C502.217 1226.56 500.917 1193.8 491.479 1160.85L488.367 1161.72ZM492.184 1258.44L489.01 1257.81L457.275 1411.93L460.445 1412.56L463.616 1413.19L495.355 1259.08L492.184 1258.44ZM460.445 1412.56L462.526 1410.12L398.077 1356.86L395.996 1359.3L393.916 1361.74L458.365 1415L460.445 1412.56ZM395.996 1359.3L399.167 1359.93L430.906 1205.82L427.735 1205.19L424.565 1204.55L392.826 1358.67L395.996 1359.3ZM427.735 1205.19L430.903 1205.83C437.768 1173.3 436.468 1140.54 427.03 1107.59L423.918 1108.46L420.802 1109.32C429.968 1141.32 431.213 1173.04 424.568 1204.54L427.735 1205.19ZM423.918 1108.46L427.03 1107.59C414.642 1064.34 392.069 1029.1 359.291 1002L357.21 1004.44L355.13 1006.88C386.843 1033.1 408.74 1067.21 420.802 1109.32L423.918 1108.46ZM357.21 1004.44L355.13 1006.88L419.495 1060.07L421.575 1057.63L423.656 1055.19L359.291 1002L357.21 1004.44Z" fill="#262626"/>
<path d="M467.167 1339.53L395.995 1359.3L460.444 1412.56L531.616 1392.79L467.167 1339.53Z" fill="#C7C7C7"/>
<path d="M160.59 1606.89L470.877 1520.7L535.326 1573.96L225.04 1660.15L160.59 1606.89Z" fill="#C7C7C7" stroke="#262626" stroke-width="2" stroke-linejoin="round"/>
<path d="M805.087 1080.31C642.056 1080.31 505.18 1190.59 467.17 1339.53L531.619 1392.79C569.632 1243.85 706.508 1133.57 869.536 1133.57L805.087 1080.31Z" fill="#C7C7C7"/>
<path d="M1028.85 1160.42C968.319 1110.42 890.272 1080.31 805.087 1080.31L869.536 1133.57C954.721 1133.57 1032.77 1163.68 1093.3 1213.68L1028.85 1160.42Z" fill="#C7C7C7"/>
<path d="M470.875 1520.7C490.514 1586.26 529.5 1643.64 581.325 1686.45L645.654 1739.61C593.891 1696.81 554.95 1639.46 535.324 1573.96L470.875 1520.7Z" fill="#C7C7C7"/>
<path d="M807.648 1156.66C873.918 1156.66 934.627 1180.1 981.702 1219.01L1046.07 1272.21C999.005 1233.33 938.328 1209.92 872.097 1209.92C722.495 1209.92 601.217 1329.36 601.217 1476.69C601.217 1558.76 638.848 1632.17 698.042 1681.11L633.59 1627.85C574.395 1578.91 536.768 1505.5 536.768 1423.43C536.771 1276.1 658.046 1156.66 807.648 1156.66Z" fill="url(#paint4_linear_342_7916)"/>
<path d="M807.648 1690.2C741.416 1690.2 680.737 1666.79 633.675 1627.92L698.043 1681.11C745.114 1720.02 805.826 1743.46 872.097 1743.46L807.648 1690.2Z" fill="#C7C7C7"/>
<path d="M981.7 1219.02C1040.9 1267.95 1078.52 1341.36 1078.52 1423.43L1142.97 1476.69C1142.97 1394.62 1105.34 1321.21 1046.15 1272.27L981.7 1219.02Z" fill="#C7C7C7"/>
<path d="M807.646 1693.39C751.962 1693.39 700.153 1677.04 656.906 1648.94L721.355 1702.2C764.602 1730.3 816.411 1746.65 872.095 1746.65L807.646 1693.39Z" fill="#C7C7C7"/>
<path d="M1081.76 1423.43C1081.76 1404.8 1079.84 1386.6 1076.19 1369.03L1140.64 1422.29C1144.29 1439.86 1146.21 1458.06 1146.21 1476.69L1081.76 1423.43Z" fill="#C7C7C7"/>
<path d="M1078.53 1423.43C1078.53 1570.76 957.251 1690.2 807.649 1690.2L872.098 1743.46C1021.7 1743.46 1142.98 1624.02 1142.98 1476.69L1078.53 1423.43Z" fill="#C7C7C7"/>
<path d="M807.649 1693.39C959.04 1693.39 1081.76 1572.53 1081.76 1423.44L1146.21 1476.69C1146.21 1625.79 1023.49 1746.65 872.098 1746.65L807.649 1693.39Z" fill="#C7C7C7"/>
<path d="M1093.3 1213.68C1169.5 1276.62 1217.94 1371.08 1217.94 1476.69C1217.94 1666.19 1061.95 1819.81 869.534 1819.81C784.349 1819.81 706.305 1789.71 645.774 1739.71L581.325 1686.45C641.856 1736.44 719.9 1766.55 805.085 1766.55L809.588 1766.53C999.933 1764.15 1153.49 1611.45 1153.49 1423.43C1153.49 1317.87 1105.09 1223.45 1028.95 1160.51L1093.3 1213.68Z" fill="url(#paint5_linear_342_7916)"/>
<path d="M1093.3 1213.68C1169.5 1276.62 1217.94 1371.08 1217.94 1476.69C1217.94 1666.19 1061.95 1819.81 869.534 1819.81C784.349 1819.81 706.305 1789.71 645.774 1739.71L581.325 1686.45C641.856 1736.44 719.9 1766.55 805.085 1766.55L809.588 1766.53C999.933 1764.15 1153.49 1611.45 1153.49 1423.43C1153.49 1317.87 1105.09 1223.45 1028.95 1160.51L1093.3 1213.68Z" fill="url(#paint6_linear_342_7916)"/>
<path d="M1093.3 1213.68L1091.22 1216.12H1091.22L1093.3 1213.68ZM581.325 1686.45L583.405 1684.01C582.037 1682.88 579.995 1683.05 578.846 1684.4C577.698 1685.75 577.876 1687.76 579.244 1688.89L581.325 1686.45ZM805.084 1766.56V1769.74H805.104L805.084 1766.56ZM809.588 1766.53L809.607 1769.71H809.627L809.588 1766.53ZM1028.95 1160.51L1031.03 1158.07C1029.67 1156.94 1027.63 1157.12 1026.48 1158.46C1025.33 1159.81 1025.51 1161.82 1026.88 1162.95L1028.95 1160.51ZM1093.3 1213.68L1091.22 1216.12C1166.71 1278.48 1214.71 1372.07 1214.71 1476.69H1217.94H1221.18C1221.18 1370.1 1172.27 1274.76 1095.38 1211.24L1093.3 1213.68ZM1217.94 1476.69H1214.71C1214.71 1664.43 1060.17 1816.63 869.533 1816.63V1819.81V1823C1063.74 1823 1221.17 1667.95 1221.18 1476.69H1217.94ZM869.533 1819.81V1816.63C785.138 1816.63 707.822 1786.8 647.854 1737.27L645.774 1739.71L643.693 1742.15C704.787 1792.61 783.562 1823 869.533 1823V1819.81ZM645.774 1739.71L647.854 1737.27L583.405 1684.01L581.325 1686.45L579.244 1688.89L643.693 1742.15L645.774 1739.71ZM581.325 1686.45L579.244 1688.89C640.338 1739.35 719.113 1769.74 805.084 1769.74V1766.56V1763.37C720.689 1763.37 643.373 1733.54 583.405 1684.01L581.325 1686.45ZM805.084 1766.56L805.104 1769.74L809.607 1769.71L809.588 1766.53L809.565 1763.34L805.065 1763.37L805.084 1766.56ZM809.588 1766.53L809.627 1769.71C1001.74 1767.31 1156.73 1613.2 1156.73 1423.43H1153.49H1150.25C1150.25 1609.71 998.12 1760.99 809.546 1763.34L809.588 1766.53ZM1153.49 1423.43H1156.73C1156.73 1316.89 1107.87 1221.59 1031.03 1158.07L1028.95 1160.51L1026.88 1162.95C1102.31 1225.31 1150.25 1318.86 1150.25 1423.43H1153.49ZM1028.95 1160.51L1026.88 1162.95L1091.22 1216.12L1093.3 1213.68L1095.38 1211.24L1031.03 1158.07L1028.95 1160.51Z" fill="#262626"/>
<path fill-rule="evenodd" clip-rule="evenodd" d="M470.877 1520.7L160.589 1606.89L250.029 1202.88L253.111 1189.11C255.625 1178.26 255.577 1168.28 252.966 1159.17C246.358 1136.1 229.315 1128.38 201.837 1136.01C191.135 1138.98 182.877 1145.58 177.063 1155.8C171.456 1165.66 170.162 1175.86 173.181 1186.4C176.607 1198.37 184.913 1207.75 198.1 1214.54L160.355 1368.94C122.991 1358.41 91.4935 1340.56 65.8624 1315.39C40.2313 1290.22 22.2352 1259.55 11.8744 1223.37C-4.19719 1167.25 2.15841 1113.67 30.9412 1062.63C59.6423 1011.3 102.483 977.713 159.463 961.887C216.732 945.978 270.994 952.277 322.249 980.785C373.792 1009.21 407.683 1051.77 423.918 1108.45C433.217 1140.93 434.488 1173.17 427.733 1205.18L395.997 1359.3L467.169 1339.53C505.181 1190.58 642.058 1080.31 805.086 1080.31C997.504 1080.31 1153.49 1233.93 1153.49 1423.43C1153.49 1612.93 997.504 1766.55 805.086 1766.55C646.972 1766.55 513.457 1662.83 470.877 1520.7ZM533.533 1423.43C533.536 1274.34 656.261 1153.48 807.648 1153.48C959.039 1153.48 1081.76 1274.34 1081.76 1423.43C1081.76 1572.52 959.039 1693.39 807.648 1693.39C656.258 1693.39 533.533 1572.52 533.533 1423.43Z" fill="#EFEFEF"/>
<path d="M470.876 1520.7L473.979 1519.8L473.073 1516.78L469.996 1517.64L470.876 1520.7ZM160.589 1606.89L157.428 1606.21L156.28 1611.4L161.467 1609.96L160.589 1606.89ZM250.029 1202.89L246.869 1202.2L246.868 1202.21L250.029 1202.89ZM253.11 1189.11L249.956 1188.41L249.951 1188.43L253.11 1189.11ZM198.099 1214.54L201.245 1215.29L201.836 1212.87L199.599 1211.72L198.099 1214.54ZM160.354 1368.94L159.464 1372.01L162.71 1372.92L163.5 1369.69L160.354 1368.94ZM30.9407 1062.63L33.7694 1064.18L33.7749 1064.17L30.9407 1062.63ZM322.249 980.788L320.657 983.563L320.668 983.57L322.249 980.788ZM427.732 1205.18L424.565 1204.54L424.561 1204.55L427.732 1205.18ZM395.996 1359.3L392.825 1358.67L391.771 1363.78L396.873 1362.37L395.996 1359.3ZM467.168 1339.53L468.048 1342.6L469.85 1342.1L470.307 1340.31L467.168 1339.53ZM470.876 1520.7L469.996 1517.64L159.711 1603.83L160.589 1606.89L161.467 1609.96L471.753 1523.77L470.876 1520.7ZM160.589 1606.89L163.75 1607.57L253.19 1203.57L250.029 1202.89L246.868 1202.21L157.428 1606.21L160.589 1606.89ZM250.029 1202.89L253.188 1203.57L256.27 1189.8L253.11 1189.11L249.951 1188.43L246.869 1202.2L250.029 1202.89ZM253.11 1189.11L256.264 1189.82C258.878 1178.55 258.861 1168.02 256.079 1158.31L252.965 1159.17L249.852 1160.04C252.291 1168.56 252.37 1177.99 249.956 1188.41L253.11 1189.11ZM252.965 1159.17L256.079 1158.31C252.6 1146.16 246.202 1137.54 236.579 1133.18C227.074 1128.88 215.067 1129.03 200.958 1132.95L201.837 1136.01L202.715 1139.08C216.085 1135.36 226.337 1135.56 233.875 1138.97C241.295 1142.33 246.723 1149.11 249.852 1160.04L252.965 1159.17ZM201.837 1136.01L200.958 1132.95C189.369 1136.16 180.441 1143.35 174.24 1154.25L177.062 1155.81L179.885 1157.37C185.313 1147.82 192.901 1141.8 202.715 1139.08L201.837 1136.01ZM177.062 1155.81L174.24 1154.25C168.229 1164.82 166.807 1175.89 170.066 1187.27L173.18 1186.41L176.294 1185.54C173.517 1175.85 174.683 1166.52 179.885 1157.37L177.062 1155.81ZM173.18 1186.41L170.066 1187.27C173.778 1200.23 182.778 1210.25 196.6 1217.37L198.099 1214.54L199.599 1211.72C187.048 1205.25 179.436 1196.51 176.294 1185.54L173.18 1186.41ZM198.099 1214.54L194.954 1213.8L157.209 1368.2L160.354 1368.94L163.5 1369.69L201.245 1215.29L198.099 1214.54ZM160.354 1368.94L161.245 1365.88C124.367 1355.48 93.3611 1337.9 68.1464 1313.14L65.8619 1315.39L63.5774 1317.65C89.6248 1343.23 121.613 1361.34 159.464 1372.01L160.354 1368.94ZM65.8619 1315.39L68.1464 1313.14C42.9301 1288.37 25.2065 1258.19 14.9878 1222.51L11.8739 1223.37L8.75997 1224.24C19.263 1260.91 37.5315 1292.07 63.5774 1317.65L65.8619 1315.39ZM11.8739 1223.37L14.9878 1222.51C-0.851586 1167.2 5.40073 1114.49 33.7694 1064.18L30.9407 1062.63L28.1121 1061.08C-1.0846 1112.86 -7.5438 1167.31 8.75997 1224.24L11.8739 1223.37ZM30.9407 1062.63L33.7749 1064.17C62.0606 1013.58 104.199 980.552 160.341 964.956L159.463 961.891L158.584 958.822C100.766 974.884 57.2231 1009.02 28.1065 1061.09L30.9407 1062.63ZM159.463 961.891L160.341 964.956C216.79 949.276 270.162 955.48 320.657 983.563L322.249 980.788L323.84 978.013C271.825 949.085 216.673 942.687 158.584 958.822L159.463 961.891ZM322.249 980.788L320.668 983.57C371.452 1011.58 404.796 1053.44 420.802 1109.32L423.917 1108.46L427.03 1107.59C410.565 1050.1 376.131 1006.85 323.831 978.01L322.249 980.788ZM423.917 1108.46L420.802 1109.32C429.968 1141.32 431.213 1173.04 424.565 1204.54L427.732 1205.18L430.899 1205.83C437.765 1173.3 436.468 1140.54 427.03 1107.59L423.917 1108.46ZM427.732 1205.18L424.561 1204.55L392.825 1358.67L395.996 1359.3L399.167 1359.94L430.903 1205.82L427.732 1205.18ZM395.996 1359.3L396.873 1362.37L468.048 1342.6L467.168 1339.53L466.291 1336.47L395.116 1356.24L395.996 1359.3ZM467.168 1339.53L470.307 1340.31C507.963 1192.75 643.575 1083.5 805.085 1083.5V1080.31V1077.13C640.536 1077.13 502.395 1188.43 464.03 1338.75L467.168 1339.53ZM805.085 1080.31V1083.5C995.717 1083.5 1150.26 1235.69 1150.26 1423.43H1153.49H1156.73C1156.73 1232.17 999.293 1077.13 805.085 1077.13V1080.31ZM1153.49 1423.43H1150.26C1150.26 1611.18 995.717 1763.37 805.085 1763.37V1766.56V1769.74C999.293 1769.74 1156.73 1614.7 1156.73 1423.43H1153.49ZM805.085 1766.56V1763.37C648.444 1763.37 516.165 1660.61 473.979 1519.8L470.876 1520.7L467.773 1521.6C510.749 1665.05 645.5 1769.74 805.085 1769.74V1766.56ZM807.648 1153.48V1150.3C654.471 1150.3 530.3 1272.58 530.297 1423.43H533.532H536.768C536.771 1276.1 658.046 1156.67 807.648 1156.67V1153.48ZM1081.76 1423.43H1085C1085 1272.58 960.824 1150.3 807.648 1150.3V1153.48V1156.67C957.249 1156.67 1078.53 1276.1 1078.53 1423.43H1081.76ZM807.648 1693.39V1696.58C960.824 1696.58 1085 1574.29 1085 1423.43H1081.76H1078.53C1078.53 1570.77 957.249 1690.21 807.648 1690.21V1693.39ZM533.532 1423.43H530.297C530.297 1574.29 654.471 1696.58 807.648 1696.58V1693.39V1690.21C658.046 1690.21 536.768 1570.77 536.768 1423.43H533.532Z" fill="#262626"/>
<g filter="url(#filter0_f_342_7916)">
<path d="M648.306 536.201L755.058 908.944L613.079 948.383L506.328 575.64L648.306 536.201ZM530.05 389.447C549.284 384.103 567.79 386.229 585.562 395.822C603.519 405.094 615.101 418.827 620.314 437.023C625.882 456.462 623.743 474.277 613.898 490.466C604.308 506.585 589.134 517.526 568.382 523.29C547.631 529.054 528.762 527.569 511.779 518.833C495.049 510.026 483.9 495.901 478.332 476.462C473.123 458.266 475.585 440.63 485.722 423.555C496.039 406.158 510.815 394.79 530.05 389.447Z" fill="#23202B" fill-opacity="0.2"/>
<path d="M1164.4 795.237L1022.42 834.676L962.14 624.191C956.002 602.755 943.947 594.534 925.978 599.524C908.264 604.446 902.476 617.625 908.613 639.058L968.895 849.543L826.916 888.985L767.382 681.116C753.463 632.514 758.08 587.104 781.236 544.883C804.317 502.417 839.522 474.611 886.849 461.465C941.009 446.419 989.944 453.678 1033.65 483.243C1067.86 506.301 1092.66 544.746 1108.08 598.584L1164.4 795.237Z" fill="#23202B" fill-opacity="0.2"/>
<path d="M1216.14 229.941L1257.04 372.757L1320.82 355.042L1363.11 502.717L1299.34 520.432C1307.83 550.093 1318.36 569.229 1330.94 577.845C1343.77 586.39 1362.84 587.149 1388.15 580.117L1430.23 727.046C1422.96 729.334 1417.55 730.968 1414.01 731.953C1381.87 740.884 1349.39 741.967 1316.58 735.206C1284.03 728.374 1255.54 714.76 1231.12 694.368C1200.14 668.26 1177.06 628.665 1161.85 575.576L1074.16 269.38L1216.14 229.941Z" fill="#23202B" fill-opacity="0.2"/>
</g>
<path d="M570.4 391.953L677.152 764.696L535.173 804.135L428.422 431.392L570.4 391.953ZM452.143 245.195C471.378 239.852 489.881 241.977 507.656 251.571C525.613 260.843 537.195 274.575 542.404 292.772C547.972 312.211 545.834 330.028 535.992 346.214C526.399 362.333 511.228 373.275 490.473 379.039C469.721 384.803 450.853 383.318 433.87 374.581C417.143 365.775 405.994 351.653 400.426 332.211C395.214 314.018 397.676 296.382 407.812 279.304C418.133 261.907 432.909 250.539 452.143 245.195Z" fill="#C7C7C7"/>
<path d="M1086.49 650.985L944.516 690.424L884.234 479.939C880.646 467.418 875.039 459.404 867.417 455.899C861.991 453.408 855.543 453.197 848.072 455.275C830.355 460.194 824.567 473.373 830.705 494.809L890.987 705.294L749.008 744.733L689.474 536.864C675.555 488.262 680.172 442.852 703.328 400.634C726.409 358.165 761.613 330.359 808.94 317.213C852.683 305.061 893.018 307.46 929.944 324.407C938.741 328.444 947.341 333.303 955.749 338.991C989.947 362.049 1014.76 400.497 1030.18 454.332L1086.49 650.985Z" fill="#C7C7C7"/>
<path d="M1138.23 85.6917L1179.13 228.508L1242.91 210.792L1285.21 358.467L1221.43 376.186C1229.92 405.843 1240.46 424.983 1253.04 433.598C1254.63 434.659 1256.32 435.602 1258.11 436.421C1270.7 442.21 1288.08 442.026 1310.24 435.867L1352.32 582.796C1345.05 585.084 1339.65 586.721 1336.1 587.706C1303.96 596.634 1271.49 597.717 1238.68 590.956C1223.41 587.754 1209.04 583.061 1195.57 576.876C1180.3 569.87 1166.18 560.951 1153.21 550.118C1122.24 524.013 1099.15 484.415 1083.94 431.326L996.252 125.131L1138.23 85.6917Z" fill="#C7C7C7"/>
<path d="M331.565 244.284C321.428 261.362 318.965 278.998 324.175 297.191L400.427 332.207C395.215 314.014 397.68 296.378 407.817 279.3L331.565 244.284Z" fill="#C7C7C7"/>
<path d="M375.889 210.176C356.654 215.519 341.878 226.888 331.561 244.285L407.809 279.301C418.127 261.904 432.906 250.536 452.14 245.193L375.889 210.176Z" fill="#C7C7C7"/>
<path d="M324.174 297.193C329.742 316.635 340.891 330.757 357.621 339.563L433.873 374.58C417.143 365.773 405.994 351.649 400.425 332.209L324.174 297.193Z" fill="#C7C7C7"/>
<path d="M375.89 210.177C395.125 204.833 413.628 206.959 431.403 216.552L497.806 247.044C501.113 248.303 504.397 249.81 507.655 251.569L497.806 247.044C483.072 241.446 467.85 240.828 452.142 245.193L375.89 210.177Z" fill="#C7C7C7"/>
<path d="M507.656 251.569C525.613 260.841 537.196 274.577 542.408 292.77C547.976 312.212 545.834 330.026 535.992 346.216C526.399 362.331 511.228 373.273 490.477 379.037C469.721 384.804 450.853 383.316 433.87 374.579L363.581 342.3C378.988 348.545 395.871 349.118 414.225 344.02C434.977 338.256 450.151 327.315 459.74 311.196C469.586 295.01 471.721 277.192 466.156 257.753C460.944 239.56 449.361 225.824 431.405 216.552L507.656 251.569Z" fill="url(#paint7_linear_342_7916)"/>
<path d="M507.657 251.569L509.158 248.746C509.116 248.724 509.071 248.701 509.026 248.682L507.657 251.569ZM535.992 346.216L533.217 344.578L533.2 344.604L535.992 346.216ZM433.871 374.579L435.369 371.756C435.327 371.734 435.281 371.712 435.239 371.693L433.871 374.579ZM363.582 342.3L364.811 339.353C363.187 338.693 361.324 339.435 360.618 341.019C359.913 342.606 360.621 344.457 362.213 345.187L363.582 342.3ZM459.741 311.196L456.965 309.558L456.949 309.587L459.741 311.196ZM431.405 216.552L432.771 213.666C431.179 212.933 429.283 213.586 428.503 215.138C427.723 216.689 428.345 218.569 429.901 219.375L431.405 216.552ZM507.657 251.569L506.152 254.392C523.371 263.282 534.339 276.336 539.293 293.637L542.408 292.77L545.521 291.907C540.056 272.818 527.852 258.4 509.158 248.746L507.657 251.569ZM542.408 292.77L539.293 293.637C544.637 312.298 542.567 329.198 533.217 344.578L535.992 346.216L538.765 347.85C549.102 330.855 551.312 312.123 545.521 291.907L542.408 292.77ZM535.992 346.216L533.2 344.604C524.09 359.913 509.663 370.396 489.597 375.972L490.477 379.037L491.354 382.105C512.792 376.15 528.71 364.75 538.781 347.825L535.992 346.216ZM490.477 379.037L489.597 375.972C469.531 381.544 451.526 380.066 435.369 371.756L433.871 374.579L432.373 377.406C450.18 386.566 469.913 388.06 491.354 382.105L490.477 379.037ZM433.871 374.579L435.239 371.693L364.947 339.413L363.582 342.3L362.213 345.187L432.505 377.466L433.871 374.579ZM363.582 342.3L362.349 345.247C378.52 351.801 396.156 352.349 415.105 347.086L414.225 344.02L413.349 340.955C395.583 345.888 379.455 345.288 364.811 339.353L363.582 342.3ZM414.225 344.02L415.105 347.086C436.543 341.13 452.461 329.733 462.533 312.808L459.741 311.196L456.949 309.587C447.841 324.894 433.414 335.379 413.349 340.955L414.225 344.02ZM459.741 311.196L462.517 312.834C472.854 295.835 475.06 277.107 469.269 256.89L466.157 257.753L463.041 258.617C468.386 277.282 466.318 294.182 456.965 309.558L459.741 311.196ZM466.157 257.753L469.269 256.89C463.801 237.798 451.601 223.384 432.907 213.729L431.405 216.552L429.901 219.375C447.12 228.265 458.088 241.319 463.041 258.617L466.157 257.753ZM431.405 216.552L430.037 219.439L506.288 254.456L507.657 251.569L509.026 248.682L432.771 213.666L431.405 216.552Z" fill="#262626"/>
<path d="M494.15 356.934L352.168 396.373L428.42 431.389L570.398 391.95L494.15 356.934Z" fill="#C7C7C7"/>
<path d="M352.168 396.373L458.923 769.119L535.174 804.136L428.42 431.39L352.168 396.373Z" fill="#C7C7C7"/>
<path d="M600.903 729.68L494.152 356.934L570.403 391.95L677.155 764.696L600.903 729.68Z" fill="url(#paint8_linear_342_7916)" stroke="#262626" stroke-width="2" stroke-linejoin="round"/>
<path d="M627.079 365.616C603.927 407.837 599.307 453.247 613.229 501.849L689.477 536.866C675.558 488.263 680.175 442.853 703.331 400.633L627.079 365.616Z" fill="#C7C7C7"/>
<path d="M732.689 282.198C685.361 295.345 650.157 323.151 627.076 365.62L703.324 400.636C726.409 358.167 761.613 330.361 808.94 317.215L732.689 282.198Z" fill="#C7C7C7"/>
<path d="M458.921 769.117L600.902 729.678L677.151 764.695L535.172 804.134L458.921 769.117Z" fill="url(#paint9_linear_342_7916)" stroke="#262626" stroke-width="2" stroke-linejoin="round"/>
<path d="M853.691 289.389C816.766 272.445 776.43 270.046 732.688 282.195L808.939 317.211C852.682 305.062 893.014 307.458 929.943 324.406L853.691 289.389Z" fill="#C7C7C7"/>
<path d="M613.225 501.849L672.759 709.718L749.008 744.734L689.476 536.865L613.225 501.849Z" fill="#C7C7C7"/>
<path d="M791.168 420.885C798.794 424.39 804.397 432.4 807.986 444.925L884.237 479.942C880.649 467.417 875.042 459.403 867.42 455.902L791.168 420.885Z" fill="#C7C7C7"/>
<path d="M1061.98 50.6731L920 90.1118L996.251 125.128L1138.23 85.6893L1061.98 50.6731Z" fill="#C7C7C7"/>
<path d="M771.82 420.253C779.29 418.179 785.738 418.389 791.164 420.881L867.406 455.894C862.32 453.559 856.338 453.234 849.456 454.91L848.068 455.273L846.444 455.757C830.532 460.852 825.107 473.208 830.164 492.819L830.704 494.807L890.986 705.292L814.734 670.279L754.452 459.788C748.311 438.354 754.103 425.176 771.817 420.256L771.82 420.253Z" fill="url(#paint10_linear_342_7916)"/>
<path d="M771.817 420.254L772.655 423.335L772.693 423.323L771.817 420.254ZM867.403 455.895L866.034 458.782C867.655 459.528 869.58 458.836 870.334 457.24C871.091 455.647 870.389 453.751 868.768 453.009L867.403 455.895ZM849.453 454.911L848.673 451.817C848.657 451.823 848.638 451.826 848.621 451.833L849.453 454.911ZM848.065 455.274L847.233 452.193C847.198 452.202 847.166 452.212 847.13 452.225L848.065 455.274ZM846.441 455.758L845.506 452.706C845.483 452.712 845.461 452.722 845.441 452.728L846.441 455.758ZM830.16 492.82L827.025 493.604L827.035 493.646L830.16 492.82ZM830.701 494.809L827.575 495.631L827.585 495.672L830.701 494.809ZM890.982 705.293L889.617 708.18C890.762 708.709 892.115 708.527 893.079 707.721C894.043 706.912 894.441 705.628 894.098 704.427L890.982 705.293ZM814.731 670.28L811.618 671.144C811.874 672.036 812.511 672.775 813.365 673.167L814.731 670.28ZM771.813 420.257L770.975 417.18L770.933 417.189L771.813 420.257ZM771.817 420.254L772.693 423.323C779.643 421.392 785.256 421.685 789.792 423.769L791.161 420.882L792.53 417.995C786.214 415.093 778.928 414.971 770.937 417.189L771.817 420.254ZM791.161 420.882L789.792 423.769L866.034 458.782L867.403 455.895L868.768 453.009L792.53 417.995L791.161 420.882ZM867.403 455.895L868.768 453.009C862.854 450.291 856.079 450.013 848.673 451.817L849.453 454.911L850.229 458.005C856.587 456.453 861.78 456.829 866.034 458.782L867.403 455.895ZM849.453 454.911L848.621 451.833L847.233 452.193L848.065 455.274L848.896 458.352L850.281 457.992L849.453 454.911ZM848.065 455.274L847.13 452.225L845.506 452.706L846.441 455.758L847.376 458.807L849 458.323L848.065 455.274ZM846.441 455.758L845.441 452.728C836.816 455.491 830.629 460.381 827.468 467.582C824.359 474.659 824.405 483.443 827.025 493.604L830.16 492.82L833.295 492.037C830.859 482.586 831.089 475.389 833.405 470.112C835.67 464.957 840.154 461.121 847.441 458.788L846.441 455.758ZM830.16 492.82L827.035 493.646L827.575 495.631L830.701 494.809L833.826 493.983L833.286 491.995L830.16 492.82ZM830.701 494.809L827.585 495.672L887.87 706.157L890.982 705.293L894.098 704.427L833.813 493.942L830.701 494.809ZM890.982 705.293L892.351 702.407L816.099 667.39L814.731 670.28L813.365 673.167L889.617 708.18L890.982 705.293ZM814.731 670.28L817.846 669.413L757.561 458.925L754.449 459.789L751.333 460.655L811.618 671.144L814.731 670.28ZM754.449 459.789L757.561 458.925C754.588 448.545 754.682 440.729 757.154 435.096C759.564 429.612 764.501 425.598 772.69 423.323L771.813 420.257L770.933 417.189C761.408 419.837 754.595 424.874 751.217 432.566C747.904 440.111 748.169 449.602 751.333 460.655L754.449 459.789ZM771.813 420.257L772.655 423.335L771.817 420.254L770.979 417.18H770.975L771.813 420.257Z" fill="#262626"/>
<path d="M672.762 709.721L814.741 670.279L890.993 705.296L749.011 744.735L672.762 709.721Z" fill="url(#paint11_linear_342_7916)" stroke="#262626" stroke-width="2" stroke-linejoin="round"/>
<path d="M920 90.1123L1007.69 396.308L1083.95 431.325L996.251 125.129L920 90.1123Z" fill="#C7C7C7"/>
<path d="M807.982 444.923L868.264 655.411L944.516 690.428L884.234 479.94L807.982 444.923Z" fill="#C7C7C7"/>
<path d="M1102.89 193.49L1061.98 50.6731L1138.23 85.6903L1179.14 228.506L1102.89 193.49Z" fill="url(#paint12_linear_342_7916)" stroke="#262626" stroke-width="2" stroke-linejoin="round"/>
<path d="M1166.66 175.774L1102.88 193.49L1179.13 228.506L1242.91 210.791L1166.66 175.774Z" fill="#C7C7C7"/>
<path d="M929.944 324.405C938.738 328.442 947.341 333.307 955.75 338.991C989.948 362.05 1014.76 400.498 1030.18 454.335L1086.5 650.986L1010.24 615.972L953.925 419.316C938.505 365.481 913.699 327.033 879.498 303.975C871.115 298.303 862.538 293.457 853.77 289.426L929.944 324.405Z" fill="url(#paint13_linear_342_7916)"/>
<mask id="mask0_342_7916" style="mask-type:luminance" maskUnits="userSpaceOnUse" x="845" y="247" width="253" height="448">
<path d="M1097.84 247.807H845.845V694.248H1097.84V247.807Z" fill="white"/>
<path d="M929.945 324.404C938.739 328.441 947.342 333.306 955.75 338.991C989.949 362.049 1014.76 400.497 1030.18 454.335L1086.5 650.985L1010.24 615.972L953.926 419.315C938.506 365.481 913.7 327.033 879.499 303.974C871.116 298.303 862.539 293.456 853.771 289.426L929.945 324.404Z" fill="black"/>
</mask>
<g mask="url(#mask0_342_7916)">
<path d="M929.945 324.404L927.208 330.181H927.211L929.945 324.404ZM955.75 338.991L952.084 344.245L952.094 344.251L955.75 338.991ZM1086.5 650.985L1083.76 656.762C1086.06 657.814 1088.76 657.457 1090.69 655.841C1092.62 654.226 1093.41 651.655 1092.72 649.255L1086.5 650.985ZM1010.24 615.972L1004.02 617.702C1004.53 619.487 1005.8 620.965 1007.51 621.749L1010.24 615.972ZM879.499 303.974L875.836 309.228L875.842 309.231L879.499 303.974ZM853.771 289.426L856.505 283.649C853.266 282.165 849.416 283.544 847.905 286.73C846.394 289.92 847.795 293.711 851.034 295.199L853.771 289.426ZM929.945 324.404L927.211 330.181C935.665 334.062 943.957 338.749 952.084 344.245L955.75 338.991L959.413 333.74C950.726 327.865 941.812 322.821 932.675 318.631L929.945 324.404ZM955.75 338.991L952.094 344.251C984.649 366.198 1008.79 403.133 1023.95 456.065L1030.18 454.335L1036.41 452.605C1020.73 397.863 995.248 357.901 959.403 333.734L955.75 338.991ZM1030.18 454.335L1023.95 456.065L1080.27 652.716L1086.5 650.985L1092.72 649.255L1036.41 452.605L1030.18 454.335ZM1086.5 650.985L1089.23 645.212L1012.98 610.195L1010.24 615.972L1007.51 621.749L1083.76 656.762L1086.5 650.985ZM1010.24 615.972L1016.47 614.242L960.153 417.585L953.925 419.315L947.697 421.046L1004.02 617.702L1010.24 615.972ZM953.925 419.315L960.153 417.585C944.475 362.846 918.999 322.884 883.155 298.717L879.499 303.974L875.842 309.231C908.397 331.181 932.536 368.116 947.697 421.046L953.925 419.315ZM879.499 303.974L883.164 298.72C874.5 292.861 865.612 287.836 856.505 283.649L853.771 289.426L851.034 295.199C859.465 299.074 867.731 303.745 875.836 309.228L879.499 303.974ZM853.771 289.426L851.034 295.199L927.208 330.181L929.945 324.404L932.675 318.631L856.505 283.649L853.771 289.426Z" fill="#262626"/>
</g>
<path d="M868.27 655.411L1010.25 615.972L1086.5 650.989L944.518 690.428L868.27 655.411Z" fill="url(#paint14_linear_342_7916)" stroke="#262626" stroke-width="2" stroke-linejoin="round"/>
<path d="M1007.7 396.309C1022.9 449.397 1045.99 488.996 1076.96 515.104L1153.21 550.12C1122.24 524.012 1099.15 484.414 1083.95 431.325L1007.7 396.309Z" fill="#C7C7C7"/>
<path d="M1208.96 323.453L1166.66 175.774L1242.91 210.791L1285.21 358.469L1208.96 323.453Z" fill="url(#paint15_linear_342_7916)" stroke="#262626" stroke-width="2" stroke-linejoin="round"/>
<path d="M1145.18 341.169L1208.95 323.454L1285.21 358.47L1221.43 376.185L1145.18 341.169Z" fill="url(#paint16_linear_342_7916)" stroke="#262626" stroke-width="2" stroke-linejoin="round"/>
<path d="M1176.79 398.581C1164.21 389.965 1153.67 370.829 1145.18 341.168L1221.43 376.185C1229.92 405.846 1240.46 424.982 1253.03 433.598L1176.79 398.581Z" fill="url(#paint17_linear_342_7916)" stroke="#262626" stroke-width="2" stroke-linejoin="round"/>
<path d="M1076.96 515.103C1089.93 525.936 1104.05 534.854 1119.32 541.861L1195.48 576.833C1180.24 569.833 1166.16 560.93 1153.21 550.12L1076.96 515.103Z" fill="#C7C7C7"/>
<path d="M1181.86 401.406C1180.07 400.583 1178.38 399.644 1176.79 398.579L1253.04 433.596C1254.63 434.657 1256.32 435.6 1258.11 436.422L1181.86 401.406Z" fill="#C7C7C7"/>
<path d="M1233.99 400.853C1211.84 407.009 1194.46 407.197 1181.87 401.417L1258.11 436.424C1270.7 442.21 1288.08 442.025 1310.24 435.87L1233.99 400.853Z" fill="#C7C7C7"/>
<path d="M1276.07 547.782L1233.99 400.853L1310.24 435.87L1352.32 582.799L1276.07 547.782Z" fill="url(#paint18_linear_342_7916)" stroke="#262626" stroke-width="2" stroke-linejoin="round"/>
<path d="M1119.32 541.862C1132.79 548.047 1147.16 552.74 1162.43 555.942L1162.44 555.948C1195.25 562.703 1227.72 561.62 1259.86 552.695L1336.1 587.709C1304.97 596.359 1273.52 597.646 1241.75 591.573L1238.68 590.959L1235.82 590.34C1221.62 587.164 1208.2 582.678 1195.57 576.882L1119.32 541.862ZM1352.32 582.802C1345.05 585.09 1339.65 586.724 1336.1 587.709L1259.85 552.692C1263.4 551.708 1268.8 550.073 1276.07 547.785L1352.32 582.802Z" fill="#C7C7C7"/>
<path d="M1119.32 541.862L1120.69 538.975C1119.07 538.23 1117.14 538.921 1116.39 540.514C1115.63 542.111 1116.33 544.006 1117.95 544.749L1119.32 541.862ZM1162.43 555.942L1163.63 552.985C1163.46 552.915 1163.28 552.864 1163.1 552.826L1162.43 555.942ZM1162.44 555.948L1161.24 558.905C1161.41 558.972 1161.59 559.026 1161.78 559.064L1162.44 555.948ZM1241.75 591.573L1241.11 594.696L1241.14 594.699L1241.75 591.573ZM1238.68 590.958L1237.98 594.071C1238 594.075 1238.02 594.078 1238.04 594.081L1238.68 590.958ZM1235.82 590.34L1235.11 593.447L1235.13 593.453L1235.82 590.34ZM1195.57 576.882L1194.2 579.768H1194.2L1195.57 576.882ZM1352.32 582.802L1353.31 585.838C1354.58 585.437 1355.47 584.312 1355.55 583.002C1355.63 581.696 1354.9 580.469 1353.69 579.915L1352.32 582.802ZM1259.85 552.692L1258.98 549.624C1257.68 549.987 1256.74 551.105 1256.63 552.434C1256.52 553.762 1257.26 555.015 1258.49 555.579L1259.85 552.692ZM1276.07 547.785L1277.44 544.895C1276.7 544.558 1275.86 544.503 1275.09 544.749L1276.07 547.785ZM1119.32 541.862L1117.95 544.749C1131.66 551.041 1146.26 555.808 1161.75 559.058L1162.43 555.942L1163.1 552.826C1148.06 549.668 1133.93 545.051 1120.69 538.975L1119.32 541.862ZM1162.43 555.942L1161.22 558.899L1161.24 558.905L1162.44 555.948L1163.65 552.991L1163.63 552.985L1162.43 555.942ZM1162.44 555.948L1161.78 559.064C1195.09 565.928 1228.09 564.828 1260.73 555.76L1259.86 552.695L1258.98 549.627C1227.34 558.414 1195.4 559.482 1163.11 552.829L1162.44 555.948ZM1336.1 587.709L1335.22 584.643C1304.58 593.157 1273.64 594.425 1242.37 588.444L1241.75 591.573L1241.14 594.699C1273.4 600.871 1305.36 599.561 1336.98 590.777L1336.1 587.709ZM1241.75 591.573L1242.4 588.448L1239.32 587.836L1238.68 590.958L1238.04 594.081L1241.11 594.696L1241.75 591.573ZM1238.68 590.958L1239.37 587.849L1236.52 587.227L1235.82 590.34L1235.13 593.453L1237.98 594.071L1238.68 590.958ZM1235.82 590.34L1236.54 587.234C1222.55 584.105 1209.35 579.689 1196.93 573.992L1195.57 576.882L1194.2 579.768C1207.05 585.666 1220.69 590.222 1235.11 593.447L1235.82 590.34ZM1195.57 576.882L1196.94 573.992L1120.69 538.975L1119.32 541.862L1117.95 544.749L1194.2 579.768L1195.57 576.882ZM1352.32 582.802L1351.34 579.768C1344.07 582.053 1338.71 583.675 1335.22 584.643L1336.1 587.709L1336.98 590.777C1340.58 589.776 1346.03 588.126 1353.31 585.838L1352.32 582.802ZM1259.85 552.692L1260.73 555.757C1264.33 554.757 1269.78 553.109 1277.06 550.818L1276.07 547.785L1275.09 544.749C1267.83 547.033 1262.46 548.655 1258.98 549.624L1259.85 552.692ZM1276.07 547.785L1274.7 550.672L1350.95 585.688L1352.32 582.802L1353.69 579.915L1277.44 544.895L1276.07 547.785Z" fill="#262626"/>
<path d="M494.152 356.936L600.903 729.676L458.925 769.119L352.173 396.375L494.152 356.936ZM375.895 210.179C395.129 204.836 413.633 206.961 431.408 216.555C449.364 225.827 460.947 239.562 466.159 257.756C471.724 277.198 469.589 295.012 459.743 311.198C450.15 327.317 434.98 338.259 414.228 344.023C393.473 349.79 374.607 348.302 357.625 339.565C340.895 330.758 329.745 316.637 324.177 297.195C318.967 279.001 321.43 261.366 331.567 244.288C341.885 226.894 356.661 215.522 375.895 210.179Z" fill="#EFEFEF"/>
<path d="M1010.24 615.969L868.266 655.408L807.985 444.923C801.847 423.489 789.792 415.266 771.823 420.259C754.106 425.178 748.318 438.356 754.458 459.793L814.74 670.278L672.758 709.717L613.227 501.848C599.309 453.245 603.925 407.836 627.078 365.618C650.162 323.149 685.367 295.343 732.694 282.196C786.851 267.151 835.79 274.413 879.5 303.974C913.698 327.033 938.507 365.481 953.927 419.315L1010.24 615.969Z" fill="#EFEFEF"/>
<path d="M1061.98 50.676L1102.88 193.491L1166.66 175.776L1208.96 323.451L1145.18 341.169C1153.67 370.83 1164.21 389.966 1176.78 398.582C1189.62 407.124 1208.68 407.882 1233.99 400.85L1276.07 547.78C1268.8 550.067 1263.4 551.705 1259.85 552.69C1227.71 561.617 1195.24 562.701 1162.42 555.939C1129.87 549.108 1101.38 535.497 1076.96 515.102C1045.99 488.997 1022.9 449.399 1007.7 396.31L920.004 90.1141L1061.98 50.676Z" fill="#EFEFEF"/>
<path d="M494.152 356.936L600.903 729.676L458.925 769.119L352.173 396.375L494.152 356.936ZM375.895 210.179C395.129 204.836 413.633 206.961 431.408 216.555C449.364 225.827 460.947 239.562 466.159 257.756C471.724 277.198 469.589 295.012 459.743 311.198C450.15 327.317 434.98 338.259 414.228 344.023C393.473 349.79 374.607 348.302 357.625 339.565C340.895 330.758 329.745 316.637 324.177 297.195C318.967 279.001 321.43 261.366 331.567 244.288C341.885 226.894 356.661 215.522 375.895 210.179Z" stroke="#262626" stroke-width="2"/>
<path d="M1010.24 615.969L868.266 655.408L807.985 444.923C801.847 423.489 789.792 415.266 771.823 420.259C754.106 425.178 748.318 438.356 754.458 459.793L814.74 670.278L672.758 709.717L613.227 501.848C599.309 453.245 603.925 407.836 627.078 365.618C650.162 323.149 685.367 295.343 732.694 282.196C786.851 267.151 835.79 274.413 879.5 303.974C913.698 327.033 938.507 365.481 953.927 419.315L1010.24 615.969Z" stroke="#262626" stroke-width="2"/>
<path d="M1061.98 50.676L1102.88 193.491L1166.66 175.776L1208.96 323.451L1145.18 341.169C1153.67 370.83 1164.21 389.966 1176.78 398.582C1189.62 407.124 1208.68 407.882 1233.99 400.85L1276.07 547.78C1268.8 550.067 1263.4 551.705 1259.85 552.69C1227.71 561.617 1195.24 562.701 1162.42 555.939C1129.87 549.108 1101.38 535.497 1076.96 515.102C1045.99 488.997 1022.9 449.399 1007.7 396.31L920.004 90.1141L1061.98 50.676Z" stroke="#262626" stroke-width="2"/>
<path d="M1973.22 1175.05L2017.87 1330.95C2036.99 1307.08 2058.57 1291.8 2082.61 1285.12C2119.06 1274.99 2151.62 1279.94 2180.3 1299.96C2183.34 1302.05 2186.29 1304.28 2189.15 1306.65C2213.51 1326.77 2231.35 1356.57 2242.66 1396.05L2310.33 1632.34L2168.35 1671.77L2111.92 1474.75C2107.35 1458.79 2102.51 1448.57 2097.4 1444.07C2092.54 1439.5 2085.17 1438.59 2075.3 1441.33C2059.36 1445.76 2054.7 1459.56 2061.34 1482.74L2119.38 1685.38L1977.4 1724.82L1831.24 1214.49L1973.22 1175.05Z" fill="#C7C7C7"/>
<path d="M1908.77 1121.79L1766.79 1161.23L1831.24 1214.49L1973.22 1175.05L1908.77 1121.79Z" fill="#C7C7C7"/>
<path d="M1953.42 1277.69L1908.77 1121.79L1973.22 1175.05L2017.87 1330.95L1953.42 1277.69Z" fill="url(#paint19_linear_342_7916)" stroke="#262626" stroke-width="2" stroke-linejoin="round"/>
<path d="M1766.79 1161.23L1912.95 1671.56L1977.4 1724.82L1831.24 1214.49L1766.79 1161.23Z" fill="#C7C7C7"/>
<path d="M2018.16 1231.86C1994.12 1238.54 1972.54 1253.81 1953.42 1277.69L2017.87 1330.95C2036.99 1307.08 2058.57 1291.8 2082.61 1285.12L2018.16 1231.86Z" fill="#C7C7C7"/>
<path d="M2115.85 1246.7C2087.17 1226.68 2054.6 1221.74 2018.16 1231.86L2082.61 1285.12C2119.06 1275 2151.62 1279.94 2180.3 1299.96L2115.85 1246.7Z" fill="#C7C7C7"/>
<path d="M2124.7 1253.39C2121.84 1251.03 2118.89 1248.8 2115.85 1246.7L2180.3 1299.96C2183.34 1302.06 2186.29 1304.28 2189.15 1306.65L2124.7 1253.39Z" fill="#C7C7C7"/>
<path d="M2032.95 1390.81C2038.06 1395.31 2042.9 1405.54 2047.47 1421.49L2111.92 1474.75C2107.35 1458.8 2102.51 1448.57 2097.4 1444.07L2032.95 1390.81Z" fill="#C7C7C7"/>
<path d="M2012.68 1387.6C2021.63 1385.46 2028.39 1386.53 2032.95 1390.81L2095.92 1442.85C2091.09 1439.36 2084.22 1438.85 2075.3 1441.33L2073.84 1441.77C2059.08 1446.63 2054.91 1460.29 2061.35 1482.74L2119.38 1685.38L2054.93 1632.12L1996.89 1429.49C1990.25 1406.31 1994.91 1392.5 2010.85 1388.07L2012.68 1387.6Z" fill="url(#paint20_linear_342_7916)"/>
<path d="M2012.68 1387.6L2011.91 1384.5C2011.89 1384.51 2011.87 1384.51 2011.85 1384.52L2012.68 1387.6ZM2032.95 1390.81L2030.72 1393.12C2030.77 1393.16 2030.82 1393.21 2030.87 1393.25L2032.95 1390.81ZM2095.92 1442.85L2094 1445.42C2095.41 1446.43 2097.39 1446.17 2098.47 1444.82C2099.54 1443.47 2099.34 1441.52 2098 1440.41L2095.92 1442.85ZM2075.3 1441.33L2074.43 1438.26C2074.4 1438.27 2074.37 1438.28 2074.35 1438.28L2075.3 1441.33ZM2073.84 1441.77L2072.89 1438.73C2072.86 1438.74 2072.84 1438.74 2072.82 1438.75L2073.84 1441.77ZM2119.38 1685.38L2117.3 1687.82C2118.39 1688.72 2119.94 1688.81 2121.14 1688.06C2122.33 1687.3 2122.88 1685.86 2122.49 1684.52L2119.38 1685.38ZM2054.93 1632.12L2051.82 1632.99C2051.99 1633.6 2052.35 1634.15 2052.85 1634.56L2054.93 1632.12ZM2010.85 1388.07L2010.03 1384.99C2010.01 1385 2009.99 1385 2009.97 1385L2010.85 1388.07ZM2012.68 1387.6L2013.44 1390.7C2021.86 1388.68 2027.28 1389.89 2030.72 1393.12L2032.95 1390.81L2035.18 1388.51C2029.5 1383.17 2021.41 1382.23 2011.91 1384.5L2012.68 1387.6ZM2032.95 1390.81L2030.87 1393.25L2093.84 1445.29L2095.92 1442.85L2098 1440.41L2035.03 1388.37L2032.95 1390.81ZM2095.92 1442.85L2097.83 1440.28C2091.84 1435.95 2083.77 1435.67 2074.43 1438.26L2075.3 1441.33L2076.18 1444.4C2084.67 1442.04 2090.34 1442.77 2094 1445.42L2095.92 1442.85ZM2075.3 1441.33L2074.35 1438.28L2072.89 1438.73L2073.84 1441.77L2074.8 1444.82L2076.26 1444.37L2075.3 1441.33ZM2073.84 1441.77L2072.82 1438.75C2064.52 1441.48 2058.96 1446.84 2056.55 1454.74C2054.21 1462.41 2054.94 1472.13 2058.23 1483.61L2061.35 1482.74L2064.46 1481.88C2061.31 1470.9 2060.92 1462.56 2062.74 1456.58C2064.5 1450.83 2068.4 1446.93 2074.87 1444.79L2073.84 1441.77ZM2061.35 1482.74L2058.23 1483.61L2116.27 1686.24L2119.38 1685.38L2122.49 1684.52L2064.46 1481.88L2061.35 1482.74ZM2119.38 1685.38L2121.46 1682.94L2057.01 1629.68L2054.93 1632.12L2052.85 1634.56L2117.3 1687.82L2119.38 1685.38ZM2054.93 1632.12L2058.05 1631.25L2000.01 1428.62L1996.89 1429.48L1993.78 1430.35L2051.82 1632.99L2054.93 1632.12ZM1996.89 1429.48L2000.01 1428.62C1996.76 1417.28 1996.45 1408.77 1998.48 1402.75C2000.42 1396.98 2004.65 1393.11 2011.73 1391.14L2010.85 1388.07L2009.97 1385C2001.12 1387.46 1995.04 1392.7 1992.34 1400.74C1989.71 1408.53 1990.39 1418.51 1993.78 1430.35L1996.89 1429.48ZM2010.85 1388.07L2011.68 1391.15L2013.5 1390.68L2012.68 1387.6L2011.85 1384.52L2010.03 1384.99L2010.85 1388.07Z" fill="#262626"/>
<path d="M2047.47 1421.49L2103.9 1618.52L2168.35 1671.78L2111.92 1474.75L2047.47 1421.49Z" fill="#C7C7C7"/>
<path d="M1912.95 1671.56L2054.93 1632.12L2119.38 1685.38L1977.4 1724.82L1912.95 1671.56Z" fill="url(#paint21_linear_342_7916)" stroke="#262626" stroke-width="2" stroke-linejoin="round"/>
<path d="M2189.15 1306.65C2213.51 1326.77 2231.35 1356.57 2242.66 1396.05L2310.33 1632.34L2245.88 1579.08L2178.21 1342.8C2166.91 1303.34 2149.09 1273.55 2124.75 1253.43L2189.15 1306.65Z" fill="url(#paint22_linear_342_7916)"/>
<path d="M2310.33 1632.34L2308.25 1634.78C2309.34 1635.68 2310.89 1635.77 2312.09 1635.01C2313.28 1634.25 2313.83 1632.82 2313.44 1631.47L2310.33 1632.34ZM2245.88 1579.08L2242.77 1579.94C2242.94 1580.56 2243.3 1581.11 2243.8 1581.52L2245.88 1579.08ZM2124.75 1253.43L2126.83 1250.99C2125.46 1249.86 2123.42 1250.03 2122.27 1251.38C2121.13 1252.73 2121.3 1254.74 2122.67 1255.87L2124.75 1253.43ZM2189.15 1306.65L2187.07 1309.09C2210.8 1328.69 2228.36 1357.86 2239.54 1396.92L2242.66 1396.05L2245.77 1395.19C2234.34 1355.28 2216.23 1324.85 2191.23 1304.21L2189.15 1306.65ZM2242.66 1396.05L2239.54 1396.92L2307.22 1633.2L2310.33 1632.34L2313.44 1631.47L2245.77 1395.19L2242.66 1396.05ZM2310.33 1632.34L2312.41 1629.9L2247.96 1576.64L2245.88 1579.08L2243.8 1581.52L2308.25 1634.78L2310.33 1632.34ZM2245.88 1579.08L2248.99 1578.21L2181.32 1341.93L2178.21 1342.8L2175.1 1343.66L2242.77 1579.94L2245.88 1579.08ZM2178.21 1342.8L2181.32 1341.93C2169.9 1302.05 2151.8 1271.63 2126.83 1250.99L2124.75 1253.43L2122.67 1255.87C2146.38 1275.47 2163.92 1304.63 2175.1 1343.66L2178.21 1342.8ZM2124.75 1253.43L2122.68 1255.87L2187.07 1309.09L2189.15 1306.65L2191.23 1304.21L2126.83 1250.99L2124.75 1253.43Z" fill="#262626"/>
<path d="M2103.9 1618.52L2245.88 1579.08L2310.33 1632.34L2168.35 1671.77L2103.9 1618.52Z" fill="url(#paint23_linear_342_7916)" stroke="#262626" stroke-width="2" stroke-linejoin="round"/>
<path d="M1908.77 1121.79L1953.42 1277.69C1972.54 1253.82 1994.12 1238.54 2018.16 1231.86C2054.6 1221.74 2087.17 1226.69 2115.85 1246.7C2144.79 1266.65 2165.57 1298.68 2178.21 1342.79L2245.88 1579.08L2103.9 1618.52L2047.47 1421.49C2042.9 1405.54 2038.06 1395.31 2032.95 1390.81C2028.09 1386.24 2020.72 1385.33 2010.85 1388.07C1994.91 1392.5 1990.25 1406.31 1996.89 1429.49L2054.93 1632.12L1912.95 1671.56L1766.79 1161.23L1908.77 1121.79Z" fill="#EFEFEF" stroke="#262626" stroke-width="2"/>
<defs>
<filter id="filter0_f_342_7916" x="471.679" y="225.941" width="962.547" height="726.441" filterUnits="userSpaceOnUse" color-interpolation-filters="sRGB">
<feFlood flood-opacity="0" result="BackgroundImageFix"/>
<feBlend mode="normal" in="SourceGraphic" in2="BackgroundImageFix" result="shape"/>
<feGaussianBlur stdDeviation="2" result="effect1_foregroundBlur_342_7916"/>
</filter>
<linearGradient id="paint0_linear_342_7916" x1="216.805" y1="1221.03" x2="207.268" y2="1232.33" gradientUnits="userSpaceOnUse">
<stop stop-color="#C7C7C7"/>
<stop offset="1" stop-color="#A8A6A6"/>
</linearGradient>
<linearGradient id="paint1_linear_342_7916" x1="142.379" y1="1356.47" x2="191.744" y2="1408.21" gradientUnits="userSpaceOnUse">
<stop stop-color="#C7C7C7"/>
<stop offset="1" stop-color="#A8A6A6"/>
</linearGradient>
<linearGradient id="paint2_linear_342_7916" x1="161.792" y1="1283.17" x2="261.954" y2="1306.14" gradientUnits="userSpaceOnUse">
<stop stop-color="#C7C7C7"/>
<stop offset="1" stop-color="#A8A6A6"/>
</linearGradient>
<linearGradient id="paint3_linear_342_7916" x1="427.176" y1="1214.69" x2="504.624" y2="1355.87" gradientUnits="userSpaceOnUse">
<stop stop-color="#C7C7C7"/>
<stop offset="1" stop-color="#A8A6A6"/>
</linearGradient>
<linearGradient id="paint4_linear_342_7916" x1="791.419" y1="1156.66" x2="791.419" y2="1681.11" gradientUnits="userSpaceOnUse">
<stop stop-color="#C7C7C7"/>
<stop offset="1" stop-color="#A8A6A6"/>
</linearGradient>
<linearGradient id="paint5_linear_342_7916" x1="899.632" y1="1160.51" x2="899.632" y2="1819.81" gradientUnits="userSpaceOnUse">
<stop stop-color="#C7C7C7"/>
<stop offset="1" stop-color="#A8A6A6"/>
</linearGradient>
<linearGradient id="paint6_linear_342_7916" x1="1200.51" y1="1539.3" x2="1224.05" y2="1187.16" gradientUnits="userSpaceOnUse">
<stop stop-color="#4AB4F5" stop-opacity="0"/>
<stop offset="0.874819" stop-color="#4AB4F5" stop-opacity="0.34"/>
</linearGradient>
<linearGradient id="paint7_linear_342_7916" x1="463.186" y1="302.689" x2="547.663" y2="341.778" gradientUnits="userSpaceOnUse">
<stop stop-color="#C7C7C7"/>
<stop offset="1" stop-color="#A8A6A6"/>
</linearGradient>
<linearGradient id="paint8_linear_342_7916" x1="532.303" y1="488.069" x2="665.034" y2="735.158" gradientUnits="userSpaceOnUse">
<stop stop-color="#C7C7C7"/>
<stop offset="1" stop-color="#A8A6A6"/>
</linearGradient>
<linearGradient id="paint9_linear_342_7916" x1="543.623" y1="755.761" x2="655.237" y2="765.614" gradientUnits="userSpaceOnUse">
<stop stop-color="#C7C7C7"/>
<stop offset="1" stop-color="#A8A6A6"/>
</linearGradient>
<linearGradient id="paint10_linear_342_7916" x1="770.134" y1="472.134" x2="882.259" y2="693.413" gradientUnits="userSpaceOnUse">
<stop stop-color="#C7C7C7"/>
<stop offset="1" stop-color="#A8A6A6"/>
</linearGradient>
<linearGradient id="paint11_linear_342_7916" x1="745.873" y1="699.991" x2="867.125" y2="719.691" gradientUnits="userSpaceOnUse">
<stop stop-color="#C7C7C7"/>
<stop offset="1" stop-color="#A8A6A6"/>
</linearGradient>
<linearGradient id="paint12_linear_342_7916" x1="1061.37" y1="84.9383" x2="1163.54" y2="175.719" gradientUnits="userSpaceOnUse">
<stop stop-color="#C7C7C7"/>
<stop offset="1" stop-color="#A8A6A6"/>
</linearGradient>
<linearGradient id="paint13_linear_342_7916" x1="896.403" y1="382.929" x2="1064.92" y2="579.812" gradientUnits="userSpaceOnUse">
<stop stop-color="#C7C7C7"/>
<stop offset="1" stop-color="#A8A6A6"/>
</linearGradient>
<linearGradient id="paint14_linear_342_7916" x1="951.351" y1="633.069" x2="1056.26" y2="664.207" gradientUnits="userSpaceOnUse">
<stop stop-color="#C7C7C7"/>
<stop offset="1" stop-color="#A8A6A6"/>
</linearGradient>
<linearGradient id="paint15_linear_342_7916" x1="1182.71" y1="244.278" x2="1265.72" y2="318.836" gradientUnits="userSpaceOnUse">
<stop stop-color="#C7C7C7"/>
<stop offset="1" stop-color="#A8A6A6"/>
</linearGradient>
<linearGradient id="paint16_linear_342_7916" x1="1206.98" y1="325.544" x2="1224.29" y2="383.053" gradientUnits="userSpaceOnUse">
<stop stop-color="#C7C7C7"/>
<stop offset="1" stop-color="#A8A6A6"/>
</linearGradient>
<linearGradient id="paint17_linear_342_7916" x1="1150.36" y1="335.105" x2="1239.73" y2="416.13" gradientUnits="userSpaceOnUse">
<stop stop-color="#C7C7C7"/>
<stop offset="0.850065" stop-color="#A8A6A6"/>
</linearGradient>
<linearGradient id="paint18_linear_342_7916" x1="1232.87" y1="460.983" x2="1351.14" y2="558.355" gradientUnits="userSpaceOnUse">
<stop stop-color="#C7C7C7"/>
<stop offset="1" stop-color="#A8A6A6"/>
</linearGradient>
<linearGradient id="paint19_linear_342_7916" x1="1963.32" y1="1121.79" x2="1963.32" y2="1330.95" gradientUnits="userSpaceOnUse">
<stop stop-color="#C7C7C7"/>
<stop offset="1" stop-color="#A8A6A6"/>
</linearGradient>
<linearGradient id="paint20_linear_342_7916" x1="2056.67" y1="1386.53" x2="2057.98" y2="1693.82" gradientUnits="userSpaceOnUse">
<stop offset="0.00299988" stop-color="#A8A6A6"/>
<stop offset="0.508" stop-color="#C7C7C7"/>
<stop offset="1" stop-color="#A8A6A6"/>
</linearGradient>
<linearGradient id="paint21_linear_342_7916" x1="2016.16" y1="1632.12" x2="2016.16" y2="1724.82" gradientUnits="userSpaceOnUse">
<stop stop-color="#C7C7C7"/>
<stop offset="1" stop-color="#A8A6A6"/>
</linearGradient>
<linearGradient id="paint22_linear_342_7916" x1="2223.07" y1="1367.21" x2="2263.91" y2="1588.89" gradientUnits="userSpaceOnUse">
<stop stop-color="#C7C7C7"/>
<stop offset="1" stop-color="#A8A6A6"/>
</linearGradient>
<linearGradient id="paint23_linear_342_7916" x1="2207.11" y1="1579.08" x2="2207.11" y2="1671.77" gradientUnits="userSpaceOnUse">
<stop stop-color="#C7C7C7"/>
<stop offset="1" stop-color="#A8A6A6"/>
</linearGradient>
</defs>
</svg>
