<svg width="287" height="72" viewBox="0 0 287 72" fill="none" xmlns="http://www.w3.org/2000/svg">
<path d="M42.3836 26.2614L36.999 45.9567L42.0991 50.904L47.3883 49.515L49.7631 40.8286L46.3849 41.7158L51.2487 23.9251C50.2171 24.0401 49.1776 23.9907 48.1365 23.7771L48.1337 23.7765L48.1309 23.7759C46.5737 23.4505 45.1851 22.7943 43.9935 21.804L43.9907 21.8017L43.988 21.7995C43.8825 21.7109 43.7792 21.6197 43.6782 21.5258L43.3724 22.6443L44.2643 25.7417L42.3836 26.2614Z" fill="#EFEFEF"/>
<path d="M49.7151 5.10124L48.0422 5.56348L48.9593 2.20884L57.2 0L70.0088 12.5539L67.634 21.2402L55.2902 9.14206L53.735 14.8308L52.0376 13.1673L49.7151 5.10124Z" fill="#EFEFEF"/>
<path d="M48.2841 49.2797L50.6589 40.5934L53.979 39.7215L51.6043 48.4078L48.2841 49.2797Z" fill="#EFEFEF"/>
<path d="M52.5001 48.1726L56.2648 47.1839L58.6396 38.4975L54.8748 39.4862L52.5001 48.1726Z" fill="#EFEFEF"/>
<path d="M89.9274 32.076L88.1223 38.8176L66.4234 44.5161L68.7981 35.8297L79.6201 32.9877L71.5687 25.0966L73.9435 16.4102L89.9274 32.076Z" fill="#EFEFEF"/>
<path d="M58.0564 46.7134L62.8401 45.4571L65.2149 36.7707L60.4312 38.027L58.0564 46.7134Z" fill="#EFEFEF"/>
<path fill-rule="evenodd" clip-rule="evenodd" d="M18.8648 62.1298L6.34771 65.5901L9.95577 49.3705L10.0801 48.8176C10.1815 48.3822 10.1796 47.9815 10.0742 47.6155C9.80766 46.6892 9.12014 46.3793 8.01168 46.6857C7.57996 46.8051 7.24682 47.07 7.01226 47.4805C6.78608 47.8764 6.73388 48.2859 6.85565 48.709C6.99387 49.1893 7.32896 49.5658 7.8609 49.8385L6.33825 56.0372C4.83097 55.6143 3.56034 54.8977 2.52636 53.8873C1.49239 52.8768 0.766418 51.6454 0.348454 50.193C-0.299883 47.9402 -0.0434937 45.7891 1.11762 43.7397C2.27544 41.6789 4.00366 40.3308 6.30227 39.6953C8.61255 39.0567 10.8015 39.3096 12.8692 40.454C14.9485 41.5953 16.3156 43.3037 16.9705 45.5795C17.3457 46.8832 17.397 48.1776 17.1245 49.4628L15.8441 55.6501L18.7153 54.8563C20.2487 48.8768 25.7703 44.4496 32.347 44.4496C40.1094 44.4496 46.402 50.6169 46.402 58.2248C46.402 65.8326 40.1094 72 32.347 72C25.9687 72 20.5826 67.8357 18.8648 62.1298ZM43.5084 58.2248C43.5084 64.2104 38.5576 69.0627 32.4505 69.0627C26.3433 69.0627 21.3925 64.2104 21.3925 58.2248C21.3925 52.2393 26.3433 47.387 32.4505 47.387C38.5576 47.387 43.5084 52.2393 43.5084 58.2248Z" fill="#EFEFEF"/>
<path fill-rule="evenodd" clip-rule="evenodd" d="M19.3997 61.1798L19.6199 61.9112C21.2415 67.2976 26.3267 71.2279 32.347 71.2279C39.6751 71.2279 45.6147 65.4058 45.6147 58.2248C45.6147 51.0438 39.6751 45.2217 32.347 45.2217C26.1394 45.2217 20.9262 49.4004 19.4788 55.0447L19.3676 55.4782L14.816 56.7364L16.3533 49.3074L16.3537 49.3056C16.5996 48.1459 16.5548 46.9773 16.2129 45.7892C15.6139 43.7079 14.3794 42.1677 12.4847 41.1278L12.4822 41.1264C10.5994 40.0843 8.62683 39.8549 6.51585 40.4385C4.42111 41.0175 2.86379 42.2315 1.80713 44.1123L1.80645 44.1135L1.80577 44.1147C0.745476 45.9861 0.514346 47.9271 1.10611 49.9833C1.48943 51.3153 2.14902 52.4285 3.08205 53.3404C3.83392 54.0751 4.72778 54.6422 5.77376 55.0386L6.96588 50.1855C6.55112 49.8593 6.2476 49.4385 6.098 48.9187C5.91748 48.2914 6.00085 47.6713 6.32549 47.1031C6.65421 46.5278 7.15044 46.1216 7.79809 45.9426C8.44215 45.7645 9.10445 45.724 9.68746 45.9868C10.2992 46.2626 10.6559 46.7943 10.8319 47.4058C10.9785 47.9153 10.9732 48.4482 10.8482 48.9866L10.7249 49.5351L7.39641 64.498L19.3997 61.1798ZM6.34771 65.5901L9.95577 49.3705L10.0801 48.8176C10.1815 48.3822 10.1796 47.9815 10.0742 47.6155C9.80766 46.6892 9.12014 46.3793 8.01168 46.6857C7.57996 46.8051 7.24682 47.07 7.01226 47.4805C6.78608 47.8764 6.73388 48.2859 6.85565 48.709C6.99387 49.1893 7.32896 49.5658 7.8609 49.8385L6.33825 56.0372C6.08125 55.9651 5.83113 55.8844 5.5879 55.7953C4.40455 55.3614 3.38404 54.7254 2.52636 53.8873C1.49239 52.8768 0.766418 51.6454 0.348454 50.193C-0.299883 47.9402 -0.0434937 45.7891 1.11762 43.7397C2.27544 41.6789 4.00366 40.3308 6.30227 39.6953C8.61255 39.0567 10.8015 39.3096 12.8692 40.454C14.9485 41.5953 16.3156 43.3037 16.9705 45.5795C17.3457 46.8832 17.397 48.1776 17.1245 49.4628L15.8441 55.6501L18.7153 54.8563C20.2487 48.8768 25.7703 44.4496 32.347 44.4496C40.1094 44.4496 46.402 50.6169 46.402 58.2248C46.402 65.8326 40.1094 72 32.347 72C25.9687 72 20.5826 67.8357 18.8648 62.1298L6.34771 65.5901ZM44.2956 58.2248C44.2956 64.6373 38.9919 69.8348 32.4505 69.8348C25.909 69.8348 20.6053 64.6373 20.6053 58.2248C20.6053 51.8124 25.909 46.6149 32.4505 46.6149C38.9919 46.6149 44.2956 51.8124 44.2956 58.2248ZM32.4505 69.0627C38.5576 69.0627 43.5084 64.2104 43.5084 58.2248C43.5084 52.2393 38.5576 47.387 32.4505 47.387C26.3433 47.387 21.3925 52.2393 21.3925 58.2248C21.3925 64.2104 26.3433 69.0627 32.4505 69.0627Z" fill="#EFEFEF"/>
<path fill-rule="evenodd" clip-rule="evenodd" d="M18.97 8.63854C18.253 8.25339 17.5066 8.168 16.7308 8.38236C15.955 8.59671 15.359 9.05299 14.9429 9.75121C14.5342 10.4366 14.4349 11.1445 14.6452 11.8748C14.8699 12.6552 15.3197 13.2222 15.9946 13.5758C16.6796 13.9265 17.4407 13.9863 18.2778 13.755C19.1148 13.5237 19.7268 13.0846 20.1135 12.4377C20.5105 11.788 20.5967 11.0729 20.372 10.2926C20.1617 9.56219 19.6944 9.01085 18.97 8.63854ZM18.3752 9.72726L18.3651 9.72182C17.9329 9.48967 17.526 9.44604 17.0727 9.57129C16.6188 9.6967 16.2864 9.94534 16.0306 10.3746C15.7856 10.7853 15.745 11.1487 15.8575 11.5395C15.9968 12.023 16.239 12.302 16.5827 12.4836C16.9454 12.6677 17.3687 12.7228 17.9358 12.5661C18.5061 12.4085 18.8275 12.1461 19.0268 11.8128L19.0298 11.8077L19.0329 11.8027C19.238 11.467 19.2975 11.1066 19.1597 10.6279C19.0492 10.2444 18.8226 9.95723 18.3854 9.73252L18.3752 9.72726ZM37.0451 12.1502C35.2817 10.9632 33.3077 10.6716 31.1232 11.2751C29.2143 11.8026 27.7944 12.9185 26.8636 14.623C25.9299 16.3175 25.7439 18.1403 26.3057 20.0912L28.7083 28.4353L34.435 26.8531L32.0022 18.4039C31.7544 17.5435 31.9878 17.0145 32.7024 16.8171C33.4272 16.6169 33.9134 16.9469 34.1612 17.8074L36.594 26.2565L42.3207 24.6743L40.0478 16.7804C39.4256 14.6193 38.4246 13.0759 37.0451 12.1502ZM40.766 23.8204L38.8355 17.1157C38.2639 15.1304 37.393 13.8802 36.3338 13.1695L36.3323 13.1685C34.8983 12.2032 33.315 11.953 31.4652 12.4641C29.8836 12.9011 28.7423 13.7997 27.9741 15.2064L27.973 15.2084L27.9719 15.2104C27.2027 16.6064 27.0401 18.0962 27.518 19.7559L29.5783 26.9115L32.8803 25.9992L30.7899 18.7392C30.6284 18.1783 30.5551 17.506 30.8353 16.8711C31.1408 16.1787 31.743 15.7988 32.3605 15.6282C32.9773 15.4578 33.6943 15.4691 34.3275 15.8989C34.9116 16.2954 35.2111 16.908 35.3735 17.472L37.4641 24.7327L40.766 23.8204ZM44.4043 1.98378L38.6775 3.56606L42.2166 15.8571C42.8302 17.9882 43.7617 19.5777 45.0112 20.6258C45.9963 21.4445 47.1455 21.9911 48.4588 22.2655C49.5923 22.4981 50.7158 22.4997 51.8294 22.2704C51.8487 22.2664 51.868 22.2624 51.8873 22.2582C52.0546 22.2226 52.2218 22.1817 52.3887 22.1356C52.5316 22.0961 52.7496 22.0304 53.0427 21.9386L51.3446 16.0407L51.3426 16.0413C50.3228 16.3227 49.5542 16.292 49.037 15.9492C48.721 15.7338 48.4369 15.3544 48.1847 14.8111C48.032 14.4823 47.8911 14.0934 47.7618 13.6445L50.3342 12.9338L48.6274 7.00585L46.0549 7.71661L44.4043 1.98378ZM47.7573 8.52967L45.1849 9.24042L43.5342 3.50759L40.2322 4.41991L43.4289 15.5218C43.999 17.5017 44.8268 18.845 45.8278 19.6855C46.6466 20.3653 47.6026 20.8233 48.7186 21.0569C49.6525 21.2483 50.5717 21.2553 51.4862 21.0783L50.4428 17.4546C49.6973 17.5078 48.9633 17.3911 48.3318 16.9725L48.3249 16.968L48.3181 16.9633C47.4231 16.3531 46.9025 15.2057 46.5495 13.9799L46.2071 12.7907L48.7795 12.0799L47.7573 8.52967ZM21.5018 14.2737L15.775 15.856L20.0832 30.8184L25.81 29.2361L21.5018 14.2737ZM24.2553 28.3823L20.6317 15.7976L17.3297 16.7099L20.9533 29.2946L24.2553 28.3823Z" fill="#EFEFEF"/>
<path fill-rule="evenodd" clip-rule="evenodd" d="M78.5674 44.9815L72.8399 46.5649L78.736 67.0529L84.4636 65.4696L82.1224 57.3344C81.8546 56.4038 82.0423 55.8496 82.6855 55.6718C83.0836 55.5617 83.3808 55.5984 83.5769 55.7818C83.7831 55.9625 83.9784 56.373 84.1627 57.0134L86.4391 64.9234L92.1667 63.3401L89.4368 53.8541C88.927 52.0829 88.0886 50.797 86.9213 49.9962C85.7642 49.1927 84.4505 48.9941 82.9803 49.4005C82.4146 49.5569 81.8826 49.8308 81.3844 50.2221C81.0286 50.5017 80.69 50.8411 80.3687 51.2405L78.5674 44.9815ZM90.6122 62.4864L88.2245 54.1896C87.7685 52.605 87.062 51.6003 86.1993 51.0085L86.1963 51.0064L86.1933 51.0044C85.3731 50.4348 84.4586 50.2753 83.3221 50.5895C82.6631 50.7716 82.0034 51.2029 81.3575 52.0057L79.8274 53.9076L77.6972 46.5056L74.3944 47.4186L79.6062 65.5289L82.9091 64.6158L80.9101 57.6699C80.7483 57.1076 80.6569 56.4514 80.8669 55.8314C81.1103 55.1129 81.6775 54.667 82.3437 54.4828C82.9237 54.3225 83.7677 54.2656 84.4317 54.8745C84.7109 55.1246 84.8941 55.4392 85.0195 55.7029C85.1557 55.9893 85.2721 56.3204 85.375 56.6779L87.3093 63.3994L90.6122 62.4864Z" fill="#EFEFEF"/>
<path d="M271.467 60.8989H277.678V54.7164H271.467V60.8989ZM268.361 63.9901V60.8989H265.255V45.4426H268.361V42.3514H280.783V45.4426H283.889V48.5339H277.678V45.4426H271.467V51.6251H280.783V54.7164H283.889V60.8989H280.783V63.9901H268.361Z" fill="#EFEFEF"/>
<path d="M243.529 48.5339V45.4426H246.634V42.3514H259.056V45.4426H262.162V51.6251H259.056V54.7164H255.951V57.8076H252.845V60.8989H262.162V63.9901H243.529V60.8989H246.634V57.8076H249.74V54.7164H252.845V51.6251H255.951V45.4426H249.74V48.5339H243.529Z" fill="#EFEFEF"/>
<path d="M237.32 42.3519H240.426V45.4431H234.215V42.3519H231.109V39.2607H237.32V42.3519Z" fill="#EFEFEF"/>
<path d="M221.805 63.9901V54.7164H215.594V63.9901H209.383V42.3514H215.594V51.6251H221.805V42.3514H228.016V63.9901H221.805Z" fill="#EFEFEF"/>
<path d="M190.762 60.8989H187.656V45.4426H190.762V42.3514H203.184V45.4426H206.289V60.8989H203.184V63.9901H190.762V60.8989ZM200.078 60.8989V45.4426H193.867V60.8989H200.078Z" fill="#EFEFEF"/>
<path d="M165.929 48.5339V45.4426H169.035V42.3514H181.457V45.4426H184.563V51.6251H181.457V54.7164H178.352V57.8076H175.246V60.8989H184.563V63.9901H165.929V60.8989H169.035V57.8076H172.141V54.7164H175.246V51.6251H178.352V45.4426H172.141V48.5339H165.929Z" fill="#EFEFEF"/>
<path d="M150.414 63.9901V45.4426H144.202V42.3514H162.836V45.4426H156.625V63.9901H150.414Z" fill="#EFEFEF"/>
<path d="M128.681 42.3514V45.4426H131.787V51.6251H134.892V42.3514H141.103V63.9901H134.892V60.8989H131.787V57.8076H128.681V51.6251H125.575V63.9901H119.364V42.3514H128.681Z" fill="#EFEFEF"/>
<path d="M106.939 45.4426H103.833V42.3514H116.256V45.4426H113.15V60.8989H116.256V63.9901H103.833V60.8989H106.939V45.4426Z" fill="#EFEFEF"/>
<path d="M274.578 17.2841V29.6491H268.367V14.1929H283.894V17.2841H287V29.6491H280.789V17.2841H274.578Z" fill="#EFEFEF"/>
<path d="M249.746 26.5579H246.64V17.2841H249.746V14.1929H262.168V17.2841H265.273V26.5579H262.168V29.6491H249.746V26.5579ZM259.062 17.2841H252.851V26.5579H259.062V17.2841Z" fill="#EFEFEF"/>
<path d="M231.125 17.2836V29.6486H224.914V8.00989H231.125V14.1924H240.441V17.2836H243.547V29.6486H237.336V17.2836H231.125Z" fill="#EFEFEF"/>
<path d="M212.488 14.1924V8.00989H218.699V14.1924H221.805V17.2836H218.699V26.5573H221.805V29.6486H212.488V17.2836H209.383V14.1924H212.488Z" fill="#EFEFEF"/>
<path d="M193.867 26.5579H200.078V17.2841H193.867V26.5579ZM190.762 26.5579H187.656V17.2841H190.762V14.1929H206.289V29.6491H190.762V26.5579Z" fill="#EFEFEF"/>
<path d="M181.436 26.5573H184.541V29.6486H178.33V26.5573H175.225V29.6486H169.013V8.00989H175.225V17.2836H178.33V14.1924H184.541V17.2836H181.436V20.3749H178.33V23.4661H181.436V26.5573Z" fill="#EFEFEF"/>
<path d="M150.392 26.5579H147.287V17.2841H150.392V14.1929H162.815V17.2841H165.92V20.3754H159.709V17.2841H153.498V26.5579H159.709V23.4666H165.92V26.5579H162.815V29.6491H150.392V26.5579Z" fill="#EFEFEF"/>
<path d="M131.771 26.5579H137.982V17.2841H131.771V26.5579ZM128.665 26.5579H125.56V17.2841H128.665V14.1929H144.193V29.6491H128.665V26.5579Z" fill="#EFEFEF"/>
<path d="M116.256 29.6486V20.3749H110.044V29.6486H103.833V8.00989H110.044V17.2836H116.256V8.00989H122.467V29.6486H116.256Z" fill="#EFEFEF"/>
</svg>
