<svg width="1757" height="1853" viewBox="0 0 1757 1853" fill="none" xmlns="http://www.w3.org/2000/svg">
<path d="M1692.21 1782.24H64.2539V62.3125H1692.21V1782.24ZM71.1563 1774.95H1685.31V69.6049H71.1563V1774.95Z" fill="#00C0E8"/>
<g filter="url(#filter0_d_697_309)">
<path d="M103.89 27.7461H31.5459V104.178H103.89V27.7461Z" fill="#161419"/>
<path d="M107.339 107.824H28.0996V24.0996H107.339V107.824ZM34.9953 100.531H100.43V31.392H34.9953V100.531Z" fill="#00C0E8"/>
<path d="M914.41 27.7461H842.065V104.178H914.41V27.7461Z" fill="#161419"/>
<path d="M917.864 107.824H838.617V24.0996H917.864V107.824ZM845.52 100.531H910.961V31.392H845.52V100.531Z" fill="#00C0E8"/>
<path d="M914.416 1740.39H842.071V1816.82H914.416V1740.39Z" fill="#161419"/>
<path d="M917.866 1820.47H838.619V1736.74H917.866V1820.47ZM845.522 1813.18H910.963V1744.04H845.522V1813.18Z" fill="#00C0E8"/>
<path d="M1724.93 27.7461H1652.59V104.178H1724.93V27.7461Z" fill="#161419"/>
<path d="M1728.38 107.824H1649.14V24.0996H1728.38V107.824ZM1656.04 100.531H1721.48V31.392H1656.04V100.531Z" fill="#00C0E8"/>
<path d="M103.89 884.068H31.5459V960.5H103.89V884.068Z" fill="#161419"/>
<path d="M107.339 964.148H28.0996V880.424H107.339V964.148ZM34.9953 956.856H100.43V887.716H34.9953V956.856Z" fill="#00C0E8"/>
<path d="M1724.93 884.068H1652.59V960.5H1724.93V884.068Z" fill="#161419"/>
<path d="M1728.38 964.148H1649.14V880.424H1728.38V964.148ZM1656.04 956.856H1721.48V887.716H1656.04V956.856Z" fill="#00C0E8"/>
<path d="M103.89 1740.39H31.5459V1816.82H103.89V1740.39Z" fill="#161419"/>
<path d="M107.339 1820.47H28.0996V1736.74H107.339V1820.47ZM34.9953 1813.18H100.43V1744.04H34.9953V1813.18Z" fill="#00C0E8"/>
<path d="M1724.93 1740.39H1652.59V1816.82H1724.93V1740.39Z" fill="#161419"/>
<path d="M1728.38 1820.47H1649.14V1736.74H1728.38V1820.47ZM1656.04 1813.18H1721.48V1744.04H1656.04V1813.18Z" fill="#00C0E8"/>
</g>
<defs>
<filter id="filter0_d_697_309" x="-0.000391006" y="-0.000391006" width="1756.48" height="1852.57" filterUnits="userSpaceOnUse" color-interpolation-filters="sRGB">
<feFlood flood-opacity="0" result="BackgroundImageFix"/>
<feColorMatrix in="SourceAlpha" type="matrix" values="0 0 0 0 0 0 0 0 0 0 0 0 0 0 0 0 0 0 127 0" result="hardAlpha"/>
<feOffset dy="4"/>
<feGaussianBlur stdDeviation="14.05"/>
<feComposite in2="hardAlpha" operator="out"/>
<feColorMatrix type="matrix" values="0 0 0 0 0.211538 0 0 0 0 0.921154 0 0 0 0 1 0 0 0 1 0"/>
<feBlend mode="normal" in2="BackgroundImageFix" result="effect1_dropShadow_697_309"/>
<feBlend mode="normal" in="SourceGraphic" in2="effect1_dropShadow_697_309" result="shape"/>
</filter>
</defs>
</svg>
