<svg width="371" height="46" viewBox="0 0 371 46" fill="none" xmlns="http://www.w3.org/2000/svg">
<path d="M38.5497 3.16078e-06C39.3264 3.22868e-06 40.0254 0.249219 40.3361 0.623034L75.2087 42.3864L110.043 0.643812C110.664 -0.103817 112.955 -0.103817 113.576 0.643812L148.449 42.3864L183.283 0.643818C183.594 0.270004 184.293 0.0207878 185.069 0.0207879C185.846 0.0207879 186.545 0.270004 186.856 0.643818L221.689 42.3864L256.523 0.643824C257.144 -0.103804 259.436 -0.103804 260.057 0.643825L294.891 42.3864L329.725 0.643831C330.346 -0.103798 332.637 -0.103798 333.258 0.643831L369.879 44.5255C370.306 45.0447 369.879 45.6677 368.908 45.8961C367.937 46.1246 366.772 45.8961 366.345 45.377L331.511 3.63434L296.677 45.3769C296.056 46.1246 293.765 46.1246 293.143 45.3769L258.309 3.63433L223.476 45.3769C223.165 45.7508 222.466 46 221.689 46C220.913 46 220.214 45.7508 219.903 45.3769L185.069 3.63432L150.235 45.3769C149.614 46.1246 147.323 46.1246 146.702 45.3769L111.829 3.63432L76.995 45.3769C76.3737 46.1246 74.0826 46.1246 73.4613 45.3769L38.5886 3.61355L3.71595 45.3769C3.28878 45.8961 2.12375 46.1453 1.15291 45.8961C0.182071 45.6677 -0.283933 45.0446 0.182071 44.5254L36.8411 0.643805C37.1517 0.269991 37.8508 0.020775 38.6275 0.0207751L38.5497 3.16078e-06Z" fill="#EFEFEF"/>
</svg>
