<svg width="49" height="52" viewBox="0 0 49 52" fill="none" xmlns="http://www.w3.org/2000/svg">
<path d="M19.4644 5.20024H29.1947V10.3968H34.0611V5.19659H29.1959V0H19.4631V5.19659H14.598V10.3968H19.4644V5.20024Z" fill="#36EBFF"/>
<path d="M14.598 10.3993H9.73157V15.5995H14.598V10.3993Z" fill="#36EBFF"/>
<path d="M43.7939 15.5983H38.9287V10.3993H34.0623V15.5995H38.9275V20.7985H43.7939V15.5983Z" fill="#36EBFF"/>
<path d="M9.73157 15.5995L4.86518 15.5983V20.7985H9.73157V15.5995Z" fill="#36EBFF"/>
<path d="M9.73157 25.9976H4.86639V20.801H0V26.0012H4.86518V31.1978H9.73157V25.9976Z" fill="#36EBFF"/>
<path d="M43.7939 26.0012H48.6591V20.801H43.7927V25.9976H38.9275V31.1978H43.7939V26.0012Z" fill="#36EBFF"/>
<path d="M14.598 31.2002H9.73157V46.7961H14.598V31.2002Z" fill="#36EBFF"/>
<path d="M38.9287 46.7961V31.2002H34.0623V46.7961H38.9287Z" fill="#36EBFF"/>
<path d="M24.3295 46.7998H14.598V52H24.3295V46.7998Z" fill="#36EBFF"/>
<path d="M34.0611 46.7998H24.3295V52H34.0611V46.7998Z" fill="#36EBFF"/>
</svg>
