<svg width="127" height="64" viewBox="0 0 127 64" fill="none" xmlns="http://www.w3.org/2000/svg">
<g clip-path="url(#clip0_581_5089)">
<mask id="mask0_581_5089" style="mask-type:luminance" maskUnits="userSpaceOnUse" x="-11" y="-11" width="150" height="87">
<path d="M138.487 -10.8843H-10.9107V75.432H138.487V-10.8843Z" fill="white"/>
</mask>
<g mask="url(#mask0_581_5089)">
<path d="M74.5554 35.1893C74.5748 36.135 74.3608 37.071 73.9324 37.9152C73.5329 38.6849 72.959 39.3515 72.2561 39.8621C71.4564 40.4593 70.5505 40.9005 69.5863 41.1627C68.6369 41.4179 67.4105 41.5455 65.9072 41.5455H59.5734V20.8567H65.4292C66.6094 20.8387 67.7898 20.8874 68.9645 21.0025C69.752 21.1003 70.5167 21.3326 71.2249 21.6894C71.9471 22.0252 72.5513 22.5692 72.9594 23.251C73.3381 23.9467 73.5272 24.7291 73.5078 25.5203C73.5196 26.4548 73.2319 27.3688 72.6866 28.1294C72.1061 28.9235 71.3208 29.5465 70.4139 29.9324V30.0434C71.7301 30.3772 72.7497 30.9869 73.4725 31.8725C74.1954 32.7581 74.5564 33.8637 74.5554 35.1893ZM70.4496 25.9115C70.4606 25.4647 70.3695 25.0213 70.1833 24.6148C69.9981 24.2415 69.6974 23.9376 69.3254 23.7477C68.8333 23.4929 68.2955 23.3374 67.7428 23.2902C67.1604 23.2347 66.3567 23.2069 65.3317 23.2068H62.5217V29.2545H65.8496C66.5278 29.272 67.2061 29.2279 67.8763 29.123C68.3532 29.0179 68.8085 28.8325 69.2227 28.5747C69.6429 28.3329 69.9745 27.9635 70.169 27.5206C70.3704 27.0086 70.4658 26.4612 70.4496 25.9115ZM71.4979 35.2979C71.5207 34.6371 71.3994 33.9793 71.1423 33.3698C70.9054 32.864 70.4265 32.4347 69.7056 32.0819C69.2295 31.8465 68.7157 31.6958 68.1875 31.6367C67.4122 31.5613 66.6332 31.5287 65.8543 31.5391H62.5217V39.1966H64.9063C65.9211 39.2128 66.9358 39.157 67.9427 39.0297C68.6379 38.9348 69.3047 38.6927 69.8981 38.3196C70.3972 38.013 70.814 37.5901 71.1126 37.0875C71.3911 36.5328 71.5237 35.9168 71.4979 35.2972V35.2979Z" fill="white"/>
<path d="M77.4852 41.5448V20.8564H91.3097V23.2929H80.4335V28.9708H90.5672V31.4073H80.4335V39.1083H91.3097V41.5448H77.4852Z" fill="white"/>
<path d="M100.695 41.9147C99.3186 41.9413 97.9444 41.7851 96.609 41.4503C95.5243 41.1543 94.4653 40.7717 93.4423 40.3062V36.8677H93.6497C94.6188 37.7183 95.7341 38.3876 96.942 38.8433C98.0705 39.2912 99.2719 39.5285 100.487 39.5434C102.108 39.5434 103.334 39.2262 104.165 38.5917C104.561 38.3055 104.881 37.9277 105.098 37.4908C105.315 37.054 105.422 36.5711 105.41 36.0838C105.41 35.2601 105.193 34.5885 104.757 34.0692C104.322 33.5499 103.629 33.1654 102.679 32.9159C101.996 32.7309 101.373 32.5782 100.81 32.4576C100.246 32.3371 99.5385 32.1747 98.6869 31.9703C97.9816 31.805 97.2951 31.5678 96.6386 31.2624C96.0435 30.9815 95.5014 30.6009 95.0357 30.1372C94.5773 29.6792 94.2164 29.1337 93.9745 28.5335C93.7103 27.8541 93.5818 27.13 93.596 26.4016C93.596 24.7259 94.2941 23.321 95.6902 22.1872C97.0863 21.0533 98.8684 20.4861 101.037 20.4858C102.216 20.4801 103.394 20.5968 104.549 20.8339C105.605 21.0502 106.634 21.3814 107.617 21.8217V25.1195H107.394C106.583 24.4507 105.67 23.9156 104.69 23.5345C103.592 23.0833 102.416 22.853 101.228 22.857C99.8618 22.857 98.7575 23.1558 97.9156 23.7535C97.0737 24.3511 96.6528 25.1361 96.6531 26.1083C96.6531 26.9886 96.9005 27.688 97.3953 28.2065C97.8901 28.725 98.6074 29.1048 99.5474 29.3459C100.17 29.5037 100.932 29.682 101.833 29.8809C102.734 30.0797 103.481 30.2625 104.075 30.4293C105.598 30.8643 106.712 31.5217 107.414 32.4014C108.117 33.2811 108.468 34.3642 108.468 35.6506C108.464 36.475 108.285 37.2892 107.942 38.0394C107.605 38.8069 107.101 39.49 106.466 40.0393C105.752 40.6419 104.935 41.1121 104.055 41.4277C103.16 41.7522 102.04 41.9146 100.695 41.9147Z" fill="white"/>
<path d="M116.619 41.5448V23.2929H109.194V20.8564H126.993V23.2929H119.568V41.5448H116.619Z" fill="white"/>
<path d="M48.3163 41.6067L43.4504 38.8132H30.7429L25.8773 41.6067C30.5327 49.6627 44.4535 62.8591 59.5367 63.9997C54.2802 61.066 45.9161 50.5296 48.3163 41.6067Z" fill="white"/>
<path d="M51.7539 0.000347878C51.8308 5.99845 46.8555 18.4799 37.8949 20.8725L37.8984 26.4677L44.2529 37.4303L49.1139 40.2323C53.7918 32.1877 58.3034 13.5789 51.7544 0L51.7539 0.000347878Z" fill="white"/>
<path d="M-0.00012207 38.7155C5.17817 35.6458 18.5215 33.6985 25.0791 40.2316L29.9415 37.4296L29.8454 37.5958L36.2947 26.4691L36.2993 20.874C26.9669 20.8605 8.53415 26.2731 -0.00012207 38.7155Z" fill="white"/>
<path d="M34.1186 34.2382C34.1186 33.6513 34.2933 33.0775 34.6206 32.5895C34.948 32.1015 35.4133 31.7212 35.9577 31.4966C36.502 31.272 37.1011 31.2133 37.679 31.3278C38.2569 31.4424 38.7877 31.7251 39.2043 32.1402C39.6209 32.5552 39.9045 33.0841 40.0193 33.6597C40.1342 34.2354 40.0751 34.8321 39.8494 35.3743C39.6238 35.9165 39.2418 36.3798 38.7518 36.7057C38.2618 37.0317 37.6857 37.2055 37.0965 37.2053C36.7054 37.2053 36.3181 37.1285 35.9567 36.9794C35.5954 36.8303 35.2671 36.6117 34.9905 36.3362C34.714 36.0607 34.4947 35.7336 34.3451 35.3736C34.1955 35.0136 34.1185 34.6278 34.1186 34.2382Z" fill="white"/>
</g>
<path d="M117.081 49.2997H116.27L114.556 47.121L114.282 47.4288V49.2997H113.657V44.6182H114.282V46.7718L116.207 44.6182H116.968L115.023 46.7083L117.081 49.2997Z" fill="white"/>
<path d="M120.748 44.6182L119.16 47.2276V49.2997H118.535V47.2938L116.947 44.6182H117.642L118.854 46.6838L120.085 44.6182H120.748Z" fill="white"/>
<path d="M122.824 49.2997H120.999V48.8218H121.599V45.0961H120.999V44.6182H122.824V45.0961H122.224V48.8218H122.824V49.2997Z" fill="white"/>
<path d="M126.999 44.6182L125.383 49.2997H124.708L123.091 44.6182H123.761L125.061 48.5044L126.362 44.6182H126.999Z" fill="white"/>
</g>
<defs>
<clipPath id="clip0_581_5089">
<rect width="127" height="64" fill="white"/>
</clipPath>
</defs>
</svg>
