<svg width="188" height="64" viewBox="0 0 188 64" fill="none" xmlns="http://www.w3.org/2000/svg">
<path fill-rule="evenodd" clip-rule="evenodd" d="M21.1481 0L21.1575 28.5154L17.7569 31.9449H0V5.13573H8.30661C16.1931 5.13573 16.6151 5.13384 16.6472 5.10344C16.666 5.08443 17.6853 3.92923 18.9137 2.53461L21.1481 0ZM15.9444 13.0303C15.9256 13.5452 15.9106 14.1969 15.8973 14.8106L15.8729 15.924C15.449 16.0494 15.204 16.1273 15.0533 16.1786C14.831 16.2546 14.7764 16.2679 14.7613 16.247C14.7518 16.2318 14.3543 15.7359 13.8814 15.1431L13.0186 14.0658C12.6323 14.252 12.2423 14.4477 11.9051 14.6187L11.2909 14.9303C11.9126 16.8892 12.0973 17.4744 12.1048 17.4953C12.1124 17.5276 12.0747 17.558 11.8561 17.6948C11.713 17.7822 11.4812 17.9323 11.3418 18.0273C11.2023 18.1223 11.078 18.2059 11.0649 18.2135C11.0498 18.2211 10.7069 17.9361 10.1228 17.4288L9.20341 16.6289C9.12992 16.6992 8.77952 17.0146 8.37445 17.3737C7.97125 17.7328 7.64155 18.0349 7.64155 18.0463C7.64155 18.0558 7.95429 18.4719 8.33675 18.9678C8.71733 19.4637 9.03952 19.8817 9.05083 19.895C9.06779 19.914 9.02635 19.9653 8.87371 20.123C8.76443 20.2351 8.60432 20.4081 8.51387 20.5068C8.42533 20.6057 8.27835 20.7766 8.18603 20.8868C8.09563 20.997 8.01083 21.0882 7.99952 21.0921C7.98821 21.0939 7.48331 20.9097 6.87664 20.6797C6.26997 20.4498 5.77451 20.2636 5.77264 20.2655C5.77264 20.2674 5.54656 20.6094 5.2696 21.0255C4.99264 21.4397 4.76843 21.7874 4.77221 21.795C4.77408 21.8045 5.11888 22.1351 5.53899 22.5303C5.95915 22.9255 6.33973 23.2846 6.38683 23.3284L6.47157 23.41C6.40944 23.5089 6.29824 23.7254 6.18523 23.9554C6.07216 24.1852 5.92901 24.4854 5.86683 24.6222C5.78768 24.8028 5.74811 24.8711 5.72741 24.8654C5.71232 24.8617 5.20363 24.7762 4.59701 24.6773C3.99035 24.5786 3.49483 24.4988 3.49296 24.5026C3.49109 24.5045 3.34976 24.9509 3.17829 25.4943C3.00688 26.0378 2.8712 26.4881 2.87877 26.4957C2.88629 26.5014 3.34224 26.7522 3.89045 27.0543C4.44064 27.3545 4.8928 27.6015 4.89467 27.6015C4.89845 27.6034 4.87019 27.7706 4.8344 27.9739C4.79669 28.1772 4.7496 28.4603 4.72885 28.6009C4.70816 28.7415 4.68555 28.8631 4.67803 28.8688C4.67045 28.8745 4.23147 28.9505 3.70208 29.036C3.17456 29.1215 2.68848 29.1994 2.62443 29.2108L2.50571 29.2279V31.0519H6.13248C6.15509 30.3964 6.17013 30.062 6.18144 29.8834C6.19088 29.7067 6.21723 29.3856 6.23797 29.1709C6.25872 28.9562 6.29824 28.6313 6.32277 28.4489C6.34912 28.2665 6.39813 27.9587 6.43392 27.7649C6.46971 27.5711 6.53376 27.2595 6.57712 27.0714C6.62043 26.8833 6.69765 26.5793 6.74853 26.3969C6.79941 26.2145 6.88043 25.9446 6.92752 25.7983C6.97461 25.6521 7.05941 25.4126 7.11216 25.2663C7.16677 25.1201 7.25536 24.894 7.30997 24.7629C7.36464 24.6317 7.46821 24.398 7.54171 24.2404C7.6152 24.0845 7.74144 23.8281 7.82432 23.6703C7.9072 23.5146 8.04288 23.2694 8.12576 23.1289C8.21056 22.9883 8.35936 22.7489 8.45925 22.5969C8.56096 22.4449 8.73051 22.2017 8.83979 22.0554C8.9472 21.909 9.12053 21.6867 9.22416 21.5613C9.32779 21.4359 9.51051 21.2269 9.63109 21.0958C9.74976 20.9647 9.95701 20.7519 10.0908 20.6209C10.2245 20.4897 10.4356 20.294 10.5599 20.1838C10.6843 20.0737 10.8839 19.9064 11.0027 19.8114C11.1233 19.7145 11.3493 19.5435 11.5057 19.4314C11.6639 19.3174 11.9013 19.154 12.0332 19.0704C12.167 18.9849 12.3893 18.85 12.5287 18.7683C12.6682 18.6866 12.9319 18.5441 13.1127 18.4529C13.2937 18.3598 13.5706 18.2268 13.7251 18.1584C13.8814 18.0881 14.1263 17.9855 14.2714 17.9285C14.4165 17.8715 14.6708 17.7784 14.8366 17.7214C15.0025 17.6644 15.2662 17.5789 15.4207 17.5333C15.5771 17.4877 15.822 17.4193 15.967 17.3832C16.1121 17.3471 16.3533 17.292 16.504 17.2597C16.6547 17.2293 16.9053 17.1818 17.0598 17.1552C17.2162 17.1286 17.4743 17.0906 17.6344 17.0697C17.7946 17.0488 18.0715 17.0184 18.2467 17.0013C18.4238 16.9861 18.7969 16.9652 19.0757 16.9538C19.3564 16.9443 19.7389 16.9424 19.9292 16.95L20.2721 16.9633V15.1583C19.6371 15.1811 19.2886 15.1887 19.087 15.1906L18.7196 15.1963C17.8417 13.2754 17.5798 12.7187 17.5685 12.7187C17.559 12.7206 17.1879 12.7909 16.747 12.8764L15.9444 13.0303ZM18.5293 17.7803C18.3541 17.7955 18.0319 17.8354 17.8134 17.8677C17.5967 17.8981 17.2708 17.9532 17.0881 17.9893C16.9072 18.0254 16.6189 18.09 16.4475 18.1318C16.2779 18.1736 16.0236 18.242 15.8823 18.2838C15.7429 18.3237 15.4923 18.4035 15.3265 18.4605C15.1607 18.5175 14.9063 18.6106 14.7613 18.6695C14.6162 18.7265 14.3788 18.8253 14.2338 18.8899C14.0887 18.9545 13.8004 19.0951 13.5932 19.2034C13.3859 19.3098 13.0977 19.4694 12.9526 19.5568C12.8076 19.6423 12.5626 19.8 12.4062 19.9045C12.2518 20.0071 11.9974 20.1895 11.8411 20.3073C11.6866 20.4251 11.453 20.6113 11.3229 20.7196C11.1948 20.8298 10.9612 21.0388 10.8049 21.1851C10.6503 21.3314 10.4073 21.5785 10.266 21.7342C10.1247 21.89 9.93067 22.1105 9.83456 22.2263C9.74037 22.3403 9.57648 22.5513 9.47093 22.6918C9.36544 22.8324 9.19211 23.0813 9.08475 23.2428C8.97733 23.4044 8.82283 23.6476 8.74373 23.7844C8.66272 23.9193 8.52896 24.1587 8.44603 24.3164C8.36315 24.4722 8.23125 24.7381 8.15403 24.9053C8.0768 25.0725 7.95429 25.3595 7.88085 25.5419C7.80736 25.7243 7.69621 26.0283 7.63216 26.2164C7.56811 26.4045 7.47387 26.7028 7.42491 26.8814C7.37403 27.0581 7.30811 27.3108 7.27605 27.4419C7.24405 27.573 7.19317 27.8029 7.16304 27.9549C7.13099 28.1069 7.08389 28.3634 7.05749 28.5249C7.03115 28.6864 6.99344 28.96 6.97275 29.1329C6.952 29.3058 6.92187 29.5965 6.90491 29.7789C6.88987 29.9613 6.87099 30.3223 6.86347 30.5807L6.84837 31.0519H7.84693C7.82619 30.9265 7.82811 30.7498 7.83941 30.5769C7.8488 30.404 7.86955 30.1741 7.88459 30.0639C7.90155 29.9537 7.93547 29.7751 7.96373 29.6649C7.99013 29.5547 8.04475 29.3799 8.08619 29.2754C8.12763 29.1709 8.1936 29.0303 8.23504 28.9619C8.27461 28.8935 8.34805 28.789 8.39707 28.7301C8.44795 28.6712 8.51765 28.5971 8.55344 28.5667C8.59109 28.5363 8.66272 28.4831 8.71355 28.4508C8.76635 28.4166 8.87557 28.3672 8.95851 28.3387C9.09605 28.2931 9.13557 28.2893 9.3824 28.2893C9.61227 28.2912 9.68571 28.2988 9.83456 28.3387C9.9344 28.3653 10.3188 28.5078 10.6918 28.656C11.0649 28.8023 12.6851 29.4407 14.2903 30.0715L17.2105 31.2191L20.4642 27.9454C18.1563 22.2169 17.4686 20.4897 17.4479 20.4118C17.4271 20.3339 17.4046 20.2047 17.397 20.1268C17.3895 20.0299 17.397 19.9387 17.4158 19.8418C17.4328 19.7639 17.4667 19.6556 17.4931 19.6043C17.5176 19.5511 17.5741 19.4618 17.6194 19.4067C17.6645 19.3497 17.7606 19.2566 17.8322 19.1996C17.9057 19.1426 18.0489 19.0552 18.1525 19.0039C18.2562 18.9526 18.4182 18.8861 18.5105 18.8557C18.6047 18.8253 18.778 18.7778 18.8967 18.7512C19.0173 18.7246 19.2076 18.6904 19.3206 18.6733C19.4355 18.6581 19.639 18.6353 19.7728 18.6258C19.9084 18.6144 20.0761 18.6068 20.1458 18.6068H20.2721V17.7138C19.6522 17.7176 19.3319 17.7252 19.1605 17.7347C18.9909 17.7423 18.7064 17.7632 18.5293 17.7803ZM22.3256 0.0589003C22.352 0.0893008 23.3694 1.24451 26.8002 5.13573H43.4266L43.4175 31.9354L25.6509 31.9449L22.2502 28.5154L22.2484 14.2729C22.2465 5.66016 22.2522 0.0247002 22.2615 0.0171001C22.271 0.00760005 22.3011 0.0266002 22.3256 0.0589003ZM29.0874 15.0006C29.0083 15.1279 28.8782 15.3502 28.7972 15.4908C28.7162 15.6314 28.5523 15.943 28.4299 16.1843C28.3093 16.4237 28.1699 16.7144 28.1209 16.8303C28.07 16.9443 27.9834 17.1628 27.9268 17.3148C27.8703 17.4668 27.8006 17.6834 27.7705 17.7993C27.7422 17.9133 27.7083 18.0843 27.697 18.1793C27.6838 18.2724 27.6819 18.3845 27.6894 18.4263C27.697 18.47 27.7271 18.5289 27.761 18.565C27.7931 18.6011 27.8646 18.6581 27.9212 18.6923C27.9796 18.7265 28.0813 18.7778 28.1473 18.8063C28.2151 18.8348 28.2923 18.8652 28.3168 18.8747L28.3639 18.8918C28.2867 18.9716 28.2207 19.0647 28.1661 19.1483C28.1133 19.2319 28.0191 19.4029 27.9607 19.5283C27.9004 19.6537 27.8119 19.8589 27.7667 19.9843C27.7196 20.1097 27.648 20.3321 27.6066 20.4783C27.5632 20.6246 27.4991 20.8811 27.4634 21.0483C27.4276 21.2155 27.3786 21.4587 27.3579 21.5898C27.3371 21.721 27.2975 21.9946 27.2731 22.1978C27.2467 22.4011 27.2052 22.6443 27.1789 22.7394C27.1543 22.8324 27.0884 23.0377 27.0357 23.1954C26.9811 23.3511 26.8831 23.6076 26.8153 23.7653C26.7474 23.9212 26.6118 24.2118 26.5138 24.4114C26.4158 24.609 26.2708 24.8883 26.1935 25.0289C26.1144 25.1694 25.9655 25.426 25.8619 25.5989C25.7583 25.7718 25.5681 26.0739 25.4399 26.2734C25.3099 26.471 25.0801 26.8092 24.9293 27.0239C24.7767 27.2386 24.5657 27.5255 24.4602 27.6642C24.3547 27.8029 24.2662 27.9226 24.2662 27.9302C24.2662 27.9378 24.7146 28.3976 25.2609 28.9486L26.2538 29.9537L27.9834 27.6794L29.6243 25.0573C30.9525 22.481 31.3746 21.6772 31.4198 21.6089C31.465 21.5404 31.5668 21.4113 31.6478 21.3201C31.7288 21.2307 31.8531 21.1015 31.9247 21.035C31.9982 20.9685 32.1206 20.8659 32.1979 20.807C32.277 20.7481 32.3957 20.6702 32.4617 20.6322C32.5295 20.5961 32.635 20.5524 32.6972 20.5334L32.8102 20.5011C32.9854 20.693 33.0928 20.8412 33.1587 20.9553C33.2266 21.0692 33.3415 21.2991 33.415 21.4663C33.4903 21.6335 33.5996 21.9034 33.658 22.0649C33.7183 22.2263 33.8125 22.4999 33.869 22.6729C33.9255 22.8458 34.0292 23.1954 34.1007 23.4518C34.1742 23.7084 34.2515 23.9933 34.2759 24.0884L34.3212 24.2594C36.2617 26.3702 36.8364 26.9839 36.8514 26.9839C36.8684 26.9859 36.9494 26.9365 37.0342 26.8775C37.1189 26.8167 37.2753 26.6895 37.3789 26.5964C37.4845 26.5014 37.6578 26.3285 37.7633 26.2087C37.8688 26.091 38.0327 25.8934 38.1288 25.7718C38.2268 25.6502 38.3963 25.4183 38.5075 25.2569C38.6205 25.0954 38.7882 24.8389 38.8824 24.6869C38.9747 24.5349 39.1217 24.2878 39.2065 24.1358C39.2931 23.9838 39.4589 23.6723 39.5757 23.4423C39.6925 23.2124 39.8659 22.8533 39.962 22.6443C40.0562 22.4354 40.1994 22.1105 40.2766 21.9223C40.3538 21.7342 40.4687 21.4474 40.5309 21.2858C40.5912 21.1243 40.7023 20.8241 40.774 20.6209C40.8474 20.4175 40.9586 20.0755 41.0245 19.8608C41.0905 19.6461 41.1828 19.3174 41.2299 19.1293C41.277 18.9412 41.3373 18.6752 41.3618 18.5403C41.3882 18.4035 41.4239 18.1869 41.4428 18.0558C41.4654 17.8924 41.4748 17.6948 41.4748 17.4288C41.4748 17.102 41.4692 17.0108 41.4353 16.8683C41.4145 16.7733 41.375 16.646 41.3467 16.5833C41.2977 16.4712 41.2977 16.4693 41.2374 16.4826C41.2035 16.4921 40.9096 16.5358 40.5818 16.5814C40.2558 16.6289 39.734 16.6973 39.4231 16.7334C39.1123 16.7695 38.6771 16.817 38.4529 16.8379C38.2305 16.8588 37.8707 16.8892 37.6522 16.9044C37.4355 16.9215 37.0154 16.9424 36.7195 16.9557C36.42 16.9671 35.9772 16.9728 35.7172 16.9652C35.461 16.9595 35.1464 16.9443 35.0202 16.9348C34.8939 16.9234 34.6867 16.9025 34.5623 16.8854C34.438 16.8702 34.2402 16.8341 34.1196 16.8075C34.0009 16.7809 33.8351 16.7353 33.7522 16.7049C33.6693 16.6745 33.5902 16.6403 33.5732 16.6308C33.5506 16.6156 33.5657 16.5605 33.6731 16.2565C33.7428 16.0589 33.7974 15.8974 33.7955 15.8955C33.7918 15.8936 33.1286 15.6143 32.3204 15.2742C31.5121 14.9322 30.8508 14.6567 30.8508 14.6586C30.849 14.6624 30.7905 14.765 30.7189 14.8866C30.5983 15.0899 30.5852 15.107 30.5494 15.088C30.5286 15.0766 30.3685 14.9873 30.1914 14.8923C30.0162 14.7954 29.7845 14.6719 29.679 14.6187C29.5734 14.5655 29.4679 14.5218 29.4472 14.5218C29.4227 14.5218 29.3794 14.5636 29.321 14.6434C29.272 14.7118 29.1665 14.8714 29.0874 15.0006ZM0 33.0469H17.7757L21.1575 36.4574V50.2268C21.1575 57.8 21.1538 63.9979 21.1481 63.9979C21.1443 63.9979 21.1161 63.9808 21.0878 63.9621C21.0596 63.9429 20.8919 63.848 20.7148 63.7509C20.5396 63.6544 20.2174 63.4832 19.9989 63.3691C19.7822 63.2571 19.4431 63.088 19.2452 62.9947C19.0493 62.9019 18.7403 62.7573 18.5576 62.6773C18.3767 62.5957 17.9905 62.4341 17.7004 62.3168C17.4102 62.1989 17.0089 62.0432 16.8054 61.9691C16.6038 61.8965 16.2515 61.7749 16.0236 61.6992C15.7956 61.6229 15.3943 61.4997 15.1286 61.4235C14.8649 61.3456 14.4165 61.2224 14.1301 61.1483C13.8457 61.0741 13.3332 60.9445 12.9903 60.8613C12.6493 60.7776 12.0935 60.6448 11.7563 60.5669C11.4209 60.4869 10.8444 60.3557 10.4751 60.2741C10.1077 60.1925 9.53499 60.0688 9.20341 59.9984C8.87184 59.9285 8.3424 59.816 8.02592 59.7477C7.71125 59.6811 7.29867 59.5861 7.11216 59.5387C6.92565 59.4912 6.64683 59.4117 6.49045 59.36C6.33595 59.3088 6.06085 59.208 5.87813 59.136C5.69728 59.064 5.4184 58.9477 5.25637 58.8773C5.09627 58.8075 4.84565 58.6912 4.70059 58.6229C4.55552 58.5525 4.3144 58.4256 4.16368 58.3419C4.01483 58.256 3.80571 58.1344 3.70208 58.0683C3.59845 58.0037 3.42512 57.8859 3.31584 57.808C3.20848 57.728 3.04267 57.6027 2.94848 57.5285C2.85616 57.4528 2.67339 57.2928 2.54341 57.1733C2.41531 57.0533 2.21749 56.8539 2.10443 56.7285C1.99328 56.6053 1.82373 56.4016 1.72763 56.2784C1.63344 56.1547 1.50907 55.9877 1.45445 55.9077C1.39979 55.8261 1.28485 55.6459 1.20197 55.5051C1.11909 55.3643 0.97968 55.1024 0.893014 54.9253C0.806347 54.7472 0.685759 54.4736 0.623573 54.3173C0.563306 54.16 0.472853 53.9088 0.423893 53.7568C0.3768 53.6048 0.299519 53.3276 0.254293 53.1395C0.207199 52.9514 0.145067 52.6436 0.11488 52.4555C0.0828804 52.2674 0.0451731 51.9977 0.0301331 51.857C0.00373306 51.6309 0 50.508 0 42.3228V33.0469ZM17.1691 35.1939C17.1483 35.2414 17.0636 35.439 16.9788 35.6309L16.8243 35.9824C16.1894 36.066 15.9746 36.0983 15.935 36.1078C15.8955 36.1173 15.8371 36.1496 15.805 36.1781C15.773 36.2066 15.7353 36.2522 15.7221 36.2769C15.709 36.3035 15.675 36.4859 15.6486 36.6817C15.6223 36.8773 15.5884 37.0617 15.5752 37.0901C15.5601 37.1186 15.5187 37.1699 15.481 37.2042C15.4433 37.2383 15.3849 37.2706 15.351 37.2763C15.3171 37.2802 15.1456 37.3049 14.9685 37.3295C14.7368 37.3599 14.6313 37.3827 14.5823 37.4113C14.5465 37.434 14.4994 37.4873 14.4749 37.5347C14.4429 37.5974 14.4165 37.7305 14.3637 38.101C14.3242 38.3859 14.2809 38.6291 14.2582 38.6899C14.2375 38.7489 14.1998 38.8249 14.1772 38.861C14.1546 38.8989 14.1075 38.9559 14.0717 38.9883C14.0378 39.0225 13.9662 39.0681 13.9135 39.0908C13.8475 39.1194 13.7835 39.1326 13.6968 39.1307C13.6121 39.1307 13.5216 39.1117 13.3954 39.0699C13.2974 39.0357 13.0977 38.9579 12.9526 38.8951C12.8076 38.8343 12.3931 38.6348 12.0294 38.4543C11.6677 38.2739 11.193 38.0306 10.9744 37.9129C10.7578 37.797 10.5335 37.6867 10.4751 37.6715C10.4073 37.6506 10.3357 37.643 10.2585 37.6506C10.1963 37.6563 10.1115 37.6754 10.0701 37.6924C10.0286 37.7095 9.96645 37.7418 9.93253 37.7646C9.89861 37.7874 9.74603 37.9603 9.59531 38.1484C9.44267 38.3365 9.21285 38.6196 9.08283 38.7755C8.95472 38.9331 8.74181 39.1859 8.61184 39.3359C8.48181 39.4879 8.24069 39.7653 8.07488 39.9534C7.90912 40.1415 7.60203 40.4797 7.39477 40.7039C7.18752 40.9282 6.7768 41.3595 6.48101 41.6615C6.18709 41.9637 5.74059 42.4045 5.49189 42.642C5.2432 42.8795 4.93424 43.1721 4.80421 43.2899C4.67424 43.4096 4.43307 43.6281 4.26731 43.7744C4.10149 43.9207 3.79627 44.1867 3.58901 44.3634C3.38181 44.5401 2.98048 44.8745 2.69413 45.1044C2.40965 45.3324 2.08181 45.5946 1.96501 45.682C1.85008 45.7713 1.75963 45.8492 1.7672 45.8549C1.77472 45.8606 1.96315 45.891 2.18544 45.9195C2.50384 45.9613 2.63008 45.9708 2.76949 45.9613C2.86933 45.9537 3.02192 45.9366 3.10859 45.9214C3.19717 45.9062 3.34411 45.872 3.43456 45.8454C3.52496 45.8188 3.70395 45.7504 3.83019 45.6953C3.95643 45.6402 4.1712 45.5319 4.30496 45.4559C4.44064 45.3799 4.65728 45.2469 4.78539 45.1614C4.91541 45.074 5.13957 44.9068 5.28464 44.789C5.42971 44.6693 5.89317 44.2855 6.31147 43.934C6.73157 43.5825 7.24405 43.155 7.45125 42.984C7.65851 42.813 8.04096 42.5014 8.29909 42.2943C8.55909 42.0853 8.95659 41.7737 9.18459 41.6007C9.41254 41.4278 9.7272 41.2018 9.88165 41.0973C10.038 40.9927 10.2321 40.8749 10.315 40.8332C10.3979 40.7933 10.4996 40.7553 10.5411 40.7495C10.5995 40.7401 10.6239 40.7458 10.6447 40.7724C10.6635 40.7933 10.673 40.8427 10.673 40.9015C10.6711 40.9643 10.6485 41.0535 10.6089 41.1505C10.575 41.2341 10.4978 41.3937 10.4337 41.502C10.3715 41.6122 10.2265 41.8439 10.1115 42.015C9.99659 42.1878 9.76107 42.5166 9.58965 42.7465C9.41819 42.9764 9.12619 43.3621 8.93776 43.6015C8.75125 43.8428 8.41589 44.2665 8.1936 44.542C7.97317 44.8194 7.48517 45.4274 7.11216 45.891C6.73723 46.3565 6.26811 46.9474 6.06843 47.202C5.86869 47.4585 5.55408 47.8689 5.37131 48.114C5.18859 48.361 4.94555 48.703 4.83061 48.874C4.71568 49.0469 4.57248 49.273 4.51408 49.3775C4.45381 49.482 4.37845 49.6321 4.34832 49.71C4.31627 49.7898 4.28613 49.8962 4.28235 49.9475C4.27483 50.0273 4.28048 50.0501 4.3144 50.0805C4.35205 50.1166 4.36149 50.1166 4.43307 50.0938C4.47829 50.0805 4.56875 50.0368 4.63467 50.0007C4.70251 49.9627 4.83813 49.8753 4.93611 49.8088C5.03595 49.7404 5.21685 49.6074 5.34117 49.5143C5.46555 49.4193 5.71232 49.2255 5.88752 49.0849C6.06464 48.9424 6.48853 48.5909 6.82955 48.304C7.17243 48.0171 7.90533 47.3939 8.45925 46.9189C9.01504 46.4439 9.71397 45.8492 10.0135 45.5965C10.315 45.3438 10.7558 44.9809 10.9932 44.7871C11.2325 44.5952 11.5848 44.3178 11.7751 44.1734C11.9673 44.0271 12.2423 43.8295 12.3874 43.7326C12.5325 43.6357 12.7284 43.5179 12.8207 43.4703C12.9168 43.4229 13.0337 43.3773 13.0883 43.3697C13.1731 43.3564 13.1919 43.3602 13.2258 43.3925C13.2484 43.4153 13.2654 43.4551 13.2654 43.4875C13.2654 43.5198 13.2503 43.592 13.2352 43.649C13.2183 43.7079 13.1598 43.8447 13.1052 43.953C13.0506 44.0632 12.9507 44.2475 12.8829 44.3615C12.8151 44.4774 12.6305 44.7586 12.4722 44.9885C12.3158 45.2184 12.1086 45.5091 12.0144 45.6345C11.9202 45.7599 11.5302 46.2691 11.1459 46.765C10.7634 47.2628 10.2717 47.9069 10.055 48.1995C9.83835 48.4921 9.57835 48.8569 9.47659 49.007C9.37675 49.159 9.22789 49.3946 9.14688 49.5295C9.06587 49.6663 8.93968 49.8962 8.86432 50.0425C8.79083 50.1888 8.69472 50.3997 8.65328 50.508C8.60997 50.6182 8.55344 50.7854 8.52517 50.8785C8.49877 50.9735 8.45547 51.1483 8.43099 51.268C8.40459 51.3896 8.37445 51.6062 8.36315 51.7525C8.34619 51.9558 8.34619 52.085 8.36315 52.2997C8.37445 52.4537 8.39141 52.598 8.4008 52.6227C8.41403 52.6607 8.56283 52.4897 9.69893 51.1445C10.7276 49.9247 11.159 49.4307 11.8825 48.6441L12.783 47.6637C15.0231 45.5813 15.2492 45.3818 15.741 44.9904C16.0518 44.7434 16.3401 44.5078 16.3815 44.4679C16.423 44.428 16.4814 44.3539 16.5078 44.3026C16.5361 44.2513 16.5662 44.1639 16.5756 44.105C16.585 44.048 16.5869 43.9492 16.5775 43.8865C16.5699 43.82 16.5379 43.725 16.504 43.6585C16.4701 43.5958 16.3476 43.3659 16.2327 43.1455C16.1159 42.927 15.9106 42.5242 15.7749 42.2525C15.6393 41.9807 15.464 41.6102 15.383 41.426C15.3039 41.2436 15.2078 41.0042 15.1701 40.894C15.1155 40.7306 15.1023 40.6678 15.1023 40.5425C15.1023 40.4209 15.1117 40.3696 15.1494 40.2878C15.1777 40.2233 15.2304 40.153 15.2888 40.1017C15.3415 40.0561 15.4301 40.001 15.4866 39.9781C15.5507 39.9554 15.7994 39.9098 16.1178 39.866C16.553 39.8052 16.6566 39.7844 16.7093 39.7483C16.7452 39.7254 16.7885 39.6818 16.8073 39.6494C16.8318 39.6115 16.8582 39.4804 16.8902 39.241C16.9166 39.0491 16.9543 38.8571 16.9713 38.8154C16.9901 38.7755 17.0277 38.7222 17.056 38.6975C17.0843 38.6729 17.1389 38.6443 17.1785 38.6348C17.218 38.6253 17.3895 38.5987 17.559 38.576C17.7531 38.5493 17.8982 38.5209 17.9415 38.498C17.9849 38.4753 18.0301 38.4315 18.0564 38.3821C18.0941 38.3156 18.113 38.2169 18.1619 37.8539C18.1958 37.6089 18.2279 37.4018 18.2354 37.3961C18.2411 37.3903 18.4314 37.2992 18.6574 37.1965C18.8835 37.0939 19.0682 37.0046 19.0682 36.9989C19.0682 36.9951 18.648 36.5676 18.1356 36.0489L17.2049 35.1084L17.1691 35.1939ZM25.6528 33.0469H43.4287V42.3151C43.4287 48.7866 43.4228 51.6309 43.4079 51.743C43.3967 51.8323 43.3722 52.0299 43.3514 52.1801C43.3306 52.3321 43.2852 52.6018 43.2495 52.7785C43.2138 52.9571 43.1498 53.2269 43.1082 53.3771C43.0687 53.5291 42.9915 53.7819 42.9387 53.9376C42.886 54.0955 42.7899 54.3477 42.7258 54.4981C42.6636 54.6501 42.5487 54.8992 42.4715 55.0491C42.3942 55.2011 42.2717 55.4235 42.2002 55.5429C42.1267 55.6645 42.0061 55.8528 41.9289 55.9611C41.8535 56.0715 41.7197 56.2517 41.6331 56.36C41.5445 56.4704 41.3863 56.6544 41.2807 56.7685C41.1734 56.8843 40.9963 57.0629 40.887 57.1659C40.7777 57.2683 40.5762 57.4432 40.4423 57.5515C40.3067 57.6613 40.0655 57.8384 39.9054 57.9467C39.7453 58.0528 39.5192 58.1952 39.4062 58.2619C39.2913 58.3264 39.0426 58.4597 38.8504 58.5563C38.6582 58.6533 38.3191 58.8112 38.0967 58.9077C37.8745 59.0032 37.5598 59.1339 37.3997 59.1947C37.2395 59.2576 36.989 59.3451 36.8439 59.3904C36.6988 59.4363 36.4068 59.5157 36.1939 59.5691C35.981 59.6203 35.6626 59.6944 35.4874 59.7307C35.3103 59.7685 34.8186 59.8731 34.3947 59.9627C33.9689 60.0517 33.2963 60.1979 32.8969 60.2853C32.4974 60.3749 31.8626 60.5211 31.4838 60.6085C31.1052 60.6976 30.4571 60.8555 30.0426 60.9579C29.6281 61.0624 29.11 61.1957 28.8933 61.2544C28.6748 61.3136 28.3413 61.4085 28.1491 61.4656C27.957 61.5205 27.5802 61.64 27.3107 61.7312C27.0413 61.8208 26.608 61.9728 26.3499 62.0715C26.0899 62.1685 25.7055 62.3205 25.4926 62.408C25.2798 62.4971 24.9199 62.6528 24.6919 62.7557C24.464 62.8581 23.993 63.0859 23.6463 63.2608C23.2997 63.4357 22.8456 63.6731 22.6383 63.7893C22.4311 63.9051 22.2597 64 22.2559 64C22.254 63.9979 22.2502 57.8059 22.2427 36.4764L25.6528 33.0469ZM27.9984 34.8899L26.2557 35.1236L24.1946 37.1985C24.1757 37.3751 24.155 37.5461 24.1343 37.6924C24.1135 37.8387 24.0514 38.2548 23.9949 38.6139C23.9383 38.9749 23.8668 39.4575 23.8347 39.6875C23.8046 39.9173 23.7594 40.2726 23.7387 40.4759C23.7123 40.7211 23.6953 41.0403 23.6897 41.4165C23.6821 41.7889 23.6859 42.0758 23.701 42.243C23.7141 42.3854 23.7387 42.5907 23.7594 42.699C23.7782 42.8092 23.8102 42.9669 23.8309 43.0505C23.8535 43.1341 23.8969 43.2804 23.9308 43.3735C23.9628 43.4685 24.0269 43.6224 24.074 43.7155C24.1211 43.8105 24.2115 43.9644 24.2756 44.0575C24.3378 44.1525 24.4621 44.3026 24.5507 44.39C24.6392 44.4793 24.7861 44.6047 24.8804 44.6693C24.9727 44.732 25.1253 44.8232 25.2195 44.8707C25.3118 44.9182 25.4644 44.9828 25.5586 45.017C25.6509 45.0493 25.8092 45.0968 25.9071 45.1215C26.0051 45.1462 26.2086 45.1861 26.3593 45.2108C26.5948 45.2469 26.7098 45.2526 27.1883 45.2526C27.599 45.2545 27.827 45.245 28.0644 45.2203C28.2396 45.2013 28.5165 45.1652 28.6766 45.1386C28.8368 45.1139 28.9762 45.093 28.9875 45.093C28.9988 45.093 29.0026 45.1728 28.9988 45.3077C28.9932 45.4597 29.0007 45.5623 29.0233 45.663C29.0403 45.7428 29.078 45.8568 29.1081 45.9195C29.1364 45.9822 29.1985 46.0848 29.2437 46.1456C29.289 46.2064 29.3813 46.2995 29.4491 46.3508C29.5169 46.4021 29.6225 46.4705 29.6846 46.499C29.7468 46.5294 29.8561 46.5674 29.9295 46.5845C30.0275 46.6092 30.1217 46.6149 30.295 46.6111L30.5286 46.6035C31.0468 47.1488 31.2879 47.4091 31.3991 47.5345C31.5121 47.6599 31.7099 47.8917 31.8399 48.0475C31.9681 48.2052 32.1564 48.4446 32.2582 48.5795C32.358 48.7163 32.505 48.9291 32.586 49.0545C32.6651 49.1799 32.7763 49.3775 32.8309 49.4915C32.8875 49.6074 32.9515 49.7575 32.9741 49.824C32.9986 49.8962 33.0193 50.0159 33.0231 50.109C33.0287 50.2002 33.0231 50.3047 33.0118 50.3465C33.0005 50.3883 32.9496 50.4738 32.9006 50.5365C32.8441 50.6087 32.7782 50.6657 32.7179 50.698C32.6425 50.736 32.5973 50.7456 32.4918 50.7456C32.4089 50.7436 32.3071 50.7284 32.2186 50.6999C32.1414 50.6771 32.0057 50.6201 31.9172 50.5745C31.8286 50.5308 31.6798 50.4434 31.5875 50.3807C31.4933 50.318 31.3406 50.2078 31.2484 50.1337C31.1541 50.0615 30.9808 49.9171 30.8621 49.8126C30.7434 49.71 30.4665 49.4459 30.2479 49.2255C30.0294 49.007 29.7845 48.7562 29.7015 48.6669C29.6205 48.5795 29.5245 48.4959 29.4906 48.4826C29.4566 48.4674 29.3775 48.456 29.3116 48.456C29.2211 48.456 29.1684 48.4693 29.0761 48.513C29.012 48.5453 28.9178 48.6118 28.8689 48.6612C28.818 48.7106 28.7539 48.8018 28.7219 48.8645C28.6766 48.9614 28.6673 49.0013 28.6673 49.121C28.6673 49.2255 28.6766 49.2825 28.703 49.33C28.7238 49.368 28.9386 49.5979 29.1835 49.843C29.4284 50.09 29.7524 50.4016 29.9013 50.5384C30.052 50.6733 30.2498 50.85 30.344 50.9279C30.4363 51.0077 30.5852 51.1274 30.6737 51.1958C30.7623 51.2642 30.9224 51.3801 31.0317 51.4542C31.141 51.5264 31.3049 51.6309 31.3991 51.6822C31.4914 51.7354 31.6534 51.8133 31.757 51.8551C31.8606 51.8969 32.0208 51.9501 32.115 51.9748C32.2469 52.0071 32.3373 52.0166 32.5201 52.0147C32.6934 52.0147 32.7932 52.0033 32.8969 51.9767C32.9741 51.9558 33.1022 51.9083 33.1795 51.8703C33.2567 51.8342 33.3924 51.7525 33.4809 51.6898C33.5694 51.6252 33.7089 51.5074 33.7899 51.4257C33.8728 51.344 33.9877 51.2053 34.0461 51.116C34.1026 51.0286 34.1742 50.8918 34.2025 50.812C34.2308 50.7341 34.2666 50.6106 34.2816 50.5365C34.2967 50.4643 34.3099 50.3009 34.3099 50.1755C34.3099 50.0501 34.2967 49.8715 34.2816 49.7765C34.2646 49.6834 34.2308 49.5295 34.2044 49.4345C34.178 49.3414 34.1177 49.1704 34.0706 49.0545C34.0235 48.9405 33.9406 48.7562 33.8841 48.646C33.8294 48.5377 33.7258 48.3515 33.6561 48.2337C33.5845 48.1159 33.4564 47.9145 33.3679 47.7872C33.2793 47.6599 33.1286 47.4528 33.0306 47.3274C32.9326 47.2001 32.7763 47.0082 32.6839 46.898C32.5917 46.7897 32.3825 46.556 32.2205 46.3793C32.0585 46.2026 31.823 45.9613 31.6949 45.8416L31.465 45.625C31.4933 45.5148 31.5027 45.4065 31.5027 45.3115C31.5027 45.2184 31.4895 45.0892 31.4745 45.0265C31.4594 44.9638 31.4141 44.8498 31.3746 44.77C31.3256 44.6693 31.2653 44.5876 31.1636 44.485C31.0863 44.4071 30.9751 44.3159 30.9187 44.2817C30.8621 44.2475 30.751 44.1962 30.6737 44.1696C30.5456 44.1221 30.506 44.1183 30.263 44.1164C30.1161 44.1164 29.9955 44.1107 29.9955 44.105C29.9955 44.1012 30.246 43.8447 30.5513 43.535L31.107 42.9745L36.5613 48.475C36.8043 49.2635 36.8891 49.5257 36.9079 49.5675C36.9306 49.6207 36.9607 49.6549 37.0097 49.6777C37.0474 49.6948 37.0964 49.71 37.1171 49.71C37.1378 49.71 37.1774 49.7024 37.2056 49.691C37.2339 49.6796 37.8254 49.1001 38.5169 48.4028C39.2083 47.7055 39.7886 47.1127 39.8037 47.0842C39.8169 47.0557 39.8301 47.0044 39.8301 46.9702C39.8301 46.936 39.815 46.8828 39.7962 46.8505C39.7773 46.8201 39.7321 46.7802 39.6963 46.7631C39.6605 46.746 39.4005 46.6605 39.1198 46.5731L38.6054 46.4135L33.1512 40.9149C33.8389 40.2138 34.0688 39.9649 34.1064 39.906C34.1441 39.849 34.2044 39.7388 34.2421 39.6589C34.2797 39.5811 34.325 39.4481 34.3457 39.3644C34.3664 39.2809 34.3928 39.1194 34.4022 39.0035C34.4135 38.8894 34.4229 38.6881 34.4229 38.557C34.4229 38.4277 34.4098 38.2092 34.3947 38.0724C34.3777 37.9375 34.3419 37.7228 34.3118 37.5974C34.2816 37.4721 34.2251 37.2839 34.1874 37.1794C34.1498 37.0749 34.0668 36.8925 34.0047 36.7709C33.9425 36.6513 33.8445 36.4841 33.7861 36.4004C33.7296 36.3169 33.626 36.1801 33.5563 36.0964C33.4866 36.0128 33.3698 35.8893 33.3001 35.8209C33.2285 35.7525 33.089 35.6347 32.9911 35.5587C32.8931 35.4808 32.7405 35.3744 32.6519 35.3193C32.5634 35.2642 32.4033 35.173 32.294 35.1179C32.1847 35.0628 32.0114 34.9849 31.9077 34.945C31.8041 34.9051 31.6478 34.85 31.5592 34.8234C31.4707 34.7987 31.3275 34.7607 31.2389 34.7398C31.1504 34.7189 30.9902 34.6885 30.881 34.6714C30.7698 34.6543 30.5211 34.6391 30.3157 34.6353C30.1142 34.6315 29.9013 34.6334 29.8447 34.641C29.7882 34.6486 28.9574 34.7607 27.9984 34.8899ZM15.2153 20.7462C15.3359 20.75 15.4847 20.7709 15.5733 20.7918C15.6562 20.8146 15.7787 20.8583 15.8465 20.8887C15.9143 20.921 16.0198 20.9837 16.082 21.0293C16.1442 21.0749 16.2346 21.1529 16.2817 21.2041C16.3307 21.2554 16.4004 21.339 16.4399 21.3903C16.4776 21.4435 16.5417 21.5499 16.5812 21.6278C16.6189 21.7076 17.2086 23.1707 19.1247 27.9929L18.2147 28.9258C17.7154 29.4369 17.2972 29.853 17.2877 29.8492C17.2764 29.8454 15.8314 29.2887 14.0755 28.6104C12.3196 27.934 10.8388 27.3621 10.7879 27.3393C10.7351 27.3165 10.6334 27.2595 10.5618 27.2119C10.4883 27.1645 10.379 27.079 10.3188 27.0239C10.2585 26.9669 10.1661 26.8567 10.1172 26.7769C10.0644 26.6951 9.99845 26.5583 9.96459 26.4539C9.90613 26.281 9.90427 26.262 9.9024 25.9598C9.9024 25.7223 9.90992 25.6084 9.93632 25.4849C9.95701 25.3974 10.0004 25.2379 10.0343 25.1333C10.0682 25.0289 10.1341 24.8541 10.1831 24.7438C10.2302 24.6356 10.3206 24.4513 10.3828 24.3354C10.4469 24.2213 10.5769 24.0067 10.6748 23.8604C10.7709 23.714 10.933 23.4917 11.0328 23.3663C11.1308 23.241 11.3116 23.0282 11.4341 22.8932C11.5547 22.7583 11.7732 22.5361 11.9183 22.4011C12.0634 22.2662 12.2913 22.0649 12.427 21.9565C12.5607 21.8482 12.8038 21.6697 12.9639 21.5613C13.1241 21.4549 13.3445 21.3181 13.4538 21.2593C13.563 21.2003 13.7326 21.1148 13.8306 21.0692C13.9285 21.0236 14.0943 20.9571 14.198 20.921C14.3016 20.8849 14.4617 20.8355 14.5559 20.8146C14.6482 20.7918 14.7895 20.7652 14.8668 20.7557C14.9441 20.7462 15.1004 20.7405 15.2153 20.7462ZM30.8603 35.6195C30.9281 35.6271 31.0562 35.6499 31.1447 35.6689C31.2333 35.688 31.3727 35.7259 31.4556 35.7544C31.5385 35.7829 31.6949 35.8475 31.8041 35.8988C31.9134 35.952 32.0434 36.0223 32.0962 36.0546C32.147 36.0869 32.2582 36.1667 32.3411 36.2313C32.424 36.2959 32.5728 36.4327 32.6708 36.5372C32.7687 36.6398 32.9044 36.8051 32.9703 36.9058C33.0382 37.0046 33.138 37.1756 33.1908 37.284C33.2454 37.3941 33.3245 37.586 33.366 37.7114C33.4074 37.8369 33.4583 38.025 33.4809 38.1294C33.5017 38.2339 33.5243 38.405 33.5318 38.5094C33.5412 38.6766 33.5374 38.7108 33.5017 38.7945C33.4696 38.8705 33.3698 38.9826 33.0043 39.3512C32.6821 39.6761 32.5351 39.8109 32.505 39.8109C32.4824 39.8109 32.4579 39.8014 32.4503 39.7882C32.4428 39.7748 32.4372 39.486 32.4353 39.146C32.4334 38.6652 32.4259 38.4867 32.3995 38.3385C32.3825 38.2339 32.3467 38.0591 32.3204 37.949C32.294 37.8406 32.2431 37.6602 32.2073 37.5499C32.1697 37.4417 32.0943 37.2573 32.0396 37.1414C31.985 37.0274 31.8719 36.8298 31.7891 36.7044C31.7062 36.579 31.5724 36.4042 31.4895 36.3169C31.4085 36.2294 31.2709 36.1021 31.1824 36.0318C31.0939 35.9634 30.9545 35.8684 30.8715 35.8209C30.7773 35.7658 30.7189 35.7202 30.7151 35.6974C30.7114 35.6765 30.7151 35.648 30.7208 35.6328C30.7321 35.6138 30.7623 35.61 30.8603 35.6195Z" fill="white"/>
<path d="M53.2287 14.48V20H52.0047V14.48H53.2287ZM55.2767 16.6V17.52H53.1647V16.6H55.2767ZM56.4127 14.48V20H55.1887V14.48H56.4127Z" fill="white"/>
<path d="M59.5672 15.944C59.9032 15.944 60.1832 15.9893 60.4072 16.08C60.6365 16.1653 60.8099 16.3147 60.9272 16.528C61.0499 16.736 61.1112 17.024 61.1112 17.392V20H60.1672L59.9992 19.144L59.9272 19.024V17.384C59.9219 17.1973 59.8739 17.0613 59.7832 16.976C59.6979 16.8907 59.5352 16.848 59.2952 16.848C59.0872 16.848 58.8312 16.856 58.5272 16.872C58.2232 16.8827 57.9112 16.8987 57.5912 16.92L57.4792 16.136C57.6712 16.0987 57.8925 16.0667 58.1432 16.04C58.3939 16.0133 58.6445 15.992 58.8952 15.976C59.1459 15.9547 59.3699 15.944 59.5672 15.944ZM60.6232 17.568L60.6152 18.232L58.8632 18.24C58.7192 18.24 58.6152 18.2747 58.5512 18.344C58.4872 18.4133 58.4552 18.5067 58.4552 18.624V18.816C58.4552 18.9493 58.4925 19.0533 58.5672 19.128C58.6472 19.1973 58.7672 19.232 58.9272 19.232C59.0659 19.232 59.2152 19.2027 59.3752 19.144C59.5405 19.0853 59.7032 19.0027 59.8632 18.896C60.0232 18.7893 60.1645 18.664 60.2872 18.52V19.032C60.2445 19.112 60.1752 19.2133 60.0792 19.336C59.9885 19.4533 59.8712 19.5707 59.7272 19.688C59.5832 19.8 59.4125 19.896 59.2152 19.976C59.0232 20.056 58.8045 20.096 58.5592 20.096C58.3192 20.096 58.1032 20.0533 57.9112 19.968C57.7192 19.8827 57.5672 19.7573 57.4552 19.592C57.3432 19.4267 57.2872 19.2213 57.2872 18.976V18.568C57.2872 18.2533 57.3939 18.008 57.6072 17.832C57.8205 17.656 58.1139 17.568 58.4872 17.568H60.6232Z" fill="white"/>
<path d="M63.2411 16.048V20H62.0812V16.048H63.2411ZM66.3851 19.184V20H63.1691L63.1611 19.184H66.3851ZM65.8011 16.048V20H64.6331V16.048H65.8011ZM66.3851 19.96V21.12H65.6091L65.5131 19.96H66.3851Z" fill="white"/>
<path d="M68.3048 16.048V20H67.1208V16.048H68.3048ZM67.9768 14.304C68.2061 14.304 68.3208 14.424 68.3208 14.664V15.088C68.3208 15.328 68.2061 15.448 67.9768 15.448H67.4568C67.2221 15.448 67.1048 15.328 67.1048 15.088V14.664C67.1048 14.424 67.2221 14.304 67.4568 14.304H67.9768Z" fill="white"/>
<path d="M71.203 15.944C71.699 15.944 72.0963 16.0133 72.395 16.152C72.6936 16.2853 72.907 16.504 73.035 16.808C73.1683 17.112 73.235 17.52 73.235 18.032C73.235 18.5333 73.1683 18.936 73.035 19.24C72.907 19.544 72.6936 19.7627 72.395 19.896C72.0963 20.0293 71.699 20.096 71.203 20.096C70.707 20.096 70.3096 20.0293 70.011 19.896C69.7123 19.7627 69.4963 19.544 69.363 19.24C69.2296 18.936 69.163 18.5333 69.163 18.032C69.163 17.52 69.2296 17.112 69.363 16.808C69.4963 16.504 69.7123 16.2853 70.011 16.152C70.3096 16.0133 70.707 15.944 71.203 15.944ZM71.203 16.808C71.0003 16.808 70.8403 16.8427 70.723 16.912C70.6056 16.9813 70.523 17.104 70.475 17.28C70.427 17.456 70.403 17.7067 70.403 18.032C70.403 18.352 70.427 18.6 70.475 18.776C70.523 18.952 70.6056 19.0747 70.723 19.144C70.8403 19.208 71.0003 19.24 71.203 19.24C71.4056 19.24 71.5656 19.208 71.683 19.144C71.8003 19.0747 71.8803 18.952 71.923 18.776C71.971 18.6 71.995 18.352 71.995 18.032C71.995 17.7067 71.971 17.456 71.923 17.28C71.8803 17.104 71.8003 16.9813 71.683 16.912C71.5656 16.8427 71.4056 16.808 71.203 16.808Z" fill="white"/>
<path d="M75.2255 16.048V20H74.0575V16.048H75.2255ZM76.8095 17.512V18.32H75.1775V17.512H76.8095ZM77.9055 16.048V20H76.7375V16.048H77.9055Z" fill="white"/>
<path d="M80.9813 15.944C81.3173 15.944 81.5973 15.9893 81.8213 16.08C82.0506 16.1653 82.2239 16.3147 82.3413 16.528C82.4639 16.736 82.5253 17.024 82.5253 17.392V20H81.5813L81.4133 19.144L81.3413 19.024V17.384C81.3359 17.1973 81.2879 17.0613 81.1973 16.976C81.1119 16.8907 80.9493 16.848 80.7093 16.848C80.5013 16.848 80.2453 16.856 79.9413 16.872C79.6373 16.8827 79.3253 16.8987 79.0053 16.92L78.8933 16.136C79.0853 16.0987 79.3066 16.0667 79.5573 16.04C79.8079 16.0133 80.0586 15.992 80.3093 15.976C80.5599 15.9547 80.7839 15.944 80.9813 15.944ZM82.0373 17.568L82.0293 18.232L80.2773 18.24C80.1333 18.24 80.0293 18.2747 79.9653 18.344C79.9013 18.4133 79.8693 18.5067 79.8693 18.624V18.816C79.8693 18.9493 79.9066 19.0533 79.9813 19.128C80.0613 19.1973 80.1813 19.232 80.3413 19.232C80.4799 19.232 80.6293 19.2027 80.7893 19.144C80.9546 19.0853 81.1173 19.0027 81.2773 18.896C81.4373 18.7893 81.5786 18.664 81.7013 18.52V19.032C81.6586 19.112 81.5893 19.2133 81.4933 19.336C81.4026 19.4533 81.2853 19.5707 81.1413 19.688C80.9973 19.8 80.8266 19.896 80.6293 19.976C80.4373 20.056 80.2186 20.096 79.9733 20.096C79.7333 20.096 79.5173 20.0533 79.3253 19.968C79.1333 19.8827 78.9813 19.7573 78.8693 19.592C78.7573 19.4267 78.7013 19.2213 78.7013 18.976V18.568C78.7013 18.2533 78.8079 18.008 79.0213 17.832C79.2346 17.656 79.5279 17.568 79.9013 17.568H82.0373Z" fill="white"/>
<path d="M87.1192 16.048V16.864H85.5192C85.3859 16.864 85.2872 16.896 85.2232 16.96C85.1592 17.0187 85.1192 17.1147 85.1032 17.248C85.0765 17.4667 85.0472 17.688 85.0152 17.912C84.9885 18.1307 84.9592 18.3413 84.9272 18.544C84.8952 18.7413 84.8579 18.912 84.8152 19.056C84.7565 19.3387 84.6472 19.5573 84.4872 19.712C84.3325 19.8613 84.1432 19.96 83.9192 20.008C83.7005 20.0613 83.4605 20.072 83.1992 20.04L83.0792 19.168C83.2019 19.1413 83.3085 19.1147 83.3992 19.088C83.4899 19.0613 83.5619 19.0213 83.6152 18.968C83.6739 18.9147 83.7192 18.8373 83.7512 18.736C83.7832 18.6453 83.8125 18.5387 83.8392 18.416C83.8659 18.288 83.8899 18.1493 83.9112 18C83.9325 17.8507 83.9512 17.6933 83.9672 17.528C83.9832 17.3627 83.9992 17.1973 84.0152 17.032C84.0472 16.7067 84.1459 16.4613 84.3112 16.296C84.4819 16.1307 84.7352 16.048 85.0712 16.048H87.1192ZM87.2232 16.048V20H86.0472V16.048H87.2232Z" fill="white"/>
<path d="M89.9816 17.432C90.4456 17.432 90.8083 17.472 91.0696 17.552C91.3363 17.6267 91.5256 17.76 91.6376 17.952C91.7496 18.1387 91.8056 18.4 91.8056 18.736C91.8056 19.0773 91.7496 19.344 91.6376 19.536C91.5256 19.7227 91.3496 19.856 91.1096 19.936C90.8696 20.0107 90.5576 20.048 90.1736 20.048C89.8856 20.048 89.6323 20.0453 89.4136 20.04C89.1949 20.04 88.9949 20.0347 88.8136 20.024C88.6376 20.0187 88.4536 20.0107 88.2616 20L88.3576 19.216C88.4589 19.2213 88.6563 19.2267 88.9496 19.232C89.2429 19.2373 89.5869 19.24 89.9816 19.24C90.1416 19.24 90.2669 19.2267 90.3576 19.2C90.4536 19.1733 90.5203 19.12 90.5576 19.04C90.5949 18.96 90.6136 18.8453 90.6136 18.696C90.6136 18.552 90.5949 18.44 90.5576 18.36C90.5256 18.28 90.4643 18.2267 90.3736 18.2C90.2829 18.168 90.1522 18.152 89.9816 18.152H88.3496V17.432H89.9816ZM89.3656 16.048V20H88.2216V16.048H89.3656Z" fill="white"/>
<path d="M93.7099 16.048V20H92.5419V16.048H93.7099ZM95.2939 17.512V18.32H93.6619V17.512H95.2939ZM96.3899 16.048V20H95.2219V16.048H96.3899Z" fill="white"/>
<path d="M101.266 16.048V20L100.202 20.008V17.936C100.202 17.8293 100.204 17.7253 100.21 17.624C100.22 17.5227 100.234 17.4133 100.25 17.296H100.218C100.186 17.392 100.14 17.496 100.082 17.608C100.023 17.7147 99.967 17.808 99.9137 17.888L98.4176 20H97.3857V16.048H98.4417V18.176C98.4417 18.272 98.439 18.368 98.4336 18.464C98.4283 18.5547 98.4176 18.6533 98.4016 18.76H98.4257C98.4683 18.6587 98.5136 18.5653 98.5616 18.48C98.615 18.3893 98.6683 18.304 98.7216 18.224L100.242 16.048H101.266Z" fill="white"/>
<path d="M106.148 16.048V20L105.084 20.008V17.936C105.084 17.8293 105.087 17.7253 105.092 17.624C105.103 17.5227 105.116 17.4133 105.132 17.296H105.1C105.068 17.392 105.023 17.496 104.964 17.608C104.906 17.7147 104.85 17.808 104.796 17.888L103.3 20H102.268V16.048H103.324V18.176C103.324 18.272 103.322 18.368 103.316 18.464C103.311 18.5547 103.3 18.6533 103.284 18.76H103.308C103.351 18.6587 103.396 18.5653 103.444 18.48C103.498 18.3893 103.551 18.304 103.604 18.224L105.124 16.048H106.148ZM104.748 14.304H105.516C105.548 14.5227 105.514 14.7253 105.412 14.912C105.316 15.0987 105.164 15.2507 104.956 15.368C104.754 15.4853 104.506 15.544 104.212 15.544C103.919 15.544 103.668 15.4853 103.46 15.368C103.252 15.2507 103.098 15.0987 102.996 14.912C102.895 14.7253 102.858 14.5227 102.884 14.304H103.66C103.644 14.5387 103.684 14.7093 103.78 14.816C103.882 14.9173 104.026 14.968 104.212 14.968C104.394 14.968 104.532 14.9173 104.628 14.816C104.724 14.7093 104.764 14.5387 104.748 14.304Z" fill="white"/>
<path d="M111.03 16.048V20H109.846V16.048H111.03ZM112.342 16.048V16.96H108.526V16.048H112.342Z" fill="white"/>
<path d="M114.812 15.944C115.484 15.944 115.964 16.0587 116.252 16.288C116.54 16.512 116.687 16.848 116.692 17.296C116.697 17.6587 116.607 17.9307 116.42 18.112C116.233 18.288 115.911 18.376 115.452 18.376H113.236V17.712H115.124C115.3 17.712 115.415 17.6747 115.468 17.6C115.521 17.52 115.545 17.4107 115.54 17.272C115.54 17.0853 115.487 16.9573 115.38 16.888C115.279 16.8133 115.103 16.776 114.852 16.776C114.633 16.776 114.463 16.8053 114.34 16.864C114.223 16.9227 114.14 17.0347 114.092 17.2C114.044 17.3653 114.02 17.6053 114.02 17.92C114.02 18.2507 114.049 18.5067 114.108 18.688C114.167 18.864 114.265 18.9867 114.404 19.056C114.548 19.1253 114.743 19.16 114.988 19.16C115.175 19.16 115.401 19.1547 115.668 19.144C115.94 19.128 116.212 19.104 116.484 19.072L116.588 19.8C116.439 19.8747 116.265 19.9333 116.068 19.976C115.871 20.0187 115.668 20.048 115.46 20.064C115.252 20.0853 115.049 20.096 114.852 20.096C114.356 20.096 113.953 20.024 113.644 19.88C113.34 19.7307 113.119 19.504 112.98 19.2C112.847 18.896 112.78 18.5067 112.78 18.032C112.78 17.5147 112.849 17.104 112.988 16.8C113.127 16.496 113.345 16.2773 113.644 16.144C113.943 16.0107 114.332 15.944 114.812 15.944Z" fill="white"/>
<path d="M121.289 16.048L120.145 17.976L121.377 20H120.169L119.009 17.976L120.089 16.048H121.289ZM118.289 16.048L119.369 17.976L118.201 20H116.993L118.225 17.976L117.089 16.048H118.289ZM119.817 17.592V18.328H118.569V17.592H119.817Z" fill="white"/>
<path d="M123.132 16.048V20H121.964V16.048H123.132ZM124.716 17.512V18.32H123.084V17.512H124.716ZM125.812 16.048V20H124.644V16.048H125.812Z" fill="white"/>
<path d="M128.024 16.048V20H126.84V16.048H128.024ZM127.696 14.304C127.925 14.304 128.04 14.424 128.04 14.664V15.088C128.04 15.328 127.925 15.448 127.696 15.448H127.176C126.941 15.448 126.824 15.328 126.824 15.088V14.664C126.824 14.424 126.941 14.304 127.176 14.304H127.696Z" fill="white"/>
<path d="M130.074 16.048V17.496C130.074 17.6347 130.103 17.7333 130.162 17.792C130.226 17.8507 130.33 17.88 130.474 17.88C130.639 17.88 130.802 17.864 130.962 17.832C131.127 17.8 131.311 17.7387 131.514 17.648L131.642 18.432C131.391 18.5387 131.127 18.6213 130.85 18.68C130.572 18.7333 130.314 18.76 130.074 18.76C129.674 18.76 129.378 18.688 129.186 18.544C128.994 18.3947 128.898 18.1653 128.898 17.856V16.048H130.074ZM132.602 16.048V20H131.418V16.048H132.602Z" fill="white"/>
<path d="M134.772 16.048V20H133.604V16.048H134.772ZM136.356 17.512V18.32H134.724V17.512H136.356ZM137.452 16.048V20H136.284V16.048H137.452Z" fill="white"/>
<path d="M142.328 16.048V20L141.264 20.008V17.936C141.264 17.8293 141.267 17.7253 141.272 17.624C141.283 17.5227 141.296 17.4133 141.312 17.296H141.28C141.248 17.392 141.203 17.496 141.144 17.608C141.085 17.7147 141.029 17.808 140.976 17.888L139.48 20H138.448V16.048H139.504V18.176C139.504 18.272 139.501 18.368 139.496 18.464C139.491 18.5547 139.48 18.6533 139.464 18.76H139.488C139.531 18.6587 139.576 18.5653 139.624 18.48C139.677 18.3893 139.731 18.304 139.784 18.224L141.304 16.048H142.328Z" fill="white"/>
<path d="M147.211 16.048V20L146.147 20.008V17.936C146.147 17.8293 146.15 17.7253 146.155 17.624C146.166 17.5227 146.179 17.4133 146.195 17.296H146.163C146.131 17.392 146.086 17.496 146.027 17.608C145.968 17.7147 145.912 17.808 145.859 17.888L144.363 20H143.331V16.048H144.387V18.176C144.387 18.272 144.384 18.368 144.379 18.464C144.374 18.5547 144.363 18.6533 144.347 18.76H144.371C144.414 18.6587 144.459 18.5653 144.507 18.48C144.56 18.3893 144.614 18.304 144.667 18.224L146.187 16.048H147.211ZM145.811 14.304H146.579C146.611 14.5227 146.576 14.7253 146.475 14.912C146.379 15.0987 146.227 15.2507 146.019 15.368C145.816 15.4853 145.568 15.544 145.275 15.544C144.982 15.544 144.731 15.4853 144.523 15.368C144.315 15.2507 144.16 15.0987 144.059 14.912C143.958 14.7253 143.92 14.5227 143.947 14.304H144.723C144.707 14.5387 144.747 14.7093 144.843 14.816C144.944 14.9173 145.088 14.968 145.275 14.968C145.456 14.968 145.595 14.9173 145.691 14.816C145.787 14.7093 145.827 14.5387 145.811 14.304Z" fill="white"/>
<path d="M55.8927 26.048L54.4767 30.048C54.402 30.2987 54.306 30.5147 54.1887 30.696C54.0767 30.8773 53.9487 31.0293 53.8047 31.152C53.6607 31.28 53.498 31.384 53.3167 31.464C53.0927 31.576 52.8474 31.6373 52.5807 31.648C52.314 31.6587 52.042 31.64 51.7647 31.592L51.8607 30.824C52.09 30.8293 52.2927 30.8187 52.4687 30.792C52.6447 30.7707 52.7967 30.7227 52.9247 30.648C53.026 30.584 53.1194 30.4907 53.2047 30.368C53.29 30.2507 53.3594 30.1227 53.4127 29.984L53.6287 29.472C53.682 29.3493 53.73 29.2053 53.7727 29.04C53.8154 28.8747 53.8527 28.7307 53.8847 28.608L54.6287 26.048H55.8927ZM52.7567 26.048L53.5087 28.608C53.53 28.7093 53.5514 28.8107 53.5727 28.912C53.594 29.0133 53.6127 29.1147 53.6287 29.216H53.8447L53.4687 30H53.1807C53.0847 30 53.002 29.9733 52.9327 29.92C52.8687 29.8667 52.8207 29.7973 52.7887 29.712L51.4927 26.048H52.7567Z" fill="white"/>
<path d="M57.6318 26.048V30H56.4638V26.048H57.6318ZM59.2158 27.512V28.32H57.5838V27.512H59.2158ZM60.3118 26.048V30H59.1438V26.048H60.3118Z" fill="white"/>
<path d="M62.5235 26.048V30H61.3395V26.048H62.5235ZM62.1955 24.304C62.4249 24.304 62.5395 24.424 62.5395 24.664V25.088C62.5395 25.328 62.4249 25.448 62.1955 25.448H61.6755C61.4409 25.448 61.3235 25.328 61.3235 25.088V24.664C61.3235 24.424 61.4409 24.304 61.6755 24.304H62.1955Z" fill="white"/>
<path d="M65.4537 26.008C65.8857 26.008 66.227 26.0373 66.4777 26.096C66.7284 26.1547 66.9097 26.2613 67.0217 26.416C67.1337 26.5653 67.1897 26.7787 67.1897 27.056C67.1897 27.3387 67.123 27.552 66.9897 27.696C66.8564 27.84 66.635 27.9253 66.3257 27.952V27.984C66.699 28.0053 66.9604 28.1067 67.1097 28.288C67.2644 28.464 67.3417 28.7093 67.3417 29.024C67.3417 29.296 67.283 29.5093 67.1657 29.664C67.0537 29.8133 66.875 29.9173 66.6297 29.976C66.3897 30.0347 66.0724 30.064 65.6777 30.064C65.363 30.064 65.0857 30.0613 64.8457 30.056C64.6057 30.056 64.3817 30.0507 64.1737 30.04C63.971 30.0347 63.763 30.0267 63.5497 30.016L63.6537 29.256C63.771 29.2613 63.9924 29.2667 64.3177 29.272C64.6484 29.272 65.0377 29.272 65.4857 29.272C65.651 29.272 65.7844 29.2587 65.8857 29.232C65.987 29.2053 66.059 29.1573 66.1017 29.088C66.1444 29.0133 66.1657 28.912 66.1657 28.784C66.1657 28.592 66.1124 28.464 66.0057 28.4C65.9044 28.3307 65.723 28.296 65.4617 28.296H63.6457V27.64H65.4617C65.6217 27.64 65.747 27.6293 65.8377 27.608C65.9284 27.5813 65.9924 27.536 66.0297 27.472C66.067 27.408 66.0857 27.32 66.0857 27.208C66.0857 27.096 66.0644 27.0107 66.0217 26.952C65.979 26.8933 65.907 26.8533 65.8057 26.832C65.7097 26.8053 65.5737 26.792 65.3977 26.792C65.131 26.7867 64.8937 26.784 64.6857 26.784C64.4777 26.784 64.291 26.784 64.1257 26.784C63.9604 26.784 63.803 26.792 63.6537 26.808L63.5497 26.056C63.7417 26.04 63.9284 26.0293 64.1097 26.024C64.2964 26.0187 64.4964 26.016 64.7097 26.016C64.923 26.0107 65.171 26.008 65.4537 26.008ZM64.6617 26.056V30.016H63.5497V26.056H64.6617Z" fill="white"/>
<path d="M69.9995 25.944C70.6715 25.944 71.1515 26.0587 71.4395 26.288C71.7275 26.512 71.8741 26.848 71.8795 27.296C71.8848 27.6587 71.7941 27.9307 71.6075 28.112C71.4208 28.288 71.0981 28.376 70.6395 28.376H68.4235V27.712H70.3115C70.4875 27.712 70.6021 27.6747 70.6555 27.6C70.7088 27.52 70.7328 27.4107 70.7275 27.272C70.7275 27.0853 70.6741 26.9573 70.5675 26.888C70.4661 26.8133 70.2901 26.776 70.0395 26.776C69.8208 26.776 69.6501 26.8053 69.5275 26.864C69.4101 26.9227 69.3275 27.0347 69.2795 27.2C69.2315 27.3653 69.2075 27.6053 69.2075 27.92C69.2075 28.2507 69.2368 28.5067 69.2955 28.688C69.3541 28.864 69.4528 28.9867 69.5915 29.056C69.7355 29.1253 69.9301 29.16 70.1755 29.16C70.3621 29.16 70.5888 29.1547 70.8555 29.144C71.1275 29.128 71.3995 29.104 71.6715 29.072L71.7755 29.8C71.6261 29.8747 71.4528 29.9333 71.2555 29.976C71.0581 30.0187 70.8555 30.048 70.6475 30.064C70.4395 30.0853 70.2368 30.096 70.0395 30.096C69.5435 30.096 69.1408 30.024 68.8315 29.88C68.5275 29.7307 68.3061 29.504 68.1675 29.2C68.0341 28.896 67.9675 28.5067 67.9675 28.032C67.9675 27.5147 68.0368 27.104 68.1755 26.8C68.3141 26.496 68.5328 26.2773 68.8315 26.144C69.1301 26.0107 69.5195 25.944 69.9995 25.944Z" fill="white"/>
<path d="M75.2669 25.952C75.7682 25.952 76.1256 26.1333 76.3389 26.496C76.5522 26.8587 76.6589 27.3787 76.6589 28.056C76.6589 28.584 76.6029 28.9973 76.4909 29.296C76.3789 29.5947 76.2109 29.8053 75.9869 29.928C75.7682 30.0453 75.4936 30.104 75.1629 30.104C74.8856 30.104 74.6162 30.064 74.3549 29.984C74.0989 29.904 73.8749 29.7707 73.6829 29.584L73.7549 29.056C73.9362 29.1093 74.0989 29.1573 74.2429 29.2C74.3869 29.2373 74.5522 29.256 74.7389 29.256C74.9096 29.256 75.0456 29.2267 75.1469 29.168C75.2482 29.1093 75.3202 28.9947 75.3629 28.824C75.4109 28.648 75.4349 28.3947 75.4349 28.064C75.4349 27.7387 75.4136 27.4907 75.3709 27.32C75.3282 27.144 75.2589 27.024 75.1629 26.96C75.0722 26.8907 74.9496 26.856 74.7949 26.856C74.6189 26.856 74.4589 26.8907 74.3149 26.96C74.1709 27.024 74.0082 27.1173 73.8269 27.24L73.6749 26.696C73.7816 26.552 73.9176 26.424 74.0829 26.312C74.2536 26.2 74.4402 26.112 74.6429 26.048C74.8456 25.984 75.0536 25.952 75.2669 25.952ZM73.6269 26.048L73.7469 26.768L73.8509 26.888V29.456L73.8109 29.552C73.8269 29.712 73.8376 29.8773 73.8429 30.048C73.8536 30.224 73.8562 30.3973 73.8509 30.568V31.52H72.6749V26.048H73.6269Z" fill="white"/>
<path d="M79.3192 25.944C79.4579 25.944 79.6125 25.952 79.7832 25.968C79.9592 25.9787 80.1325 26.0027 80.3032 26.04C80.4792 26.072 80.6392 26.12 80.7832 26.184L80.6552 26.928C80.4365 26.9227 80.2312 26.9173 80.0392 26.912C79.8472 26.9067 79.6739 26.904 79.5192 26.904C79.2792 26.904 79.0872 26.936 78.9432 27C78.8045 27.064 78.7059 27.1787 78.6472 27.344C78.5885 27.504 78.5592 27.728 78.5592 28.016C78.5592 28.3093 78.5885 28.5387 78.6472 28.704C78.7059 28.8693 78.8045 28.984 78.9432 29.048C79.0872 29.112 79.2792 29.144 79.5192 29.144C79.6045 29.144 79.7139 29.1413 79.8472 29.136C79.9805 29.1307 80.1245 29.1253 80.2792 29.12C80.4339 29.1093 80.5859 29.0933 80.7352 29.072L80.8472 29.824C80.6339 29.92 80.3912 29.9893 80.1192 30.032C79.8472 30.0747 79.5779 30.096 79.3112 30.096C78.8205 30.096 78.4285 30.0293 78.1352 29.896C77.8472 29.7573 77.6392 29.536 77.5112 29.232C77.3832 28.928 77.3192 28.5227 77.3192 28.016C77.3192 27.5093 77.3832 27.104 77.5112 26.8C77.6392 26.496 77.8499 26.2773 78.1432 26.144C78.4365 26.0107 78.8285 25.944 79.3192 25.944Z" fill="white"/>
<path d="M85.4453 26.048V30L84.3813 30.008V27.936C84.3813 27.8293 84.384 27.7253 84.3893 27.624C84.4 27.5227 84.4133 27.4133 84.4293 27.296H84.3973C84.3653 27.392 84.32 27.496 84.2613 27.608C84.2027 27.7147 84.1467 27.808 84.0933 27.888L82.5973 30H81.5653V26.048H82.6213V28.176C82.6213 28.272 82.6187 28.368 82.6133 28.464C82.608 28.5547 82.5973 28.6533 82.5813 28.76H82.6053C82.648 28.6587 82.6933 28.5653 82.7413 28.48C82.7947 28.3893 82.848 28.304 82.9013 28.224L84.4213 26.048H85.4453Z" fill="white"/>
<path d="M88.6002 26.048V30H87.4161V26.048H88.6002ZM89.9121 26.048V26.96H86.0961V26.048H89.9121Z" fill="white"/>
<path d="M92.3823 25.944C93.0543 25.944 93.5343 26.0587 93.8223 26.288C94.1103 26.512 94.2569 26.848 94.2623 27.296C94.2676 27.6587 94.1769 27.9307 93.9903 28.112C93.8036 28.288 93.4809 28.376 93.0223 28.376H90.8063V27.712H92.6943C92.8703 27.712 92.9849 27.6747 93.0383 27.6C93.0916 27.52 93.1156 27.4107 93.1103 27.272C93.1103 27.0853 93.0569 26.9573 92.9503 26.888C92.8489 26.8133 92.6729 26.776 92.4223 26.776C92.2036 26.776 92.0329 26.8053 91.9103 26.864C91.7929 26.9227 91.7103 27.0347 91.6623 27.2C91.6143 27.3653 91.5903 27.6053 91.5903 27.92C91.5903 28.2507 91.6196 28.5067 91.6783 28.688C91.7369 28.864 91.8356 28.9867 91.9743 29.056C92.1183 29.1253 92.3129 29.16 92.5583 29.16C92.7449 29.16 92.9716 29.1547 93.2383 29.144C93.5103 29.128 93.7823 29.104 94.0543 29.072L94.1583 29.8C94.0089 29.8747 93.8356 29.9333 93.6383 29.976C93.4409 30.0187 93.2383 30.048 93.0303 30.064C92.8223 30.0853 92.6196 30.096 92.4223 30.096C91.9263 30.096 91.5236 30.024 91.2143 29.88C90.9103 29.7307 90.6889 29.504 90.5503 29.2C90.4169 28.896 90.3503 28.5067 90.3503 28.032C90.3503 27.5147 90.4196 27.104 90.5583 26.8C90.6969 26.496 90.9156 26.2773 91.2143 26.144C91.5129 26.0107 91.9023 25.944 92.3823 25.944Z" fill="white"/>
<path d="M97.1236 26.048V30H95.9396V26.048H97.1236ZM98.4356 26.048V26.96H94.6196V26.048H98.4356Z" fill="white"/>
<path d="M105.04 24.48L103.696 28.568C103.6 28.8667 103.493 29.1253 103.376 29.344C103.264 29.5627 103.122 29.736 102.952 29.864C102.786 29.9867 102.573 30.0613 102.312 30.088C102.189 30.0987 102.042 30.0987 101.872 30.088C101.706 30.0773 101.541 30.0613 101.376 30.04C101.216 30.0187 101.077 29.9973 100.96 29.976L101.096 29.12C101.336 29.1307 101.53 29.1387 101.68 29.144C101.834 29.144 101.96 29.128 102.056 29.096C102.152 29.064 102.229 29.0107 102.288 28.936C102.352 28.8613 102.41 28.7547 102.464 28.616L102.64 28.024L102.824 27.584L103.784 24.48H105.04ZM101.624 24.48L102.488 27.416C102.509 27.4853 102.562 27.52 102.648 27.52H102.984L103.28 28.432H102.208C102.005 28.432 101.85 28.3813 101.744 28.28C101.637 28.1787 101.557 28.04 101.504 27.864L100.368 24.48H101.624Z" fill="white"/>
<path d="M109.067 26.048C108.971 26.3467 108.888 26.6 108.819 26.808C108.75 27.016 108.68 27.1893 108.611 27.328C108.547 27.4613 108.475 27.568 108.395 27.648C108.315 27.728 108.214 27.7893 108.091 27.832C107.974 27.8747 107.827 27.9067 107.651 27.928V27.96C107.832 27.9867 107.984 28.0213 108.107 28.064C108.235 28.1013 108.344 28.1627 108.435 28.248C108.526 28.328 108.608 28.44 108.683 28.584C108.758 28.728 108.835 28.9147 108.915 29.144C108.995 29.3733 109.088 29.6587 109.195 30H107.963C107.867 29.7013 107.784 29.4533 107.715 29.256C107.651 29.0587 107.59 28.8987 107.531 28.776C107.472 28.6533 107.408 28.5627 107.339 28.504C107.275 28.4453 107.198 28.408 107.107 28.392C107.022 28.3707 106.915 28.36 106.787 28.36L106.771 27.552C106.931 27.552 107.062 27.5307 107.163 27.488C107.264 27.4453 107.35 27.3707 107.419 27.264C107.494 27.152 107.563 27 107.627 26.808C107.696 26.6107 107.776 26.3573 107.867 26.048H109.067ZM106.515 26.048V27.064C106.515 27.208 106.499 27.3573 106.467 27.512C106.44 27.6613 106.4 27.8 106.347 27.928C106.395 28.0507 106.435 28.184 106.467 28.328C106.499 28.4667 106.515 28.592 106.515 28.704V30H105.331V26.048H106.515ZM107.083 27.552V28.36H106.219V27.552H107.083Z" fill="white"/>
<path d="M112.454 25.952C112.956 25.952 113.313 26.1333 113.526 26.496C113.74 26.8587 113.846 27.3787 113.846 28.056C113.846 28.584 113.79 28.9973 113.678 29.296C113.566 29.5947 113.398 29.8053 113.174 29.928C112.956 30.0453 112.681 30.104 112.35 30.104C112.073 30.104 111.804 30.064 111.542 29.984C111.286 29.904 111.062 29.7707 110.87 29.584L110.942 29.056C111.124 29.1093 111.286 29.1573 111.43 29.2C111.574 29.2373 111.74 29.256 111.926 29.256C112.097 29.256 112.233 29.2267 112.334 29.168C112.436 29.1093 112.508 28.9947 112.55 28.824C112.598 28.648 112.622 28.3947 112.622 28.064C112.622 27.7387 112.601 27.4907 112.558 27.32C112.516 27.144 112.446 27.024 112.35 26.96C112.26 26.8907 112.137 26.856 111.982 26.856C111.806 26.856 111.646 26.8907 111.502 26.96C111.358 27.024 111.196 27.1173 111.014 27.24L110.862 26.696C110.969 26.552 111.105 26.424 111.27 26.312C111.441 26.2 111.628 26.112 111.83 26.048C112.033 25.984 112.241 25.952 112.454 25.952ZM110.814 26.048L110.934 26.768L111.038 26.888V29.456L110.998 29.552C111.014 29.712 111.025 29.8773 111.03 30.048C111.041 30.224 111.044 30.3973 111.038 30.568V31.52H109.862V26.048H110.814Z" fill="white"/>
<path d="M116.755 25.944C117.091 25.944 117.371 25.9893 117.595 26.08C117.824 26.1653 117.997 26.3147 118.115 26.528C118.237 26.736 118.299 27.024 118.299 27.392V30H117.355L117.187 29.144L117.115 29.024V27.384C117.109 27.1973 117.061 27.0613 116.971 26.976C116.885 26.8907 116.723 26.848 116.483 26.848C116.275 26.848 116.019 26.856 115.715 26.872C115.411 26.8827 115.099 26.8987 114.779 26.92L114.667 26.136C114.859 26.0987 115.08 26.0667 115.331 26.04C115.581 26.0133 115.832 25.992 116.083 25.976C116.333 25.9547 116.557 25.944 116.755 25.944ZM117.811 27.568L117.803 28.232L116.051 28.24C115.907 28.24 115.803 28.2747 115.739 28.344C115.675 28.4133 115.643 28.5067 115.643 28.624V28.816C115.643 28.9493 115.68 29.0533 115.755 29.128C115.835 29.1973 115.955 29.232 116.115 29.232C116.253 29.232 116.403 29.2027 116.563 29.144C116.728 29.0853 116.891 29.0027 117.051 28.896C117.211 28.7893 117.352 28.664 117.475 28.52V29.032C117.432 29.112 117.363 29.2133 117.267 29.336C117.176 29.4533 117.059 29.5707 116.915 29.688C116.771 29.8 116.6 29.896 116.403 29.976C116.211 30.056 115.992 30.096 115.747 30.096C115.507 30.096 115.291 30.0533 115.099 29.968C114.907 29.8827 114.755 29.7573 114.643 29.592C114.531 29.4267 114.475 29.2213 114.475 28.976V28.568C114.475 28.2533 114.581 28.008 114.795 27.832C115.008 27.656 115.301 27.568 115.675 27.568H117.811Z" fill="white"/>
<path d="M120.485 26.048V30H119.293V26.048H120.485ZM120.813 24.376C120.978 24.376 121.061 24.4587 121.061 24.624V25.096C121.061 25.2667 120.978 25.352 120.813 25.352H120.421C120.25 25.352 120.165 25.2667 120.165 25.096V24.624C120.165 24.4587 120.25 24.376 120.421 24.376H120.813ZM119.349 24.376C119.514 24.376 119.597 24.4587 119.597 24.624V25.096C119.597 25.2667 119.514 25.352 119.349 25.352H118.957C118.786 25.352 118.701 25.2667 118.701 25.096V24.624C118.701 24.4587 118.786 24.376 118.957 24.376H119.349Z" fill="white"/>
<path d="M122.679 26.048V30H121.511V26.048H122.679ZM124.263 27.512V28.32H122.631V27.512H124.263ZM125.359 26.048V30H124.191V26.048H125.359Z" fill="white"/>
<path d="M130.234 26.048V30L129.17 30.008V27.936C129.17 27.8293 129.173 27.7253 129.178 27.624C129.189 27.5227 129.202 27.4133 129.218 27.296H129.186C129.154 27.392 129.109 27.496 129.05 27.608C128.992 27.7147 128.936 27.808 128.882 27.888L127.386 30H126.354V26.048H127.41V28.176C127.41 28.272 127.408 28.368 127.402 28.464C127.397 28.5547 127.386 28.6533 127.37 28.76H127.394C127.437 28.6587 127.482 28.5653 127.53 28.48C127.584 28.3893 127.637 28.304 127.69 28.224L129.21 26.048H130.234Z" fill="white"/>
<path d="M54.6207 36.28L55.2447 36.68L54.3967 37.992L55.2527 39.344L54.6287 39.744L53.3487 38.12V37.864L54.6207 36.28ZM52.9567 36.28L53.5807 36.68L52.7327 37.992L53.5887 39.344L52.9647 39.744L51.6847 38.12V37.864L52.9567 36.28Z" fill="white"/>
<path d="M60.4091 34.48C60.2918 34.848 60.1878 35.1707 60.0971 35.448C60.0065 35.72 59.9185 35.9547 59.8331 36.152C59.7478 36.3493 59.6518 36.5147 59.5451 36.648C59.4438 36.776 59.3211 36.8773 59.1771 36.952C59.0331 37.0213 58.8545 37.0693 58.6411 37.096V37.144C58.8651 37.1707 59.0518 37.2213 59.2011 37.296C59.3558 37.3653 59.4892 37.4693 59.6012 37.608C59.7185 37.7413 59.8225 37.9173 59.9131 38.136C60.0091 38.3493 60.1078 38.6107 60.2091 38.92C60.3105 39.224 60.4278 39.584 60.5611 40H59.2811C59.1318 39.5253 59.0065 39.1307 58.9051 38.816C58.8038 38.5013 58.7025 38.2533 58.6012 38.072C58.4998 37.8853 58.3798 37.752 58.2411 37.672C58.1025 37.592 57.9238 37.552 57.7051 37.552L57.6971 36.704C57.9051 36.704 58.0785 36.6613 58.2171 36.576C58.3558 36.4853 58.4758 36.352 58.5771 36.176C58.6785 35.9947 58.7718 35.7653 58.8571 35.488C58.9478 35.2053 59.0491 34.8693 59.1611 34.48H60.4091ZM57.3691 34.48V36.04C57.3691 36.2213 57.3558 36.4027 57.3291 36.584C57.3025 36.7653 57.2598 36.9387 57.2011 37.104C57.2438 37.2693 57.2811 37.44 57.3131 37.616C57.3505 37.7867 57.3691 37.9467 57.3691 38.096V40H56.1531V34.48H57.3691ZM58.0491 36.704V37.552H57.0571V36.704H58.0491Z" fill="white"/>
<path d="M65.0781 36.048V40L64.0141 40.008V37.936C64.0141 37.8293 64.0168 37.7253 64.0221 37.624C64.0328 37.5227 64.0461 37.4133 64.0621 37.296H64.0302C63.9982 37.392 63.9528 37.496 63.8941 37.608C63.8355 37.7147 63.7795 37.808 63.7262 37.888L62.2301 40H61.1981V36.048H62.2542V38.176C62.2542 38.272 62.2515 38.368 62.2461 38.464C62.2408 38.5547 62.2301 38.6533 62.2141 38.76H62.2381C62.2808 38.6587 62.3261 38.5653 62.3741 38.48C62.4275 38.3893 62.4808 38.304 62.5341 38.224L64.0541 36.048H65.0781Z" fill="white"/>
<path d="M67.305 36.048V40H66.113V36.048H67.305ZM67.633 34.376C67.7983 34.376 67.881 34.4587 67.881 34.624V35.096C67.881 35.2667 67.7983 35.352 67.633 35.352H67.241C67.0703 35.352 66.985 35.2667 66.985 35.096V34.624C66.985 34.4587 67.0703 34.376 67.241 34.376H67.633ZM66.169 34.376C66.3343 34.376 66.417 34.4587 66.417 34.624V35.096C66.417 35.2667 66.3343 35.352 66.169 35.352H65.777C65.6063 35.352 65.521 35.2667 65.521 35.096V34.624C65.521 34.4587 65.6063 34.376 65.777 34.376H66.169Z" fill="white"/>
<path d="M70.235 36.008C70.667 36.008 71.0083 36.0373 71.259 36.096C71.5096 36.1547 71.691 36.2613 71.803 36.416C71.915 36.5653 71.971 36.7787 71.971 37.056C71.971 37.3387 71.9043 37.552 71.771 37.696C71.6376 37.84 71.4163 37.9253 71.107 37.952V37.984C71.4803 38.0053 71.7416 38.1067 71.891 38.288C72.0456 38.464 72.123 38.7093 72.123 39.024C72.123 39.296 72.0643 39.5093 71.947 39.664C71.835 39.8133 71.6563 39.9173 71.411 39.976C71.171 40.0347 70.8536 40.064 70.459 40.064C70.1443 40.064 69.867 40.0613 69.627 40.056C69.387 40.056 69.163 40.0507 68.955 40.04C68.7523 40.0347 68.5443 40.0267 68.331 40.016L68.435 39.256C68.5523 39.2613 68.7736 39.2667 69.099 39.272C69.4296 39.272 69.819 39.272 70.267 39.272C70.4323 39.272 70.5656 39.2587 70.667 39.232C70.7683 39.2053 70.8403 39.1573 70.883 39.088C70.9256 39.0133 70.947 38.912 70.947 38.784C70.947 38.592 70.8936 38.464 70.787 38.4C70.6856 38.3307 70.5043 38.296 70.243 38.296H68.427V37.64H70.243C70.403 37.64 70.5283 37.6293 70.619 37.608C70.7096 37.5813 70.7736 37.536 70.811 37.472C70.8483 37.408 70.867 37.32 70.867 37.208C70.867 37.096 70.8456 37.0107 70.803 36.952C70.7603 36.8933 70.6883 36.8533 70.587 36.832C70.491 36.8053 70.355 36.792 70.179 36.792C69.9123 36.7867 69.675 36.784 69.467 36.784C69.259 36.784 69.0723 36.784 68.907 36.784C68.7416 36.784 68.5843 36.792 68.435 36.808L68.331 36.056C68.523 36.04 68.7096 36.0293 68.891 36.024C69.0776 36.0187 69.2776 36.016 69.491 36.016C69.7043 36.0107 69.9523 36.008 70.235 36.008ZM69.443 36.056V40.016H68.331V36.056H69.443Z" fill="white"/>
<path d="M74.7567 35.944C74.8954 35.944 75.05 35.952 75.2207 35.968C75.3967 35.9787 75.57 36.0027 75.7407 36.04C75.9167 36.072 76.0767 36.12 76.2207 36.184L76.0927 36.928C75.874 36.9227 75.6687 36.9173 75.4767 36.912C75.2847 36.9067 75.1114 36.904 74.9567 36.904C74.7167 36.904 74.5247 36.936 74.3807 37C74.242 37.064 74.1434 37.1787 74.0847 37.344C74.026 37.504 73.9967 37.728 73.9967 38.016C73.9967 38.3093 74.026 38.5387 74.0847 38.704C74.1434 38.8693 74.242 38.984 74.3807 39.048C74.5247 39.112 74.7167 39.144 74.9567 39.144C75.042 39.144 75.1514 39.1413 75.2847 39.136C75.418 39.1307 75.562 39.1253 75.7167 39.12C75.8714 39.1093 76.0234 39.0933 76.1727 39.072L76.2847 39.824C76.0714 39.92 75.8287 39.9893 75.5567 40.032C75.2847 40.0747 75.0154 40.096 74.7487 40.096C74.258 40.096 73.866 40.0293 73.5727 39.896C73.2847 39.7573 73.0767 39.536 72.9487 39.232C72.8207 38.928 72.7567 38.5227 72.7567 38.016C72.7567 37.5093 72.8207 37.104 72.9487 36.8C73.0767 36.496 73.2874 36.2773 73.5807 36.144C73.874 36.0107 74.266 35.944 74.7567 35.944Z" fill="white"/>
<path d="M78.7628 37.432C79.2268 37.432 79.5895 37.472 79.8508 37.552C80.1175 37.6267 80.3068 37.76 80.4188 37.952C80.5308 38.1387 80.5868 38.4 80.5868 38.736C80.5868 39.0773 80.5308 39.344 80.4188 39.536C80.3068 39.7227 80.1308 39.856 79.8908 39.936C79.6508 40.0107 79.3388 40.048 78.9548 40.048C78.6668 40.048 78.4135 40.0453 78.1948 40.04C77.9762 40.04 77.7762 40.0347 77.5948 40.024C77.4188 40.0187 77.2348 40.0107 77.0428 40L77.1388 39.216C77.2402 39.2213 77.4375 39.2267 77.7308 39.232C78.0242 39.2373 78.3682 39.24 78.7628 39.24C78.9228 39.24 79.0482 39.2267 79.1388 39.2C79.2348 39.1733 79.3015 39.12 79.3388 39.04C79.3762 38.96 79.3948 38.8453 79.3948 38.696C79.3948 38.552 79.3762 38.44 79.3388 38.36C79.3068 38.28 79.2455 38.2267 79.1548 38.2C79.0642 38.168 78.9335 38.152 78.7628 38.152H77.1308V37.432H78.7628ZM78.1468 36.048V40H77.0028V36.048H78.1468Z" fill="white"/>
<path d="M85.0592 36.048C84.9632 36.3467 84.8805 36.6 84.8111 36.808C84.7418 37.016 84.6725 37.1893 84.6031 37.328C84.5391 37.4613 84.4671 37.568 84.3871 37.648C84.3071 37.728 84.2058 37.7893 84.0831 37.832C83.9658 37.8747 83.8192 37.9067 83.6432 37.928V37.96C83.8245 37.9867 83.9765 38.0213 84.0992 38.064C84.2272 38.1013 84.3365 38.1627 84.4271 38.248C84.5178 38.328 84.6005 38.44 84.6751 38.584C84.7498 38.728 84.8272 38.9147 84.9072 39.144C84.9872 39.3733 85.0805 39.6587 85.1871 40H83.9551C83.8591 39.7013 83.7765 39.4533 83.7071 39.256C83.6431 39.0587 83.5818 38.8987 83.5231 38.776C83.4645 38.6533 83.4005 38.5627 83.3311 38.504C83.2671 38.4453 83.1898 38.408 83.0992 38.392C83.0138 38.3707 82.9072 38.36 82.7792 38.36L82.7631 37.552C82.9231 37.552 83.0538 37.5307 83.1552 37.488C83.2565 37.4453 83.3418 37.3707 83.4111 37.264C83.4858 37.152 83.5551 37 83.6191 36.808C83.6885 36.6107 83.7685 36.3573 83.8591 36.048H85.0592ZM82.5071 36.048V37.064C82.5071 37.208 82.4912 37.3573 82.4592 37.512C82.4325 37.6613 82.3925 37.8 82.3391 37.928C82.3871 38.0507 82.4272 38.184 82.4592 38.328C82.4912 38.4667 82.5071 38.592 82.5071 38.704V40H81.3232V36.048H82.5071ZM83.0751 37.552V38.36H82.2112V37.552H83.0751Z" fill="white"/>
<path d="M89.7266 36.048V40L88.6626 40.008V37.936C88.6626 37.8293 88.6653 37.7253 88.6706 37.624C88.6813 37.5227 88.6946 37.4133 88.7106 37.296H88.6786C88.6466 37.392 88.6013 37.496 88.5426 37.608C88.4839 37.7147 88.4279 37.808 88.3746 37.888L86.8786 40H85.8466V36.048H86.9026V38.176C86.9026 38.272 86.8999 38.368 86.8946 38.464C86.8893 38.5547 86.8786 38.6533 86.8626 38.76H86.8866C86.9293 38.6587 86.9746 38.5653 87.0226 38.48C87.0759 38.3893 87.1293 38.304 87.1826 38.224L88.7026 36.048H89.7266Z" fill="white"/>
<path d="M94.6094 36.048V40L93.5454 40.008V37.936C93.5454 37.8293 93.5481 37.7253 93.5534 37.624C93.5641 37.5227 93.5774 37.4133 93.5934 37.296H93.5614C93.5294 37.392 93.4841 37.496 93.4254 37.608C93.3667 37.7147 93.3107 37.808 93.2574 37.888L91.7614 40H90.7294V36.048H91.7854V38.176C91.7854 38.272 91.7827 38.368 91.7774 38.464C91.7721 38.5547 91.7614 38.6533 91.7454 38.76H91.7694C91.8121 38.6587 91.8574 38.5653 91.9054 38.48C91.9587 38.3893 92.0121 38.304 92.0654 38.224L93.5854 36.048H94.6094ZM93.2094 34.304H93.9774C94.0094 34.5227 93.9747 34.7253 93.8734 34.912C93.7774 35.0987 93.6254 35.2507 93.4174 35.368C93.2147 35.4853 92.9667 35.544 92.6734 35.544C92.3801 35.544 92.1294 35.4853 91.9214 35.368C91.7134 35.2507 91.5587 35.0987 91.4574 34.912C91.3561 34.7253 91.3187 34.5227 91.3454 34.304H92.1214C92.1054 34.5387 92.1454 34.7093 92.2414 34.816C92.3427 34.9173 92.4867 34.968 92.6734 34.968C92.8547 34.968 92.9934 34.9173 93.0894 34.816C93.1854 34.7093 93.2254 34.5387 93.2094 34.304Z" fill="white"/>
<path d="M101.131 36.048V40H99.9708V36.048H101.131ZM98.4908 36.048V40H97.3388V36.048H98.4908ZM100.051 36.048L100.043 36.872H98.4428V36.048H100.051Z" fill="white"/>
<path d="M103.992 35.944C104.488 35.944 104.885 36.0133 105.184 36.152C105.483 36.2853 105.696 36.504 105.824 36.808C105.957 37.112 106.024 37.52 106.024 38.032C106.024 38.5333 105.957 38.936 105.824 39.24C105.696 39.544 105.483 39.7627 105.184 39.896C104.885 40.0293 104.488 40.096 103.992 40.096C103.496 40.096 103.099 40.0293 102.8 39.896C102.501 39.7627 102.285 39.544 102.152 39.24C102.019 38.936 101.952 38.5333 101.952 38.032C101.952 37.52 102.019 37.112 102.152 36.808C102.285 36.504 102.501 36.2853 102.8 36.152C103.099 36.0133 103.496 35.944 103.992 35.944ZM103.992 36.808C103.789 36.808 103.629 36.8427 103.512 36.912C103.395 36.9813 103.312 37.104 103.264 37.28C103.216 37.456 103.192 37.7067 103.192 38.032C103.192 38.352 103.216 38.6 103.264 38.776C103.312 38.952 103.395 39.0747 103.512 39.144C103.629 39.208 103.789 39.24 103.992 39.24C104.195 39.24 104.355 39.208 104.472 39.144C104.589 39.0747 104.669 38.952 104.712 38.776C104.76 38.6 104.784 38.352 104.784 38.032C104.784 37.7067 104.76 37.456 104.712 37.28C104.669 37.104 104.589 36.9813 104.472 36.912C104.355 36.8427 104.195 36.808 103.992 36.808Z" fill="white"/>
<path d="M110.432 36.048V36.864H108.832C108.698 36.864 108.6 36.896 108.536 36.96C108.472 37.0187 108.432 37.1147 108.416 37.248C108.389 37.4667 108.36 37.688 108.328 37.912C108.301 38.1307 108.272 38.3413 108.24 38.544C108.208 38.7413 108.17 38.912 108.128 39.056C108.069 39.3387 107.96 39.5573 107.8 39.712C107.645 39.8613 107.456 39.96 107.232 40.008C107.013 40.0613 106.773 40.072 106.512 40.04L106.392 39.168C106.514 39.1413 106.621 39.1147 106.712 39.088C106.802 39.0613 106.874 39.0213 106.928 38.968C106.986 38.9147 107.032 38.8373 107.064 38.736C107.096 38.6453 107.125 38.5387 107.152 38.416C107.178 38.288 107.202 38.1493 107.224 38C107.245 37.8507 107.264 37.6933 107.28 37.528C107.296 37.3627 107.312 37.1973 107.328 37.032C107.36 36.7067 107.458 36.4613 107.624 36.296C107.794 36.1307 108.048 36.048 108.384 36.048H110.432ZM110.536 36.048V40H109.36V36.048H110.536Z" fill="white"/>
<path d="M112.75 36.048V40H111.566V36.048H112.75ZM112.422 34.304C112.651 34.304 112.766 34.424 112.766 34.664V35.088C112.766 35.328 112.651 35.448 112.422 35.448H111.902C111.667 35.448 111.55 35.328 111.55 35.088V34.664C111.55 34.424 111.667 34.304 111.902 34.304H112.422Z" fill="white"/>
<path d="M115.928 36.048V40H114.744V36.048H115.928ZM117.24 36.048V36.96H113.424V36.048H117.24Z" fill="white"/>
<path d="M119.71 35.944C120.382 35.944 120.862 36.0587 121.15 36.288C121.438 36.512 121.585 36.848 121.59 37.296C121.596 37.6587 121.505 37.9307 121.318 38.112C121.132 38.288 120.809 38.376 120.35 38.376H118.134V37.712H120.022C120.198 37.712 120.313 37.6747 120.366 37.6C120.42 37.52 120.444 37.4107 120.438 37.272C120.438 37.0853 120.385 36.9573 120.278 36.888C120.177 36.8133 120.001 36.776 119.75 36.776C119.532 36.776 119.361 36.8053 119.238 36.864C119.121 36.9227 119.038 37.0347 118.99 37.2C118.942 37.3653 118.918 37.6053 118.918 37.92C118.918 38.2507 118.948 38.5067 119.006 38.688C119.065 38.864 119.164 38.9867 119.302 39.056C119.446 39.1253 119.641 39.16 119.886 39.16C120.073 39.16 120.3 39.1547 120.566 39.144C120.838 39.128 121.11 39.104 121.382 39.072L121.486 39.8C121.337 39.8747 121.164 39.9333 120.966 39.976C120.769 40.0187 120.566 40.048 120.358 40.064C120.15 40.0853 119.948 40.096 119.75 40.096C119.254 40.096 118.852 40.024 118.542 39.88C118.238 39.7307 118.017 39.504 117.878 39.2C117.745 38.896 117.678 38.5067 117.678 38.032C117.678 37.5147 117.748 37.104 117.886 36.8C118.025 36.496 118.244 36.2773 118.542 36.144C118.841 36.0107 119.23 35.944 119.71 35.944Z" fill="white"/>
<path d="M126.188 36.048L125.044 37.976L126.276 40H125.068L123.908 37.976L124.988 36.048H126.188ZM123.188 36.048L124.268 37.976L123.1 40H121.892L123.124 37.976L121.988 36.048H123.188ZM124.716 37.592V38.328H123.468V37.592H124.716Z" fill="white"/>
<path d="M128.03 36.048V40H126.862V36.048H128.03ZM129.614 37.512V38.32H127.982V37.512H129.614ZM130.71 36.048V40H129.542V36.048H130.71Z" fill="white"/>
<path d="M132.922 36.048V40H131.738V36.048H132.922ZM132.594 34.304C132.823 34.304 132.938 34.424 132.938 34.664V35.088C132.938 35.328 132.823 35.448 132.594 35.448H132.074C131.839 35.448 131.722 35.328 131.722 35.088V34.664C131.722 34.424 131.839 34.304 132.074 34.304H132.594Z" fill="white"/>
<path d="M134.972 36.048V37.496C134.972 37.6347 135.001 37.7333 135.06 37.792C135.124 37.8507 135.228 37.88 135.372 37.88C135.537 37.88 135.7 37.864 135.86 37.832C136.025 37.8 136.209 37.7387 136.412 37.648L136.54 38.432C136.289 38.5387 136.025 38.6213 135.748 38.68C135.471 38.7333 135.212 38.76 134.972 38.76C134.572 38.76 134.276 38.688 134.084 38.544C133.892 38.3947 133.796 38.1653 133.796 37.856V36.048H134.972ZM137.5 36.048V40H136.316V36.048H137.5Z" fill="white"/>
<path d="M139.671 36.048V40H138.503V36.048H139.671ZM141.255 37.512V38.32H139.623V37.512H141.255ZM142.351 36.048V40H141.183V36.048H142.351Z" fill="white"/>
<path d="M147.227 36.048V40L146.163 40.008V37.936C146.163 37.8293 146.165 37.7253 146.171 37.624C146.181 37.5227 146.195 37.4133 146.211 37.296H146.179C146.147 37.392 146.101 37.496 146.043 37.608C145.984 37.7147 145.928 37.808 145.875 37.888L144.379 40H143.347V36.048H144.403V38.176C144.403 38.272 144.4 38.368 144.395 38.464C144.389 38.5547 144.379 38.6533 144.363 38.76H144.387C144.429 38.6587 144.475 38.5653 144.523 38.48C144.576 38.3893 144.629 38.304 144.683 38.224L146.203 36.048H147.227Z" fill="white"/>
<path d="M152.109 36.048V40L151.045 40.008V37.936C151.045 37.8293 151.048 37.7253 151.053 37.624C151.064 37.5227 151.077 37.4133 151.093 37.296H151.061C151.029 37.392 150.984 37.496 150.925 37.608C150.867 37.7147 150.811 37.808 150.757 37.888L149.261 40H148.229V36.048H149.285V38.176C149.285 38.272 149.283 38.368 149.277 38.464C149.272 38.5547 149.261 38.6533 149.245 38.76H149.269C149.312 38.6587 149.357 38.5653 149.405 38.48C149.459 38.3893 149.512 38.304 149.565 38.224L151.085 36.048H152.109ZM150.709 34.304H151.477C151.509 34.5227 151.475 34.7253 151.373 34.912C151.277 35.0987 151.125 35.2507 150.917 35.368C150.715 35.4853 150.467 35.544 150.173 35.544C149.88 35.544 149.629 35.4853 149.421 35.368C149.213 35.2507 149.059 35.0987 148.957 34.912C148.856 34.7253 148.819 34.5227 148.845 34.304H149.621C149.605 34.5387 149.645 34.7093 149.741 34.816C149.843 34.9173 149.987 34.968 150.173 34.968C150.355 34.968 150.493 34.9173 150.589 34.816C150.685 34.7093 150.725 34.5387 150.709 34.304Z" fill="white"/>
<path d="M156.055 36.048V40H154.871V36.048H156.055ZM155.727 34.304C155.956 34.304 156.071 34.424 156.071 34.664V35.088C156.071 35.328 155.956 35.448 155.727 35.448H155.207C154.972 35.448 154.855 35.328 154.855 35.088V34.664C154.855 34.424 154.972 34.304 155.207 34.304H155.727Z" fill="white"/>
<path d="M158.249 36.048V40H157.081V36.048H158.249ZM159.833 37.512V38.32H158.201V37.512H159.833ZM160.929 36.048V40H159.761V36.048H160.929Z" fill="white"/>
<path d="M163.757 35.944C163.895 35.944 164.05 35.952 164.221 35.968C164.397 35.9787 164.57 36.0027 164.741 36.04C164.917 36.072 165.077 36.12 165.221 36.184L165.093 36.928C164.874 36.9227 164.669 36.9173 164.477 36.912C164.285 36.9067 164.111 36.904 163.957 36.904C163.717 36.904 163.525 36.936 163.381 37C163.242 37.064 163.143 37.1787 163.085 37.344C163.026 37.504 162.997 37.728 162.997 38.016C162.997 38.3093 163.026 38.5387 163.085 38.704C163.143 38.8693 163.242 38.984 163.381 39.048C163.525 39.112 163.717 39.144 163.957 39.144C164.042 39.144 164.151 39.1413 164.285 39.136C164.418 39.1307 164.562 39.1253 164.717 39.12C164.871 39.1093 165.023 39.0933 165.173 39.072L165.285 39.824C165.071 39.92 164.829 39.9893 164.557 40.032C164.285 40.0747 164.015 40.096 163.749 40.096C163.258 40.096 162.866 40.0293 162.573 39.896C162.285 39.7573 162.077 39.536 161.949 39.232C161.821 38.928 161.757 38.5227 161.757 38.016C161.757 37.5093 161.821 37.104 161.949 36.8C162.077 36.496 162.287 36.2773 162.581 36.144C162.874 36.0107 163.266 35.944 163.757 35.944Z" fill="white"/>
<path d="M168.155 36.048V40H166.971V36.048H168.155ZM169.467 36.048V36.96H165.651V36.048H169.467Z" fill="white"/>
<path d="M173.992 36.048V40L172.928 40.008V37.936C172.928 37.8293 172.931 37.7253 172.936 37.624C172.947 37.5227 172.96 37.4133 172.976 37.296H172.944C172.912 37.392 172.867 37.496 172.808 37.608C172.75 37.7147 172.694 37.808 172.64 37.888L171.144 40H170.112V36.048H171.168V38.176C171.168 38.272 171.166 38.368 171.16 38.464C171.155 38.5547 171.144 38.6533 171.128 38.76H171.152C171.195 38.6587 171.24 38.5653 171.288 38.48C171.342 38.3893 171.395 38.304 171.448 38.224L172.968 36.048H173.992Z" fill="white"/>
<path d="M177.147 36.048V40H175.963V36.048H177.147ZM178.459 36.048V36.96H174.643V36.048H178.459Z" fill="white"/>
<path d="M183.072 36.048L181.656 40.048C181.582 40.2987 181.486 40.5147 181.368 40.696C181.256 40.8773 181.128 41.0293 180.984 41.152C180.84 41.28 180.678 41.384 180.496 41.464C180.272 41.576 180.027 41.6373 179.76 41.648C179.494 41.6587 179.222 41.64 178.944 41.592L179.04 40.824C179.27 40.8293 179.472 40.8187 179.648 40.792C179.824 40.7707 179.976 40.7227 180.104 40.648C180.206 40.584 180.299 40.4907 180.384 40.368C180.47 40.2507 180.539 40.1227 180.592 39.984L180.808 39.472C180.862 39.3493 180.91 39.2053 180.952 39.04C180.995 38.8747 181.032 38.7307 181.064 38.608L181.808 36.048H183.072ZM179.936 36.048L180.688 38.608C180.71 38.7093 180.731 38.8107 180.752 38.912C180.774 39.0133 180.792 39.1147 180.808 39.216H181.024L180.648 40H180.36C180.264 40 180.182 39.9733 180.112 39.92C180.048 39.8667 180 39.7973 179.968 39.712L178.672 36.048H179.936Z" fill="white"/>
<path d="M185.795 36.048V40H184.611V36.048H185.795ZM187.107 36.048V36.96H183.291V36.048H187.107Z" fill="white"/>
<path d="M53.1407 46.048V50H51.9567V46.048H53.1407ZM52.8127 44.304C53.042 44.304 53.1567 44.424 53.1567 44.664V45.088C53.1567 45.328 53.042 45.448 52.8127 45.448H52.2927C52.058 45.448 51.9407 45.328 51.9407 45.088V44.664C51.9407 44.424 52.058 44.304 52.2927 44.304H52.8127Z" fill="white"/>
<path d="M58.9829 46.048C59.2496 46.048 59.3856 46.1867 59.3909 46.464L59.5189 50H58.4389L58.3269 46.92H58.2149L57.5509 49.128C57.5296 49.2453 57.4816 49.336 57.4069 49.4C57.3322 49.464 57.2309 49.496 57.1029 49.496H56.5109C56.3829 49.496 56.2816 49.464 56.2069 49.4C56.1322 49.336 56.0816 49.2453 56.0549 49.128L55.3909 46.92H55.2789L55.1829 50H54.1029L54.2229 46.464C54.2282 46.1867 54.3696 46.048 54.6469 46.048H55.6869C55.8096 46.048 55.9082 46.08 55.9829 46.144C56.0576 46.208 56.1056 46.3013 56.1269 46.424L56.6469 48.168C56.6789 48.264 56.7029 48.36 56.7189 48.456C56.7349 48.552 56.7482 48.6507 56.7589 48.752H56.8469C56.8682 48.6453 56.8842 48.5467 56.8949 48.456C56.9109 48.36 56.9322 48.264 56.9589 48.168L57.4709 46.424C57.5189 46.1733 57.6682 46.048 57.9189 46.048H58.9829Z" fill="white"/>
<path d="M62.2963 45.944C62.9683 45.944 63.4483 46.0587 63.7363 46.288C64.0243 46.512 64.171 46.848 64.1763 47.296C64.1817 47.6587 64.091 47.9307 63.9043 48.112C63.7177 48.288 63.395 48.376 62.9363 48.376H60.7203V47.712H62.6083C62.7843 47.712 62.899 47.6747 62.9523 47.6C63.0057 47.52 63.0297 47.4107 63.0243 47.272C63.0243 47.0853 62.971 46.9573 62.8643 46.888C62.763 46.8133 62.587 46.776 62.3363 46.776C62.1177 46.776 61.947 46.8053 61.8243 46.864C61.707 46.9227 61.6243 47.0347 61.5763 47.2C61.5283 47.3653 61.5043 47.6053 61.5043 47.92C61.5043 48.2507 61.5337 48.5067 61.5923 48.688C61.651 48.864 61.7497 48.9867 61.8883 49.056C62.0323 49.1253 62.227 49.16 62.4723 49.16C62.659 49.16 62.8857 49.1547 63.1523 49.144C63.4243 49.128 63.6963 49.104 63.9683 49.072L64.0723 49.8C63.923 49.8747 63.7497 49.9333 63.5523 49.976C63.355 50.0187 63.1523 50.048 62.9443 50.064C62.7363 50.0853 62.5337 50.096 62.3363 50.096C61.8403 50.096 61.4377 50.024 61.1283 49.88C60.8243 49.7307 60.603 49.504 60.4643 49.2C60.331 48.896 60.2643 48.5067 60.2643 48.032C60.2643 47.5147 60.3337 47.104 60.4723 46.8C60.611 46.496 60.8297 46.2773 61.1283 46.144C61.427 46.0107 61.8163 45.944 62.2963 45.944Z" fill="white"/>
<path d="M66.1318 46.048V50H64.9638V46.048H66.1318ZM67.7158 47.512V48.32H66.0838V47.512H67.7158ZM68.8118 46.048V50H67.6438V46.048H68.8118Z" fill="white"/>
<path d="M71.0235 46.048V50H69.8395V46.048H71.0235ZM70.6955 44.304C70.9249 44.304 71.0395 44.424 71.0395 44.664V45.088C71.0395 45.328 70.9249 45.448 70.6955 45.448H70.1755C69.9409 45.448 69.8235 45.328 69.8235 45.088V44.664C69.8235 44.424 69.9409 44.304 70.1755 44.304H70.6955Z" fill="white"/>
<path d="M75.0723 44.48V50H73.8563V44.48H75.0723Z" fill="white"/>
<path d="M77.1435 46.008C77.5008 46.008 77.8688 46.0133 78.2475 46.024C78.6261 46.0293 78.9701 46.0587 79.2795 46.112L79.2315 46.936H77.6715C77.5381 46.936 77.4421 46.9653 77.3835 47.024C77.3248 47.0773 77.2955 47.168 77.2955 47.296V50H76.1275V46.968C76.1275 46.6427 76.2101 46.4027 76.3755 46.248C76.5461 46.088 76.8021 46.008 77.1435 46.008Z" fill="white"/>
<path d="M81.7264 45.944C82.2224 45.944 82.6197 46.0133 82.9184 46.152C83.2171 46.2853 83.4304 46.504 83.5584 46.808C83.6917 47.112 83.7584 47.52 83.7584 48.032C83.7584 48.5333 83.6917 48.936 83.5584 49.24C83.4304 49.544 83.2171 49.7627 82.9184 49.896C82.6197 50.0293 82.2224 50.096 81.7264 50.096C81.2304 50.096 80.8331 50.0293 80.5344 49.896C80.2357 49.7627 80.0197 49.544 79.8864 49.24C79.7531 48.936 79.6864 48.5333 79.6864 48.032C79.6864 47.52 79.7531 47.112 79.8864 46.808C80.0197 46.504 80.2357 46.2853 80.5344 46.152C80.8331 46.0133 81.2304 45.944 81.7264 45.944ZM81.7264 46.808C81.5237 46.808 81.3637 46.8427 81.2464 46.912C81.1291 46.9813 81.0464 47.104 80.9984 47.28C80.9504 47.456 80.9264 47.7067 80.9264 48.032C80.9264 48.352 80.9504 48.6 80.9984 48.776C81.0464 48.952 81.1291 49.0747 81.2464 49.144C81.3637 49.208 81.5237 49.24 81.7264 49.24C81.9291 49.24 82.0891 49.208 82.2064 49.144C82.3237 49.0747 82.4037 48.952 82.4464 48.776C82.4944 48.6 82.5184 48.352 82.5184 48.032C82.5184 47.7067 82.4944 47.456 82.4464 47.28C82.4037 47.104 82.3237 46.9813 82.2064 46.912C82.0891 46.8427 81.9291 46.808 81.7264 46.808Z" fill="white"/>
<path d="M87.181 45.952C87.6823 45.952 88.0396 46.1333 88.253 46.496C88.4663 46.8587 88.573 47.3787 88.573 48.056C88.573 48.584 88.517 48.9973 88.405 49.296C88.293 49.5947 88.125 49.8053 87.901 49.928C87.6823 50.0453 87.4076 50.104 87.077 50.104C86.7996 50.104 86.5303 50.064 86.269 49.984C86.013 49.904 85.789 49.7707 85.597 49.584L85.669 49.056C85.8503 49.1093 86.013 49.1573 86.157 49.2C86.301 49.2373 86.4663 49.256 86.653 49.256C86.8236 49.256 86.9596 49.2267 87.061 49.168C87.1623 49.1093 87.2343 48.9947 87.277 48.824C87.325 48.648 87.349 48.3947 87.349 48.064C87.349 47.7387 87.3276 47.4907 87.285 47.32C87.2423 47.144 87.173 47.024 87.077 46.96C86.9863 46.8907 86.8636 46.856 86.709 46.856C86.533 46.856 86.373 46.8907 86.229 46.96C86.085 47.024 85.9223 47.1173 85.741 47.24L85.589 46.696C85.6956 46.552 85.8316 46.424 85.997 46.312C86.1676 46.2 86.3543 46.112 86.557 46.048C86.7596 45.984 86.9676 45.952 87.181 45.952ZM85.541 46.048L85.661 46.768L85.765 46.888V49.456L85.725 49.552C85.741 49.712 85.7516 49.8773 85.757 50.048C85.7676 50.224 85.7703 50.3973 85.765 50.568V51.52H84.589V46.048H85.541Z" fill="white"/>
<path d="M91.0173 45.976C91.3586 45.976 91.6386 45.9787 91.8573 45.984C92.0759 45.984 92.2679 45.9893 92.4333 46C92.5986 46.0053 92.7639 46.016 92.9293 46.032L92.8253 46.856C92.7773 46.8453 92.5959 46.8373 92.2813 46.832C91.9666 46.8267 91.5533 46.824 91.0413 46.824C90.8119 46.824 90.6599 46.8613 90.5853 46.936C90.5106 47.0107 90.4733 47.136 90.4733 47.312C90.4733 47.536 90.5106 47.6907 90.5853 47.776C90.6653 47.8613 90.8226 47.904 91.0573 47.904H92.8333L92.8573 48.64C92.7719 48.64 92.6599 48.6427 92.5213 48.648C92.3826 48.6533 92.1986 48.656 91.9693 48.656C91.7399 48.656 91.4439 48.656 91.0813 48.656C90.9319 48.656 90.8173 48.68 90.7373 48.728C90.6626 48.7707 90.6119 48.8427 90.5853 48.944L90.3213 50H89.1133L89.4333 48.776C89.4706 48.6587 89.5319 48.5707 89.6173 48.512C89.7079 48.448 89.8066 48.4027 89.9133 48.376C90.0199 48.3493 90.1159 48.3307 90.2013 48.32V48.288C89.9773 48.2453 89.8013 48.1733 89.6733 48.072C89.5453 47.9707 89.4546 47.8453 89.4013 47.696C89.3479 47.5467 89.3213 47.384 89.3213 47.208C89.3213 46.984 89.3453 46.7947 89.3933 46.64C89.4466 46.48 89.5346 46.352 89.6573 46.256C89.7853 46.1547 89.9586 46.0827 90.1773 46.04C90.4013 45.9973 90.6813 45.976 91.0173 45.976ZM92.9293 46.032V50H91.7773V46.032H92.9293Z" fill="white"/>
<path d="M97.8673 44.384C98.1286 44.384 98.3499 44.392 98.5313 44.408C98.7179 44.4187 98.8886 44.4373 99.0433 44.464C99.1979 44.4907 99.3579 44.528 99.5233 44.576L99.4273 45.472C99.2513 45.4613 99.0886 45.4533 98.9393 45.448C98.7953 45.4427 98.6379 45.44 98.4673 45.44C98.3019 45.4347 98.1019 45.432 97.8673 45.432C97.5953 45.432 97.3819 45.4853 97.2273 45.592C97.0779 45.6987 96.9713 45.8853 96.9073 46.152C96.8433 46.4133 96.8113 46.776 96.8113 47.24C96.8113 47.704 96.8433 48.0693 96.9073 48.336C96.9713 48.5973 97.0779 48.7813 97.2273 48.888C97.3819 48.9947 97.5953 49.048 97.8673 49.048C98.2353 49.048 98.5446 49.0427 98.7953 49.032C99.0459 49.0213 99.2939 49.0027 99.5393 48.976L99.6433 49.872C99.3873 49.952 99.1259 50.008 98.8593 50.04C98.5926 50.0773 98.2619 50.096 97.8673 50.096C97.2966 50.096 96.8379 50.0053 96.4913 49.824C96.1499 49.6373 95.9019 49.336 95.7473 48.92C95.5979 48.504 95.5233 47.944 95.5233 47.24C95.5233 46.536 95.5979 45.976 95.7473 45.56C95.9019 45.144 96.1499 44.8453 96.4913 44.664C96.8379 44.4773 97.2966 44.384 97.8673 44.384Z" fill="white"/>
<path d="M101.57 46.048V50H100.386V46.048H101.57ZM101.242 44.304C101.472 44.304 101.586 44.424 101.586 44.664V45.088C101.586 45.328 101.472 45.448 101.242 45.448H100.722C100.488 45.448 100.37 45.328 100.37 45.088V44.664C100.37 44.424 100.488 44.304 100.722 44.304H101.242Z" fill="white"/>
<path d="M106.333 46.048C106.237 46.3467 106.154 46.6 106.085 46.808C106.015 47.016 105.946 47.1893 105.877 47.328C105.813 47.4613 105.741 47.568 105.661 47.648C105.581 47.728 105.479 47.7893 105.357 47.832C105.239 47.8747 105.093 47.9067 104.917 47.928V47.96C105.098 47.9867 105.25 48.0213 105.373 48.064C105.501 48.1013 105.61 48.1627 105.701 48.248C105.791 48.328 105.874 48.44 105.949 48.584C106.023 48.728 106.101 48.9147 106.181 49.144C106.261 49.3733 106.354 49.6587 106.461 50H105.229C105.133 49.7013 105.05 49.4533 104.981 49.256C104.917 49.0587 104.855 48.8987 104.797 48.776C104.738 48.6533 104.674 48.5627 104.605 48.504C104.541 48.4453 104.463 48.408 104.373 48.392C104.287 48.3707 104.181 48.36 104.053 48.36L104.037 47.552C104.197 47.552 104.327 47.5307 104.429 47.488C104.53 47.4453 104.615 47.3707 104.685 47.264C104.759 47.152 104.829 47 104.893 46.808C104.962 46.6107 105.042 46.3573 105.133 46.048H106.333ZM103.781 46.048V47.064C103.781 47.208 103.765 47.3573 103.733 47.512C103.706 47.6613 103.666 47.8 103.613 47.928C103.661 48.0507 103.701 48.184 103.733 48.328C103.765 48.4667 103.781 48.592 103.781 48.704V50H102.597V46.048H103.781ZM104.349 47.552V48.36H103.485V47.552H104.349Z" fill="white"/>
<path d="M108.953 45.944C109.449 45.944 109.846 46.0133 110.145 46.152C110.444 46.2853 110.657 46.504 110.785 46.808C110.918 47.112 110.985 47.52 110.985 48.032C110.985 48.5333 110.918 48.936 110.785 49.24C110.657 49.544 110.444 49.7627 110.145 49.896C109.846 50.0293 109.449 50.096 108.953 50.096C108.457 50.096 108.06 50.0293 107.761 49.896C107.462 49.7627 107.246 49.544 107.113 49.24C106.98 48.936 106.913 48.5333 106.913 48.032C106.913 47.52 106.98 47.112 107.113 46.808C107.246 46.504 107.462 46.2853 107.761 46.152C108.06 46.0133 108.457 45.944 108.953 45.944ZM108.953 46.808C108.75 46.808 108.59 46.8427 108.473 46.912C108.356 46.9813 108.273 47.104 108.225 47.28C108.177 47.456 108.153 47.7067 108.153 48.032C108.153 48.352 108.177 48.6 108.225 48.776C108.273 48.952 108.356 49.0747 108.473 49.144C108.59 49.208 108.75 49.24 108.953 49.24C109.156 49.24 109.316 49.208 109.433 49.144C109.55 49.0747 109.63 48.952 109.673 48.776C109.721 48.6 109.745 48.352 109.745 48.032C109.745 47.7067 109.721 47.456 109.673 47.28C109.63 47.104 109.55 46.9813 109.433 46.912C109.316 46.8427 109.156 46.808 108.953 46.808Z" fill="white"/>
<path d="M114.408 45.952C114.909 45.952 115.266 46.1333 115.48 46.496C115.693 46.8587 115.8 47.3787 115.8 48.056C115.8 48.584 115.744 48.9973 115.632 49.296C115.52 49.5947 115.352 49.8053 115.128 49.928C114.909 50.0453 114.634 50.104 114.304 50.104C114.026 50.104 113.757 50.064 113.496 49.984C113.24 49.904 113.016 49.7707 112.824 49.584L112.896 49.056C113.077 49.1093 113.24 49.1573 113.384 49.2C113.528 49.2373 113.693 49.256 113.88 49.256C114.05 49.256 114.186 49.2267 114.288 49.168C114.389 49.1093 114.461 48.9947 114.504 48.824C114.552 48.648 114.576 48.3947 114.576 48.064C114.576 47.7387 114.554 47.4907 114.512 47.32C114.469 47.144 114.4 47.024 114.304 46.96C114.213 46.8907 114.09 46.856 113.936 46.856C113.76 46.856 113.6 46.8907 113.456 46.96C113.312 47.024 113.149 47.1173 112.968 47.24L112.816 46.696C112.922 46.552 113.058 46.424 113.224 46.312C113.394 46.2 113.581 46.112 113.784 46.048C113.986 45.984 114.194 45.952 114.408 45.952ZM112.768 46.048L112.888 46.768L112.992 46.888V49.456L112.952 49.552C112.968 49.712 112.978 49.8773 112.984 50.048C112.994 50.224 112.997 50.3973 112.992 50.568V51.52H111.816V46.048H112.768Z" fill="white"/>
<path d="M118.46 45.944C118.599 45.944 118.753 45.952 118.924 45.968C119.1 45.9787 119.273 46.0027 119.444 46.04C119.62 46.072 119.78 46.12 119.924 46.184L119.796 46.928C119.577 46.9227 119.372 46.9173 119.18 46.912C118.988 46.9067 118.815 46.904 118.66 46.904C118.42 46.904 118.228 46.936 118.084 47C117.945 47.064 117.847 47.1787 117.788 47.344C117.729 47.504 117.7 47.728 117.7 48.016C117.7 48.3093 117.729 48.5387 117.788 48.704C117.847 48.8693 117.945 48.984 118.084 49.048C118.228 49.112 118.42 49.144 118.66 49.144C118.745 49.144 118.855 49.1413 118.988 49.136C119.121 49.1307 119.265 49.1253 119.42 49.12C119.575 49.1093 119.727 49.0933 119.876 49.072L119.988 49.824C119.775 49.92 119.532 49.9893 119.26 50.032C118.988 50.0747 118.719 50.096 118.452 50.096C117.961 50.096 117.569 50.0293 117.276 49.896C116.988 49.7573 116.78 49.536 116.652 49.232C116.524 48.928 116.46 48.5227 116.46 48.016C116.46 47.5093 116.524 47.104 116.652 46.8C116.78 46.496 116.991 46.2773 117.284 46.144C117.577 46.0107 117.969 45.944 118.46 45.944Z" fill="white"/>
<path d="M122.466 47.432C122.93 47.432 123.293 47.472 123.554 47.552C123.821 47.6267 124.01 47.76 124.122 47.952C124.234 48.1387 124.29 48.4 124.29 48.736C124.29 49.0773 124.234 49.344 124.122 49.536C124.01 49.7227 123.834 49.856 123.594 49.936C123.354 50.0107 123.042 50.048 122.658 50.048C122.37 50.048 122.117 50.0453 121.898 50.04C121.679 50.04 121.479 50.0347 121.298 50.024C121.122 50.0187 120.938 50.0107 120.746 50L120.842 49.216C120.943 49.2213 121.141 49.2267 121.434 49.232C121.727 49.2373 122.071 49.24 122.466 49.24C122.626 49.24 122.751 49.2267 122.842 49.2C122.938 49.1733 123.005 49.12 123.042 49.04C123.079 48.96 123.098 48.8453 123.098 48.696C123.098 48.552 123.079 48.44 123.042 48.36C123.01 48.28 122.949 48.2267 122.858 48.2C122.767 48.168 122.637 48.152 122.466 48.152H120.834V47.432H122.466ZM121.85 46.048V50H120.706V46.048H121.85Z" fill="white"/>
<path d="M128.762 46.048C128.666 46.3467 128.584 46.6 128.514 46.808C128.445 47.016 128.376 47.1893 128.306 47.328C128.242 47.4613 128.17 47.568 128.09 47.648C128.01 47.728 127.909 47.7893 127.786 47.832C127.669 47.8747 127.522 47.9067 127.346 47.928V47.96C127.528 47.9867 127.68 48.0213 127.802 48.064C127.93 48.1013 128.04 48.1627 128.13 48.248C128.221 48.328 128.304 48.44 128.378 48.584C128.453 48.728 128.53 48.9147 128.61 49.144C128.69 49.3733 128.784 49.6587 128.89 50H127.658C127.562 49.7013 127.48 49.4533 127.41 49.256C127.346 49.0587 127.285 48.8987 127.226 48.776C127.168 48.6533 127.104 48.5627 127.034 48.504C126.97 48.4453 126.893 48.408 126.802 48.392C126.717 48.3707 126.61 48.36 126.482 48.36L126.466 47.552C126.626 47.552 126.757 47.5307 126.858 47.488C126.96 47.4453 127.045 47.3707 127.114 47.264C127.189 47.152 127.258 47 127.322 46.808C127.392 46.6107 127.472 46.3573 127.562 46.048H128.762ZM126.21 46.048V47.064C126.21 47.208 126.194 47.3573 126.162 47.512C126.136 47.6613 126.096 47.8 126.042 47.928C126.09 48.0507 126.13 48.184 126.162 48.328C126.194 48.4667 126.21 48.592 126.21 48.704V50H125.026V46.048H126.21ZM126.778 47.552V48.36H125.914V47.552H126.778Z" fill="white"/>
<path d="M131.383 45.944C131.879 45.944 132.276 46.0133 132.575 46.152C132.873 46.2853 133.087 46.504 133.215 46.808C133.348 47.112 133.415 47.52 133.415 48.032C133.415 48.5333 133.348 48.936 133.215 49.24C133.087 49.544 132.873 49.7627 132.575 49.896C132.276 50.0293 131.879 50.096 131.383 50.096C130.887 50.096 130.489 50.0293 130.191 49.896C129.892 49.7627 129.676 49.544 129.543 49.24C129.409 48.936 129.343 48.5333 129.343 48.032C129.343 47.52 129.409 47.112 129.543 46.808C129.676 46.504 129.892 46.2853 130.191 46.152C130.489 46.0133 130.887 45.944 131.383 45.944ZM131.383 46.808C131.18 46.808 131.02 46.8427 130.903 46.912C130.785 46.9813 130.703 47.104 130.655 47.28C130.607 47.456 130.583 47.7067 130.583 48.032C130.583 48.352 130.607 48.6 130.655 48.776C130.703 48.952 130.785 49.0747 130.903 49.144C131.02 49.208 131.18 49.24 131.383 49.24C131.585 49.24 131.745 49.208 131.863 49.144C131.98 49.0747 132.06 48.952 132.103 48.776C132.151 48.6 132.175 48.352 132.175 48.032C132.175 47.7067 132.151 47.456 132.103 47.28C132.06 47.104 131.98 46.9813 131.863 46.912C131.745 46.8427 131.585 46.808 131.383 46.808Z" fill="white"/>
<path d="M135.237 46.008C135.595 46.008 135.963 46.0133 136.341 46.024C136.72 46.0293 137.064 46.0587 137.373 46.112L137.325 46.936H135.765C135.632 46.936 135.536 46.9653 135.477 47.024C135.419 47.0773 135.389 47.168 135.389 47.296V50H134.221V46.968C134.221 46.6427 134.304 46.4027 134.469 46.248C134.64 46.088 134.896 46.008 135.237 46.008Z" fill="white"/>
<path d="M139.82 45.944C140.316 45.944 140.713 46.0133 141.012 46.152C141.311 46.2853 141.524 46.504 141.652 46.808C141.785 47.112 141.852 47.52 141.852 48.032C141.852 48.5333 141.785 48.936 141.652 49.24C141.524 49.544 141.311 49.7627 141.012 49.896C140.713 50.0293 140.316 50.096 139.82 50.096C139.324 50.096 138.927 50.0293 138.628 49.896C138.329 49.7627 138.113 49.544 137.98 49.24C137.847 48.936 137.78 48.5333 137.78 48.032C137.78 47.52 137.847 47.112 137.98 46.808C138.113 46.504 138.329 46.2853 138.628 46.152C138.927 46.0133 139.324 45.944 139.82 45.944ZM139.82 46.808C139.617 46.808 139.457 46.8427 139.34 46.912C139.223 46.9813 139.14 47.104 139.092 47.28C139.044 47.456 139.02 47.7067 139.02 48.032C139.02 48.352 139.044 48.6 139.092 48.776C139.14 48.952 139.223 49.0747 139.34 49.144C139.457 49.208 139.617 49.24 139.82 49.24C140.023 49.24 140.183 49.208 140.3 49.144C140.417 49.0747 140.497 48.952 140.54 48.776C140.588 48.6 140.612 48.352 140.612 48.032C140.612 47.7067 140.588 47.456 140.54 47.28C140.497 47.104 140.417 46.9813 140.3 46.912C140.183 46.8427 140.023 46.808 139.82 46.808Z" fill="white"/>
<path d="M143.131 46.28L144.403 47.864V48.12L143.123 49.744L142.499 49.344L143.355 47.992L142.507 46.68L143.131 46.28ZM144.795 46.28L146.067 47.864V48.12L144.795 49.744L144.171 49.344L145.019 47.992L144.179 46.68L144.795 46.28Z" fill="white"/>
</svg>
