<svg viewBox="0 0 48 48" fill="none" xmlns="http://www.w3.org/2000/svg">
<path fill-rule="evenodd" clip-rule="evenodd" d="M48 6C48 2.68847 45.3115 0 42 0H6C2.68847 0 0 2.68847 0 6V42C0 45.3115 2.68847 48 6 48H42C45.3115 48 48 45.3115 48 42V6ZM5.72314 16.748H13.7631V40.932H5.72314V16.748ZM5.25 9.26661C5.25 6.89633 7.04728 5.08789 9.798 5.08789C12.5471 5.08789 14.2399 6.89633 14.2919 9.26661C14.2919 11.5871 12.5469 13.4454 9.74353 13.4454H9.69159C6.99262 13.4454 5.25 11.5871 5.25 9.26661ZM26.2503 20.1724C27.32 18.525 29.2303 16.1797 33.495 16.1797C38.7839 16.1797 42.75 19.6353 42.75 27.0638V40.9322H34.7117V27.9928C34.7117 24.7432 33.547 22.5247 30.6396 22.5247C28.4189 22.5247 27.0954 24.0202 26.5153 25.4639C26.3022 25.9806 26.2502 26.7033 26.2502 27.4262V40.9322H18.2124C18.2124 40.9322 18.319 19.0168 18.2124 16.7484H26.2503V20.1724Z" fill="#EFEFEF"/>
</svg>
