<svg  viewBox="0 0 48 48" fill="none" xmlns="http://www.w3.org/2000/svg">
<path d="M24 0C10.7452 4.9217e-05 4.9217e-05 10.7452 0 24C5.05716e-05 37.2548 10.7452 48 24 48C37.2548 48 48 37.2548 48 24C48 10.7452 37.2548 5.05716e-05 24 0ZM36.4321 10.7795C37.4072 10.7439 38.1453 11.6265 37.7497 13.2126L32.9945 35.6234C32.6625 37.2161 31.6996 37.5971 30.3664 36.8616L23.1216 31.5085C21.42 33.1629 19.8957 34.6447 19.639 34.8959C19.2354 35.2902 18.9139 35.6208 18.1892 35.6208C17.2501 35.6208 17.4099 35.2654 17.0859 34.3711L14.4208 26.2012L7.45557 24.0265C5.90825 23.5524 5.89699 22.4894 7.80304 21.7247L35.7301 10.9532C35.9693 10.8446 36.2071 10.7877 36.4321 10.7795ZM32.0024 15.5461C31.7923 15.5432 31.5069 15.6183 31.2131 15.7966L15.5144 25.7012L18.1592 33.812L18.683 28.2296L32.1258 16.1008C32.4946 15.7735 32.3524 15.551 32.0024 15.5461Z" fill="#EFEFEF"/>
</svg>
